<?xml version="1.0" encoding="utf-8" ?>
<svg baseProfile="full" height="500" version="1.1" width="900" xmlns="http://www.w3.org/2000/svg" xmlns:ev="http://www.w3.org/2001/xml-events" xmlns:xlink="http://www.w3.org/1999/xlink"><defs /><rect fill="#ffffff" height="500" width="900" x="0" y="0" /><text fill="#111827" font-family="-apple-system, 'Helvetica Neue', Arial, sans-serif" font-size="18" font-weight="600" text-anchor="middle" x="450" y="36">SR-IOV PF / VF 架構</text><rect fill="#fafbff" height="390" rx="12" ry="12" stroke="#c7d2fe" stroke-width="1.5" width="560" x="30" y="55" /><text fill="#6b7280" font-family="-apple-system, 'Helvetica Neue', Arial, sans-serif" font-size="12" font-weight="normal" text-anchor="start" x="80" y="78">實體主機</text><rect fill="#dbeafe" height="70" rx="8" ry="8" stroke="#3b82f6" stroke-width="1.5" width="180" x="80" y="90" /><text fill="#1d4ed8" font-family="-apple-system, 'Helvetica Neue', Arial, sans-serif" font-size="12" text-anchor="middle" x="170" y="113">網卡 PF</text><text fill="#1d4ed8" font-family="-apple-system, 'Helvetica Neue', Arial, sans-serif" font-size="12" text-anchor="middle" x="170" y="129">（Physical Function）</text><text fill="#1d4ed8" font-family="-apple-system, 'Helvetica Neue', Arial, sans-serif" font-size="12" text-anchor="middle" x="170" y="145">enp1s0f0</text><rect fill="#dcfce7" height="60" rx="8" ry="8" stroke="#22c55e" stroke-width="1.5" width="150" x="80" y="220" /><text fill="#166534" font-family="-apple-system, 'Helvetica Neue', Arial, sans-serif" font-size="12" text-anchor="middle" x="155" y="246">VF 0</text><text fill="#166534" font-family="-apple-system, 'Helvetica Neue', Arial, sans-serif" font-size="12" text-anchor="middle" x="155" y="262">（Virtual Function）</text><line stroke="#3b82f6" stroke-width="1.5" x1="155" x2="155" y1="160" y2="220" /><polygon fill="#3b82f6" points="155,220 150,210 160,210" /><rect fill="#dcfce7" height="60" rx="8" ry="8" stroke="#22c55e" stroke-width="1.5" width="150" x="280" y="220" /><text fill="#166534" font-family="-apple-system, 'Helvetica Neue', Arial, sans-serif" font-size="12" text-anchor="middle" x="355" y="246">VF 1</text><text fill="#166534" font-family="-apple-system, 'Helvetica Neue', Arial, sans-serif" font-size="12" text-anchor="middle" x="355" y="262">（Virtual Function）</text><line stroke="#3b82f6" stroke-width="1.5" x1="355" x2="355" y1="160" y2="220" /><polygon fill="#3b82f6" points="355,220 350,210 360,210" /><rect fill="#dcfce7" height="60" rx="8" ry="8" stroke="#22c55e" stroke-width="1.5" width="150" x="80" y="310" /><text fill="#166534" font-family="-apple-system, 'Helvetica Neue', Arial, sans-serif" font-size="12" text-anchor="middle" x="155" y="336">VF 2</text><text fill="#166534" font-family="-apple-system, 'Helvetica Neue', Arial, sans-serif" font-size="12" text-anchor="middle" x="155" y="352">（Virtual Function）</text><line stroke="#3b82f6" stroke-width="1.5" x1="155" x2="155" y1="160" y2="310" /><polygon fill="#3b82f6" points="155,310 150,300 160,300" /><rect fill="#dcfce7" height="60" rx="8" ry="8" stroke="#22c55e" stroke-width="1.5" width="150" x="280" y="310" /><text fill="#166534" font-family="-apple-system, 'Helvetica Neue', Arial, sans-serif" font-size="12" text-anchor="middle" x="355" y="336">VF 3</text><text fill="#166534" font-family="-apple-system, 'Helvetica Neue', Arial, sans-serif" font-size="12" text-anchor="middle" x="355" y="352">（Virtual Function）</text><line stroke="#3b82f6" stroke-width="1.5" x1="355" x2="355" y1="160" y2="310" /><polygon fill="#3b82f6" points="355,310 350,300 360,300" /><line stroke="#3b82f6" stroke-width="1.2" x1="170" x2="155" y1="160" y2="220" /><line stroke="#3b82f6" stroke-width="1.2" x1="170" x2="355" y1="160" y2="220" /><line stroke="#3b82f6" stroke-width="1.2" x1="170" x2="155" y1="160" y2="220" /><line stroke="#3b82f6" stroke-width="1.2" x1="170" x2="355" y1="160" y2="220" /><rect fill="#fef3c7" height="50" rx="8" ry="8" stroke="#f59e0b" stroke-width="1.5" width="180" x="80" y="390" /><text fill="#92400e" font-family="-apple-system, 'Helvetica Neue', Arial, sans-serif" font-size="12" text-anchor="middle" x="170" y="411">IOMMU</text><text fill="#92400e" font-family="-apple-system, 'Helvetica Neue', Arial, sans-serif" font-size="12" text-anchor="middle" x="170" y="427">（記憶體保護）</text><rect fill="#fee2e2" height="50" rx="8" ry="8" stroke="#ef4444" stroke-width="1.5" width="180" x="280" y="390" /><text fill="#991b1b" font-family="-apple-system, 'Helvetica Neue', Arial, sans-serif" font-size="12" text-anchor="middle" x="370" y="411">VFIO Driver</text><text fill="#991b1b" font-family="-apple-system, 'Helvetica Neue', Arial, sans-serif" font-size="12" text-anchor="middle" x="370" y="427">（使用者態存取）</text><line stroke="#3b82f6" stroke-width="1.2" x1="155" x2="170" y1="380" y2="440" /><line stroke="#3b82f6" stroke-width="1.2" x1="355" x2="170" y1="380" y2="440" /><line stroke="#3b82f6" stroke-width="1.5" x1="260" x2="280" y1="415" y2="415" /><polygon fill="#3b82f6" points="280,415 271,411 271,419" /><rect fill="#f0fdf4" height="240" rx="12" ry="12" stroke="#86efac" stroke-width="1.5" width="240" x="630" y="120" /><text fill="#6b7280" font-family="-apple-system, 'Helvetica Neue', Arial, sans-serif" font-size="12" font-weight="normal" text-anchor="middle" x="750" y="143">Kubernetes Pods</text><rect fill="#dcfce7" height="70" rx="8" ry="8" stroke="#22c55e" stroke-width="1.5" width="200" x="650" y="155" /><text fill="#166534" font-family="-apple-system, 'Helvetica Neue', Arial, sans-serif" font-size="13" text-anchor="middle" x="750" y="186">VM 1</text><text fill="#166534" font-family="-apple-system, 'Helvetica Neue', Arial, sans-serif" font-size="13" text-anchor="middle" x="750" y="203">（持有 VF 0）</text><rect fill="#dcfce7" height="70" rx="8" ry="8" stroke="#22c55e" stroke-width="1.5" width="200" x="650" y="255" /><text fill="#166534" font-family="-apple-system, 'Helvetica Neue', Arial, sans-serif" font-size="13" text-anchor="middle" x="750" y="286">VM 2</text><text fill="#166534" font-family="-apple-system, 'Helvetica Neue', Arial, sans-serif" font-size="13" text-anchor="middle" x="750" y="303">（持有 VF 1）</text><line stroke="#3b82f6" stroke-width="1.5" x1="460" x2="650" y1="190" y2="190" /><polygon fill="#3b82f6" points="650,190 641,186 641,194" /><text fill="#6b7280" font-family="-apple-system, 'Helvetica Neue', Arial, sans-serif" font-size="11" text-anchor="middle" x="555.0" y="183">直通 VF 給 VM</text><line stroke="#3b82f6" stroke-width="1.5" x1="460" x2="650" y1="290" y2="290" /><polygon fill="#3b82f6" points="650,290 641,286 641,294" /><text fill="#6b7280" font-family="-apple-system, 'Helvetica Neue', Arial, sans-serif" font-size="11" text-anchor="middle" x="555.0" y="283">直通 VF 給 VM</text></svg>