<svg xmlns="http://www.w3.org/2000/svg" viewBox="0 0 820 220" width="820" height="220">
  <defs>
    <marker id="arrow" markerWidth="9" markerHeight="7" refX="8" refY="3.5" orient="auto">
      <polygon points="0 0.5, 8.5 3.5, 0 6.5" fill="#3b82f6"/>
    </marker>
    <marker id="arrow2" markerWidth="9" markerHeight="7" refX="0.5" refY="3.5" orient="auto-start-reverse">
      <polygon points="0 0.5, 8.5 3.5, 0 6.5" fill="#3b82f6"/>
    </marker>
  </defs>
  <rect width="820" height="220" fill="#ffffff"/>
  <rect x="30" y="40" width="160" height="50" rx="6" fill="#f9fafb" stroke="#e5e7eb" stroke-width="1.5"/>
  <text x="110" y="66" text-anchor="middle" font-family="-apple-system, 'Helvetica Neue', Arial, sans-serif" font-size="14" font-weight="600" fill="#111827">VM 建立</text>
  <rect x="200" y="40" width="160" height="50" rx="6" fill="#f9fafb" stroke="#e5e7eb" stroke-width="1.5"/>
  <text x="280" y="66" text-anchor="middle" font-family="-apple-system, 'Helvetica Neue', Arial, sans-serif" font-size="14" font-weight="600" fill="#111827">自動建立 DataVolume</text>
  <rect x="400" y="40" width="160" height="50" rx="6" fill="#f9fafb" stroke="#e5e7eb" stroke-width="1.5"/>
  <text x="480" y="66" text-anchor="middle" font-family="-apple-system, 'Helvetica Neue', Arial, sans-serif" font-size="14" font-weight="600" fill="#111827">CDI 匯入資料</text>
  <rect x="590" y="40" width="160" height="50" rx="6" fill="#f9fafb" stroke="#e5e7eb" stroke-width="1.5"/>
  <text x="670" y="66" text-anchor="middle" font-family="-apple-system, 'Helvetica Neue', Arial, sans-serif" font-size="14" font-weight="600" fill="#111827">VM 啟動</text>
  <line x1="190" y1="65" x2="200" y2="65" stroke="#3b82f6" stroke-width="1.5" marker-end="url(#arrow)"/>
  <line x1="360" y1="65" x2="400" y2="65" stroke="#3b82f6" stroke-width="1.5" marker-end="url(#arrow)"/>
  <line x1="560" y1="65" x2="590" y2="65" stroke="#3b82f6" stroke-width="1.5" marker-end="url(#arrow)"/>
  <rect x="30" y="135" width="160" height="50" rx="6" fill="#fff1f2" stroke="#fecdd3" stroke-width="1.5"/>
  <text x="110" y="161" text-anchor="middle" font-family="-apple-system, 'Helvetica Neue', Arial, sans-serif" font-size="14" font-weight="600" fill="#111827">VM 刪除</text>
  <rect x="200" y="135" width="160" height="50" rx="6" fill="#fff1f2" stroke="#fecdd3" stroke-width="1.5"/>
  <text x="280" y="161" text-anchor="middle" font-family="-apple-system, 'Helvetica Neue', Arial, sans-serif" font-size="14" font-weight="600" fill="#111827">自動刪除 DataVolume</text>
  <rect x="400" y="135" width="160" height="50" rx="6" fill="#fff1f2" stroke="#fecdd3" stroke-width="1.5"/>
  <text x="480" y="161" text-anchor="middle" font-family="-apple-system, 'Helvetica Neue', Arial, sans-serif" font-size="14" font-weight="600" fill="#111827">自動刪除 PVC</text>
  <line x1="190" y1="160" x2="200" y2="160" stroke="#3b82f6" stroke-width="1.5" marker-end="url(#arrow)"/>
  <line x1="360" y1="160" x2="400" y2="160" stroke="#3b82f6" stroke-width="1.5" marker-end="url(#arrow)"/>
  <line x1="110" y1="90" x2="110" y2="133" stroke="#3b82f6" stroke-width="1.5" stroke-dasharray="5,3" marker-end="url(#arrow)"/>
</svg>
