<svg xmlns="http://www.w3.org/2000/svg" width="760" height="300" viewBox="0 0 760 300">
<defs>
  <marker id="arr" markerWidth="8" markerHeight="6" refX="8" refY="3" orient="auto">
    <polygon points="0 0, 8 3, 0 6" fill="#3b82f6"/>
  </marker>
</defs>
<rect width="760" height="300" fill="#ffffff"/>
<text x="110" y="20" font-family="-apple-system, 'Helvetica Neue', Arial, sans-serif" font-size="12" font-weight="600" fill="#6b7280" text-anchor="middle" dominant-baseline="middle">資料來源</text><rect x="20" y="34" width="170" height="32" rx="6" fill="#f9fafb" stroke="#e5e7eb" stroke-width="1.5"/><text x="105" y="50" font-family="-apple-system, 'Helvetica Neue', Arial, sans-serif" font-size="12" font-weight="400" fill="#111827" text-anchor="middle" dominant-baseline="middle">HTTP/HTTPS URL</text><rect x="20" y="84" width="170" height="32" rx="6" fill="#f9fafb" stroke="#e5e7eb" stroke-width="1.5"/><text x="105" y="100" font-family="-apple-system, 'Helvetica Neue', Arial, sans-serif" font-size="12" font-weight="400" fill="#111827" text-anchor="middle" dominant-baseline="middle">S3 物件儲存</text><rect x="20" y="134" width="170" height="32" rx="6" fill="#f9fafb" stroke="#e5e7eb" stroke-width="1.5"/><text x="105" y="150" font-family="-apple-system, 'Helvetica Neue', Arial, sans-serif" font-size="12" font-weight="400" fill="#111827" text-anchor="middle" dominant-baseline="middle">容器映像倉庫</text><rect x="20" y="184" width="170" height="32" rx="6" fill="#f9fafb" stroke="#e5e7eb" stroke-width="1.5"/><text x="105" y="200" font-family="-apple-system, 'Helvetica Neue', Arial, sans-serif" font-size="12" font-weight="400" fill="#111827" text-anchor="middle" dominant-baseline="middle">現有 PVC</text><rect x="20" y="234" width="170" height="32" rx="6" fill="#f9fafb" stroke="#e5e7eb" stroke-width="1.5"/><text x="105" y="250" font-family="-apple-system, 'Helvetica Neue', Arial, sans-serif" font-size="12" font-weight="400" fill="#111827" text-anchor="middle" dominant-baseline="middle">空白磁碟</text><rect x="280" y="120" width="160" height="60" rx="10" fill="#dbeafe" stroke="#93c5fd" stroke-width="1.5"/><text x="360" y="145" font-family="-apple-system, 'Helvetica Neue', Arial, sans-serif" font-size="14" font-weight="600" fill="#1d4ed8" text-anchor="middle" dominant-baseline="middle">CDI</text><text x="360" y="163" font-family="-apple-system, 'Helvetica Neue', Arial, sans-serif" font-size="10" font-weight="400" fill="#3b82f6" text-anchor="middle" dominant-baseline="middle">Containerized Data Importer</text><rect x="550" y="120" width="170" height="60" rx="10" fill="#dcfce7" stroke="#86efac" stroke-width="1.5"/><text x="635" y="150" font-family="-apple-system, 'Helvetica Neue', Arial, sans-serif" font-size="12" font-weight="600" fill="#166534" text-anchor="middle" dominant-baseline="middle">DataVolume（新 PVC）</text><line x1="190" y1="50" x2="280" y2="150" stroke="#3b82f6" stroke-width="1.5" marker-end="url(#arr)"/><line x1="190" y1="100" x2="280" y2="150" stroke="#3b82f6" stroke-width="1.5" marker-end="url(#arr)"/><line x1="190" y1="150" x2="280" y2="150" stroke="#3b82f6" stroke-width="1.5" marker-end="url(#arr)"/><line x1="190" y1="200" x2="280" y2="150" stroke="#3b82f6" stroke-width="1.5" marker-end="url(#arr)"/><line x1="190" y1="250" x2="280" y2="150" stroke="#3b82f6" stroke-width="1.5" marker-end="url(#arr)"/><line x1="440" y1="150" x2="550" y2="150" stroke="#3b82f6" stroke-width="1.5" marker-end="url(#arr)"/></svg>