<?xml version="1.0" encoding="utf-8" ?>
<svg baseProfile="full" height="480" version="1.1" width="900" xmlns="http://www.w3.org/2000/svg" xmlns:ev="http://www.w3.org/2001/xml-events" xmlns:xlink="http://www.w3.org/1999/xlink"><defs /><rect fill="#ffffff" height="480" width="900" x="0" y="0" /><text fill="#111827" font-family="-apple-system, 'Helvetica Neue', Arial, sans-serif" font-size="18" font-weight="600" text-anchor="middle" x="450" y="36">KubeVirt 兩階段網路設定架構</text><rect fill="#f0f4ff" height="52" rx="6" ry="6" stroke="#c7d2fe" stroke-width="1.5" width="140" x="40" y="60" /><text fill="#111827" font-family="-apple-system, 'Helvetica Neue', Arial, sans-serif" font-size="13" font-weight="600" text-anchor="middle" x="110" y="91">Kubernetes</text><rect fill="#f0f4ff" height="52" rx="6" ry="6" stroke="#c7d2fe" stroke-width="1.5" width="140" x="220" y="60" /><text fill="#111827" font-family="-apple-system, 'Helvetica Neue', Arial, sans-serif" font-size="13" font-weight="600" text-anchor="middle" x="290" y="82">virt-handler</text><text fill="#6b7280" font-family="-apple-system, 'Helvetica Neue', Arial, sans-serif" font-size="11" text-anchor="middle" x="290" y="99">（特權）</text><rect fill="#f0f4ff" height="52" rx="6" ry="6" stroke="#c7d2fe" stroke-width="1.5" width="140" x="460" y="60" /><text fill="#111827" font-family="-apple-system, 'Helvetica Neue', Arial, sans-serif" font-size="13" font-weight="600" text-anchor="middle" x="530" y="82">virt-launcher</text><text fill="#6b7280" font-family="-apple-system, 'Helvetica Neue', Arial, sans-serif" font-size="11" text-anchor="middle" x="530" y="99">（非特權）</text><rect fill="#f0f4ff" height="52" rx="6" ry="6" stroke="#c7d2fe" stroke-width="1.5" width="140" x="680" y="60" /><text fill="#111827" font-family="-apple-system, 'Helvetica Neue', Arial, sans-serif" font-size="13" font-weight="600" text-anchor="middle" x="750" y="91">QEMU / VM</text><line stroke="#e5e7eb" stroke-dasharray="6,4" stroke-width="1.5" x1="110" x2="110" y1="112" y2="440" /><line stroke="#e5e7eb" stroke-dasharray="6,4" stroke-width="1.5" x1="290" x2="290" y1="112" y2="440" /><line stroke="#e5e7eb" stroke-dasharray="6,4" stroke-width="1.5" x1="530" x2="530" y1="112" y2="440" /><line stroke="#e5e7eb" stroke-dasharray="6,4" stroke-width="1.5" x1="750" x2="750" y1="112" y2="440" /><line stroke="#3b82f6" stroke-width="1.5" x1="110" x2="290" y1="142" y2="142" /><polygon fill="#3b82f6" points="290,142 280,137 280,147" /><text fill="#111827" font-family="-apple-system, 'Helvetica Neue', Arial, sans-serif" font-size="12" text-anchor="middle" x="200.0" y="136">建立 Pod，指派網路</text><line stroke="#3b82f6" stroke-width="1.5" x1="290" x2="318" y1="200" y2="200" /><line stroke="#3b82f6" stroke-width="1.5" x1="318" x2="318" y1="200" y2="226" /><line stroke="#3b82f6" stroke-width="1.5" x1="290" x2="318" y1="226" y2="226" /><polygon fill="#3b82f6" points="290,226 298,222 298,230" /><text fill="#111827" font-family="-apple-system, 'Helvetica Neue', Arial, sans-serif" font-size="12" x="326" y="218">Phase 1：設定 Pod netns（特權操作）</text><line stroke="#3b82f6" stroke-width="1.5" x1="290" x2="530" y1="236" y2="236" /><polygon fill="#3b82f6" points="530,236 520,231 520,241" /><text fill="#111827" font-family="-apple-system, 'Helvetica Neue', Arial, sans-serif" font-size="12" text-anchor="middle" x="410.0" y="230">傳遞網路設定快取</text><line stroke="#3b82f6" stroke-width="1.5" x1="530" x2="558" y1="294" y2="294" /><line stroke="#3b82f6" stroke-width="1.5" x1="558" x2="558" y1="294" y2="320" /><line stroke="#3b82f6" stroke-width="1.5" x1="530" x2="558" y1="320" y2="320" /><polygon fill="#3b82f6" points="530,320 538,316 538,324" /><text fill="#111827" font-family="-apple-system, 'Helvetica Neue', Arial, sans-serif" font-size="12" x="566" y="312">Phase 2：設定 libvirt XML（非特權）</text><line stroke="#3b82f6" stroke-width="1.5" x1="530" x2="750" y1="330" y2="330" /><polygon fill="#3b82f6" points="750,330 740,325 740,335" /><text fill="#111827" font-family="-apple-system, 'Helvetica Neue', Arial, sans-serif" font-size="12" text-anchor="middle" x="640.0" y="324">啟動 QEMU，掛載網路介面</text><rect fill="#f0f4ff" height="52" rx="6" ry="6" stroke="#c7d2fe" stroke-width="1.5" width="140" x="40" y="388" /><rect fill="#f0f4ff" height="52" rx="6" ry="6" stroke="#c7d2fe" stroke-width="1.5" width="140" x="220" y="388" /><rect fill="#f0f4ff" height="52" rx="6" ry="6" stroke="#c7d2fe" stroke-width="1.5" width="140" x="460" y="388" /><rect fill="#f0f4ff" height="52" rx="6" ry="6" stroke="#c7d2fe" stroke-width="1.5" width="140" x="680" y="388" /></svg>