<svg xmlns="http://www.w3.org/2000/svg" width="1400" height="560" viewBox="0 0 1400 560">
<rect width="1400" height="560" fill="#ffffff"/>
<defs>
  <marker id="arrow" markerWidth="10" markerHeight="7" refX="9" refY="3.5" orient="auto">
    <polygon points="0 0.5, 8.5 3.5, 0 6.5" fill="#3b82f6"/>
  </marker>
</defs>
<text x="700" y="36" font-family="-apple-system, 'Helvetica Neue', Arial, sans-serif" font-size="20" font-weight="700" fill="#111827" text-anchor="middle">CloudInit ISO 生成流程</text>
<rect x="100" y="65" width="240" height="44" rx="8" fill="#dbeafe" stroke="#3b82f6" stroke-width="1.5"/><text x="220.0" y="91.5" font-family="-apple-system, 'Helvetica Neue', Arial, sans-serif" font-size="13" fill="#111827" text-anchor="middle">preStartHook 執行</text>
<rect x="420" y="65" width="240" height="44" rx="8" fill="#f9fafb" stroke="#e5e7eb" stroke-width="1.5"/><text x="540.0" y="91.5" font-family="-apple-system, 'Helvetica Neue', Arial, sans-serif" font-size="13" fill="#111827" text-anchor="middle">generateCloudInitISO</text>
<line x1="340" y1="87" x2="420" y2="87" stroke="#3b82f6" stroke-width="2" marker-end="url(#arrow)"/>
<polygon points="730,47 830,87 730,127 630,87" fill="#fef3c7" stroke="#f59e0b" stroke-width="1.5"/><text x="730" y="89.5" font-family="-apple-system, 'Helvetica Neue', Arial, sans-serif" font-size="12" fill="#111827" text-anchor="middle">資料來源</text>
<line x1="660" y1="87" x2="630" y2="87" stroke="#3b82f6" stroke-width="2" marker-end="url(#arrow)"/>
<line x1="730" y1="127" x2="250" y2="230" stroke="#3b82f6" stroke-width="2" marker-end="url(#arrow)"/><text x="495" y="172" font-family="-apple-system, 'Helvetica Neue', Arial, sans-serif" font-size="11" fill="#6b7280">cloudInitNoCloud
.userData</text>
<rect x="150" y="230" width="200" height="52" rx="8" fill="#f9fafb" stroke="#e5e7eb" stroke-width="1.5"/><text x="250.0" y="252.0" font-family="-apple-system, 'Helvetica Neue', Arial, sans-serif" font-size="13" fill="#111827" text-anchor="middle">userData 字串</text><text x="250.0" y="269.0" font-family="-apple-system, 'Helvetica Neue', Arial, sans-serif" font-size="13" fill="#111827" text-anchor="middle">直接寫入</text>
<line x1="730" y1="127" x2="520" y2="230" stroke="#3b82f6" stroke-width="2" marker-end="url(#arrow)"/><text x="630" y="172" font-family="-apple-system, 'Helvetica Neue', Arial, sans-serif" font-size="11" fill="#6b7280">cloudInitNoCloud
.userDataSecretRef</text>
<rect x="420" y="230" width="200" height="52" rx="8" fill="#f9fafb" stroke="#e5e7eb" stroke-width="1.5"/><text x="520.0" y="252.0" font-family="-apple-system, 'Helvetica Neue', Arial, sans-serif" font-size="13" fill="#111827" text-anchor="middle">從 Kubernetes Secret</text><text x="520.0" y="269.0" font-family="-apple-system, 'Helvetica Neue', Arial, sans-serif" font-size="13" fill="#111827" text-anchor="middle">讀取 userData</text>
<line x1="730" y1="127" x2="790" y2="230" stroke="#3b82f6" stroke-width="2" marker-end="url(#arrow)"/><text x="765" y="172" font-family="-apple-system, 'Helvetica Neue', Arial, sans-serif" font-size="11" fill="#6b7280">cloudInitNoCloud
.userDataBase64</text>
<rect x="690" y="230" width="200" height="52" rx="8" fill="#f9fafb" stroke="#e5e7eb" stroke-width="1.5"/><text x="790.0" y="252.0" font-family="-apple-system, 'Helvetica Neue', Arial, sans-serif" font-size="13" fill="#111827" text-anchor="middle">Base64 解碼</text><text x="790.0" y="269.0" font-family="-apple-system, 'Helvetica Neue', Arial, sans-serif" font-size="13" fill="#111827" text-anchor="middle">userData</text>
<line x1="730" y1="127" x2="1060" y2="230" stroke="#3b82f6" stroke-width="2" marker-end="url(#arrow)"/><text x="900" y="172" font-family="-apple-system, 'Helvetica Neue', Arial, sans-serif" font-size="11" fill="#6b7280">networkDataSecretRef</text>
<rect x="960" y="230" width="200" height="52" rx="8" fill="#f9fafb" stroke="#e5e7eb" stroke-width="1.5"/><text x="1060.0" y="252.0" font-family="-apple-system, 'Helvetica Neue', Arial, sans-serif" font-size="13" fill="#111827" text-anchor="middle">從 Secret 讀取</text><text x="1060.0" y="269.0" font-family="-apple-system, 'Helvetica Neue', Arial, sans-serif" font-size="13" fill="#111827" text-anchor="middle">networkData</text>
<rect x="490" y="340" width="300" height="52" rx="8" fill="#dcfce7" stroke="#22c55e" stroke-width="1.5"/><text x="640.0" y="362.0" font-family="-apple-system, 'Helvetica Neue', Arial, sans-serif" font-size="13" fill="#111827" text-anchor="middle">mkisofs / genisoimage</text><text x="640.0" y="379.0" font-family="-apple-system, 'Helvetica Neue', Arial, sans-serif" font-size="13" fill="#111827" text-anchor="middle">產生 NoCloud ISO</text>
<line x1="250" y1="282" x2="640" y2="340" stroke="#3b82f6" stroke-width="2" marker-end="url(#arrow)"/>
<line x1="520" y1="282" x2="640" y2="340" stroke="#3b82f6" stroke-width="2" marker-end="url(#arrow)"/>
<line x1="790" y1="282" x2="640" y2="340" stroke="#3b82f6" stroke-width="2" marker-end="url(#arrow)"/>
<line x1="1060" y1="282" x2="640" y2="340" stroke="#3b82f6" stroke-width="2" marker-end="url(#arrow)"/>
<rect x="410" y="440" width="460" height="52" rx="8" fill="#f0fdf4" stroke="#86efac" stroke-width="1.5"/><text x="640.0" y="462.0" font-family="-apple-system, 'Helvetica Neue', Arial, sans-serif" font-size="12" fill="#111827" text-anchor="middle">/var/run/kubevirt-private/vmi-disks/</text><text x="640.0" y="478.0" font-family="-apple-system, 'Helvetica Neue', Arial, sans-serif" font-size="12" fill="#111827" text-anchor="middle">cloudinitnocloud/noCloud.iso</text>
<line x1="640" y1="392" x2="640" y2="440" stroke="#3b82f6" stroke-width="2" marker-end="url(#arrow)"/>
<rect x="490" y="530" width="300" height="40" rx="8" fill="#fef3c7" stroke="#f59e0b" stroke-width="1.5"/><text x="640.0" y="554.5" font-family="-apple-system, 'Helvetica Neue', Arial, sans-serif" font-size="13" fill="#111827" text-anchor="middle">掛載到 VM 作為 CD-ROM</text>
<line x1="640" y1="492" x2="640" y2="530" stroke="#3b82f6" stroke-width="2" marker-end="url(#arrow)"/>
</svg>