<svg xmlns="http://www.w3.org/2000/svg" width="1100" height="1020" viewBox="0 0 1100 1020">
<rect width="1100" height="1020" fill="#ffffff"/>
<defs><marker id="arr" markerWidth="10" markerHeight="8" refX="8" refY="3.5" orient="auto"><polygon points="0 0.5, 8.5 3.5, 0 6.5" fill="#3b82f6"/></marker></defs>
<text x="550" y="20" text-anchor="middle" font-family="-apple-system, 'Helvetica Neue', Arial, sans-serif" font-size="16" font-weight="700" fill="#111827">Complete Migration Sequence</text>
<rect x="30" y="30" width="100" height="50" rx="6" fill="#f9fafb" stroke="#e5e7eb" stroke-width="1.5"/>
<text x="80" y="59" text-anchor="middle" font-family="-apple-system, 'Helvetica Neue', Arial, sans-serif" font-size="12" font-weight="700" fill="#111827">使用者</text>
<line x1="80" y1="80" x2="80" y2="990" stroke="#e5e7eb" stroke-width="1.5" stroke-dasharray="6,4"/>
<rect x="160" y="30" width="100" height="50" rx="6" fill="#f9fafb" stroke="#e5e7eb" stroke-width="1.5"/>
<text x="210" y="59" text-anchor="middle" font-family="-apple-system, 'Helvetica Neue', Arial, sans-serif" font-size="12" font-weight="700" fill="#111827">K8s API</text>
<line x1="210" y1="80" x2="210" y2="990" stroke="#e5e7eb" stroke-width="1.5" stroke-dasharray="6,4"/>
<rect x="290" y="30" width="100" height="50" rx="6" fill="#f9fafb" stroke="#e5e7eb" stroke-width="1.5"/>
<text x="340" y="51" text-anchor="middle" font-family="-apple-system, 'Helvetica Neue', Arial, sans-serif" font-size="11" font-weight="700" fill="#111827">Migration</text>
<text x="340" y="67" text-anchor="middle" font-family="-apple-system, 'Helvetica Neue', Arial, sans-serif" font-size="10" fill="#6b7280">Controller</text>
<line x1="340" y1="80" x2="340" y2="990" stroke="#e5e7eb" stroke-width="1.5" stroke-dasharray="6,4"/>
<rect x="420" y="30" width="100" height="50" rx="6" fill="#f9fafb" stroke="#e5e7eb" stroke-width="1.5"/>
<text x="470" y="51" text-anchor="middle" font-family="-apple-system, 'Helvetica Neue', Arial, sans-serif" font-size="11" font-weight="700" fill="#111827">virt-handler</text>
<text x="470" y="67" text-anchor="middle" font-family="-apple-system, 'Helvetica Neue', Arial, sans-serif" font-size="10" fill="#6b7280">(Source)</text>
<line x1="470" y1="80" x2="470" y2="990" stroke="#e5e7eb" stroke-width="1.5" stroke-dasharray="6,4"/>
<rect x="550" y="30" width="100" height="50" rx="6" fill="#f9fafb" stroke="#e5e7eb" stroke-width="1.5"/>
<text x="600" y="51" text-anchor="middle" font-family="-apple-system, 'Helvetica Neue', Arial, sans-serif" font-size="11" font-weight="700" fill="#111827">virt-handler</text>
<text x="600" y="67" text-anchor="middle" font-family="-apple-system, 'Helvetica Neue', Arial, sans-serif" font-size="10" fill="#6b7280">(Target)</text>
<line x1="600" y1="80" x2="600" y2="990" stroke="#e5e7eb" stroke-width="1.5" stroke-dasharray="6,4"/>
<rect x="680" y="30" width="100" height="50" rx="6" fill="#f9fafb" stroke="#e5e7eb" stroke-width="1.5"/>
<text x="730" y="51" text-anchor="middle" font-family="-apple-system, 'Helvetica Neue', Arial, sans-serif" font-size="11" font-weight="700" fill="#111827">virt-launcher</text>
<text x="730" y="67" text-anchor="middle" font-family="-apple-system, 'Helvetica Neue', Arial, sans-serif" font-size="10" fill="#6b7280">(Source)</text>
<line x1="730" y1="80" x2="730" y2="990" stroke="#e5e7eb" stroke-width="1.5" stroke-dasharray="6,4"/>
<rect x="820" y="30" width="100" height="50" rx="6" fill="#f9fafb" stroke="#e5e7eb" stroke-width="1.5"/>
<text x="870" y="51" text-anchor="middle" font-family="-apple-system, 'Helvetica Neue', Arial, sans-serif" font-size="11" font-weight="700" fill="#111827">virt-launcher</text>
<text x="870" y="67" text-anchor="middle" font-family="-apple-system, 'Helvetica Neue', Arial, sans-serif" font-size="10" fill="#6b7280">(Target)</text>
<line x1="870" y1="80" x2="870" y2="990" stroke="#e5e7eb" stroke-width="1.5" stroke-dasharray="6,4"/>
<line x1="80" y1="105" x2="210" y2="105" stroke="#3b82f6" stroke-width="1.5" marker-end="url(#arr)"/>
<text x="85" y="100" font-family="-apple-system, 'Helvetica Neue', Arial, sans-serif" font-size="9" font-weight="700" fill="#3b82f6">1.</text>
<text x="145" y="99" text-anchor="middle" font-family="-apple-system, 'Helvetica Neue', Arial, sans-serif" font-size="10" fill="#111827">建立 VirtualMachineInstanceMigration</text>
<line x1="210" y1="135" x2="340" y2="135" stroke="#3b82f6" stroke-width="1.5" marker-end="url(#arr)"/>
<text x="215" y="130" font-family="-apple-system, 'Helvetica Neue', Arial, sans-serif" font-size="9" font-weight="700" fill="#3b82f6">2.</text>
<text x="275" y="129" text-anchor="middle" font-family="-apple-system, 'Helvetica Neue', Arial, sans-serif" font-size="10" fill="#111827">Watch 事件</text>
<rect x="40" y="165" width="1020" height="22" rx="4" fill="#fef9c3" stroke="#fde68a" stroke-width="1"/>
<text x="550" y="180" text-anchor="middle" font-family="-apple-system, 'Helvetica Neue', Arial, sans-serif" font-size="10" font-weight="600" fill="#92400e">Phase: Unset → Pending</text>
<path d="M340,195 C400,195 400,217 340,217" stroke="#3b82f6" stroke-width="1.5" fill="none" marker-end="url(#arr)"/>
<text x="404" y="210" font-family="-apple-system, 'Helvetica Neue', Arial, sans-serif" font-size="10" fill="#111827">3. 驗證 VMI 可遷移性</text>
<line x1="340" y1="233" x2="210" y2="233" stroke="#3b82f6" stroke-width="1.5" marker-end="url(#arr)"/>
<text x="275" y="227" text-anchor="middle" font-family="-apple-system, 'Helvetica Neue', Arial, sans-serif" font-size="10" fill="#111827">4. 建立 Target Pod</text>
<rect x="40" y="263" width="1020" height="22" rx="4" fill="#fef9c3" stroke="#fde68a" stroke-width="1"/>
<text x="550" y="278" text-anchor="middle" font-family="-apple-system, 'Helvetica Neue', Arial, sans-serif" font-size="10" font-weight="600" fill="#92400e">Phase: Pending → Scheduling</text>
<line x1="210" y1="291" x2="600" y2="291" stroke="#3b82f6" stroke-width="1.5" marker-end="url(#arr)"/>
<text x="405" y="285" text-anchor="middle" font-family="-apple-system, 'Helvetica Neue', Arial, sans-serif" font-size="10" fill="#111827">5. Target Pod 排程到目標節點</text>
<path d="M600,319 C660,319 660,339 600,339" stroke="#3b82f6" stroke-width="1.5" fill="none" marker-end="url(#arr)"/>
<text x="664" y="333" font-family="-apple-system, 'Helvetica Neue', Arial, sans-serif" font-size="10" fill="#111827">偵測到 Migration Target Pod</text>
<rect x="40" y="351" width="1020" height="22" rx="4" fill="#fef9c3" stroke="#fde68a" stroke-width="1"/>
<text x="550" y="366" text-anchor="middle" font-family="-apple-system, 'Helvetica Neue', Arial, sans-serif" font-size="10" font-weight="600" fill="#92400e">Phase: Scheduling → Scheduled</text>
<line x1="600" y1="379" x2="210" y2="379" stroke="#3b82f6" stroke-width="1.5" marker-end="url(#arr)"/>
<text x="405" y="373" text-anchor="middle" font-family="-apple-system, 'Helvetica Neue', Arial, sans-serif" font-size="10" fill="#111827">6. 更新 VMI: PreparingTarget</text>
<rect x="40" y="407" width="1020" height="22" rx="4" fill="#fef9c3" stroke="#fde68a" stroke-width="1"/>
<text x="550" y="422" text-anchor="middle" font-family="-apple-system, 'Helvetica Neue', Arial, sans-serif" font-size="10" font-weight="600" fill="#92400e">Phase: Scheduled → PreparingTarget</text>
<line x1="600" y1="435" x2="870" y2="435" stroke="#3b82f6" stroke-width="1.5" marker-end="url(#arr)"/>
<text x="735" y="429" text-anchor="middle" font-family="-apple-system, 'Helvetica Neue', Arial, sans-serif" font-size="10" fill="#111827">7. 啟動 Target virt-launcher</text>
<path d="M870,463 C930,463 930,483 870,483" stroke="#3b82f6" stroke-width="1.5" fill="none" marker-end="url(#arr)"/>
<text x="934" y="477" font-family="-apple-system, 'Helvetica Neue', Arial, sans-serif" font-size="10" fill="#111827">定義 Domain + Unix Socket</text>
<rect x="40" y="831" width="1020" height="74" rx="4" fill="#f0fdf4" stroke="#86efac" stroke-width="1"/>
<rect x="40" y="831" width="50" height="16" rx="3" fill="#22c55e"/>
<text x="46" y="843" font-family="-apple-system, 'Helvetica Neue', Arial, sans-serif" font-size="9" font-weight="700" fill="white">alt 成功</text>
<path d="M600,495 C650,495 650,513 600,513" stroke="#3b82f6" stroke-width="1.5" fill="none" marker-end="url(#arr)"/>
<text x="654" y="508" font-family="-apple-system, 'Helvetica Neue', Arial, sans-serif" font-size="10" fill="#111827">啟動 Target Migration Proxy</text>
<line x1="600" y1="523" x2="210" y2="523" stroke="#3b82f6" stroke-width="1.5" marker-end="url(#arr)"/>
<text x="405" y="517" text-anchor="middle" font-family="-apple-system, 'Helvetica Neue', Arial, sans-serif" font-size="10" fill="#111827">回報 TCP Ports</text>
<rect x="40" y="551" width="1020" height="22" rx="4" fill="#fef9c3" stroke="#fde68a" stroke-width="1"/>
<text x="550" y="566" text-anchor="middle" font-family="-apple-system, 'Helvetica Neue', Arial, sans-serif" font-size="10" font-weight="600" fill="#92400e">Phase: PreparingTarget → TargetReady</text>
<line x1="210" y1="579" x2="470" y2="579" stroke="#3b82f6" stroke-width="1.5" marker-end="url(#arr)"/>
<text x="340" y="573" text-anchor="middle" font-family="-apple-system, 'Helvetica Neue', Arial, sans-serif" font-size="10" fill="#111827">VMI 狀態更新：TargetReady</text>
<path d="M470,607 C520,607 520,625 470,625" stroke="#3b82f6" stroke-width="1.5" fill="none" marker-end="url(#arr)"/>
<text x="524" y="620" font-family="-apple-system, 'Helvetica Neue', Arial, sans-serif" font-size="10" fill="#111827">啟動 Source Migration Proxy</text>
<line x1="470" y1="635" x2="730" y2="635" stroke="#3b82f6" stroke-width="1.5" marker-end="url(#arr)"/>
<text x="600" y="629" text-anchor="middle" font-family="-apple-system, 'Helvetica Neue', Arial, sans-serif" font-size="10" fill="#111827">通知開始遷移</text>
<rect x="40" y="663" width="1020" height="22" rx="4" fill="#fef9c3" stroke="#fde68a" stroke-width="1"/>
<text x="550" y="678" text-anchor="middle" font-family="-apple-system, 'Helvetica Neue', Arial, sans-serif" font-size="10" font-weight="600" fill="#92400e">Phase: TargetReady → Running</text>
<path d="M730,691 C785,691 785,709 730,709" stroke="#3b82f6" stroke-width="1.5" fill="none" marker-end="url(#arr)"/>
<rect x="40" y="905" width="1020" height="82" rx="4" fill="#fefce8" stroke="#86efac" stroke-width="1"/>
<rect x="40" y="905" width="50" height="16" rx="3" fill="#22c55e"/>
<text x="46" y="917" font-family="-apple-system, 'Helvetica Neue', Arial, sans-serif" font-size="9" font-weight="700" fill="white">alt 超時+PostCopy</text>
<text x="788" y="704" font-family="-apple-system, 'Helvetica Neue', Arial, sans-serif" font-size="10" fill="#111827">generateMigrationFlags()</text>
<path d="M730,717 C785,717 785,735 730,735" stroke="#3b82f6" stroke-width="1.5" fill="none" marker-end="url(#arr)"/>
<text x="788" y="730" font-family="-apple-system, 'Helvetica Neue', Arial, sans-serif" font-size="10" fill="#111827">generateMigrationParams()</text>
<path d="M730,743 C785,743 785,761 730,761" stroke="#3b82f6" stroke-width="1.5" fill="none" marker-end="url(#arr)"/>
<text x="788" y="756" font-family="-apple-system, 'Helvetica Neue', Arial, sans-serif" font-size="10" fill="#111827">dom.MigrateToURI3()</text>
<line x1="730" y1="769" x2="870" y2="769" stroke="#3b82f6" stroke-width="1.5" marker-end="url(#arr)"/>
<text x="800" y="763" text-anchor="middle" font-family="-apple-system, 'Helvetica Neue', Arial, sans-serif" font-size="10" fill="#111827">記憶體頁面傳輸（經由 Proxy）</text>
<path d="M730,795 C785,795 785,813 730,813" stroke="#3b82f6" stroke-width="1.5" fill="none" marker-end="url(#arr)"/>
<text x="788" y="808" font-family="-apple-system, 'Helvetica Neue', Arial, sans-serif" font-size="10" fill="#111827">dom.GetJobStats() 監控進度</text>
<rect x="40" y="765" width="1020" height="56" rx="4" fill="none" stroke="#3b82f6" stroke-width="1" stroke-dasharray="4,3"/>
<rect x="40" y="765" width="80" height="18" rx="3" fill="#3b82f6"/>
<text x="50" y="778" font-family="-apple-system, 'Helvetica Neue', Arial, sans-serif" font-size="10" font-weight="700" fill="white">loop Pre-copy</text>
<line x1="730" y1="839" x2="210" y2="839" stroke="#3b82f6" stroke-width="1.5" marker-end="url(#arr)"/>
<text x="470" y="833" text-anchor="middle" font-family="-apple-system, 'Helvetica Neue', Arial, sans-serif" font-size="10" fill="#111827">MigrationState.Completed = true</text>
<rect x="40" y="987" width="1020" height="74" rx="4" fill="#fef2f2" stroke="#86efac" stroke-width="1"/>
<rect x="40" y="987" width="50" height="16" rx="3" fill="#22c55e"/>
<text x="46" y="999" font-family="-apple-system, 'Helvetica Neue', Arial, sans-serif" font-size="9" font-weight="700" fill="white">alt 失敗</text>
<rect x="40" y="857" width="1020" height="22" rx="4" fill="#fef9c3" stroke="#fde68a" stroke-width="1"/>
<text x="550" y="872" text-anchor="middle" font-family="-apple-system, 'Helvetica Neue', Arial, sans-serif" font-size="10" font-weight="600" fill="#92400e">Phase: Running → Succeeded</text>
<line x1="340" y1="879" x2="210" y2="879" stroke="#3b82f6" stroke-width="1.5" marker-end="url(#arr)"/>
<text x="275" y="873" text-anchor="middle" font-family="-apple-system, 'Helvetica Neue', Arial, sans-serif" font-size="10" fill="#111827">刪除 Source Pod</text>
<line x1="730" y1="913" x2="785" y2="913" stroke="#3b82f6" stroke-width="1.5" marker-end="url(#arr)"/>
<path d="M730,913 C785,913 785,931 730,931" stroke="#3b82f6" stroke-width="1.5" fill="none" marker-end="url(#arr)"/>
<text x="788" y="925" font-family="-apple-system, 'Helvetica Neue', Arial, sans-serif" font-size="10" fill="#111827">dom.MigrateStartPostCopy(0)</text>
<line x1="730" y1="935" x2="870" y2="935" stroke="#3b82f6" stroke-width="1.5" marker-end="url(#arr)"/>
<text x="800" y="929" text-anchor="middle" font-family="-apple-system, 'Helvetica Neue', Arial, sans-serif" font-size="10" fill="#111827">Post-copy: 按需傳送頁面</text>
<line x1="730" y1="961" x2="210" y2="961" stroke="#3b82f6" stroke-width="1.5" marker-end="url(#arr)"/>
<text x="470" y="955" text-anchor="middle" font-family="-apple-system, 'Helvetica Neue', Arial, sans-serif" font-size="10" fill="#111827">MigrationState.Completed = true</text>
<line x1="730" y1="991" x2="210" y2="991" stroke="#3b82f6" stroke-width="1.5" marker-end="url(#arr)"/>
<text x="470" y="985" text-anchor="middle" font-family="-apple-system, 'Helvetica Neue', Arial, sans-serif" font-size="10" fill="#111827">MigrationState.Failed = true</text>
<rect x="40" y="1013" width="1020" height="22" rx="4" fill="#fef9c3" stroke="#fde68a" stroke-width="1"/>
<text x="550" y="1028" text-anchor="middle" font-family="-apple-system, 'Helvetica Neue', Arial, sans-serif" font-size="10" font-weight="600" fill="#92400e">Phase: Running → Failed</text>
<line x1="340" y1="1035" x2="210" y2="1035" stroke="#3b82f6" stroke-width="1.5" marker-end="url(#arr)"/>
<text x="275" y="1029" text-anchor="middle" font-family="-apple-system, 'Helvetica Neue', Arial, sans-serif" font-size="10" fill="#111827">刪除 Target Pod</text>
</svg>