<?xml version="1.0" encoding="utf-8" ?>
<svg baseProfile="full" height="480" version="1.1" width="900" xmlns="http://www.w3.org/2000/svg" xmlns:ev="http://www.w3.org/2001/xml-events" xmlns:xlink="http://www.w3.org/1999/xlink"><defs /><rect fill="#ffffff" height="480" width="900" x="0" y="0" /><text fill="#111827" font-family="-apple-system, 'Helvetica Neue', Arial, sans-serif" font-size="18" font-weight="600" text-anchor="middle" x="450" y="36">Masquerade 模式網路架構</text><rect fill="#fafbff" height="310" rx="12" ry="12" stroke="#c7d2fe" stroke-width="1.5" width="560" x="30" y="55" /><text fill="#6b7280" font-family="-apple-system, 'Helvetica Neue', Arial, sans-serif" font-size="12" font-weight="normal" text-anchor="start" x="80" y="78">節點 Host</text><rect fill="#f0f4ff" height="250" rx="10" ry="10" stroke="#c7d2fe" stroke-width="1.5" width="490" x="60" y="90" /><text fill="#6b7280" font-family="-apple-system, 'Helvetica Neue', Arial, sans-serif" font-size="12" font-weight="normal" text-anchor="middle" x="310" y="114">Pod Network Namespace</text><rect fill="#fee2e2" height="60" rx="8" ry="8" stroke="#ef4444" stroke-width="1.5" width="170" x="90" y="130" /><text fill="#991b1b" font-family="-apple-system, 'Helvetica Neue', Arial, sans-serif" font-size="12" text-anchor="middle" x="175" y="156">nftables</text><text fill="#991b1b" font-family="-apple-system, 'Helvetica Neue', Arial, sans-serif" font-size="12" text-anchor="middle" x="175" y="172">MASQUERADE / DNAT</text><rect fill="#f9fafb" height="60" rx="8" ry="8" stroke="#e5e7eb" stroke-width="1.5" width="160" x="290" y="130" /><text fill="#111827" font-family="-apple-system, 'Helvetica Neue', Arial, sans-serif" font-size="12" text-anchor="middle" x="370" y="156">eth0</text><text fill="#111827" font-family="-apple-system, 'Helvetica Neue', Arial, sans-serif" font-size="12" text-anchor="middle" x="370" y="172">Pod IP: 10.244.1.5/24</text><rect fill="#fef3c7" height="60" rx="8" ry="8" stroke="#f59e0b" stroke-width="1.5" width="170" x="90" y="230" /><text fill="#92400e" font-family="-apple-system, 'Helvetica Neue', Arial, sans-serif" font-size="12" text-anchor="middle" x="175" y="256">tap0</text><text fill="#92400e" font-family="-apple-system, 'Helvetica Neue', Arial, sans-serif" font-size="12" text-anchor="middle" x="175" y="272">Gateway: 10.0.2.1</text><rect fill="#dbeafe" height="60" rx="8" ry="8" stroke="#3b82f6" stroke-width="1.5" width="160" x="290" y="230" /><text fill="#1d4ed8" font-family="-apple-system, 'Helvetica Neue', Arial, sans-serif" font-size="12" text-anchor="middle" x="370" y="256">內建 DHCP Server</text><text fill="#1d4ed8" font-family="-apple-system, 'Helvetica Neue', Arial, sans-serif" font-size="12" text-anchor="middle" x="370" y="272">分配 10.0.2.2 給 VM</text><line stroke="#e5e7eb" stroke-width="1.5" x1="260" x2="290" y1="160" y2="160" /><line stroke="#e5e7eb" stroke-width="1.5" x1="260" x2="290" y1="260" y2="260" /><line stroke="#e5e7eb" stroke-width="1.5" x1="175" x2="175" y1="190" y2="230" /><rect fill="#f0fdf4" height="120" rx="10" ry="10" stroke="#86efac" stroke-width="1.5" width="230" x="630" y="130" /><text fill="#6b7280" font-family="-apple-system, 'Helvetica Neue', Arial, sans-serif" font-size="12" font-weight="normal" text-anchor="middle" x="745" y="153">VM Guest</text><rect fill="#dcfce7" height="70" rx="8" ry="8" stroke="#22c55e" stroke-width="1.5" width="190" x="650" y="165" /><text fill="#166534" font-family="-apple-system, 'Helvetica Neue', Arial, sans-serif" font-size="11" text-anchor="middle" x="745" y="189">eth0</text><text fill="#166534" font-family="-apple-system, 'Helvetica Neue', Arial, sans-serif" font-size="11" text-anchor="middle" x="745" y="204">VM IP: 10.0.2.2/24</text><text fill="#166534" font-family="-apple-system, 'Helvetica Neue', Arial, sans-serif" font-size="11" text-anchor="middle" x="745" y="219">GW: 10.0.2.1 / DNS: 10.0.2.3</text><line stroke="#3b82f6" stroke-width="1.5" x1="260" x2="650" y1="260" y2="260" /><polygon fill="#3b82f6" points="650,260 641,256 641,264" /><polygon fill="#3b82f6" points="260,260 269,256 269,264" /><text fill="#6b7280" font-family="-apple-system, 'Helvetica Neue', Arial, sans-serif" font-size="10" font-weight="normal" text-anchor="middle" x="455.0" y="252">virtio tap</text><rect fill="#f1f5f9" height="55" rx="8" ry="8" stroke="#94a3b8" stroke-width="1.5" width="230" x="630" y="295" /><text fill="#475569" font-family="-apple-system, 'Helvetica Neue', Arial, sans-serif" font-size="12" text-anchor="middle" x="745" y="319">叢集網路</text><text fill="#475569" font-family="-apple-system, 'Helvetica Neue', Arial, sans-serif" font-size="12" text-anchor="middle" x="745" y="335">10.244.0.0/16</text><line stroke="#3b82f6" stroke-width="1" x1="450" x2="745" y1="160" y2="160" /><line stroke="#3b82f6" stroke-width="1" x1="745" x2="745" y1="160" y2="295" /><polygon fill="#3b82f6" points="745,295 741,286 749,286" /><text fill="#6b7280" font-family="-apple-system, 'Helvetica Neue', Arial, sans-serif" font-size="10" font-weight="normal" text-anchor="middle" x="600" y="148">NAT</text><text fill="#6b7280" font-family="-apple-system, 'Helvetica Neue', Arial, sans-serif" font-size="12" font-weight="600" text-anchor="start" x="640" y="370">圖例</text><rect fill="#fee2e2" height="16" rx="3" stroke="#ef4444" stroke-width="1.5" width="16" x="640" y="388" /><text fill="#111827" font-family="-apple-system, 'Helvetica Neue', Arial, sans-serif" font-size="11" font-weight="normal" text-anchor="start" x="664" y="400">nftables NAT 規則</text><rect fill="#fef3c7" height="16" rx="3" stroke="#f59e0b" stroke-width="1.5" width="16" x="640" y="414" /><text fill="#111827" font-family="-apple-system, 'Helvetica Neue', Arial, sans-serif" font-size="11" font-weight="normal" text-anchor="start" x="664" y="426">TAP 介面（Gateway）</text><rect fill="#dbeafe" height="16" rx="3" stroke="#3b82f6" stroke-width="1.5" width="16" x="640" y="440" /><text fill="#111827" font-family="-apple-system, 'Helvetica Neue', Arial, sans-serif" font-size="11" font-weight="normal" text-anchor="start" x="664" y="452">內建 DHCP Server</text><rect fill="#dcfce7" height="16" rx="3" stroke="#22c55e" stroke-width="1.5" width="16" x="640" y="466" /><text fill="#111827" font-family="-apple-system, 'Helvetica Neue', Arial, sans-serif" font-size="11" font-weight="normal" text-anchor="start" x="664" y="478">VM 網路介面</text></svg>