<svg xmlns="http://www.w3.org/2000/svg" width="1400" height="680" viewBox="0 0 1400 680">
<rect width="1400" height="680" fill="#ffffff"/>
<defs>
  <marker id="arrow" markerWidth="10" markerHeight="7" refX="9" refY="3.5" orient="auto">
    <polygon points="0 0.5, 8.5 3.5, 0 6.5" fill="#3b82f6"/>
  </marker>
</defs>
<text x="700" y="36" font-family="-apple-system, 'Helvetica Neue', Arial, sans-serif" font-size="20" font-weight="700" fill="#111827" text-anchor="middle">preStartHook() 執行流程</text>
<rect x="60" y="65" width="240" height="44" rx="8" fill="#dbeafe" stroke="#3b82f6" stroke-width="1.5"/><text x="180.0" y="91.5" font-family="-apple-system, 'Helvetica Neue', Arial, sans-serif" font-size="13" fill="#111827" text-anchor="middle">SyncVMI 呼叫</text>
<rect x="330" y="65" width="240" height="44" rx="8" fill="#f9fafb" stroke="#e5e7eb" stroke-width="1.5"/><text x="450.0" y="91.5" font-family="-apple-system, 'Helvetica Neue', Arial, sans-serif" font-size="13" fill="#111827" text-anchor="middle">generateConverterContext</text>
<rect x="600" y="65" width="240" height="44" rx="8" fill="#f9fafb" stroke="#e5e7eb" stroke-width="1.5"/><text x="720.0" y="91.5" font-family="-apple-system, 'Helvetica Neue', Arial, sans-serif" font-size="13" fill="#111827" text-anchor="middle">Convert VMI → Domain</text>
<line x1="300" y1="87" x2="330" y2="87" stroke="#3b82f6" stroke-width="2" marker-end="url(#arrow)"/>
<line x1="570" y1="87" x2="600" y2="87" stroke="#3b82f6" stroke-width="2" marker-end="url(#arrow)"/>
<line x1="720" y1="109" x2="720" y2="135" stroke="#3b82f6" stroke-width="2" marker-end="url(#arrow)"/>
<rect x="80" y="135" width="860" height="420" rx="10" fill="#f0f4ff" stroke="#c7d2fe" stroke-width="1.5" stroke-dasharray="6,3"/><text x="92" y="153" font-family="-apple-system, 'Helvetica Neue', Arial, sans-serif" font-size="12" fill="#6b7280" font-weight="600">preStartHook() 執行序列</text>
<rect x="120" y="165" width="780" height="44" rx="8" fill="#f9fafb" stroke="#e5e7eb" stroke-width="1.5"/><text x="510.0" y="191.5" font-family="-apple-system, 'Helvetica Neue', Arial, sans-serif" font-size="13" fill="#111827" text-anchor="middle">1. 確認 cloudinit 資料就緒</text>
<rect x="120" y="225" width="780" height="52" rx="8" fill="#f9fafb" stroke="#e5e7eb" stroke-width="1.5"/><text x="510.0" y="247.0" font-family="-apple-system, 'Helvetica Neue', Arial, sans-serif" font-size="13" fill="#111827" text-anchor="middle">2. generateCloudInitISO</text><text x="510.0" y="264.0" font-family="-apple-system, 'Helvetica Neue', Arial, sans-serif" font-size="13" fill="#111827" text-anchor="middle">生成 NoCloud ISO or ConfigDrive</text>
<line x1="510" y1="209" x2="510" y2="225" stroke="#3b82f6" stroke-width="2" marker-end="url(#arrow)"/>
<rect x="120" y="310" width="780" height="64" rx="8" fill="#f9fafb" stroke="#e5e7eb" stroke-width="1.5"/><text x="510.0" y="329.5" font-family="-apple-system, 'Helvetica Neue', Arial, sans-serif" font-size="13" fill="#111827" text-anchor="middle">3. 執行 Hook Sidecars</text><text x="510.0" y="346.5" font-family="-apple-system, 'Helvetica Neue', Arial, sans-serif" font-size="13" fill="#111827" text-anchor="middle">透過 gRPC</text><text x="510.0" y="363.5" font-family="-apple-system, 'Helvetica Neue', Arial, sans-serif" font-size="13" fill="#111827" text-anchor="middle">讓外部插件修改 Domain XML</text>
<line x1="510" y1="277" x2="510" y2="310" stroke="#3b82f6" stroke-width="2" marker-end="url(#arrow)"/>
<rect x="120" y="410" width="780" height="64" rx="8" fill="#f9fafb" stroke="#e5e7eb" stroke-width="1.5"/><text x="510.0" y="429.5" font-family="-apple-system, 'Helvetica Neue', Arial, sans-serif" font-size="13" fill="#111827" text-anchor="middle">4. expandDiskImagesOffline</text><text x="510.0" y="446.5" font-family="-apple-system, 'Helvetica Neue', Arial, sans-serif" font-size="13" fill="#111827" text-anchor="middle">展開磁碟至最終大小</text><text x="510.0" y="463.5" font-family="-apple-system, 'Helvetica Neue', Arial, sans-serif" font-size="13" fill="#111827" text-anchor="middle">避免稀疏檔造成空間問題</text>
<line x1="510" y1="374" x2="510" y2="410" stroke="#3b82f6" stroke-width="2" marker-end="url(#arrow)"/>
<rect x="120" y="500" width="780" height="52" rx="8" fill="#f9fafb" stroke="#e5e7eb" stroke-width="1.5"/><text x="510.0" y="522.0" font-family="-apple-system, 'Helvetica Neue', Arial, sans-serif" font-size="13" fill="#111827" text-anchor="middle">5. setupGracefulShutdown</text><text x="510.0" y="539.0" font-family="-apple-system, 'Helvetica Neue', Arial, sans-serif" font-size="13" fill="#111827" text-anchor="middle">設定 ACPI 關機信號</text>
<line x1="510" y1="474" x2="510" y2="500" stroke="#3b82f6" stroke-width="2" marker-end="url(#arrow)"/>
<rect x="120" y="565" width="780" height="44" rx="8" fill="#f9fafb" stroke="#e5e7eb" stroke-width="1.5"/><text x="510.0" y="591.5" font-family="-apple-system, 'Helvetica Neue', Arial, sans-serif" font-size="13" fill="#111827" text-anchor="middle">6. 回傳修改後的 Domain</text>
<line x1="510" y1="552" x2="510" y2="565" stroke="#3b82f6" stroke-width="2" marker-end="url(#arrow)"/>
<line x1="900" y1="580" x2="1000" y2="580" stroke="#3b82f6" stroke-width="2" marker-end="url(#arrow)"/>
<text x="940" y="570" font-family="-apple-system, 'Helvetica Neue', Arial, sans-serif" font-size="12" fill="#6b7280">完成</text>
<rect x="1000" y="330" width="280" height="64" rx="8" fill="#dcfce7" stroke="#22c55e" stroke-width="1.5"/><text x="1140.0" y="358.0" font-family="-apple-system, 'Helvetica Neue', Arial, sans-serif" font-size="13" fill="#111827" text-anchor="middle">libvirt DomainDefine</text><text x="1140.0" y="375.0" font-family="-apple-system, 'Helvetica Neue', Arial, sans-serif" font-size="13" fill="#111827" text-anchor="middle">寫入 Domain XML</text>
<rect x="1000" y="430" width="280" height="64" rx="8" fill="#dcfce7" stroke="#22c55e" stroke-width="1.5"/><text x="1140.0" y="458.0" font-family="-apple-system, 'Helvetica Neue', Arial, sans-serif" font-size="13" fill="#111827" text-anchor="middle">DomainCreate</text><text x="1140.0" y="475.0" font-family="-apple-system, 'Helvetica Neue', Arial, sans-serif" font-size="13" fill="#111827" text-anchor="middle">啟動 QEMU</text>
<line x1="1140" y1="394" x2="1140" y2="430" stroke="#3b82f6" stroke-width="2" marker-end="url(#arrow)"/>
<path d="M900,580 L1140,580 L1140,330" stroke="#3b82f6" stroke-width="2" fill="none" marker-end="url(#arrow)"/>
</svg>