<svg xmlns="http://www.w3.org/2000/svg" width="680" height="220" viewBox="0 0 680 220">
<defs>
  <marker id="arr" markerWidth="8" markerHeight="6" refX="8" refY="3" orient="auto">
    <polygon points="0 0, 8 3, 0 6" fill="#3b82f6"/>
  </marker>
</defs>
<rect width="680" height="220" fill="#ffffff"/>
<rect x="30" y="90" width="130" height="44" rx="8" fill="#f0f4ff" stroke="#c7d2fe" stroke-width="1.5"/><text x="95" y="112" font-family="-apple-system, 'Helvetica Neue', Arial, sans-serif" font-size="12" font-weight="600" fill="#111827" text-anchor="middle" dominant-baseline="middle">Volume（資料來源）</text><rect x="230" y="90" width="130" height="44" rx="8" fill="#f0f4ff" stroke="#c7d2fe" stroke-width="1.5"/><text x="295" y="112" font-family="-apple-system, 'Helvetica Neue', Arial, sans-serif" font-size="13" font-weight="600" fill="#111827" text-anchor="middle" dominant-baseline="middle">Disk 型別</text><line x1="160" y1="112" x2="230" y2="112" stroke="#3b82f6" stroke-width="1.5" marker-end="url(#arr)"/><text x="195" y="104" font-family="-apple-system, 'Helvetica Neue', Arial, sans-serif" font-size="11" fill="#6b7280" text-anchor="middle">掛載為</text><rect x="375" y="42" width="160" height="36" rx="8" fill="#f9fafb" stroke="#e5e7eb" stroke-width="1.5"/><text x="455" y="60" font-family="-apple-system, 'Helvetica Neue', Arial, sans-serif" font-size="12" font-weight="400" fill="#6b7280" text-anchor="middle" dominant-baseline="middle">disk（一般磁碟）</text><line x1="360" y1="112" x2="375" y2="60" stroke="#3b82f6" stroke-width="1.5" marker-end="url(#arr)"/><rect x="375" y="94" width="160" height="36" rx="8" fill="#f9fafb" stroke="#e5e7eb" stroke-width="1.5"/><text x="455" y="112" font-family="-apple-system, 'Helvetica Neue', Arial, sans-serif" font-size="12" font-weight="400" fill="#6b7280" text-anchor="middle" dominant-baseline="middle">lun（SCSI LUN）</text><line x1="360" y1="112" x2="375" y2="112" stroke="#3b82f6" stroke-width="1.5" marker-end="url(#arr)"/><rect x="375" y="146" width="160" height="36" rx="8" fill="#f9fafb" stroke="#e5e7eb" stroke-width="1.5"/><text x="455" y="164" font-family="-apple-system, 'Helvetica Neue', Arial, sans-serif" font-size="12" font-weight="400" fill="#6b7280" text-anchor="middle" dominant-baseline="middle">cdrom（光碟機）</text><line x1="360" y1="112" x2="375" y2="164" stroke="#3b82f6" stroke-width="1.5" marker-end="url(#arr)"/></svg>