<?xml version="1.0" encoding="utf-8" ?>
<svg baseProfile="full" height="520" version="1.1" width="920" xmlns="http://www.w3.org/2000/svg" xmlns:ev="http://www.w3.org/2001/xml-events" xmlns:xlink="http://www.w3.org/1999/xlink"><defs /><rect fill="#ffffff" height="520" width="920" x="0" y="0" /><text fill="#111827" font-family="-apple-system, 'Helvetica Neue', Arial, sans-serif" font-size="18" font-weight="600" text-anchor="middle" x="460" y="36">Masquerade 模式 — 內建 DHCP Server 流程</text><rect fill="#f0f4ff" height="52" rx="6" ry="6" stroke="#c7d2fe" stroke-width="1.5" width="150" x="25" y="60" /><text fill="#111827" font-family="-apple-system, 'Helvetica Neue', Arial, sans-serif" font-size="13" font-weight="600" text-anchor="middle" x="100" y="91">VM Guest</text><rect fill="#f0f4ff" height="52" rx="6" ry="6" stroke="#c7d2fe" stroke-width="1.5" width="150" x="225" y="60" /><text fill="#111827" font-family="-apple-system, 'Helvetica Neue', Arial, sans-serif" font-size="13" font-weight="600" text-anchor="middle" x="300" y="91">tap0 介面</text><rect fill="#f0f4ff" height="52" rx="6" ry="6" stroke="#c7d2fe" stroke-width="1.5" width="150" x="475" y="60" /><text fill="#111827" font-family="-apple-system, 'Helvetica Neue', Arial, sans-serif" font-size="13" font-weight="600" text-anchor="middle" x="550" y="91">內建 DHCP Server</text><rect fill="#f0f4ff" height="52" rx="6" ry="6" stroke="#c7d2fe" stroke-width="1.5" width="150" x="705" y="60" /><text fill="#111827" font-family="-apple-system, 'Helvetica Neue', Arial, sans-serif" font-size="13" font-weight="600" text-anchor="middle" x="780" y="82">Cluster DNS</text><text fill="#6b7280" font-family="-apple-system, 'Helvetica Neue', Arial, sans-serif" font-size="11" text-anchor="middle" x="780" y="99">(CoreDNS)</text><line stroke="#e5e7eb" stroke-dasharray="6,4" stroke-width="1.5" x1="100" x2="100" y1="112" y2="484" /><line stroke="#e5e7eb" stroke-dasharray="6,4" stroke-width="1.5" x1="300" x2="300" y1="112" y2="484" /><line stroke="#e5e7eb" stroke-dasharray="6,4" stroke-width="1.5" x1="550" x2="550" y1="112" y2="484" /><line stroke="#e5e7eb" stroke-dasharray="6,4" stroke-width="1.5" x1="780" x2="780" y1="112" y2="484" /><line stroke="#3b82f6" stroke-width="1.5" x1="100" x2="300" y1="138" y2="138" /><polygon fill="#3b82f6" points="300,138 291,134 291,142" /><text fill="#111827" font-family="-apple-system, 'Helvetica Neue', Arial, sans-serif" font-size="12" text-anchor="middle" x="200.0" y="131">DHCP Discover（廣播）</text><line stroke="#3b82f6" stroke-width="1.5" x1="300" x2="550" y1="190" y2="190" /><polygon fill="#3b82f6" points="550,190 541,186 541,194" /><text fill="#111827" font-family="-apple-system, 'Helvetica Neue', Arial, sans-serif" font-size="12" text-anchor="middle" x="425.0" y="183">轉發請求</text><text fill="#92400e" font-family="-apple-system, 'Helvetica Neue', Arial, sans-serif" font-size="11" x="560" y="246">查詢 Pod DNS 設定</text><rect fill="#fffbeb" height="22" rx="4" stroke="#fbbf24" stroke-width="1" width="210" x="558" y="234" /><text fill="#92400e" font-family="-apple-system, 'Helvetica Neue', Arial, sans-serif" font-size="11" x="564" y="249">查詢 Pod DNS (/etc/resolv.conf)</text><line stroke="#3b82f6" stroke-width="1.5" x1="550" x2="300" y1="282" y2="282" /><polygon fill="#3b82f6" points="300,282 309,278 309,286" /><text fill="#111827" font-family="-apple-system, 'Helvetica Neue', Arial, sans-serif" font-size="12" text-anchor="middle" x="425.0" y="275">DHCP Offer</text><text fill="#6b7280" font-family="-apple-system, 'Helvetica Neue', Arial, sans-serif" font-size="10" text-anchor="middle" x="425.0" y="298">IP:10.0.2.2/24  GW:10.0.2.1  DNS:10.0.2.3</text><line stroke="#3b82f6" stroke-width="1.5" x1="300" x2="100" y1="342" y2="342" /><polygon fill="#3b82f6" points="100,342 109,338 109,346" /><text fill="#111827" font-family="-apple-system, 'Helvetica Neue', Arial, sans-serif" font-size="12" text-anchor="middle" x="200.0" y="335">回應</text><line stroke="#3b82f6" stroke-width="1.5" x1="100" x2="300" y1="394" y2="394" /><polygon fill="#3b82f6" points="300,394 291,390 291,398" /><text fill="#111827" font-family="-apple-system, 'Helvetica Neue', Arial, sans-serif" font-size="12" text-anchor="middle" x="200.0" y="387">DHCP Request</text><line stroke="#3b82f6" stroke-width="1.5" x1="550" x2="300" y1="446" y2="446" /><polygon fill="#3b82f6" points="300,446 309,442 309,450" /><text fill="#111827" font-family="-apple-system, 'Helvetica Neue', Arial, sans-serif" font-size="12" text-anchor="middle" x="425.0" y="439">DHCP ACK</text><line stroke="#3b82f6" stroke-width="1.5" x1="300" x2="100" y1="498" y2="498" /><polygon fill="#3b82f6" points="100,498 109,494 109,502" /><text fill="#111827" font-family="-apple-system, 'Helvetica Neue', Arial, sans-serif" font-size="12" text-anchor="middle" x="200.0" y="491">設定網路介面完成</text><line stroke="#3b82f6" stroke-width="1.5" x1="100" x2="780" y1="550" y2="550" /><polygon fill="#3b82f6" points="780,550 771,546 771,554" /><text fill="#111827" font-family="-apple-system, 'Helvetica Neue', Arial, sans-serif" font-size="12" text-anchor="middle" x="440.0" y="543">DNS 查詢（透過 NAT 轉發到 CoreDNS）</text><rect fill="#f0f4ff" height="36" rx="6" ry="6" stroke="#c7d2fe" stroke-width="1.5" width="150" x="25" y="448" /><rect fill="#f0f4ff" height="36" rx="6" ry="6" stroke="#c7d2fe" stroke-width="1.5" width="150" x="225" y="448" /><rect fill="#f0f4ff" height="36" rx="6" ry="6" stroke="#c7d2fe" stroke-width="1.5" width="150" x="475" y="448" /><rect fill="#f0f4ff" height="36" rx="6" ry="6" stroke="#c7d2fe" stroke-width="1.5" width="150" x="705" y="448" /></svg>