<svg xmlns="http://www.w3.org/2000/svg" width="1200" height="440" viewBox="0 0 1200 440">
<defs>
  <marker id="arrow" markerWidth="10" markerHeight="7" refX="9" refY="3.5" orient="auto">
    <polygon points="0 0.5, 8.5 3.5, 0 6.5" fill="#3b82f6"/>
  </marker>
  <marker id="arrowg" markerWidth="10" markerHeight="7" refX="9" refY="3.5" orient="auto">
    <polygon points="0 0.5, 8.5 3.5, 0 6.5" fill="#9ca3af"/>
  </marker>
</defs>
<rect width="1200" height="440" fill="#ffffff"/>
<text x="600" y="30" font-family="-apple-system, 'Helvetica Neue', Arial, sans-serif" font-size="16" fill="#111827" text-anchor="middle" font-weight="700">HPA 與 VirtualMachinePool 整合架構</text>
<rect x="80" y="190" width="160" height="60" rx="10" fill="#eff6ff" stroke="#bfdbfe" stroke-width="1.5"/>
<text x="160" y="213" font-family="-apple-system, 'Helvetica Neue', Arial, sans-serif" font-size="13" fill="#111827" text-anchor="middle" font-weight="600">HPA</text>
<text x="160" y="230" font-family="-apple-system, 'Helvetica Neue', Arial, sans-serif" font-size="11" fill="#6b7280" text-anchor="middle">(HorizontalPodAutoscaler)</text>
<rect x="380" y="90" width="200" height="60" rx="10" fill="#f9fafb" stroke="#e5e7eb" stroke-width="1.5"/>
<text x="480" y="113" font-family="-apple-system, 'Helvetica Neue', Arial, sans-serif" font-size="13" fill="#111827" text-anchor="middle" font-weight="600">Metrics Server</text>
<text x="480" y="130" font-family="-apple-system, 'Helvetica Neue', Arial, sans-serif" font-size="11" fill="#6b7280" text-anchor="middle">或 Custom Metrics API</text>
<rect x="370" y="290" width="220" height="60" rx="10" fill="#f0f4ff" stroke="#c7d2fe" stroke-width="1.5"/>
<text x="480" y="325" font-family="-apple-system, 'Helvetica Neue', Arial, sans-serif" font-size="13" fill="#111827" text-anchor="middle" font-weight="600">VMIRS / VirtualMachinePool</text>
<rect x="780" y="138" width="140" height="44" rx="8" fill="#f9fafb" stroke="#e5e7eb" stroke-width="1.5"/>
<text x="850" y="165" font-family="-apple-system, 'Helvetica Neue', Arial, sans-serif" font-size="13" fill="#111827" text-anchor="middle" font-weight="600">VMI-0</text>
<rect x="780" y="268" width="140" height="44" rx="8" fill="#f9fafb" stroke="#e5e7eb" stroke-width="1.5"/>
<text x="850" y="295" font-family="-apple-system, 'Helvetica Neue', Arial, sans-serif" font-size="13" fill="#111827" text-anchor="middle" font-weight="600">VMI-1</text>
<rect x="780" y="398" width="140" height="44" rx="8" fill="#f9fafb" stroke="#e5e7eb" stroke-width="1.5"/>
<text x="850" y="425" font-family="-apple-system, 'Helvetica Neue', Arial, sans-serif" font-size="13" fill="#111827" text-anchor="middle" font-weight="600">VMI-2</text>
<path d="M 240 200 Q 300 80 380 120" stroke="#3b82f6" stroke-width="1.5" fill="none" marker-end="url(#arrow)"/>
<text x="310" y="80" font-family="-apple-system, 'Helvetica Neue', Arial, sans-serif" font-size="11" fill="#6b7280" text-anchor="middle">查詢 metrics</text>
<path d="M 240 240 Q 300 360 370 320" stroke="#3b82f6" stroke-width="1.5" fill="none" marker-end="url(#arrow)"/>
<text x="320" y="370" font-family="-apple-system, 'Helvetica Neue', Arial, sans-serif" font-size="11" fill="#6b7280" text-anchor="middle">調整 replicas</text>
<path d="M 590 320 Q 700 320 780 160" stroke="#3b82f6" stroke-width="1.5" fill="none" marker-end="url(#arrow)"/>
<text x="720" y="260" font-family="-apple-system, 'Helvetica Neue', Arial, sans-serif" font-size="10" fill="#6b7280" text-anchor="middle">管理</text>
<path d="M 590 320 Q 700 320 780 290" stroke="#3b82f6" stroke-width="1.5" fill="none" marker-end="url(#arrow)"/>
<text x="720" y="304" font-family="-apple-system, 'Helvetica Neue', Arial, sans-serif" font-size="10" fill="#6b7280" text-anchor="middle">管理</text>
<path d="M 590 320 Q 700 320 780 420" stroke="#3b82f6" stroke-width="1.5" fill="none" marker-end="url(#arrow)"/>
<text x="720" y="347" font-family="-apple-system, 'Helvetica Neue', Arial, sans-serif" font-size="10" fill="#6b7280" text-anchor="middle">管理</text>
<path d="M 580 120 Q 750 120 920 160" stroke="#9ca3af" stroke-width="1.5" fill="none" stroke-dasharray="6,4" marker-end="url(#arrowg)"/>
<path d="M 580 120 Q 750 120 920 290" stroke="#9ca3af" stroke-width="1.5" fill="none" stroke-dasharray="6,4" marker-end="url(#arrowg)"/>
<path d="M 580 120 Q 750 120 920 420" stroke="#9ca3af" stroke-width="1.5" fill="none" stroke-dasharray="6,4" marker-end="url(#arrowg)"/>
<text x="820" y="130" font-family="-apple-system, 'Helvetica Neue', Arial, sans-serif" font-size="10" fill="#6b7280" text-anchor="middle">收集自</text>
</svg>