<svg xmlns="http://www.w3.org/2000/svg" width="900" height="520" viewBox="0 0 900 520">
<defs>
  <marker id="arr" markerWidth="8" markerHeight="6" refX="8" refY="3" orient="auto">
    <polygon points="0 0, 8 3, 0 6" fill="#3b82f6"/>
  </marker>
</defs>
<rect width="900" height="520" fill="#ffffff"/>
<rect x="350" y="20" width="200" height="44" rx="8" fill="#f0f4ff" stroke="#c7d2fe" stroke-width="1.5"/><text x="450" y="42" font-family="-apple-system, 'Helvetica Neue', Arial, sans-serif" font-size="14" font-weight="600" fill="#111827" text-anchor="middle" dominant-baseline="middle">KubeVirt 儲存類型</text><rect x="120" y="140" width="160" height="50" rx="8" fill="#dcfce7" stroke="#86efac" stroke-width="1.5"/><text x="200" y="165" font-family="-apple-system, 'Helvetica Neue', Arial, sans-serif" font-size="13" font-weight="600" fill="#111827" text-anchor="middle"><tspan x="200" dy="-9.1">持久儲存</tspan><tspan x="200" dy="18.2">（Persistent）</tspan></text><line x1="450" y1="64" x2="200" y2="140" stroke="#3b82f6" stroke-width="1.5" marker-end="url(#arr)"/><rect x="370" y="140" width="160" height="50" rx="8" fill="#fef9c3" stroke="#fde047" stroke-width="1.5"/><text x="450" y="165" font-family="-apple-system, 'Helvetica Neue', Arial, sans-serif" font-size="13" font-weight="600" fill="#111827" text-anchor="middle"><tspan x="450" dy="-9.1">暫態儲存</tspan><tspan x="450" dy="18.2">（Ephemeral）</tspan></text><line x1="450" y1="64" x2="450" y2="140" stroke="#3b82f6" stroke-width="1.5" marker-end="url(#arr)"/><rect x="650" y="140" width="160" height="50" rx="8" fill="#dbeafe" stroke="#93c5fd" stroke-width="1.5"/><text x="730" y="165" font-family="-apple-system, 'Helvetica Neue', Arial, sans-serif" font-size="13" font-weight="600" fill="#111827" text-anchor="middle"><tspan x="730" dy="-9.1">設定資料</tspan><tspan x="730" dy="18.2">（Configuration）</tspan></text><line x1="450" y1="64" x2="730" y2="140" stroke="#3b82f6" stroke-width="1.5" marker-end="url(#arr)"/><rect x="60" y="240" width="155" height="46" rx="8" fill="#f9fafb" stroke="#e5e7eb" stroke-width="1.5"/><text x="137" y="263" font-family="-apple-system, 'Helvetica Neue', Arial, sans-serif" font-size="11" font-weight="400" fill="#6b7280" text-anchor="middle"><tspan x="137" dy="-7.699999999999999">PersistentVolumeClaim</tspan><tspan x="137" dy="15.399999999999999">（一般 K8s PVC）</tspan></text><line x1="200" y1="190" x2="137" y2="240" stroke="#3b82f6" stroke-width="1.5" marker-end="url(#arr)"/><rect x="200" y="240" width="155" height="46" rx="8" fill="#f9fafb" stroke="#e5e7eb" stroke-width="1.5"/><text x="277" y="263" font-family="-apple-system, 'Helvetica Neue', Arial, sans-serif" font-size="11" font-weight="400" fill="#6b7280" text-anchor="middle"><tspan x="277" dy="-7.699999999999999">DataVolume</tspan><tspan x="277" dy="15.399999999999999">（CDI 管理）</tspan></text><line x1="200" y1="190" x2="277" y2="240" stroke="#3b82f6" stroke-width="1.5" marker-end="url(#arr)"/><rect x="330" y="240" width="160" height="46" rx="8" fill="#f9fafb" stroke="#e5e7eb" stroke-width="1.5"/><text x="410" y="263" font-family="-apple-system, 'Helvetica Neue', Arial, sans-serif" font-size="11" font-weight="400" fill="#6b7280" text-anchor="middle"><tspan x="410" dy="-7.699999999999999">ContainerDisk</tspan><tspan x="410" dy="15.399999999999999">（容器映像）</tspan></text><line x1="450" y1="190" x2="410" y2="240" stroke="#3b82f6" stroke-width="1.5" marker-end="url(#arr)"/><rect x="450" y="240" width="160" height="46" rx="8" fill="#f9fafb" stroke="#e5e7eb" stroke-width="1.5"/><text x="530" y="263" font-family="-apple-system, 'Helvetica Neue', Arial, sans-serif" font-size="11" font-weight="400" fill="#6b7280" text-anchor="middle"><tspan x="530" dy="-7.699999999999999">EmptyDisk</tspan><tspan x="530" dy="15.399999999999999">（空白磁碟）</tspan></text><line x1="450" y1="190" x2="530" y2="240" stroke="#3b82f6" stroke-width="1.5" marker-end="url(#arr)"/><rect x="330" y="310" width="160" height="46" rx="8" fill="#f9fafb" stroke="#e5e7eb" stroke-width="1.5"/><text x="410" y="333" font-family="-apple-system, 'Helvetica Neue', Arial, sans-serif" font-size="11" font-weight="400" fill="#6b7280" text-anchor="middle"><tspan x="410" dy="-7.699999999999999">Ephemeral PVC</tspan><tspan x="410" dy="15.399999999999999">（PVC 的暫態包裝）</tspan></text><line x1="450" y1="190" x2="410" y2="310" stroke="#3b82f6" stroke-width="1.5" marker-end="url(#arr)"/><rect x="590" y="230" width="220" height="36" rx="8" fill="#f9fafb" stroke="#e5e7eb" stroke-width="1.5"/><text x="700" y="248" font-family="-apple-system, 'Helvetica Neue', Arial, sans-serif" font-size="11" font-weight="400" fill="#6b7280" text-anchor="middle" dominant-baseline="middle">CloudInitNoCloud</text><line x1="730" y1="190" x2="590" y2="248" stroke="#3b82f6" stroke-width="1.5" marker-end="url(#arr)"/><rect x="590" y="280" width="220" height="36" rx="8" fill="#f9fafb" stroke="#e5e7eb" stroke-width="1.5"/><text x="700" y="298" font-family="-apple-system, 'Helvetica Neue', Arial, sans-serif" font-size="11" font-weight="400" fill="#6b7280" text-anchor="middle" dominant-baseline="middle">CloudInitConfigDrive</text><line x1="730" y1="190" x2="590" y2="298" stroke="#3b82f6" stroke-width="1.5" marker-end="url(#arr)"/><rect x="590" y="330" width="220" height="36" rx="8" fill="#f9fafb" stroke="#e5e7eb" stroke-width="1.5"/><text x="700" y="348" font-family="-apple-system, 'Helvetica Neue', Arial, sans-serif" font-size="11" font-weight="400" fill="#6b7280" text-anchor="middle" dominant-baseline="middle">ConfigMap / Secret</text><line x1="730" y1="190" x2="590" y2="348" stroke="#3b82f6" stroke-width="1.5" marker-end="url(#arr)"/><rect x="590" y="380" width="220" height="36" rx="8" fill="#f9fafb" stroke="#e5e7eb" stroke-width="1.5"/><text x="700" y="398" font-family="-apple-system, 'Helvetica Neue', Arial, sans-serif" font-size="11" font-weight="400" fill="#6b7280" text-anchor="middle" dominant-baseline="middle">ServiceAccount</text><line x1="730" y1="190" x2="590" y2="398" stroke="#3b82f6" stroke-width="1.5" marker-end="url(#arr)"/><rect x="590" y="430" width="220" height="36" rx="8" fill="#f9fafb" stroke="#e5e7eb" stroke-width="1.5"/><text x="700" y="448" font-family="-apple-system, 'Helvetica Neue', Arial, sans-serif" font-size="11" font-weight="400" fill="#6b7280" text-anchor="middle" dominant-baseline="middle">DownwardAPI / DownwardMetrics</text><line x1="730" y1="190" x2="590" y2="448" stroke="#3b82f6" stroke-width="1.5" marker-end="url(#arr)"/></svg>