<svg xmlns="http://www.w3.org/2000/svg" width="760" height="240" viewBox="0 0 760 240">
<defs>
  <marker id="arr" markerWidth="8" markerHeight="6" refX="8" refY="3" orient="auto">
    <polygon points="0 0, 8 3, 0 6" fill="#3b82f6"/>
  </marker>
</defs>
<rect width="760" height="240" fill="#ffffff"/>
<rect x="20" y="20" width="340" height="90" rx="10" fill="#f0f4ff" stroke="#c7d2fe" stroke-width="1.5"/><text x="190" y="40" font-family="-apple-system, 'Helvetica Neue', Arial, sans-serif" font-size="12" font-weight="600" fill="#6b7280" text-anchor="middle" dominant-baseline="middle">效能排序（高 → 低）</text><rect x="40" y="60" width="52" height="32" rx="6" fill="#3b82f6" stroke="#3b82f6" stroke-width="1.5"/><text x="66" y="76" font-family="-apple-system, 'Helvetica Neue', Arial, sans-serif" font-size="11" font-weight="600" fill="#fff" text-anchor="middle" dominant-baseline="middle">virtio</text><line x1="92" y1="76" x2="102" y2="76" stroke="#3b82f6" stroke-width="1.5" marker-end="url(#arr)"/><rect x="102" y="60" width="52" height="32" rx="6" fill="#6366f1" stroke="#6366f1" stroke-width="1.5"/><text x="128" y="76" font-family="-apple-system, 'Helvetica Neue', Arial, sans-serif" font-size="11" font-weight="600" fill="#fff" text-anchor="middle" dominant-baseline="middle">scsi</text><line x1="154" y1="76" x2="164" y2="76" stroke="#3b82f6" stroke-width="1.5" marker-end="url(#arr)"/><rect x="164" y="60" width="52" height="32" rx="6" fill="#8b5cf6" stroke="#8b5cf6" stroke-width="1.5"/><text x="190" y="76" font-family="-apple-system, 'Helvetica Neue', Arial, sans-serif" font-size="11" font-weight="600" fill="#fff" text-anchor="middle" dominant-baseline="middle">sas</text><line x1="216" y1="76" x2="226" y2="76" stroke="#3b82f6" stroke-width="1.5" marker-end="url(#arr)"/><rect x="226" y="60" width="52" height="32" rx="6" fill="#a78bfa" stroke="#a78bfa" stroke-width="1.5"/><text x="252" y="76" font-family="-apple-system, 'Helvetica Neue', Arial, sans-serif" font-size="11" font-weight="600" fill="#fff" text-anchor="middle" dominant-baseline="middle">sata</text><line x1="278" y1="76" x2="288" y2="76" stroke="#3b82f6" stroke-width="1.5" marker-end="url(#arr)"/><rect x="288" y="60" width="52" height="32" rx="6" fill="#c4b5fd" stroke="#c4b5fd" stroke-width="1.5"/><text x="314" y="76" font-family="-apple-system, 'Helvetica Neue', Arial, sans-serif" font-size="11" font-weight="600" fill="#fff" text-anchor="middle" dominant-baseline="middle">usb</text><rect x="400" y="20" width="340" height="90" rx="10" fill="#f0f4ff" stroke="#c7d2fe" stroke-width="1.5"/><text x="570" y="40" font-family="-apple-system, 'Helvetica Neue', Arial, sans-serif" font-size="12" font-weight="600" fill="#6b7280" text-anchor="middle" dominant-baseline="middle">相容性排序（高 → 低）</text><rect x="420" y="60" width="52" height="32" rx="6" fill="#10b981" stroke="#10b981" stroke-width="1.5"/><text x="446" y="76" font-family="-apple-system, 'Helvetica Neue', Arial, sans-serif" font-size="11" font-weight="600" fill="#065f46" text-anchor="middle" dominant-baseline="middle">sata</text><line x1="472" y1="76" x2="482" y2="76" stroke="#3b82f6" stroke-width="1.5" marker-end="url(#arr)"/><rect x="482" y="60" width="52" height="32" rx="6" fill="#34d399" stroke="#34d399" stroke-width="1.5"/><text x="508" y="76" font-family="-apple-system, 'Helvetica Neue', Arial, sans-serif" font-size="11" font-weight="600" fill="#065f46" text-anchor="middle" dominant-baseline="middle">scsi</text><line x1="534" y1="76" x2="544" y2="76" stroke="#3b82f6" stroke-width="1.5" marker-end="url(#arr)"/><rect x="544" y="60" width="52" height="32" rx="6" fill="#6ee7b7" stroke="#6ee7b7" stroke-width="1.5"/><text x="570" y="76" font-family="-apple-system, 'Helvetica Neue', Arial, sans-serif" font-size="11" font-weight="600" fill="#065f46" text-anchor="middle" dominant-baseline="middle">sas</text><line x1="596" y1="76" x2="606" y2="76" stroke="#3b82f6" stroke-width="1.5" marker-end="url(#arr)"/><rect x="606" y="60" width="52" height="32" rx="6" fill="#a7f3d0" stroke="#a7f3d0" stroke-width="1.5"/><text x="632" y="76" font-family="-apple-system, 'Helvetica Neue', Arial, sans-serif" font-size="11" font-weight="600" fill="#065f46" text-anchor="middle" dominant-baseline="middle">virtio</text><line x1="658" y1="76" x2="668" y2="76" stroke="#3b82f6" stroke-width="1.5" marker-end="url(#arr)"/><rect x="668" y="60" width="52" height="32" rx="6" fill="#d1fae5" stroke="#d1fae5" stroke-width="1.5"/><text x="694" y="76" font-family="-apple-system, 'Helvetica Neue', Arial, sans-serif" font-size="11" font-weight="600" fill="#065f46" text-anchor="middle" dominant-baseline="middle">usb</text><text x="380" y="150" font-family="-apple-system, 'Helvetica Neue', Arial, sans-serif" font-size="12" font-weight="400" fill="#6b7280" text-anchor="middle" dominant-baseline="middle">效能最高：virtio（需要驅動）  ·  相容性最高：sata（無需額外驅動）</text></svg>