<svg xmlns="http://www.w3.org/2000/svg" width="900" height="380" viewBox="0 0 900 380">
<defs>
  <marker id="arr" markerWidth="8" markerHeight="6" refX="8" refY="3" orient="auto">
    <polygon points="0 0, 8 3, 0 6" fill="#3b82f6"/>
  </marker>
</defs>
<rect width="900" height="380" fill="#ffffff"/>
<rect x="30" y="10" width="100" height="36" rx="6" fill="#f0f4ff" stroke="#c7d2fe" stroke-width="1.5"/><text x="80" y="28" font-family="-apple-system, 'Helvetica Neue', Arial, sans-serif" font-size="11" font-weight="600" fill="#111827" text-anchor="middle" dominant-baseline="middle">管理員</text><line x1="80" y1="46" x2="80" y2="360" stroke="#e5e7eb" stroke-width="1" stroke-dasharray="4 3"/><rect x="180" y="10" width="100" height="36" rx="6" fill="#f0f4ff" stroke="#c7d2fe" stroke-width="1.5"/><text x="230" y="28" font-family="-apple-system, 'Helvetica Neue', Arial, sans-serif" font-size="11" font-weight="600" fill="#111827" text-anchor="middle" dominant-baseline="middle">Kubernetes</text><line x1="230" y1="46" x2="230" y2="360" stroke="#e5e7eb" stroke-width="1" stroke-dasharray="4 3"/><rect x="330" y="10" width="100" height="36" rx="6" fill="#f0f4ff" stroke="#c7d2fe" stroke-width="1.5"/><text x="380" y="28" font-family="-apple-system, 'Helvetica Neue', Arial, sans-serif" font-size="11" font-weight="600" fill="#111827" text-anchor="middle" dominant-baseline="middle">CSI Driver</text><line x1="380" y1="46" x2="380" y2="360" stroke="#e5e7eb" stroke-width="1" stroke-dasharray="4 3"/><rect x="480" y="10" width="100" height="36" rx="6" fill="#f0f4ff" stroke="#c7d2fe" stroke-width="1.5"/><text x="530" y="28" font-family="-apple-system, 'Helvetica Neue', Arial, sans-serif" font-size="11" font-weight="600" fill="#111827" text-anchor="middle" dominant-baseline="middle">KubeVirt</text><line x1="530" y1="46" x2="530" y2="360" stroke="#e5e7eb" stroke-width="1" stroke-dasharray="4 3"/><rect x="650" y="10" width="100" height="36" rx="6" fill="#f0f4ff" stroke="#c7d2fe" stroke-width="1.5"/><text x="700" y="28" font-family="-apple-system, 'Helvetica Neue', Arial, sans-serif" font-size="11" font-weight="600" fill="#111827" text-anchor="middle" dominant-baseline="middle">VM Guest</text><line x1="700" y1="46" x2="700" y2="360" stroke="#e5e7eb" stroke-width="1" stroke-dasharray="4 3"/><line x1="80" y1="70" x2="230" y2="70" stroke="#3b82f6" stroke-width="1.5" marker-end="url(#arr)"/><text x="155" y="62" font-family="-apple-system, 'Helvetica Neue', Arial, sans-serif" font-size="10" fill="#6b7280" text-anchor="middle">修改 PVC 大小</text><line x1="230" y1="106" x2="380" y2="106" stroke="#3b82f6" stroke-width="1.5" marker-end="url(#arr)"/><text x="305" y="98" font-family="-apple-system, 'Helvetica Neue', Arial, sans-serif" font-size="10" fill="#6b7280" text-anchor="middle">請求擴展 Volume</text><path d="M380 142 Q420 142 420 156 Q420 170 380 170" fill="none" stroke="#3b82f6" stroke-width="1.5" marker-end="url(#arr)"/><text x="426" y="156" font-family="-apple-system, 'Helvetica Neue', Arial, sans-serif" font-size="10" fill="#6b7280" dominant-baseline="middle">擴展底層儲存</text><line x1="380" y1="178" x2="230" y2="178" stroke="#3b82f6" stroke-width="1.5" marker-end="url(#arr)"/><text x="305" y="170" font-family="-apple-system, 'Helvetica Neue', Arial, sans-serif" font-size="10" fill="#6b7280" text-anchor="middle">回報新大小</text><line x1="230" y1="214" x2="530" y2="214" stroke="#3b82f6" stroke-width="1.5" marker-end="url(#arr)"/><text x="380" y="206" font-family="-apple-system, 'Helvetica Neue', Arial, sans-serif" font-size="10" fill="#6b7280" text-anchor="middle">VMI 感知 PVC 大小變化</text><line x1="530" y1="250" x2="700" y2="250" stroke="#3b82f6" stroke-width="1.5" marker-end="url(#arr)"/><text x="615" y="242" font-family="-apple-system, 'Helvetica Neue', Arial, sans-serif" font-size="10" fill="#6b7280" text-anchor="middle">透過 virsh blockresize 通知 VM</text><path d="M700 286 Q740 286 740 300 Q740 314 700 314" fill="none" stroke="#3b82f6" stroke-width="1.5" marker-end="url(#arr)"/><text x="746" y="300" font-family="-apple-system, 'Helvetica Neue', Arial, sans-serif" font-size="10" fill="#6b7280" dominant-baseline="middle">Guest OS 感知磁碟新大小</text><line x1="80" y1="322" x2="700" y2="322" stroke="#3b82f6" stroke-width="1.5" marker-end="url(#arr)"/><text x="390" y="314" font-family="-apple-system, 'Helvetica Neue', Arial, sans-serif" font-size="10" fill="#6b7280" text-anchor="middle">在 VM 內執行 growpart/resize2fs</text></svg>