<svg xmlns="http://www.w3.org/2000/svg" width="680" height="240" viewBox="0 0 680 240">
<defs>
  <marker id="arr" markerWidth="8" markerHeight="6" refX="8" refY="3" orient="auto">
    <polygon points="0 0, 8 3, 0 6" fill="#3b82f6"/>
  </marker>
</defs>
<rect width="680" height="240" fill="#ffffff"/>
<rect x="20" y="10" width="280" height="200" rx="10" fill="#f0f4ff" stroke="#c7d2fe" stroke-width="1.5"/><text x="160" y="30" font-family="-apple-system, 'Helvetica Neue', Arial, sans-serif" font-size="13" font-weight="600" fill="#6b7280" text-anchor="middle" dominant-baseline="middle">shared 策略</text><rect x="60" y="55" width="100" height="36" rx="6" fill="#dbeafe" stroke="#93c5fd" stroke-width="1.5"/><text x="110" y="73" font-family="-apple-system, 'Helvetica Neue', Arial, sans-serif" font-size="12" font-weight="600" fill="#1d4ed8" text-anchor="middle" dominant-baseline="middle">IOThread 1</text><rect x="230" y="92" width="60" height="32" rx="6" fill="#f9fafb" stroke="#e5e7eb" stroke-width="1.5"/><text x="260" y="110" font-family="-apple-system, 'Helvetica Neue', Arial, sans-serif" font-size="11" font-weight="400" fill="#111827" text-anchor="middle" dominant-baseline="middle">Disk 1</text><line x1="160" y1="73" x2="230" y2="110" stroke="#3b82f6" stroke-width="1.5" marker-end="url(#arr)"/><rect x="230" y="132" width="60" height="32" rx="6" fill="#f9fafb" stroke="#e5e7eb" stroke-width="1.5"/><text x="260" y="150" font-family="-apple-system, 'Helvetica Neue', Arial, sans-serif" font-size="11" font-weight="400" fill="#111827" text-anchor="middle" dominant-baseline="middle">Disk 2</text><line x1="160" y1="73" x2="230" y2="150" stroke="#3b82f6" stroke-width="1.5" marker-end="url(#arr)"/><rect x="230" y="172" width="60" height="32" rx="6" fill="#f9fafb" stroke="#e5e7eb" stroke-width="1.5"/><text x="260" y="190" font-family="-apple-system, 'Helvetica Neue', Arial, sans-serif" font-size="11" font-weight="400" fill="#111827" text-anchor="middle" dominant-baseline="middle">Disk 3</text><line x1="160" y1="73" x2="230" y2="190" stroke="#3b82f6" stroke-width="1.5" marker-end="url(#arr)"/><rect x="380" y="10" width="280" height="200" rx="10" fill="#f0f4ff" stroke="#c7d2fe" stroke-width="1.5"/><text x="520" y="30" font-family="-apple-system, 'Helvetica Neue', Arial, sans-serif" font-size="13" font-weight="600" fill="#6b7280" text-anchor="middle" dominant-baseline="middle">auto 策略</text><rect x="400" y="62" width="100" height="32" rx="6" fill="#dbeafe" stroke="#93c5fd" stroke-width="1.5"/><text x="450" y="80" font-family="-apple-system, 'Helvetica Neue', Arial, sans-serif" font-size="12" font-weight="600" fill="#1d4ed8" text-anchor="middle" dominant-baseline="middle">IOThread 1</text><rect x="540" y="66" width="60" height="28" rx="6" fill="#f9fafb" stroke="#e5e7eb" stroke-width="1.5"/><text x="570" y="80" font-family="-apple-system, 'Helvetica Neue', Arial, sans-serif" font-size="11" font-weight="400" fill="#111827" text-anchor="middle" dominant-baseline="middle">Disk 1</text><line x1="500" y1="80" x2="540" y2="80" stroke="#3b82f6" stroke-width="1.5" marker-end="url(#arr)"/><rect x="400" y="102" width="100" height="32" rx="6" fill="#dcfce7" stroke="#86efac" stroke-width="1.5"/><text x="450" y="120" font-family="-apple-system, 'Helvetica Neue', Arial, sans-serif" font-size="12" font-weight="600" fill="#166534" text-anchor="middle" dominant-baseline="middle">IOThread 2</text><rect x="540" y="106" width="60" height="28" rx="6" fill="#f9fafb" stroke="#e5e7eb" stroke-width="1.5"/><text x="570" y="120" font-family="-apple-system, 'Helvetica Neue', Arial, sans-serif" font-size="11" font-weight="400" fill="#111827" text-anchor="middle" dominant-baseline="middle">Disk 2</text><line x1="500" y1="120" x2="540" y2="120" stroke="#3b82f6" stroke-width="1.5" marker-end="url(#arr)"/><rect x="400" y="142" width="100" height="32" rx="6" fill="#fef9c3" stroke="#fde047" stroke-width="1.5"/><text x="450" y="160" font-family="-apple-system, 'Helvetica Neue', Arial, sans-serif" font-size="12" font-weight="600" fill="#713f12" text-anchor="middle" dominant-baseline="middle">IOThread 3</text><rect x="540" y="146" width="60" height="28" rx="6" fill="#f9fafb" stroke="#e5e7eb" stroke-width="1.5"/><text x="570" y="160" font-family="-apple-system, 'Helvetica Neue', Arial, sans-serif" font-size="11" font-weight="400" fill="#111827" text-anchor="middle" dominant-baseline="middle">Disk 3</text><line x1="500" y1="160" x2="540" y2="160" stroke="#3b82f6" stroke-width="1.5" marker-end="url(#arr)"/></svg>