<?xml version="1.0" encoding="utf-8" ?>
<svg baseProfile="full" height="500" version="1.1" width="900" xmlns="http://www.w3.org/2000/svg" xmlns:ev="http://www.w3.org/2001/xml-events" xmlns:xlink="http://www.w3.org/1999/xlink"><defs /><rect fill="#ffffff" height="500" width="900" x="0" y="0" /><text fill="#111827" font-family="-apple-system, 'Helvetica Neue', Arial, sans-serif" font-size="18" font-weight="600" text-anchor="middle" x="450" y="36">Bridge 模式網路架構</text><rect fill="#fafbff" height="390" rx="12" ry="12" stroke="#c7d2fe" stroke-width="1.5" width="560" x="30" y="55" /><text fill="#6b7280" font-family="-apple-system, 'Helvetica Neue', Arial, sans-serif" font-size="12" font-weight="normal" text-anchor="start" x="80" y="78">節點 Host</text><rect fill="#f0f4ff" height="240" rx="10" ry="10" stroke="#c7d2fe" stroke-width="1.5" width="480" x="60" y="90" /><text fill="#6b7280" font-family="-apple-system, 'Helvetica Neue', Arial, sans-serif" font-size="12" font-weight="normal" text-anchor="middle" x="310" y="114">Pod Network Namespace</text><rect fill="#dbeafe" height="64" rx="8" ry="8" stroke="#3b82f6" stroke-width="1.5" width="200" x="180" y="130" /><text fill="#1d4ed8" font-family="-apple-system, 'Helvetica Neue', Arial, sans-serif" font-size="12" text-anchor="middle" x="280" y="150">Linux Bridge</text><text fill="#1d4ed8" font-family="-apple-system, 'Helvetica Neue', Arial, sans-serif" font-size="12" text-anchor="middle" x="280" y="166">k6t-eth0</text><text fill="#1d4ed8" font-family="-apple-system, 'Helvetica Neue', Arial, sans-serif" font-size="12" text-anchor="middle" x="280" y="182">IP: 10.244.1.5/24</text><rect fill="#f9fafb" height="52" rx="8" ry="8" stroke="#e5e7eb" stroke-width="1.5" width="120" x="80" y="230" /><text fill="#111827" font-family="-apple-system, 'Helvetica Neue', Arial, sans-serif" font-size="12" text-anchor="middle" x="140" y="252">eth0</text><text fill="#111827" font-family="-apple-system, 'Helvetica Neue', Arial, sans-serif" font-size="12" text-anchor="middle" x="140" y="268">（移除 IP）</text><rect fill="#fef3c7" height="52" rx="8" ry="8" stroke="#f59e0b" stroke-width="1.5" width="120" x="360" y="230" /><text fill="#92400e" font-family="-apple-system, 'Helvetica Neue', Arial, sans-serif" font-size="12" text-anchor="middle" x="420" y="252">tap0</text><text fill="#92400e" font-family="-apple-system, 'Helvetica Neue', Arial, sans-serif" font-size="12" text-anchor="middle" x="420" y="268">（連接 VM）</text><line stroke="#e5e7eb" stroke-width="1.5" x1="280" x2="280" y1="194" y2="230" /><line stroke="#e5e7eb" stroke-width="1.5" x1="140" x2="280" y1="212" y2="212" /><line stroke="#e5e7eb" stroke-width="1.5" x1="280" x2="420" y1="212" y2="212" /><line stroke="#e5e7eb" stroke-width="1.5" x1="140" x2="140" y1="212" y2="230" /><line stroke="#e5e7eb" stroke-width="1.5" x1="420" x2="420" y1="212" y2="230" /><rect fill="#f9fafb" height="52" rx="8" ry="8" stroke="#e5e7eb" stroke-width="1.5" width="140" x="80" y="360" /><text fill="#111827" font-family="-apple-system, 'Helvetica Neue', Arial, sans-serif" font-size="12" text-anchor="middle" x="150" y="382">veth-host</text><text fill="#111827" font-family="-apple-system, 'Helvetica Neue', Arial, sans-serif" font-size="12" text-anchor="middle" x="150" y="398">（host netns）</text><line stroke="#3b82f6" stroke-width="1.5" x1="140" x2="140" y1="282" y2="360" /><polygon fill="#3b82f6" points="140,360 136,351 144,351" /><text fill="#6b7280" font-family="-apple-system, 'Helvetica Neue', Arial, sans-serif" font-size="10" font-weight="normal" text-anchor="start" x="175" y="322">veth pair</text><rect fill="#f0f4ff" height="50" rx="8" ry="8" stroke="#c7d2fe" stroke-width="1.5" width="140" x="80" y="430" /><text fill="#111827" font-family="-apple-system, 'Helvetica Neue', Arial, sans-serif" font-size="12" text-anchor="middle" x="150" y="451">CNI Plugin</text><text fill="#111827" font-family="-apple-system, 'Helvetica Neue', Arial, sans-serif" font-size="12" text-anchor="middle" x="150" y="467">（calico/flannel）</text><line stroke="#3b82f6" stroke-width="1.5" x1="150" x2="150" y1="412" y2="430" /><polygon fill="#3b82f6" points="150,430 146,421 154,421" /><rect fill="#f0fdf4" height="140" rx="10" ry="10" stroke="#86efac" stroke-width="1.5" width="230" x="640" y="90" /><text fill="#6b7280" font-family="-apple-system, 'Helvetica Neue', Arial, sans-serif" font-size="12" font-weight="normal" text-anchor="middle" x="755" y="113">VM Guest</text><rect fill="#dcfce7" height="80" rx="8" ry="8" stroke="#22c55e" stroke-width="1.5" width="190" x="660" y="125" /><text fill="#166534" font-family="-apple-system, 'Helvetica Neue', Arial, sans-serif" font-size="12" text-anchor="middle" x="755" y="153">eth0</text><text fill="#166534" font-family="-apple-system, 'Helvetica Neue', Arial, sans-serif" font-size="12" text-anchor="middle" x="755" y="169">IP: 10.244.1.5/24</text><text fill="#166534" font-family="-apple-system, 'Helvetica Neue', Arial, sans-serif" font-size="12" text-anchor="middle" x="755" y="185">（同 Pod IP）</text><line stroke="#3b82f6" stroke-width="1.5" x1="480" x2="660" y1="258" y2="258" /><polygon fill="#3b82f6" points="660,258 651,254 651,262" /><text fill="#6b7280" font-family="-apple-system, 'Helvetica Neue', Arial, sans-serif" font-size="11" text-anchor="middle" x="570.0" y="251">virtio tap</text><line stroke="#3b82f6" stroke-width="1.5" x1="480" x2="660" y1="258" y2="258" /><polygon fill="#3b82f6" points="660,258 651,254 651,262" /><polygon fill="#3b82f6" points="480,258 489,254 489,262" /><text fill="#6b7280" font-family="-apple-system, 'Helvetica Neue', Arial, sans-serif" font-size="11" text-anchor="middle" x="570" y="248">virtio tap</text><text fill="#6b7280" font-family="-apple-system, 'Helvetica Neue', Arial, sans-serif" font-size="12" font-weight="600" text-anchor="start" x="640" y="260">圖例</text><rect fill="#dbeafe" height="16" rx="3" stroke="#3b82f6" stroke-width="1.5" width="16" x="640" y="280" /><text fill="#111827" font-family="-apple-system, 'Helvetica Neue', Arial, sans-serif" font-size="11" font-weight="normal" text-anchor="start" x="664" y="292">Linux Bridge（k6t-eth0）</text><rect fill="#fef3c7" height="16" rx="3" stroke="#f59e0b" stroke-width="1.5" width="16" x="640" y="308" /><text fill="#111827" font-family="-apple-system, 'Helvetica Neue', Arial, sans-serif" font-size="11" font-weight="normal" text-anchor="start" x="664" y="320">TAP 介面（tap0）</text><rect fill="#dcfce7" height="16" rx="3" stroke="#22c55e" stroke-width="1.5" width="16" x="640" y="336" /><text fill="#111827" font-family="-apple-system, 'Helvetica Neue', Arial, sans-serif" font-size="11" font-weight="normal" text-anchor="start" x="664" y="348">VM 虛擬網卡</text></svg>