<?xml version="1.0" encoding="utf-8" ?>
<svg baseProfile="full" height="300" version="1.1" width="860" xmlns="http://www.w3.org/2000/svg" xmlns:ev="http://www.w3.org/2001/xml-events" xmlns:xlink="http://www.w3.org/1999/xlink"><defs /><rect fill="#ffffff" height="300" width="860" x="0" y="0" /><text fill="#111827" font-family="-apple-system, 'Helvetica Neue', Arial, sans-serif" font-size="18" font-weight="600" text-anchor="middle" x="430" y="34">VFIO 驅動架構</text><rect fill="#fafbff" height="200" rx="10" ry="10" stroke="#c7d2fe" stroke-width="1.5" width="370" x="30" y="60" /><text fill="#6b7280" font-family="-apple-system, 'Helvetica Neue', Arial, sans-serif" font-size="12" font-weight="normal" text-anchor="middle" x="215" y="82">核心態 Kernel Space</text><rect fill="#dbeafe" height="70" rx="8" ry="8" stroke="#3b82f6" stroke-width="1.5" width="190" x="55" y="100" /><text fill="#1d4ed8" font-family="-apple-system, 'Helvetica Neue', Arial, sans-serif" font-size="12" text-anchor="middle" x="150" y="131">VFIO Kernel Module</text><text fill="#1d4ed8" font-family="-apple-system, 'Helvetica Neue', Arial, sans-serif" font-size="12" text-anchor="middle" x="150" y="147">（vfio, vfio-pci）</text><rect fill="#fef3c7" height="55" rx="8" ry="8" stroke="#f59e0b" stroke-width="1.5" width="190" x="55" y="195" /><text fill="#92400e" font-family="-apple-system, 'Helvetica Neue', Arial, sans-serif" font-size="12" text-anchor="middle" x="150" y="218">IOMMU Group</text><text fill="#92400e" font-family="-apple-system, 'Helvetica Neue', Arial, sans-serif" font-size="12" text-anchor="middle" x="150" y="234">（裝置隔離邊界）</text><line stroke="#3b82f6" stroke-width="1.5" x1="150" x2="150" y1="185" y2="185" /><polygon fill="#3b82f6" points="150,185 141,181 141,189" /><line stroke="#3b82f6" stroke-width="1.5" x1="150" x2="150" y1="170" y2="195" /><polygon fill="#3b82f6" points="150,195 146,186 154,186" /><rect fill="#fafbff" height="200" rx="10" ry="10" stroke="#c7d2fe" stroke-width="1.5" width="370" x="460" y="60" /><text fill="#6b7280" font-family="-apple-system, 'Helvetica Neue', Arial, sans-serif" font-size="12" font-weight="normal" text-anchor="middle" x="645" y="82">使用者態 User Space</text><rect fill="#dcfce7" height="70" rx="8" ry="8" stroke="#22c55e" stroke-width="1.5" width="155" x="485" y="100" /><text fill="#166534" font-family="-apple-system, 'Helvetica Neue', Arial, sans-serif" font-size="12" text-anchor="middle" x="562" y="131">QEMU/KVM</text><text fill="#166534" font-family="-apple-system, 'Helvetica Neue', Arial, sans-serif" font-size="12" text-anchor="middle" x="562" y="147">（VM Hypervisor）</text><rect fill="#fee2e2" height="55" rx="8" ry="8" stroke="#ef4444" stroke-width="1.5" width="155" x="485" y="195" /><text fill="#991b1b" font-family="-apple-system, 'Helvetica Neue', Arial, sans-serif" font-size="12" text-anchor="middle" x="562" y="218">VFIO User API</text><text fill="#991b1b" font-family="-apple-system, 'Helvetica Neue', Arial, sans-serif" font-size="12" text-anchor="middle" x="562" y="234">/dev/vfio/</text><line stroke="#3b82f6" stroke-width="1.5" x1="245" x2="485" y1="222" y2="222" /><polygon fill="#3b82f6" points="485,222 476,218 476,226" /><text fill="#6b7280" font-family="-apple-system, 'Helvetica Neue', Arial, sans-serif" font-size="11" text-anchor="middle" x="365.0" y="215">安全 DMA</text><line stroke="#3b82f6" stroke-width="1.5" x1="562" x2="562" y1="195" y2="170" /><polygon fill="#3b82f6" points="562,170 558,179 566,179" /></svg>