<svg xmlns="http://www.w3.org/2000/svg" width="1200" height="580" viewBox="0 0 1200 580">
<defs>
  <marker id="arrow" markerWidth="10" markerHeight="7" refX="9" refY="3.5" orient="auto">
    <polygon points="0 0.5, 8.5 3.5, 0 6.5" fill="#3b82f6"/>
  </marker>
  <marker id="arrowg" markerWidth="10" markerHeight="7" refX="9" refY="3.5" orient="auto">
    <polygon points="0 0.5, 8.5 3.5, 0 6.5" fill="#9ca3af"/>
  </marker>
</defs>
<rect width="1200" height="580" fill="#ffffff"/>
<text x="600" y="30" font-family="-apple-system, 'Helvetica Neue', Arial, sans-serif" font-size="16" fill="#111827" text-anchor="middle" font-weight="700">節點驅逐觸發 Live Migration 流程</text>
<rect x="80" y="50" width="150" height="52" rx="8" fill="#eff6ff" stroke="#bfdbfe" stroke-width="1.5"/>
<text x="155" y="72" font-family="-apple-system, 'Helvetica Neue', Arial, sans-serif" font-size="13" fill="#111827" text-anchor="middle" font-weight="700">Admin</text>
<text x="155" y="90" font-family="-apple-system, 'Helvetica Neue', Arial, sans-serif" font-size="11" fill="#6b7280" text-anchor="middle">Admin</text>
<line x1="155" y1="102" x2="155" y2="550" stroke="#e5e7eb" stroke-width="1.5" stroke-dasharray="6,4"/>
<rect x="376" y="50" width="150" height="52" rx="8" fill="#eff6ff" stroke="#bfdbfe" stroke-width="1.5"/>
<text x="451" y="72" font-family="-apple-system, 'Helvetica Neue', Arial, sans-serif" font-size="13" fill="#111827" text-anchor="middle" font-weight="700">Node</text>
<text x="451" y="90" font-family="-apple-system, 'Helvetica Neue', Arial, sans-serif" font-size="11" fill="#6b7280" text-anchor="middle">node01</text>
<line x1="451" y1="102" x2="451" y2="550" stroke="#e5e7eb" stroke-width="1.5" stroke-dasharray="6,4"/>
<rect x="672" y="50" width="150" height="52" rx="8" fill="#eff6ff" stroke="#bfdbfe" stroke-width="1.5"/>
<text x="747" y="72" font-family="-apple-system, 'Helvetica Neue', Arial, sans-serif" font-size="13" fill="#111827" text-anchor="middle" font-weight="700">Controller</text>
<text x="747" y="90" font-family="-apple-system, 'Helvetica Neue', Arial, sans-serif" font-size="11" fill="#6b7280" text-anchor="middle">KubeVirt Controller</text>
<line x1="747" y1="102" x2="747" y2="550" stroke="#e5e7eb" stroke-width="1.5" stroke-dasharray="6,4"/>
<rect x="968" y="50" width="150" height="52" rx="8" fill="#eff6ff" stroke="#bfdbfe" stroke-width="1.5"/>
<text x="1043" y="72" font-family="-apple-system, 'Helvetica Neue', Arial, sans-serif" font-size="13" fill="#111827" text-anchor="middle" font-weight="700">VMI</text>
<text x="1043" y="90" font-family="-apple-system, 'Helvetica Neue', Arial, sans-serif" font-size="11" fill="#6b7280" text-anchor="middle">VMI</text>
<line x1="1043" y1="102" x2="1043" y2="550" stroke="#e5e7eb" stroke-width="1.5" stroke-dasharray="6,4"/>
<line x1="155" y1="140" x2="451" y2="140" stroke="#3b82f6" stroke-width="1.5" marker-end="url(#arrow)"/>
<text x="303" y="134" font-family="-apple-system, 'Helvetica Neue', Arial, sans-serif" font-size="11" fill="#6b7280" text-anchor="middle">kubectl drain node01</text>
<line x1="451" y1="192" x2="1043" y2="192" stroke="#3b82f6" stroke-width="1.5" marker-end="url(#arrow)"/>
<text x="747" y="186" font-family="-apple-system, 'Helvetica Neue', Arial, sans-serif" font-size="11" fill="#6b7280" text-anchor="middle">Eviction Request</text>
<line x1="1043" y1="244" x2="747" y2="244" stroke="#3b82f6" stroke-width="1.5" marker-end="url(#arrow)"/>
<text x="895" y="238" font-family="-apple-system, 'Helvetica Neue', Arial, sans-serif" font-size="11" fill="#6b7280" text-anchor="middle">觸發 Eviction Hook</text>
<path d="M 747 296 Q 807 296 807 316 Q 807 336 747 336" stroke="#3b82f6" stroke-width="1.5" fill="none" marker-end="url(#arrow)"/>
<text x="817" y="318" font-family="-apple-system, 'Helvetica Neue', Arial, sans-serif" font-size="11" fill="#6b7280" text-anchor="start">檢查 EvictionStrategy</text>
<path d="M 747 388 Q 807 388 807 408 Q 807 428 747 428" stroke="#3b82f6" stroke-width="1.5" fill="none" marker-end="url(#arrow)"/>
<text x="817" y="410" font-family="-apple-system, 'Helvetica Neue', Arial, sans-serif" font-size="11" fill="#6b7280" text-anchor="start">建立 VirtualMachineInstanceMigration</text>
<line x1="747" y1="480" x2="1043" y2="480" stroke="#3b82f6" stroke-width="1.5" marker-end="url(#arrow)"/>
<text x="895" y="474" font-family="-apple-system, 'Helvetica Neue', Arial, sans-serif" font-size="11" fill="#6b7280" text-anchor="middle">開始 Live Migration</text>
<line x1="1043" y1="532" x2="155" y2="532" stroke="#9ca3af" stroke-width="1.5" stroke-dasharray="5,3" marker-end="url(#arrowg)"/>
<text x="599" y="526" font-family="-apple-system, 'Helvetica Neue', Arial, sans-serif" font-size="11" fill="#6b7280" text-anchor="middle">Migration Succeeded</text>
<line x1="451" y1="584" x2="155" y2="584" stroke="#9ca3af" stroke-width="1.5" stroke-dasharray="5,3" marker-end="url(#arrowg)"/>
<text x="303" y="578" font-family="-apple-system, 'Helvetica Neue', Arial, sans-serif" font-size="11" fill="#6b7280" text-anchor="middle">Pod Evicted（Migration 完成後）</text>
</svg>