<svg xmlns="http://www.w3.org/2000/svg" width="1200" height="560" viewBox="0 0 1200 560">
<rect width="1200" height="560" fill="#ffffff"/>
<defs>
  <marker id="arrow" markerWidth="10" markerHeight="7" refX="9" refY="3.5" orient="auto">
    <polygon points="0 0.5, 8.5 3.5, 0 6.5" fill="#3b82f6"/>
  </marker>
</defs>
<text x="600" y="36" font-family="-apple-system, 'Helvetica Neue', Arial, sans-serif" font-size="20" font-weight="700" fill="#111827" text-anchor="middle">Sysprep 自動化安裝序列</text>
<rect x="40" y="55" width="200" height="55" rx="8" fill="#fef3c7" stroke="#f59e0b" stroke-width="1.5"/><text x="140.0" y="88.0" font-family="-apple-system, 'Helvetica Neue', Arial, sans-serif" font-size="13" font-weight="600" fill="#111827" text-anchor="middle">使用者</text>
<rect x="300" y="55" width="200" height="55" rx="8" fill="#dbeafe" stroke="#3b82f6" stroke-width="1.5"/><text x="400.0" y="88.0" font-family="-apple-system, 'Helvetica Neue', Arial, sans-serif" font-size="13" font-weight="600" fill="#111827" text-anchor="middle">Kubernetes API</text>
<rect x="580" y="55" width="200" height="55" rx="8" fill="#dcfce7" stroke="#22c55e" stroke-width="1.5"/><text x="680.0" y="88.0" font-family="-apple-system, 'Helvetica Neue', Arial, sans-serif" font-size="13" font-weight="600" fill="#111827" text-anchor="middle">virt-launcher</text>
<rect x="880" y="55" width="200" height="55" rx="8" fill="#ede9fe" stroke="#8b5cf6" stroke-width="1.5"/><text x="980.0" y="88.0" font-family="-apple-system, 'Helvetica Neue', Arial, sans-serif" font-size="13" font-weight="600" fill="#111827" text-anchor="middle">Windows VM</text>
<line x1="140" y1="110" x2="140" y2="530" stroke="#d1d5db" stroke-width="1.5" stroke-dasharray="6,4"/>
<line x1="400" y1="110" x2="400" y2="530" stroke="#d1d5db" stroke-width="1.5" stroke-dasharray="6,4"/>
<line x1="680" y1="110" x2="680" y2="530" stroke="#d1d5db" stroke-width="1.5" stroke-dasharray="6,4"/>
<line x1="980" y1="110" x2="980" y2="530" stroke="#d1d5db" stroke-width="1.5" stroke-dasharray="6,4"/>
<line x1="140" y1="145" x2="400" y2="145" stroke="#3b82f6" stroke-width="2"  marker-end="url(#arrow)"/><text x="270.0" y="138" font-family="-apple-system, 'Helvetica Neue', Arial, sans-serif" font-size="12" fill="#6b7280" text-anchor="middle">建立包含 unattend.xml 的 ConfigMap</text>
<line x1="140" y1="190" x2="400" y2="190" stroke="#3b82f6" stroke-width="2"  marker-end="url(#arrow)"/><text x="270.0" y="183" font-family="-apple-system, 'Helvetica Neue', Arial, sans-serif" font-size="12" fill="#6b7280" text-anchor="middle">建立 VMI 引用此 ConfigMap</text>
<line x1="400" y1="235" x2="680" y2="235" stroke="#3b82f6" stroke-width="2"  marker-end="url(#arrow)"/><text x="540.0" y="228" font-family="-apple-system, 'Helvetica Neue', Arial, sans-serif" font-size="12" fill="#6b7280" text-anchor="middle">SyncVMI</text>
<path d="M680,280 Q740,280 740,300 Q740,320 680,320" stroke="#3b82f6" stroke-width="2" fill="none" marker-end="url(#arrow)"/><text x="750" y="302" font-family="-apple-system, 'Helvetica Neue', Arial, sans-serif" font-size="12" fill="#6b7280">Convert_v1_SysprepSource_To_api_Disk()</text>
<rect x="580" y="335" width="260" height="44" rx="4" fill="#fef9c3" stroke="#fbbf24" stroke-width="1"/><text x="710.0" y="349" font-family="-apple-system, 'Helvetica Neue', Arial, sans-serif" font-size="11" fill="#111827" text-anchor="middle">將 ConfigMap 內容</text><text x="710.0" y="365" font-family="-apple-system, 'Helvetica Neue', Arial, sans-serif" font-size="11" fill="#111827" text-anchor="middle">掛載為 virtio-fs 或 ISO</text>
<line x1="680" y1="387" x2="980" y2="387" stroke="#3b82f6" stroke-width="2"  marker-end="url(#arrow)"/><text x="830.0" y="380" font-family="-apple-system, 'Helvetica Neue', Arial, sans-serif" font-size="12" fill="#6b7280" text-anchor="middle">啟動 Windows VM</text>
<path d="M980,432 Q1040,432 1040,452 Q1040,472 980,472" stroke="#3b82f6" stroke-width="2" fill="none" marker-end="url(#arrow)"/><text x="1050" y="454" font-family="-apple-system, 'Helvetica Neue', Arial, sans-serif" font-size="12" fill="#6b7280">偵測 Sysprep 磁碟</text>
<path d="M980,487 Q1040,487 1040,507 Q1040,527 980,527" stroke="#3b82f6" stroke-width="2" fill="none" marker-end="url(#arrow)"/><text x="1050" y="509" font-family="-apple-system, 'Helvetica Neue', Arial, sans-serif" font-size="12" fill="#6b7280">執行 sysprep /unattend</text>
<path d="M980,542 Q1040,542 1040,562 Q1040,582 980,582" stroke="#3b82f6" stroke-width="2" fill="none" marker-end="url(#arrow)"/><text x="1050" y="564" font-family="-apple-system, 'Helvetica Neue', Arial, sans-serif" font-size="12" fill="#6b7280">首次開機設定完成</text>
</svg>