<svg xmlns="http://www.w3.org/2000/svg" viewBox="0 0 760 260" width="760" height="260">
  <defs>
    <marker id="arrow" markerWidth="9" markerHeight="7" refX="8" refY="3.5" orient="auto">
      <polygon points="0 0.5, 8.5 3.5, 0 6.5" fill="#3b82f6"/>
    </marker>
    <marker id="arrow2" markerWidth="9" markerHeight="7" refX="0.5" refY="3.5" orient="auto-start-reverse">
      <polygon points="0 0.5, 8.5 3.5, 0 6.5" fill="#3b82f6"/>
    </marker>
  </defs>
  <rect width="760" height="260" fill="#ffffff"/>
  <rect x="20" y="20" width="330" height="190" rx="8" fill="#f0f4ff" stroke="#c7d2fe" stroke-width="1.5" stroke-dasharray="5,3"/>
  <text x="32" y="36" font-family="-apple-system, 'Helvetica Neue', Arial, sans-serif" font-size="10" font-weight="600" fill="#c7d2fe" letter-spacing="0.5">未啟用 CPU PINNING</text>
  <rect x="40" y="48" width="140" height="55" rx="6" fill="#f9fafb" stroke="#e5e7eb" stroke-width="1.5"/>
  <text x="110" y="74" text-anchor="middle" font-family="-apple-system, 'Helvetica Neue', Arial, sans-serif" font-size="14" font-weight="600" fill="#111827">Physical CPU 0</text>
  <rect x="190" y="48" width="140" height="55" rx="6" fill="#f9fafb" stroke="#e5e7eb" stroke-width="1.5"/>
  <text x="260" y="74" text-anchor="middle" font-family="-apple-system, 'Helvetica Neue', Arial, sans-serif" font-size="14" font-weight="600" fill="#111827">Physical CPU 1</text>
  <rect x="55" y="125" width="100" height="55" rx="6" fill="#f9fafb" stroke="#e5e7eb" stroke-width="1.5"/>
  <text x="105" y="151" text-anchor="middle" font-family="-apple-system, 'Helvetica Neue', Arial, sans-serif" font-size="14" font-weight="600" fill="#111827">vCPU 0</text>
  <rect x="190" y="125" width="100" height="55" rx="6" fill="#f9fafb" stroke="#e5e7eb" stroke-width="1.5"/>
  <text x="240" y="151" text-anchor="middle" font-family="-apple-system, 'Helvetica Neue', Arial, sans-serif" font-size="14" font-weight="600" fill="#111827">vCPU 1</text>
  <line x1="90" y1="103" x2="105" y2="125" stroke="#3b82f6" stroke-width="1.5" marker-start="url(#arrow2)" marker-end="url(#arrow)"/>
  <line x1="105" y1="103" x2="245" y2="125" stroke="#3b82f6" stroke-width="1.5" marker-start="url(#arrow2)" marker-end="url(#arrow)"/>
  <line x1="240" y1="103" x2="245" y2="125" stroke="#3b82f6" stroke-width="1.5" marker-start="url(#arrow2)" marker-end="url(#arrow)"/>
  <text x="175" y="218" text-anchor="middle" font-family="-apple-system, 'Helvetica Neue', Arial, sans-serif" font-size="10" fill="#6b7280">context switch 頻繁 · L1/L2 cache 失效</text>
  <rect x="410" y="20" width="330" height="190" rx="8" fill="#f0f4ff" stroke="#c7d2fe" stroke-width="1.5" stroke-dasharray="5,3"/>
  <text x="422" y="36" font-family="-apple-system, 'Helvetica Neue', Arial, sans-serif" font-size="10" font-weight="600" fill="#c7d2fe" letter-spacing="0.5">啟用 CPU PINNING</text>
  <rect x="430" y="48" width="140" height="55" rx="6" fill="#f9fafb" stroke="#e5e7eb" stroke-width="1.5"/>
  <text x="500" y="74" text-anchor="middle" font-family="-apple-system, 'Helvetica Neue', Arial, sans-serif" font-size="14" font-weight="600" fill="#111827">Physical CPU 0</text>
  <rect x="580" y="48" width="140" height="55" rx="6" fill="#f9fafb" stroke="#e5e7eb" stroke-width="1.5"/>
  <text x="650" y="74" text-anchor="middle" font-family="-apple-system, 'Helvetica Neue', Arial, sans-serif" font-size="14" font-weight="600" fill="#111827">Physical CPU 1</text>
  <rect x="445" y="125" width="100" height="55" rx="6" fill="#f0f4ff" stroke="#c7d2fe" stroke-width="1.5"/>
  <text x="495" y="151" text-anchor="middle" font-family="-apple-system, 'Helvetica Neue', Arial, sans-serif" font-size="14" font-weight="600" fill="#111827">vCPU 0</text>
  <rect x="585" y="125" width="100" height="55" rx="6" fill="#f0f4ff" stroke="#c7d2fe" stroke-width="1.5"/>
  <text x="635" y="151" text-anchor="middle" font-family="-apple-system, 'Helvetica Neue', Arial, sans-serif" font-size="14" font-weight="600" fill="#111827">vCPU 1</text>
  <line x1="495" y1="103" x2="495" y2="125" stroke="#3b82f6" stroke-width="1.5" marker-end="url(#arrow)"/>
  <line x1="650" y1="103" x2="635" y2="125" stroke="#3b82f6" stroke-width="1.5" marker-end="url(#arrow)"/>
  <text x="575" y="218" text-anchor="middle" font-family="-apple-system, 'Helvetica Neue', Arial, sans-serif" font-size="10" fill="#059669">固定綁定 · cache 親和性最佳 · 延遲更低</text>
</svg>
