<svg xmlns="http://www.w3.org/2000/svg" width="860" height="540" viewBox="0 0 860 540">
<defs>
  <marker id="arr" markerWidth="8" markerHeight="6" refX="8" refY="3" orient="auto">
    <polygon points="0 0, 8 3, 0 6" fill="#3b82f6"/>
  </marker>
</defs>
<rect width="860" height="540" fill="#ffffff"/>
<rect x="340" y="10" width="160" height="36" rx="6" fill="#1e40af" stroke="#1e40af" stroke-width="1.5"/><text x="420" y="28" font-family="-apple-system, 'Helvetica Neue', Arial, sans-serif" font-size="13" font-weight="600" fill="#fff" text-anchor="middle" dominant-baseline="middle">需要儲存？</text><polygon points="420,85 500,110 420,135 340,110" fill="#f0f4ff" stroke="#c7d2fe" stroke-width="1.5"/><text x="420" y="110" font-family="-apple-system, 'Helvetica Neue', Arial, sans-serif" font-size="12" font-weight="600" fill="#111827" text-anchor="middle" dominant-baseline="middle">需要持久化？</text><line x1="420" y1="46" x2="420" y2="85" stroke="#3b82f6" stroke-width="1.5" marker-end="url(#arr)"/><polygon points="420,185 500,210 420,235 340,210" fill="#f0f4ff" stroke="#c7d2fe" stroke-width="1.5"/><text x="420" y="210" font-family="-apple-system, 'Helvetica Neue', Arial, sans-serif" font-size="12" font-weight="600" fill="#111827" text-anchor="middle" dominant-baseline="middle">需要匯入映像？</text><line x1="420" y1="135" x2="420" y2="185" stroke="#3b82f6" stroke-width="1.5" marker-end="url(#arr)"/><text x="424" y="160" font-family="-apple-system, 'Helvetica Neue', Arial, sans-serif" font-size="10" fill="#6b7280" text-anchor="middle">是</text><rect x="310" y="280" width="180" height="40" rx="6" fill="#dcfce7" stroke="#86efac" stroke-width="1.5"/><text x="400" y="300" font-family="-apple-system, 'Helvetica Neue', Arial, sans-serif" font-size="12" font-weight="600" fill="#166534" text-anchor="middle"><tspan x="400" dy="-8.399999999999999">使用 DataVolume</tspan><tspan x="400" dy="16.799999999999997">（CDI 自動匯入）</tspan></text><line x1="420" y1="235" x2="400" y2="280" stroke="#3b82f6" stroke-width="1.5" marker-end="url(#arr)"/><text x="414" y="257" font-family="-apple-system, 'Helvetica Neue', Arial, sans-serif" font-size="10" fill="#6b7280" text-anchor="middle">是</text><rect x="560" y="280" width="160" height="40" rx="6" fill="#dcfce7" stroke="#86efac" stroke-width="1.5"/><text x="640" y="300" font-family="-apple-system, 'Helvetica Neue', Arial, sans-serif" font-size="12" font-weight="600" fill="#166534" text-anchor="middle"><tspan x="640" dy="-8.399999999999999">使用 PVC</tspan><tspan x="640" dy="16.799999999999997">（直接使用）</tspan></text><line x1="500" y1="210" x2="560" y2="300" stroke="#3b82f6" stroke-width="1.5" marker-end="url(#arr)"/><text x="534" y="255" font-family="-apple-system, 'Helvetica Neue', Arial, sans-serif" font-size="10" fill="#6b7280" text-anchor="middle">否</text><polygon points="640,85 720,110 640,135 560,110" fill="#f0f4ff" stroke="#c7d2fe" stroke-width="1.5"/><text x="640" y="110" font-family="-apple-system, 'Helvetica Neue', Arial, sans-serif" font-size="12" font-weight="600" fill="#111827" text-anchor="middle" dominant-baseline="middle">用途？</text><line x1="500" y1="110" x2="555" y2="110" stroke="#3b82f6" stroke-width="1.5" marker-end="url(#arr)"/><text x="531" y="110" font-family="-apple-system, 'Helvetica Neue', Arial, sans-serif" font-size="10" fill="#6b7280" text-anchor="middle">否</text><rect x="460" y="380" width="160" height="40" rx="6" fill="#fef9c3" stroke="#fde047" stroke-width="1.5"/><text x="540" y="400" font-family="-apple-system, 'Helvetica Neue', Arial, sans-serif" font-size="11" font-weight="600" fill="#713f12" text-anchor="middle"><tspan x="540" dy="-7.699999999999999">ContainerDisk</tspan><tspan x="540" dy="15.399999999999999">（快速，暫態）</tspan></text><rect x="620" y="380" width="160" height="40" rx="6" fill="#fef9c3" stroke="#fde047" stroke-width="1.5"/><text x="700" y="400" font-family="-apple-system, 'Helvetica Neue', Arial, sans-serif" font-size="11" font-weight="600" fill="#713f12" text-anchor="middle"><tspan x="700" dy="-7.699999999999999">EmptyDisk</tspan><tspan x="700" dy="15.399999999999999">（指定大小）</tspan></text><line x1="610" y1="135" x2="560" y2="380" stroke="#3b82f6" stroke-width="1.5" marker-end="url(#arr)"/><text x="589" y="257" font-family="-apple-system, 'Helvetica Neue', Arial, sans-serif" font-size="10" fill="#6b7280" text-anchor="middle">OS 映像測試</text><line x1="660" y1="135" x2="700" y2="380" stroke="#3b82f6" stroke-width="1.5" marker-end="url(#arr)"/><text x="684" y="257" font-family="-apple-system, 'Helvetica Neue', Arial, sans-serif" font-size="10" fill="#6b7280" text-anchor="middle">臨時空間</text><polygon points="780,185 850,210 780,235 710,210" fill="#f0f4ff" stroke="#c7d2fe" stroke-width="1.5"/><text x="780" y="210" font-family="-apple-system, 'Helvetica Neue', Arial, sans-serif" font-size="12" font-weight="600" fill="#111827" text-anchor="middle" dominant-baseline="middle">資料類型？</text><line x1="720" y1="110" x2="780" y2="185" stroke="#3b82f6" stroke-width="1.5" marker-end="url(#arr)"/><text x="754" y="147" font-family="-apple-system, 'Helvetica Neue', Arial, sans-serif" font-size="10" fill="#6b7280" text-anchor="middle">設定資料</text><rect x="610" y="304" width="100" height="32" rx="6" fill="#dbeafe" stroke="#93c5fd" stroke-width="1.5"/><text x="660" y="320" font-family="-apple-system, 'Helvetica Neue', Arial, sans-serif" font-size="11" font-weight="600" fill="#1d4ed8" text-anchor="middle" dominant-baseline="middle">CloudInit</text><line x1="780" y1="235" x2="660" y2="304" stroke="#3b82f6" stroke-width="1.5" marker-end="url(#arr)"/><rect x="710" y="304" width="100" height="32" rx="6" fill="#dbeafe" stroke="#93c5fd" stroke-width="1.5"/><text x="760" y="320" font-family="-apple-system, 'Helvetica Neue', Arial, sans-serif" font-size="11" font-weight="600" fill="#1d4ed8" text-anchor="middle" dominant-baseline="middle">ConfigMap</text><line x1="780" y1="235" x2="760" y2="304" stroke="#3b82f6" stroke-width="1.5" marker-end="url(#arr)"/><rect x="810" y="304" width="100" height="32" rx="6" fill="#dbeafe" stroke="#93c5fd" stroke-width="1.5"/><text x="860" y="320" font-family="-apple-system, 'Helvetica Neue', Arial, sans-serif" font-size="11" font-weight="600" fill="#1d4ed8" text-anchor="middle" dominant-baseline="middle">Secret</text><line x1="780" y1="235" x2="860" y2="304" stroke="#3b82f6" stroke-width="1.5" marker-end="url(#arr)"/><rect x="710" y="374" width="100" height="32" rx="6" fill="#dbeafe" stroke="#93c5fd" stroke-width="1.5"/><text x="760" y="390" font-family="-apple-system, 'Helvetica Neue', Arial, sans-serif" font-size="11" font-weight="600" fill="#1d4ed8" text-anchor="middle" dominant-baseline="middle">DownwardAPI</text><line x1="780" y1="235" x2="760" y2="374" stroke="#3b82f6" stroke-width="1.5" marker-end="url(#arr)"/></svg>