<svg viewBox="0 0 1200 1400" xmlns="http://www.w3.org/2000/svg">
<defs>
  <marker id="arrow" markerWidth="10" markerHeight="7" refX="9" refY="3.5" orient="auto">
    <polygon points="0 0.5, 8.5 3.5, 0 6.5" fill="#3b82f6"/>
  </marker>
</defs>
<rect width="1200" height="1400" fill="#ffffff"/>
<rect x="520.0" y="30.0" width="160" height="40" rx="4" fill="#f9fafb" stroke="#e5e7eb" stroke-width="2"/><text x="600.0" y="55" font-family="-apple-system, 'Helvetica Neue', Arial, sans-serif" font-size="12" fill="#111827" text-anchor="middle">安裝 KubeVirt Operator</text>
<rect x="520.0" y="110.0" width="160" height="40" rx="4" fill="#f9fafb" stroke="#e5e7eb" stroke-width="2"/><text x="600.0" y="135" font-family="-apple-system, 'Helvetica Neue', Arial, sans-serif" font-size="12" fill="#111827" text-anchor="middle">部署 kubevirt CR</text>
<rect x="520.0" y="190.0" width="160" height="40" rx="4" fill="#f9fafb" stroke="#e5e7eb" stroke-width="2"/><text x="600.0" y="215" font-family="-apple-system, 'Helvetica Neue', Arial, sans-serif" font-size="12" fill="#111827" text-anchor="middle">安裝 virtctl CLI</text>
<polygon points="600.0,240 670.0,310 600.0,380 530.0,310" fill="#eff6ff" stroke="#bfdbfe" stroke-width="2"/><text x="600.0" y="314" font-family="-apple-system, 'Helvetica Neue', Arial, sans-serif" font-size="11" fill="#111827" text-anchor="middle">選擇 VM 類型</text>
<rect x="370.0" y="390.0" width="160" height="40" rx="4" fill="#f9fafb" stroke="#e5e7eb" stroke-width="2"/><text x="450.0" y="415" font-family="-apple-system, 'Helvetica Neue', Arial, sans-serif" font-size="12" fill="#111827" text-anchor="middle">建立 Linux VM YAML</text>
<rect x="670.0" y="390.0" width="160" height="40" rx="4" fill="#f9fafb" stroke="#e5e7eb" stroke-width="2"/><text x="750.0" y="415" font-family="-apple-system, 'Helvetica Neue', Arial, sans-serif" font-size="12" fill="#111827" text-anchor="middle">建立 Windows VM YAML</text>
<rect x="520.0" y="490.0" width="160" height="40" rx="4" fill="#f9fafb" stroke="#e5e7eb" stroke-width="2"/><text x="600.0" y="515" font-family="-apple-system, 'Helvetica Neue', Arial, sans-serif" font-size="12" fill="#111827" text-anchor="middle">kubectl apply</text>
<rect x="520.0" y="570.0" width="160" height="40" rx="4" fill="#f9fafb" stroke="#e5e7eb" stroke-width="2"/><text x="600.0" y="595" font-family="-apple-system, 'Helvetica Neue', Arial, sans-serif" font-size="12" fill="#111827" text-anchor="middle">等待 VM Running</text>
<polygon points="600.0,620 670.0,690 600.0,760 530.0,690" fill="#eff6ff" stroke="#bfdbfe" stroke-width="2"/><text x="600.0" y="694" font-family="-apple-system, 'Helvetica Neue', Arial, sans-serif" font-size="11" fill="#111827" text-anchor="middle">連線方式</text>
<rect x="270.0" y="770.0" width="160" height="40" rx="4" fill="#f9fafb" stroke="#e5e7eb" stroke-width="2"/><text x="350.0" y="795" font-family="-apple-system, 'Helvetica Neue', Arial, sans-serif" font-size="12" fill="#111827" text-anchor="middle">virtctl console</text>
<rect x="520.0" y="770.0" width="160" height="40" rx="4" fill="#f9fafb" stroke="#e5e7eb" stroke-width="2"/><text x="600.0" y="795" font-family="-apple-system, 'Helvetica Neue', Arial, sans-serif" font-size="12" fill="#111827" text-anchor="middle">virtctl vnc</text>
<rect x="770.0" y="770.0" width="160" height="40" rx="4" fill="#f9fafb" stroke="#e5e7eb" stroke-width="2"/><text x="850.0" y="795" font-family="-apple-system, 'Helvetica Neue', Arial, sans-serif" font-size="12" fill="#111827" text-anchor="middle">virtctl ssh</text>
<rect x="670.0" y="890.0" width="160" height="40" rx="4" fill="#f9fafb" stroke="#e5e7eb" stroke-width="2"/><text x="750.0" y="915" font-family="-apple-system, 'Helvetica Neue', Arial, sans-serif" font-size="12" fill="#111827" text-anchor="middle">日常操作</text>
<rect x="670.0" y="990.0" width="160" height="40" rx="4" fill="#f9fafb" stroke="#e5e7eb" stroke-width="2"/><text x="750.0" y="1015" font-family="-apple-system, 'Helvetica Neue', Arial, sans-serif" font-size="12" fill="#111827" text-anchor="middle">start / stop / restart</text>
<rect x="670.0" y="1090.0" width="160" height="40" rx="4" fill="#f9fafb" stroke="#e5e7eb" stroke-width="2"/><text x="750.0" y="1115" font-family="-apple-system, 'Helvetica Neue', Arial, sans-serif" font-size="12" fill="#111827" text-anchor="middle">migrate / snapshot / clone</text>
<rect x="670.0" y="1190.0" width="160" height="40" rx="4" fill="#f9fafb" stroke="#e5e7eb" stroke-width="2"/><text x="750.0" y="1215" font-family="-apple-system, 'Helvetica Neue', Arial, sans-serif" font-size="12" fill="#111827" text-anchor="middle">添加磁碟 / 設定網路</text>
<line x1="600.0" y1="70" x2="600.0" y2="110" stroke="#3b82f6" stroke-width="2" marker-end="url(#arrow)"/>
<line x1="600.0" y1="150" x2="600.0" y2="190" stroke="#3b82f6" stroke-width="2" marker-end="url(#arrow)"/>
<line x1="600.0" y1="230" x2="600.0" y2="250" stroke="#3b82f6" stroke-width="2" marker-end="url(#arrow)"/>
<line x1="540.0" y1="310" x2="450.0" y2="390" stroke="#3b82f6" stroke-width="2" marker-end="url(#arrow)"/><text x="505.0" y="345.0" font-family="-apple-system, 'Helvetica Neue', Arial, sans-serif" font-size="11" fill="#6b7280">Linux</text>
<line x1="660.0" y1="310" x2="750.0" y2="390" stroke="#3b82f6" stroke-width="2" marker-end="url(#arrow)"/><text x="715.0" y="345.0" font-family="-apple-system, 'Helvetica Neue', Arial, sans-serif" font-size="11" fill="#6b7280">Windows</text>
<line x1="450.0" y1="430" x2="600.0" y2="490" stroke="#3b82f6" stroke-width="2" marker-end="url(#arrow)"/>
<line x1="750.0" y1="430" x2="600.0" y2="490" stroke="#3b82f6" stroke-width="2" marker-end="url(#arrow)"/>
<line x1="600.0" y1="530" x2="600.0" y2="570" stroke="#3b82f6" stroke-width="2" marker-end="url(#arrow)"/>
<line x1="600.0" y1="610" x2="600.0" y2="630" stroke="#3b82f6" stroke-width="2" marker-end="url(#arrow)"/>
<line x1="520.0" y1="690" x2="350.0" y2="770" stroke="#3b82f6" stroke-width="2" marker-end="url(#arrow)"/><text x="445.0" y="725.0" font-family="-apple-system, 'Helvetica Neue', Arial, sans-serif" font-size="11" fill="#6b7280">文字</text>
<line x1="600.0" y1="710" x2="600.0" y2="770" stroke="#3b82f6" stroke-width="2" marker-end="url(#arrow)"/><text x="610.0" y="735.0" font-family="-apple-system, 'Helvetica Neue', Arial, sans-serif" font-size="11" fill="#6b7280">圖形</text>
<line x1="680.0" y1="690" x2="850.0" y2="770" stroke="#3b82f6" stroke-width="2" marker-end="url(#arrow)"/><text x="775.0" y="725.0" font-family="-apple-system, 'Helvetica Neue', Arial, sans-serif" font-size="11" fill="#6b7280">SSH</text>
<line x1="600.0" y1="610" x2="750.0" y2="890" stroke="#3b82f6" stroke-width="2" marker-end="url(#arrow)"/>
<line x1="750.0" y1="930" x2="750.0" y2="990" stroke="#3b82f6" stroke-width="2" marker-end="url(#arrow)"/>
<line x1="750.0" y1="1030" x2="750.0" y2="1090" stroke="#3b82f6" stroke-width="2" marker-end="url(#arrow)"/>
<line x1="750.0" y1="1130" x2="750.0" y2="1190" stroke="#3b82f6" stroke-width="2" marker-end="url(#arrow)"/>
</svg>