<svg xmlns="http://www.w3.org/2000/svg" viewBox="0 0 900 220" width="900" height="220">
  <defs>
    <marker id="arrow" markerWidth="9" markerHeight="7" refX="8" refY="3.5" orient="auto">
      <polygon points="0 0.5, 8.5 3.5, 0 6.5" fill="#3b82f6"/>
    </marker>
    <marker id="arrow2" markerWidth="9" markerHeight="7" refX="0.5" refY="3.5" orient="auto-start-reverse">
      <polygon points="0 0.5, 8.5 3.5, 0 6.5" fill="#3b82f6"/>
    </marker>
  </defs>
  <rect width="900" height="220" fill="#ffffff"/>
  <rect x="20" y="30" width="140" height="50" rx="6" fill="#f9fafb" stroke="#e5e7eb" stroke-width="1.5"/>
  <text x="90" y="56" text-anchor="middle" font-family="-apple-system, 'Helvetica Neue', Arial, sans-serif" font-size="14" font-weight="600" fill="#111827">virtctl vnc</text>
  <rect x="175" y="30" width="140" height="50" rx="6" fill="#f9fafb" stroke="#e5e7eb" stroke-width="1.5"/>
  <text x="245" y="56" text-anchor="middle" font-family="-apple-system, 'Helvetica Neue', Arial, sans-serif" font-size="14" font-weight="600" fill="#111827">kube-apiserver</text>
  <rect x="355" y="30" width="140" height="50" rx="6" fill="#f9fafb" stroke="#e5e7eb" stroke-width="1.5"/>
  <text x="425" y="56" text-anchor="middle" font-family="-apple-system, 'Helvetica Neue', Arial, sans-serif" font-size="14" font-weight="600" fill="#111827">virt-api</text>
  <rect x="510" y="30" width="140" height="50" rx="6" fill="#f9fafb" stroke="#e5e7eb" stroke-width="1.5"/>
  <text x="580" y="56" text-anchor="middle" font-family="-apple-system, 'Helvetica Neue', Arial, sans-serif" font-size="14" font-weight="600" fill="#111827">VMI</text>
  <rect x="630" y="30" width="140" height="50" rx="6" fill="#f9fafb" stroke="#e5e7eb" stroke-width="1.5"/>
  <text x="700" y="56" text-anchor="middle" font-family="-apple-system, 'Helvetica Neue', Arial, sans-serif" font-size="14" font-weight="600" fill="#111827">QEMU VNC Server</text>
  <line x1="160" y1="55" x2="175" y2="55" stroke="#3b82f6" stroke-width="1.5" marker-end="url(#arrow)"/>
  <text x="167" y="47" text-anchor="middle" font-family="-apple-system, 'Helvetica Neue', Arial, sans-serif" font-size="11" fill="#3b82f6">WebSocket</text>
  <line x1="315" y1="55" x2="355" y2="55" stroke="#3b82f6" stroke-width="1.5" marker-end="url(#arrow)"/>
  <line x1="495" y1="55" x2="510" y2="55" stroke="#3b82f6" stroke-width="1.5" marker-end="url(#arrow)"/>
  <line x1="650" y1="55" x2="630" y2="55" stroke="#3b82f6" stroke-width="1.5" marker-end="url(#arrow)"/>
  <path d="M 90 80 L 90 150" fill="none" stroke="#3b82f6" stroke-width="1.5" marker-end="url(#arrow)"/>
  <rect x="20" y="150" width="300" height="50" rx="6" fill="#f9fafb" stroke="#e5e7eb" stroke-width="1.5"/>
  <text x="170" y="176" text-anchor="middle" font-family="-apple-system, 'Helvetica Neue', Arial, sans-serif" font-size="14" font-weight="600" fill="#111827">本地 VNC Viewer</text>
  <text x="170" y="194" text-anchor="middle" font-family="-apple-system, 'Helvetica Neue', Arial, sans-serif" font-size="11.5" fill="#6b7280">連線到 WebSocket → VNC 橋接</text>
</svg>
