<?xml version="1.0" encoding="utf-8" ?>
<svg baseProfile="full" height="320" version="1.1" width="900" xmlns="http://www.w3.org/2000/svg" xmlns:ev="http://www.w3.org/2001/xml-events" xmlns:xlink="http://www.w3.org/1999/xlink"><defs /><rect fill="#ffffff" height="320" width="900" x="0" y="0" /><text fill="#111827" font-family="-apple-system, 'Helvetica Neue', Arial, sans-serif" font-size="18" font-weight="600" text-anchor="middle" x="450" y="34">nftables 出入站流量規則</text><rect fill="#fafbff" height="90" rx="10" ry="10" stroke="#c7d2fe" stroke-width="1.5" width="590" x="30" y="80" /><text fill="#6b7280" font-family="-apple-system, 'Helvetica Neue', Arial, sans-serif" font-size="12" font-weight="normal" text-anchor="middle" x="320" y="100">出站流量（VM → 外部）</text><rect fill="#dcfce7" height="44" rx="8" ry="8" stroke="#22c55e" stroke-width="1.5" width="150" x="50" y="115" /><text fill="#166534" font-family="-apple-system, 'Helvetica Neue', Arial, sans-serif" font-size="12" text-anchor="middle" x="125" y="133">VM 10.0.2.2</text><text fill="#166534" font-family="-apple-system, 'Helvetica Neue', Arial, sans-serif" font-size="12" text-anchor="middle" x="125" y="149">:隨機port</text><rect fill="#fee2e2" height="44" rx="8" ry="8" stroke="#ef4444" stroke-width="1.5" width="155" x="230" y="115" /><text fill="#991b1b" font-family="-apple-system, 'Helvetica Neue', Arial, sans-serif" font-size="12" text-anchor="middle" x="308" y="133">POSTROUTING</text><text fill="#991b1b" font-family="-apple-system, 'Helvetica Neue', Arial, sans-serif" font-size="12" text-anchor="middle" x="308" y="149">MASQUERADE</text><rect fill="#dbeafe" height="44" rx="8" ry="8" stroke="#3b82f6" stroke-width="1.5" width="150" x="400" y="115" /><text fill="#1d4ed8" font-family="-apple-system, 'Helvetica Neue', Arial, sans-serif" font-size="12" text-anchor="middle" x="475" y="133">Pod IP</text><text fill="#1d4ed8" font-family="-apple-system, 'Helvetica Neue', Arial, sans-serif" font-size="12" text-anchor="middle" x="475" y="149">:隨機port</text><rect fill="#f9fafb" height="44" rx="8" ry="8" stroke="#e5e7eb" stroke-width="1.5" width="110" x="560" y="115" /><text fill="#111827" font-family="-apple-system, 'Helvetica Neue', Arial, sans-serif" font-size="12" font-weight="normal" text-anchor="middle" x="615" y="141">叢集網路</text><line stroke="#3b82f6" stroke-width="1.5" x1="200" x2="230" y1="137" y2="137" /><polygon fill="#3b82f6" points="230,137 221,133 221,141" /><line stroke="#3b82f6" stroke-width="1.5" x1="385" x2="400" y1="137" y2="137" /><polygon fill="#3b82f6" points="400,137 391,133 391,141" /><line stroke="#3b82f6" stroke-width="1.5" x1="550" x2="560" y1="137" y2="137" /><polygon fill="#3b82f6" points="560,137 551,133 551,141" /><rect fill="#fafbff" height="90" rx="10" ry="10" stroke="#c7d2fe" stroke-width="1.5" width="590" x="30" y="200" /><text fill="#6b7280" font-family="-apple-system, 'Helvetica Neue', Arial, sans-serif" font-size="12" font-weight="normal" text-anchor="middle" x="320" y="220">入站流量（外部 → VM）</text><rect fill="#f9fafb" height="44" rx="8" ry="8" stroke="#e5e7eb" stroke-width="1.5" width="165" x="50" y="235" /><text fill="#111827" font-family="-apple-system, 'Helvetica Neue', Arial, sans-serif" font-size="12" text-anchor="middle" x="132" y="253">Service</text><text fill="#111827" font-family="-apple-system, 'Helvetica Neue', Arial, sans-serif" font-size="12" text-anchor="middle" x="132" y="269">/Port-forward</text><rect fill="#fee2e2" height="44" rx="8" ry="8" stroke="#ef4444" stroke-width="1.5" width="180" x="230" y="235" /><text fill="#991b1b" font-family="-apple-system, 'Helvetica Neue', Arial, sans-serif" font-size="12" text-anchor="middle" x="320" y="253">PREROUTING</text><text fill="#991b1b" font-family="-apple-system, 'Helvetica Neue', Arial, sans-serif" font-size="12" text-anchor="middle" x="320" y="269">DNAT</text><rect fill="#dcfce7" height="44" rx="8" ry="8" stroke="#22c55e" stroke-width="1.5" width="160" x="430" y="235" /><text fill="#166534" font-family="-apple-system, 'Helvetica Neue', Arial, sans-serif" font-size="12" text-anchor="middle" x="510" y="261">VM 10.0.2.2:80</text><line stroke="#3b82f6" stroke-width="1.5" x1="215" x2="230" y1="257" y2="257" /><polygon fill="#3b82f6" points="230,257 221,253 221,261" /><line stroke="#3b82f6" stroke-width="1.5" x1="410" x2="430" y1="257" y2="257" /><polygon fill="#3b82f6" points="430,257 421,253 421,261" /></svg>