<svg xmlns="http://www.w3.org/2000/svg" width="900" height="900" viewBox="0 0 900 900">
  <defs>
    <marker id="arr" markerWidth="10" markerHeight="7" refX="9" refY="3.5" orient="auto">
      <polygon points="0 0.5,8.5 3.5,0 6.5" fill="#3b82f6"/>
    </marker>
  </defs>
  <rect width="900" height="900" fill="#ffffff"/>
  <rect x="290" y="40" width="320" height="42" rx="6" fill="#dbeafe" stroke="#93c5fd" stroke-width="1.5"/>
  <text x="450" y="67" font-family="-apple-system, 'Helvetica Neue', Arial, sans-serif" font-size="11" font-weight="600" text-anchor="middle" fill="#111827">Reconcile(ctx, req)</text>
  <rect x="290" y="120" width="320" height="42" rx="6" fill="#f9fafb" stroke="#e5e7eb" stroke-width="1.5"/>
  <text x="450" y="147" font-family="-apple-system, 'Helvetica Neue', Arial, sans-serif" font-size="11" font-weight="600" text-anchor="middle" fill="#111827">reconcile(ctx, req, r)</text>
  <rect x="290" y="200" width="320" height="42" rx="6" fill="#f9fafb" stroke="#e5e7eb" stroke-width="1.5"/>
  <text x="450" y="227" font-family="-apple-system, 'Helvetica Neue', Arial, sans-serif" font-size="11" font-weight="600" text-anchor="middle" fill="#111827">sync(log, req)</text>
  <rect x="290" y="280" width="320" height="42" rx="6" fill="#f9fafb" stroke="#e5e7eb" stroke-width="1.5"/>
  <text x="450" y="307" font-family="-apple-system, 'Helvetica Neue', Arial, sans-serif" font-size="11" font-weight="600" text-anchor="middle" fill="#111827">syncImport(log, req)</text>
  <rect x="290" y="360" width="320" height="42" rx="6" fill="#f9fafb" stroke="#e5e7eb" stroke-width="1.5"/>
  <text x="450" y="387" font-family="-apple-system, 'Helvetica Neue', Arial, sans-serif" font-size="11" font-weight="600" text-anchor="middle" fill="#111827">syncCommon(log, req, cleanup, nil)</text>
  <line x1="450.0" y1="82.0" x2="450.0" y2="120.0" stroke="#3b82f6" stroke-width="1.5" marker-end="url(#arr)"/>
  <line x1="450.0" y1="162.0" x2="450.0" y2="200.0" stroke="#3b82f6" stroke-width="1.5" marker-end="url(#arr)"/>
  <line x1="450.0" y1="242.0" x2="450.0" y2="280.0" stroke="#3b82f6" stroke-width="1.5" marker-end="url(#arr)"/>
  <line x1="450.0" y1="322.0" x2="450.0" y2="360.0" stroke="#3b82f6" stroke-width="1.5" marker-end="url(#arr)"/>
  <polygon points="450.0,440 520,467.5 450.0,495 380,467.5" fill="#fef3c7" stroke="#fcd34d" stroke-width="1.5"/>
  <text x="450" y="472" font-family="-apple-system, 'Helvetica Neue', Arial, sans-serif" font-size="10" font-weight="600" text-anchor="middle" fill="#111827">error/result?</text>
  <line x1="450.0" y1="402.0" x2="450.0" y2="440.0" stroke="#3b82f6" stroke-width="1.5" marker-end="url(#arr)"/>
  <rect x="680" y="450" width="150" height="42" rx="6" fill="#fee2e2" stroke="#fca5a5" stroke-width="1.5"/>
  <text x="755" y="477" font-family="-apple-system, 'Helvetica Neue', Arial, sans-serif" font-size="11" font-weight="600" text-anchor="middle" fill="#111827">返回</text>
  <line x1="520.0" y1="467.0" x2="680.0" y2="471.0" stroke="#3b82f6" stroke-width="1.5" marker-end="url(#arr)"/>
  <rect x="590.2" y="456.0" width="19.5" height="13" rx="3" fill="#ffffff" opacity="0.9"/>
  <text x="600.0" y="467.0" font-family="-apple-system, 'Helvetica Neue', Arial, sans-serif" font-size="9.5" text-anchor="middle" fill="#6b7280">是</text>
  <polygon points="450.0,540 520,567.5 450.0,595 380,567.5" fill="#fef3c7" stroke="#fcd34d" stroke-width="1.5"/>
  <text x="450" y="572" font-family="-apple-system, 'Helvetica Neue', Arial, sans-serif" font-size="10" font-weight="600" text-anchor="middle" fill="#111827">usePopulator?</text>
  <line x1="450.0" y1="495.0" x2="450.0" y2="540.0" stroke="#3b82f6" stroke-width="1.5" marker-end="url(#arr)"/>
  <rect x="440.2" y="504.5" width="19.5" height="13" rx="3" fill="#ffffff" opacity="0.9"/>
  <text x="450.0" y="515.5" font-family="-apple-system, 'Helvetica Neue', Arial, sans-serif" font-size="9.5" text-anchor="middle" fill="#6b7280">否</text>
  <rect x="680" y="545" width="225" height="42" rx="6" fill="#f9fafb" stroke="#e5e7eb" stroke-width="1.5"/>
  <text x="792" y="572" font-family="-apple-system, 'Helvetica Neue', Arial, sans-serif" font-size="11" font-weight="600" text-anchor="middle" fill="#111827">reconcileVolumeImportSourceCR()</text>
  <rect x="680" y="610" width="225" height="42" rx="6" fill="#f9fafb" stroke="#e5e7eb" stroke-width="1.5"/>
  <text x="792" y="629" font-family="-apple-system, 'Helvetica Neue', Arial, sans-serif" font-size="11" font-weight="600" text-anchor="middle" fill="#111827">pvcModifier =</text>
  <text x="792" y="645" font-family="-apple-system, 'Helvetica Neue', Arial, sans-serif" font-size="11" font-weight="400" text-anchor="middle" fill="#111827">updatePVCForPopulation</text>
  <line x1="520.0" y1="567.0" x2="680.0" y2="566.0" stroke="#3b82f6" stroke-width="1.5" marker-end="url(#arr)"/>
  <rect x="590.2" y="553.5" width="19.5" height="13" rx="3" fill="#ffffff" opacity="0.9"/>
  <text x="600.0" y="564.5" font-family="-apple-system, 'Helvetica Neue', Arial, sans-serif" font-size="9.5" text-anchor="middle" fill="#6b7280">是</text>
  <line x1="792.0" y1="587.0" x2="792.0" y2="610.0" stroke="#3b82f6" stroke-width="1.5" marker-end="url(#arr)"/>
  <rect x="80" y="545" width="225" height="42" rx="6" fill="#f9fafb" stroke="#e5e7eb" stroke-width="1.5"/>
  <text x="192" y="564" font-family="-apple-system, 'Helvetica Neue', Arial, sans-serif" font-size="11" font-weight="600" text-anchor="middle" fill="#111827">pvcModifier =</text>
  <text x="192" y="580" font-family="-apple-system, 'Helvetica Neue', Arial, sans-serif" font-size="11" font-weight="400" text-anchor="middle" fill="#111827">updateAnnotations</text>
  <line x1="380.0" y1="567.0" x2="305.0" y2="566.0" stroke="#3b82f6" stroke-width="1.5" marker-end="url(#arr)"/>
  <rect x="332.8" y="553.5" width="19.5" height="13" rx="3" fill="#ffffff" opacity="0.9"/>
  <text x="342.5" y="564.5" font-family="-apple-system, 'Helvetica Neue', Arial, sans-serif" font-size="9.5" text-anchor="middle" fill="#6b7280">否</text>
  <rect x="290" y="680" width="320" height="42" rx="6" fill="#f9fafb" stroke="#e5e7eb" stroke-width="1.5"/>
  <text x="450" y="707" font-family="-apple-system, 'Helvetica Neue', Arial, sans-serif" font-size="11" font-weight="600" text-anchor="middle" fill="#111827">handlePvcCreation(log, syncState, pvcModifier)</text>
  <line x1="192.0" y1="587.0" x2="192.0" y2="700.0" stroke="#3b82f6" stroke-width="1.5" marker-end="url(#arr)"/>
  <line x1="192.0" y1="700.0" x2="290.0" y2="700.0" stroke="#3b82f6" stroke-width="1.5" marker-end="url(#arr)"/>
  <line x1="792.0" y1="652.0" x2="792.0" y2="700.0" stroke="#3b82f6" stroke-width="1.5" marker-end="url(#arr)"/>
  <line x1="792.0" y1="700.0" x2="610.0" y2="700.0" stroke="#3b82f6" stroke-width="1.5" marker-end="url(#arr)"/>
  <line x1="450.0" y1="595.0" x2="450.0" y2="680.0" stroke="#3b82f6" stroke-width="1.5" marker-end="url(#arr)"/>
  <polygon points="450.0,760 530,787.5 450.0,815 370,787.5" fill="#fef3c7" stroke="#fcd34d" stroke-width="1.5"/>
  <text x="450" y="792" font-family="-apple-system, 'Helvetica Neue', Arial, sans-serif" font-size="9" font-weight="600" text-anchor="middle" fill="#111827">pvc!=nil
且非populator?</text>
  <line x1="450.0" y1="722.0" x2="450.0" y2="760.0" stroke="#3b82f6" stroke-width="1.5" marker-end="url(#arr)"/>
  <rect x="680" y="760" width="220" height="42" rx="6" fill="#f9fafb" stroke="#e5e7eb" stroke-width="1.5"/>
  <text x="790" y="787" font-family="-apple-system, 'Helvetica Neue', Arial, sans-serif" font-size="11" font-weight="600" text-anchor="middle" fill="#111827">setVddkAnnotations()</text>
  <rect x="680" y="822" width="220" height="42" rx="6" fill="#f9fafb" stroke="#e5e7eb" stroke-width="1.5"/>
  <text x="790" y="841" font-family="-apple-system, 'Helvetica Neue', Arial, sans-serif" font-size="10" font-weight="600" text-anchor="middle" fill="#111827">MaybeSetPvcMultiStage</text>
  <text x="790" y="857" font-family="-apple-system, 'Helvetica Neue', Arial, sans-serif" font-size="10" font-weight="400" text-anchor="middle" fill="#111827">Annotation()</text>
  <line x1="530.0" y1="787.0" x2="680.0" y2="781.0" stroke="#3b82f6" stroke-width="1.5" marker-end="url(#arr)"/>
  <rect x="595.2" y="771.0" width="19.5" height="13" rx="3" fill="#ffffff" opacity="0.9"/>
  <text x="605.0" y="782.0" font-family="-apple-system, 'Helvetica Neue', Arial, sans-serif" font-size="9.5" text-anchor="middle" fill="#6b7280">是</text>
  <line x1="790.0" y1="802.0" x2="790.0" y2="822.0" stroke="#3b82f6" stroke-width="1.5" marker-end="url(#arr)"/>
  <rect x="80" y="850" width="225" height="42" rx="6" fill="#d1fae5" stroke="#6ee7b7" stroke-width="1.5"/>
  <text x="192" y="877" font-family="-apple-system, 'Helvetica Neue', Arial, sans-serif" font-size="11" font-weight="600" text-anchor="middle" fill="#111827">syncUpdate(log, syncState)</text>
  <line x1="370.0" y1="787.0" x2="192.0" y2="852.0" stroke="#3b82f6" stroke-width="1.5" marker-end="url(#arr)"/>
  <rect x="271.2" y="806.5" width="19.5" height="13" rx="3" fill="#ffffff" opacity="0.9"/>
  <text x="281.0" y="817.5" font-family="-apple-system, 'Helvetica Neue', Arial, sans-serif" font-size="9.5" text-anchor="middle" fill="#6b7280">否</text>
  <line x1="790.0" y1="864.0" x2="680.0" y2="871.0" stroke="#3b82f6" stroke-width="1.5" marker-end="url(#arr)"/>
  <line x1="305.0" y1="871.0" x2="305.0" y2="871.0" stroke="#3b82f6" stroke-width="1.5" marker-end="url(#arr)"/>
  <line x1="790.0" y1="864.0" x2="450.0" y2="870.0" stroke="#3b82f6" stroke-width="1.5" marker-end="url(#arr)"/>
  <line x1="450.0" y1="870.0" x2="305.0" y2="871.0" stroke="#3b82f6" stroke-width="1.5" marker-end="url(#arr)"/>
  <line x1="305.0" y1="871.0" x2="305.0" y2="871.0" stroke="#3b82f6" stroke-width="1.5" marker-end="url(#arr)"/>
  <text x="450" y="886" font-family="-apple-system, 'Helvetica Neue', Arial, sans-serif" font-size="12" font-weight="600" text-anchor="middle" fill="#6b7280">ImportReconciler 調和流程</text>
</svg>