<svg xmlns="http://www.w3.org/2000/svg" width="1400" height="920" viewBox="0 0 1400 920">
  <defs>
    <marker id="arr" markerWidth="10" markerHeight="7" refX="9" refY="3.5" orient="auto">
      <polygon points="0 0.5,8.5 3.5,0 6.5" fill="#3b82f6"/>
    </marker>
    <marker id="arr2" markerWidth="10" markerHeight="7" refX="9" refY="3.5" orient="auto">
      <polygon points="0 0.5,8.5 3.5,0 6.5" fill="#e5e7eb"/>
    </marker>
  </defs>
  <rect width="1400" height="920" fill="#ffffff"/>
  <rect x="30" y="40" width="480" height="150" rx="10" fill="#f0f4ff" stroke="#c7d2fe" stroke-width="1.5"/>
  <text x="44" y="60" font-family="-apple-system, 'Helvetica Neue', Arial, sans-serif" font-size="11" font-weight="700" fill="#6b7280">Control Plane</text>
  <rect x="50" y="70" width="130" height="40" rx="6" fill="#dbeafe" stroke="#93c5fd" stroke-width="1.5"/>
  <text x="115" y="96" font-family="-apple-system, 'Helvetica Neue', Arial, sans-serif" font-size="11" font-weight="600" text-anchor="middle" fill="#111827">cdi-operator</text>
  <rect x="200" y="70" width="130" height="40" rx="6" fill="#dbeafe" stroke="#93c5fd" stroke-width="1.5"/>
  <text x="265" y="96" font-family="-apple-system, 'Helvetica Neue', Arial, sans-serif" font-size="11" font-weight="600" text-anchor="middle" fill="#111827">cdi-controller</text>
  <rect x="350" y="70" width="130" height="40" rx="6" fill="#dbeafe" stroke="#93c5fd" stroke-width="1.5"/>
  <text x="415" y="96" font-family="-apple-system, 'Helvetica Neue', Arial, sans-serif" font-size="11" font-weight="600" text-anchor="middle" fill="#111827">cdi-apiserver</text>
  <rect x="540" y="40" width="220" height="150" rx="10" fill="#f0f4ff" stroke="#c7d2fe" stroke-width="1.5"/>
  <text x="554" y="60" font-family="-apple-system, 'Helvetica Neue', Arial, sans-serif" font-size="11" font-weight="700" fill="#6b7280">Proxy Layer</text>
  <rect x="590" y="80" width="160" height="40" rx="6" fill="#fef3c7" stroke="#fcd34d" stroke-width="1.5"/>
  <text x="670" y="106" font-family="-apple-system, 'Helvetica Neue', Arial, sans-serif" font-size="11" font-weight="600" text-anchor="middle" fill="#111827">cdi-uploadproxy</text>
  <rect x="30" y="230" width="480" height="150" rx="10" fill="#f0f4ff" stroke="#c7d2fe" stroke-width="1.5"/>
  <text x="44" y="250" font-family="-apple-system, 'Helvetica Neue', Arial, sans-serif" font-size="11" font-weight="700" fill="#6b7280">Data Plane — Worker Pods</text>
  <rect x="50" y="265" width="130" height="40" rx="6" fill="#d1fae5" stroke="#6ee7b7" stroke-width="1.5"/>
  <text x="115" y="291" font-family="-apple-system, 'Helvetica Neue', Arial, sans-serif" font-size="11" font-weight="600" text-anchor="middle" fill="#111827">cdi-importer Pod</text>
  <rect x="200" y="265" width="130" height="40" rx="6" fill="#d1fae5" stroke="#6ee7b7" stroke-width="1.5"/>
  <text x="265" y="291" font-family="-apple-system, 'Helvetica Neue', Arial, sans-serif" font-size="11" font-weight="600" text-anchor="middle" fill="#111827">cdi-cloner Pod</text>
  <rect x="350" y="265" width="140" height="40" rx="6" fill="#d1fae5" stroke="#6ee7b7" stroke-width="1.5"/>
  <text x="420" y="291" font-family="-apple-system, 'Helvetica Neue', Arial, sans-serif" font-size="11" font-weight="600" text-anchor="middle" fill="#111827">cdi-uploadserver Pod</text>
  <rect x="540" y="230" width="220" height="150" rx="10" fill="#f0f4ff" stroke="#c7d2fe" stroke-width="1.5"/>
  <text x="554" y="250" font-family="-apple-system, 'Helvetica Neue', Arial, sans-serif" font-size="11" font-weight="700" fill="#6b7280">Volume Populators</text>
  <rect x="560" y="265" width="175" height="35" rx="6" fill="#f9fafb" stroke="#e5e7eb" stroke-width="1.5"/>
  <text x="648" y="288" font-family="-apple-system, 'Helvetica Neue', Arial, sans-serif" font-size="11" font-weight="600" text-anchor="middle" fill="#111827">ovirt-populator</text>
  <rect x="560" y="310" width="175" height="35" rx="6" fill="#f9fafb" stroke="#e5e7eb" stroke-width="1.5"/>
  <text x="648" y="334" font-family="-apple-system, 'Helvetica Neue', Arial, sans-serif" font-size="11" font-weight="600" text-anchor="middle" fill="#111827">openstack-populator</text>
  <rect x="30" y="430" width="360" height="160" rx="10" fill="#f0f4ff" stroke="#c7d2fe" stroke-width="1.5"/>
  <text x="44" y="450" font-family="-apple-system, 'Helvetica Neue', Arial, sans-serif" font-size="11" font-weight="700" fill="#6b7280">Kubernetes Resources</text>
  <rect x="50" y="460" width="130" height="40" rx="6" fill="#f9fafb" stroke="#e5e7eb" stroke-width="1.5"/>
  <text x="115" y="486" font-family="-apple-system, 'Helvetica Neue', Arial, sans-serif" font-size="11" font-weight="600" text-anchor="middle" fill="#111827">Kubernetes API</text>
  <rect x="200" y="460" width="80" height="40" rx="6" fill="#f9fafb" stroke="#e5e7eb" stroke-width="1.5"/>
  <text x="240" y="486" font-family="-apple-system, 'Helvetica Neue', Arial, sans-serif" font-size="11" font-weight="600" text-anchor="middle" fill="#111827">PVC</text>
  <rect x="295" y="460" width="80" height="40" rx="6" fill="#f9fafb" stroke="#e5e7eb" stroke-width="1.5"/>
  <text x="335" y="486" font-family="-apple-system, 'Helvetica Neue', Arial, sans-serif" font-size="11" font-weight="600" text-anchor="middle" fill="#111827">VolumeSnap</text>
  <rect x="50" y="515" width="130" height="40" rx="6" fill="#f9fafb" stroke="#e5e7eb" stroke-width="1.5"/>
  <text x="115" y="541" font-family="-apple-system, 'Helvetica Neue', Arial, sans-serif" font-size="11" font-weight="600" text-anchor="middle" fill="#111827">StorageClass</text>
  <rect x="420" y="430" width="360" height="220" rx="10" fill="#f0f4ff" stroke="#c7d2fe" stroke-width="1.5"/>
  <text x="434" y="450" font-family="-apple-system, 'Helvetica Neue', Arial, sans-serif" font-size="11" font-weight="700" fill="#6b7280">External Sources</text>
  <rect x="440" y="465" width="130" height="35" rx="6" fill="#f9fafb" stroke="#e5e7eb" stroke-width="1.5"/>
  <text x="505" y="488" font-family="-apple-system, 'Helvetica Neue', Arial, sans-serif" font-size="11" font-weight="600" text-anchor="middle" fill="#111827">HTTP / S3 / GCS</text>
  <rect x="590" y="465" width="165" height="35" rx="6" fill="#f9fafb" stroke="#e5e7eb" stroke-width="1.5"/>
  <text x="672" y="488" font-family="-apple-system, 'Helvetica Neue', Arial, sans-serif" font-size="11" font-weight="600" text-anchor="middle" fill="#111827">Container Registry</text>
  <rect x="440" y="510" width="130" height="35" rx="6" fill="#f9fafb" stroke="#e5e7eb" stroke-width="1.5"/>
  <text x="505" y="534" font-family="-apple-system, 'Helvetica Neue', Arial, sans-serif" font-size="11" font-weight="600" text-anchor="middle" fill="#111827">oVirt ImageIO</text>
  <rect x="590" y="510" width="165" height="35" rx="6" fill="#f9fafb" stroke="#e5e7eb" stroke-width="1.5"/>
  <text x="672" y="534" font-family="-apple-system, 'Helvetica Neue', Arial, sans-serif" font-size="11" font-weight="600" text-anchor="middle" fill="#111827">VMware VDDK</text>
  <rect x="440" y="555" width="130" height="35" rx="6" fill="#fef3c7" stroke="#fcd34d" stroke-width="1.5"/>
  <text x="505" y="578" font-family="-apple-system, 'Helvetica Neue', Arial, sans-serif" font-size="11" font-weight="600" text-anchor="middle" fill="#111827">Upload Client</text>
  <line x1="180.0" y1="90.0" x2="200.0" y2="90.0" stroke="#3b82f6" stroke-width="1.5" marker-end="url(#arr)"/>
  <rect x="168.0" y="76.0" width="44.0" height="13" rx="3" fill="#ffffff" opacity="0.9"/>
  <text x="190.0" y="87.0" font-family="-apple-system, 'Helvetica Neue', Arial, sans-serif" font-size="10" text-anchor="middle" fill="#6b7280">部署與管理</text>
  <line x1="280.0" y1="70.0" x2="280.0" y2="60.0" stroke="#3b82f6" stroke-width="1.5" marker-end="url(#arr)"/>
  <line x1="115.0" y1="90.0" x2="200.0" y2="90.0" stroke="#3b82f6" stroke-width="1.5" marker-end="url(#arr)"/>
  <rect x="144.5" y="76.0" width="26.0" height="13" rx="3" fill="#ffffff" opacity="0.9"/>
  <text x="157.5" y="87.0" font-family="-apple-system, 'Helvetica Neue', Arial, sans-serif" font-size="10" text-anchor="middle" fill="#6b7280">管理</text>
  <line x1="330.0" y1="90.0" x2="350.0" y2="90.0" stroke="#3b82f6" stroke-width="1.5" marker-end="url(#arr)"/>
  <rect x="327.0" y="76.0" width="26.0" height="13" rx="3" fill="#ffffff" opacity="0.9"/>
  <text x="340.0" y="87.0" font-family="-apple-system, 'Helvetica Neue', Arial, sans-serif" font-size="10" text-anchor="middle" fill="#6b7280">管理</text>
  <line x1="420.0" y1="65.0" x2="590.0" y2="80.0" stroke="#3b82f6" stroke-width="1.5" marker-end="url(#arr)"/>
  <rect x="492.0" y="58.5" width="26.0" height="13" rx="3" fill="#ffffff" opacity="0.9"/>
  <text x="505.0" y="69.5" font-family="-apple-system, 'Helvetica Neue', Arial, sans-serif" font-size="10" text-anchor="middle" fill="#6b7280">管理</text>
  <line x1="200.0" y1="305.0" x2="115.0" y2="305.0" stroke="#3b82f6" stroke-width="1.5" marker-end="url(#arr)"/>
  <rect x="135.5" y="291.0" width="44.0" height="13" rx="3" fill="#ffffff" opacity="0.9"/>
  <text x="157.5" y="302.0" font-family="-apple-system, 'Helvetica Neue', Arial, sans-serif" font-size="10" text-anchor="middle" fill="#6b7280">建立Pod</text>
  <line x1="265.0" y1="305.0" x2="265.0" y2="305.0" stroke="#3b82f6" stroke-width="1.5" marker-end="url(#arr)"/>
  <line x1="265.0" y1="265.0" x2="265.0" y2="280.0" stroke="#3b82f6" stroke-width="1.5" marker-end="url(#arr)"/>
  <line x1="265.0" y1="285.0" x2="355.0" y2="285.0" stroke="#3b82f6" stroke-width="1.5" marker-end="url(#arr)"/>
  <rect x="288.0" y="271.0" width="44.0" height="13" rx="3" fill="#ffffff" opacity="0.9"/>
  <text x="310.0" y="282.0" font-family="-apple-system, 'Helvetica Neue', Arial, sans-serif" font-size="10" text-anchor="middle" fill="#6b7280">建立Pod</text>
  <line x1="265.0" y1="285.0" x2="175.0" y2="285.0" stroke="#3b82f6" stroke-width="1.5" marker-end="url(#arr)"/>
  <rect x="198.0" y="271.0" width="44.0" height="13" rx="3" fill="#ffffff" opacity="0.9"/>
  <text x="220.0" y="282.0" font-family="-apple-system, 'Helvetica Neue', Arial, sans-serif" font-size="10" text-anchor="middle" fill="#6b7280">建立Pod</text>
  <line x1="265.0" y1="110.0" x2="115.0" y2="265.0" stroke="#3b82f6" stroke-width="1.5" marker-end="url(#arr)"/>
  <rect x="159.0" y="173.5" width="62.0" height="13" rx="3" fill="#ffffff" opacity="0.9"/>
  <text x="190.0" y="184.5" font-family="-apple-system, 'Helvetica Neue', Arial, sans-serif" font-size="10" text-anchor="middle" fill="#6b7280">建立Worker</text>
  <line x1="265.0" y1="110.0" x2="265.0" y2="265.0" stroke="#3b82f6" stroke-width="1.5" marker-end="url(#arr)"/>
  <rect x="234.0" y="173.5" width="62.0" height="13" rx="3" fill="#ffffff" opacity="0.9"/>
  <text x="265.0" y="184.5" font-family="-apple-system, 'Helvetica Neue', Arial, sans-serif" font-size="10" text-anchor="middle" fill="#6b7280">建立Worker</text>
  <line x1="265.0" y1="110.0" x2="420.0" y2="265.0" stroke="#3b82f6" stroke-width="1.5" marker-end="url(#arr)"/>
  <rect x="311.5" y="173.5" width="62.0" height="13" rx="3" fill="#ffffff" opacity="0.9"/>
  <text x="342.5" y="184.5" font-family="-apple-system, 'Helvetica Neue', Arial, sans-serif" font-size="10" text-anchor="middle" fill="#6b7280">建立Worker</text>
  <line x1="210.0" y1="150.0" x2="180.0" y2="460.0" stroke="#3b82f6" stroke-width="1.5" marker-end="url(#arr)"/>
  <rect x="182.0" y="291.0" width="26.0" height="13" rx="3" fill="#ffffff" opacity="0.9"/>
  <text x="195.0" y="302.0" font-family="-apple-system, 'Helvetica Neue', Arial, sans-serif" font-size="10" text-anchor="middle" fill="#6b7280">監控</text>
  <line x1="415.0" y1="150.0" x2="245.0" y2="460.0" stroke="#3b82f6" stroke-width="1.5" marker-end="url(#arr)"/>
  <rect x="296.0" y="291.0" width="68.0" height="13" rx="3" fill="#ffffff" opacity="0.9"/>
  <text x="330.0" y="302.0" font-family="-apple-system, 'Helvetica Neue', Arial, sans-serif" font-size="10" text-anchor="middle" fill="#6b7280">Webhook驗證</text>
  <line x1="415.0" y1="90.0" x2="590.0" y2="90.0" stroke="#3b82f6" stroke-width="1.5" marker-end="url(#arr)"/>
  <rect x="474.5" y="76.0" width="56.0" height="13" rx="3" fill="#ffffff" opacity="0.9"/>
  <text x="502.5" y="87.0" font-family="-apple-system, 'Helvetica Neue', Arial, sans-serif" font-size="10" text-anchor="middle" fill="#6b7280">簽發Token</text>
  <line x1="115.0" y1="305.0" x2="237.0" y2="460.0" stroke="#3b82f6" stroke-width="1.5" marker-end="url(#arr)"/>
  <rect x="163.0" y="368.5" width="26.0" height="13" rx="3" fill="#ffffff" opacity="0.9"/>
  <text x="176.0" y="379.5" font-family="-apple-system, 'Helvetica Neue', Arial, sans-serif" font-size="10" text-anchor="middle" fill="#6b7280">寫入</text>
  <line x1="265.0" y1="305.0" x2="237.0" y2="460.0" stroke="#3b82f6" stroke-width="1.5" marker-end="url(#arr)"/>
  <rect x="238.0" y="368.5" width="26.0" height="13" rx="3" fill="#ffffff" opacity="0.9"/>
  <text x="251.0" y="379.5" font-family="-apple-system, 'Helvetica Neue', Arial, sans-serif" font-size="10" text-anchor="middle" fill="#6b7280">讀寫</text>
  <line x1="420.0" y1="305.0" x2="280.0" y2="460.0" stroke="#3b82f6" stroke-width="1.5" marker-end="url(#arr)"/>
  <rect x="337.0" y="368.5" width="26.0" height="13" rx="3" fill="#ffffff" opacity="0.9"/>
  <text x="350.0" y="379.5" font-family="-apple-system, 'Helvetica Neue', Arial, sans-serif" font-size="10" text-anchor="middle" fill="#6b7280">寫入</text>
  <line x1="265.0" y1="305.0" x2="338.0" y2="460.0" stroke="#3b82f6" stroke-width="1.5" marker-end="url(#arr)"/>
  <rect x="288.5" y="368.5" width="26.0" height="13" rx="3" fill="#ffffff" opacity="0.9"/>
  <text x="301.5" y="379.5" font-family="-apple-system, 'Helvetica Neue', Arial, sans-serif" font-size="10" text-anchor="middle" fill="#6b7280">建立</text>
  <line x1="648.0" y1="282.0" x2="237.0" y2="460.0" stroke="#3b82f6" stroke-width="1.5" marker-end="url(#arr)"/>
  <rect x="429.5" y="357.0" width="26.0" height="13" rx="3" fill="#ffffff" opacity="0.9"/>
  <text x="442.5" y="368.0" font-family="-apple-system, 'Helvetica Neue', Arial, sans-serif" font-size="10" text-anchor="middle" fill="#6b7280">寫入</text>
  <line x1="670.0" y1="120.0" x2="490.0" y2="285.0" stroke="#3b82f6" stroke-width="1.5" marker-end="url(#arr)"/>
  <rect x="561.0" y="188.5" width="38.0" height="13" rx="3" fill="#ffffff" opacity="0.9"/>
  <text x="580.0" y="199.5" font-family="-apple-system, 'Helvetica Neue', Arial, sans-serif" font-size="10" text-anchor="middle" fill="#6b7280">轉發請求</text>
  <line x1="505.0" y1="573.0" x2="700.0" y2="130.0" stroke="#3b82f6" stroke-width="1.5" marker-end="url(#arr)"/>
  <rect x="589.5" y="337.5" width="26.0" height="13" rx="3" fill="#ffffff" opacity="0.9"/>
  <text x="602.5" y="348.5" font-family="-apple-system, 'Helvetica Neue', Arial, sans-serif" font-size="10" text-anchor="middle" fill="#6b7280">上傳</text>
  <line x1="115.0" y1="285.0" x2="440.0" y2="483.0" stroke="#e5e7eb" stroke-width="1.5" stroke-dasharray="4,3"/>
  <line x1="115.0" y1="285.0" x2="590.0" y2="483.0" stroke="#e5e7eb" stroke-width="1.5" stroke-dasharray="4,3"/>
  <line x1="115.0" y1="285.0" x2="440.0" y2="528.0" stroke="#e5e7eb" stroke-width="1.5" stroke-dasharray="4,3"/>
  <line x1="115.0" y1="285.0" x2="590.0" y2="528.0" stroke="#e5e7eb" stroke-width="1.5" stroke-dasharray="4,3"/>
  <line x1="210.0" y1="150.0" x2="115.0" y2="515.0" stroke="#3b82f6" stroke-width="1.5" marker-end="url(#arr)"/>
  <rect x="149.5" y="318.5" width="26.0" height="13" rx="3" fill="#ffffff" opacity="0.9"/>
  <text x="162.5" y="329.5" font-family="-apple-system, 'Helvetica Neue', Arial, sans-serif" font-size="10" text-anchor="middle" fill="#6b7280">讀取</text>
</svg>