<svg xmlns="http://www.w3.org/2000/svg" width="1300" height="480" style="font-family:-apple-system, 'Helvetica Neue', Arial, sans-serif;background:#ffffff">
<defs>
  <marker id="arr" markerWidth="10" markerHeight="8" refX="8.5" refY="3.5" orient="auto">
    <polygon points="0 0.5,8.5 3.5,0 6.5" fill="#3b82f6"/>
  </marker>
  <marker id="arrd" markerWidth="10" markerHeight="8" refX="8.5" refY="3.5" orient="auto">
    <polygon points="0 0.5,8.5 3.5,0 6.5" fill="#6b7280"/>
  </marker>
  <marker id="arro" markerWidth="10" markerHeight="8" refX="8.5" refY="3.5" orient="auto">
    <polygon points="0 0.5,8.5 3.5,0 6.5" fill="#92400e"/>
  </marker>
</defs>
<text x="650.0" y="28" text-anchor="middle" font-family="-apple-system, 'Helvetica Neue', Arial, sans-serif" font-size="15" font-weight="bold" fill="#111827">Storage Mapping 流程</text><rect x="30" y="55" width="300" height="380" fill="#f0f4ff" stroke="#c7d2fe" stroke-width="1.5" rx="10"/><text x="42" y="73" font-family="-apple-system, 'Helvetica Neue', Arial, sans-serif" font-size="12" font-weight="bold" fill="#111827">來源</text><rect x="380" y="55" width="400" height="380" fill="#f0f4ff" stroke="#c7d2fe" stroke-width="1.5" rx="10"/><text x="392" y="73" font-family="-apple-system, 'Helvetica Neue', Arial, sans-serif" font-size="12" font-weight="bold" fill="#111827">StorageMap</text><rect x="840" y="55" width="430" height="380" fill="#f0f4ff" stroke="#c7d2fe" stroke-width="1.5" rx="10"/><text x="852" y="73" font-family="-apple-system, 'Helvetica Neue', Arial, sans-serif" font-size="12" font-weight="bold" fill="#111827">目標 Kubernetes</text><rect x="50" y="140" width="250" height="44" fill="#f9fafb" stroke="#e5e7eb" stroke-width="1.5" rx="6"/><text x="175.0" y="166.0" text-anchor="middle" font-family="-apple-system, 'Helvetica Neue', Arial, sans-serif" font-size="12" fill="#111827">vSphere Datastore A</text><rect x="50" y="270" width="250" height="44" fill="#f9fafb" stroke="#e5e7eb" stroke-width="1.5" rx="6"/><text x="175.0" y="296.0" text-anchor="middle" font-family="-apple-system, 'Helvetica Neue', Arial, sans-serif" font-size="12" fill="#111827">vSphere Datastore B</text><rect x="400" y="140" width="340" height="44" fill="#f0f4ff" stroke="#c7d2fe" stroke-width="1.5" rx="6"/><text x="570.0" y="158.0" text-anchor="middle" font-family="-apple-system, 'Helvetica Neue', Arial, sans-serif" font-size="12" fill="#111827">StoragePair 1</text><text x="570.0" y="174.0" text-anchor="middle" font-family="-apple-system, 'Helvetica Neue', Arial, sans-serif" font-size="12" fill="#111827">+ OffloadPlugin</text><rect x="400" y="270" width="340" height="44" fill="#f9fafb" stroke="#e5e7eb" stroke-width="1.5" rx="6"/><text x="570.0" y="296.0" text-anchor="middle" font-family="-apple-system, 'Helvetica Neue', Arial, sans-serif" font-size="12" fill="#111827">StoragePair 2</text><rect x="860" y="140" width="370" height="44" fill="#f9fafb" stroke="#e5e7eb" stroke-width="1.5" rx="6"/><text x="1045.0" y="158.0" text-anchor="middle" font-family="-apple-system, 'Helvetica Neue', Arial, sans-serif" font-size="12" fill="#111827">StorageClass: ontap-san</text><text x="1045.0" y="174.0" text-anchor="middle" font-family="-apple-system, 'Helvetica Neue', Arial, sans-serif" font-size="12" fill="#111827">VolumeMode: Block</text><rect x="860" y="270" width="370" height="44" fill="#f9fafb" stroke="#e5e7eb" stroke-width="1.5" rx="6"/><text x="1045.0" y="288.0" text-anchor="middle" font-family="-apple-system, 'Helvetica Neue', Arial, sans-serif" font-size="12" fill="#111827">StorageClass: ceph-rbd</text><text x="1045.0" y="304.0" text-anchor="middle" font-family="-apple-system, 'Helvetica Neue', Arial, sans-serif" font-size="12" fill="#111827">VolumeMode: Filesystem</text><rect x="400" y="360" width="340" height="44" fill="#fffbeb" stroke="#fbbf24" stroke-width="1.5" rx="6"/><text x="570.0" y="378.0" text-anchor="middle" font-family="-apple-system, 'Helvetica Neue', Arial, sans-serif" font-size="12" fill="#111827">XCOPY Offload</text><text x="570.0" y="394.0" text-anchor="middle" font-family="-apple-system, 'Helvetica Neue', Arial, sans-serif" font-size="12" fill="#111827">陣列內部複製</text><rect x="860" y="360" width="370" height="44" fill="#fffbeb" stroke="#fbbf24" stroke-width="1.5" rx="6"/><text x="1045.0" y="378.0" text-anchor="middle" font-family="-apple-system, 'Helvetica Neue', Arial, sans-serif" font-size="12" fill="#111827">CDI 標準傳輸</text><text x="1045.0" y="394.0" text-anchor="middle" font-family="-apple-system, 'Helvetica Neue', Arial, sans-serif" font-size="12" fill="#111827">網路複製</text><line x1="300.0" y1="162.0" x2="391.0" y2="162.0" stroke="#3b82f6" stroke-width="1.5" marker-end="url(#arr)"/><line x1="300.0" y1="292.0" x2="391.0" y2="292.0" stroke="#3b82f6" stroke-width="1.5" marker-end="url(#arr)"/><line x1="740.0" y1="162.0" x2="851.0" y2="162.0" stroke="#3b82f6" stroke-width="1.5" marker-end="url(#arr)"/><line x1="740.0" y1="292.0" x2="851.0" y2="292.0" stroke="#3b82f6" stroke-width="1.5" marker-end="url(#arr)"/><line x1="570.0" y1="184.0" x2="570.0" y2="351.0" stroke="#6b7280" stroke-width="1.5" stroke-dasharray="6,3" marker-end="url(#arrd)"/><line x1="1045.0" y1="314.0" x2="1045.0" y2="351.0" stroke="#6b7280" stroke-width="1.5" stroke-dasharray="6,3" marker-end="url(#arrd)"/>
</svg>