<svg xmlns="http://www.w3.org/2000/svg" width="1300" height="1000" style="font-family:-apple-system, 'Helvetica Neue', Arial, sans-serif;background:#ffffff">
<defs>
  <marker id="arr" markerWidth="10" markerHeight="8" refX="8.5" refY="3.5" orient="auto">
    <polygon points="0 0.5,8.5 3.5,0 6.5" fill="#3b82f6"/>
  </marker>
  <marker id="arrd" markerWidth="10" markerHeight="8" refX="8.5" refY="3.5" orient="auto">
    <polygon points="0 0.5,8.5 3.5,0 6.5" fill="#6b7280"/>
  </marker>
  <marker id="arro" markerWidth="10" markerHeight="8" refX="8.5" refY="3.5" orient="auto">
    <polygon points="0 0.5,8.5 3.5,0 6.5" fill="#92400e"/>
  </marker>
</defs>
<text x="650.0" y="28" text-anchor="middle" font-family="-apple-system, 'Helvetica Neue', Arial, sans-serif" font-size="15" font-weight="bold" fill="#111827">Warm Migration 狀態流程</text><rect x="40" y="175" width="1220" height="195" fill="#f0f4ff" stroke="#c7d2fe" stroke-width="1.5" rx="10"/><text x="52" y="193" font-family="-apple-system, 'Helvetica Neue', Arial, sans-serif" font-size="12" font-weight="bold" fill="#111827">Precopy Init</text><rect x="40" y="395" width="1220" height="205" fill="#f0f4ff" stroke="#c7d2fe" stroke-width="1.5" rx="10"/><text x="52" y="413" font-family="-apple-system, 'Helvetica Neue', Arial, sans-serif" font-size="12" font-weight="bold" fill="#111827">Precopy Loop</text><rect x="40" y="625" width="1220" height="270" fill="#f0f4ff" stroke="#c7d2fe" stroke-width="1.5" rx="10"/><text x="52" y="643" font-family="-apple-system, 'Helvetica Neue', Arial, sans-serif" font-size="12" font-weight="bold" fill="#111827">Cutover</text><circle cx="280" cy="60" r="10" fill="#3b82f6"/><rect x="182.5" y="120" width="195" height="38" fill="#f9fafb" stroke="#e5e7eb" stroke-width="1.5" rx="18"/><text x="280.0" y="142.5" text-anchor="middle" font-family="-apple-system, 'Helvetica Neue', Arial, sans-serif" font-size="11" fill="#111827">Started</text><polygon points="280,183.0 385.0,209 280,235.0 175.0,209" fill="#f9fafb" stroke="#e5e7eb" stroke-width="1.5"/><text x="280" y="213.0" text-anchor="middle" font-family="-apple-system, 'Helvetica Neue', Arial, sans-serif" font-size="11" fill="#111827">HasPreHook?</text><rect x="182.5" y="260" width="195" height="38" fill="#f0f4ff" stroke="#c7d2fe" stroke-width="1.5" rx="18"/><text x="280.0" y="282.5" text-anchor="middle" font-family="-apple-system, 'Helvetica Neue', Arial, sans-serif" font-size="11" fill="#111827">PreHook</text><rect x="182.5" y="330" width="195" height="38" fill="#f9fafb" stroke="#e5e7eb" stroke-width="1.5" rx="18"/><text x="280.0" y="352.5" text-anchor="middle" font-family="-apple-system, 'Helvetica Neue', Arial, sans-serif" font-size="11" fill="#111827">CreateInitialSnapshot</text><rect x="182.5" y="410" width="195" height="38" fill="#f9fafb" stroke="#e5e7eb" stroke-width="1.5" rx="18"/><text x="280.0" y="432.5" text-anchor="middle" font-family="-apple-system, 'Helvetica Neue', Arial, sans-serif" font-size="11" fill="#111827">WaitForInitialSnapshot</text><rect x="182.5" y="490" width="195" height="38" fill="#f9fafb" stroke="#e5e7eb" stroke-width="1.5" rx="18"/><text x="280.0" y="505.0" text-anchor="middle" font-family="-apple-system, 'Helvetica Neue', Arial, sans-serif" font-size="11" fill="#111827">StoreInitialSnapshotDeltas</text><text x="280.0" y="520.0" text-anchor="middle" font-family="-apple-system, 'Helvetica Neue', Arial, sans-serif" font-size="11" fill="#111827">(vSphere) / CreateDVs</text><rect x="182.5" y="570" width="195" height="38" fill="#f9fafb" stroke="#e5e7eb" stroke-width="1.5" rx="18"/><text x="280.0" y="592.5" text-anchor="middle" font-family="-apple-system, 'Helvetica Neue', Arial, sans-serif" font-size="11" fill="#111827">CreateDataVolumes</text><rect x="182.5" y="650" width="195" height="38" fill="#f9fafb" stroke="#e5e7eb" stroke-width="1.5" rx="18"/><text x="280.0" y="672.5" text-anchor="middle" font-family="-apple-system, 'Helvetica Neue', Arial, sans-serif" font-size="11" fill="#111827">CopyDisks</text><rect x="182.5" y="730" width="195" height="38" fill="#f9fafb" stroke="#e5e7eb" stroke-width="1.5" rx="18"/><text x="280.0" y="752.5" text-anchor="middle" font-family="-apple-system, 'Helvetica Neue', Arial, sans-serif" font-size="11" fill="#111827">CopyingPaused</text><rect x="182.5" y="810" width="195" height="38" fill="#f9fafb" stroke="#e5e7eb" stroke-width="1.5" rx="18"/><text x="280.0" y="825.0" text-anchor="middle" font-family="-apple-system, 'Helvetica Neue', Arial, sans-serif" font-size="11" fill="#111827">RemovePreviousSnapshot</text><text x="280.0" y="840.0" text-anchor="middle" font-family="-apple-system, 'Helvetica Neue', Arial, sans-serif" font-size="11" fill="#111827">/ CreateSnapshot</text><rect x="182.5" y="880" width="195" height="38" fill="#f9fafb" stroke="#e5e7eb" stroke-width="1.5" rx="18"/><text x="280.0" y="902.5" text-anchor="middle" font-family="-apple-system, 'Helvetica Neue', Arial, sans-serif" font-size="11" fill="#111827">AddCheckpoint</text><rect x="652.5" y="650" width="195" height="38" fill="#f9fafb" stroke="#e5e7eb" stroke-width="1.5" rx="18"/><text x="750.0" y="672.5" text-anchor="middle" font-family="-apple-system, 'Helvetica Neue', Arial, sans-serif" font-size="11" fill="#111827">StorePowerState</text><rect x="652.5" y="730" width="195" height="38" fill="#f9fafb" stroke="#e5e7eb" stroke-width="1.5" rx="18"/><text x="750.0" y="752.5" text-anchor="middle" font-family="-apple-system, 'Helvetica Neue', Arial, sans-serif" font-size="11" fill="#111827">PowerOffSource</text><rect x="652.5" y="810" width="195" height="38" fill="#f9fafb" stroke="#e5e7eb" stroke-width="1.5" rx="18"/><text x="750.0" y="832.5" text-anchor="middle" font-family="-apple-system, 'Helvetica Neue', Arial, sans-serif" font-size="11" fill="#111827">WaitForPowerOff</text><rect x="652.5" y="880" width="195" height="38" fill="#f9fafb" stroke="#e5e7eb" stroke-width="1.5" rx="18"/><text x="750.0" y="902.5" text-anchor="middle" font-family="-apple-system, 'Helvetica Neue', Arial, sans-serif" font-size="11" fill="#111827">CreateFinalSnapshot</text><rect x="652.5" y="940" width="195" height="38" fill="#f9fafb" stroke="#e5e7eb" stroke-width="1.5" rx="18"/><text x="750.0" y="962.5" text-anchor="middle" font-family="-apple-system, 'Helvetica Neue', Arial, sans-serif" font-size="11" fill="#111827">AddFinalCheckpoint / Finalize</text><rect x="182.5" y="940" width="195" height="38" fill="#f0f4ff" stroke="#c7d2fe" stroke-width="1.5" rx="18"/><text x="280.0" y="962.5" text-anchor="middle" font-family="-apple-system, 'Helvetica Neue', Arial, sans-serif" font-size="11" fill="#111827">CreateVM / PostHook</text><circle cx="280" cy="998" r="12" fill="#ffffff" stroke="#3b82f6" stroke-width="2.5"/><circle cx="280" cy="998" r="7" fill="#3b82f6"/><line x1="280.0" y1="70.0" x2="280.0" y2="111.0" stroke="#3b82f6" stroke-width="1.5" marker-end="url(#arr)"/><line x1="280.0" y1="158.0" x2="280.0" y2="173.0" stroke="#3b82f6" stroke-width="1.5" marker-end="url(#arr)"/><line x1="230.0" y1="209.0" x2="203.5" y2="270.7" stroke="#3b82f6" stroke-width="1.5" marker-end="url(#arr)"/><line x1="200.0" y1="279.0" x2="200.0" y2="340.0" stroke="#3b82f6" stroke-width="1.5" marker-end="url(#arr)"/><line x1="200.0" y1="349.0" x2="191.5" y2="349.0" stroke="#3b82f6" stroke-width="1.5" marker-end="url(#arr)"/><text x="191.2" y="341.0" text-anchor="middle" font-family="-apple-system, 'Helvetica Neue', Arial, sans-serif" font-size="10" fill="#6b7280">HasPreHook→</text><line x1="330.0" y1="209.0" x2="283.0" y2="340.5" stroke="#3b82f6" stroke-width="1.5" marker-end="url(#arr)"/><text x="323.0" y="279.0" text-anchor="middle" font-family="-apple-system, 'Helvetica Neue', Arial, sans-serif" font-size="10" fill="#6b7280">無Hook</text><line x1="280.0" y1="368.0" x2="280.0" y2="401.0" stroke="#3b82f6" stroke-width="1.5" marker-end="url(#arr)"/><line x1="280.0" y1="448.0" x2="280.0" y2="481.0" stroke="#3b82f6" stroke-width="1.5" marker-end="url(#arr)"/><line x1="280.0" y1="528.0" x2="280.0" y2="561.0" stroke="#3b82f6" stroke-width="1.5" marker-end="url(#arr)"/><line x1="280.0" y1="608.0" x2="280.0" y2="641.0" stroke="#3b82f6" stroke-width="1.5" marker-end="url(#arr)"/><line x1="280.0" y1="688.0" x2="280.0" y2="721.0" stroke="#3b82f6" stroke-width="1.5" marker-end="url(#arr)"/><line x1="280.0" y1="768.0" x2="280.0" y2="801.0" stroke="#3b82f6" stroke-width="1.5" marker-end="url(#arr)"/><line x1="280.0" y1="848.0" x2="280.0" y2="871.0" stroke="#3b82f6" stroke-width="1.5" marker-end="url(#arr)"/><path d="M 182.5,899.0 L 142.5,899.0 L 142.5,669.0 L 182.5,669.0" fill="none" stroke="#3b82f6" stroke-width="1.5" marker-end="url(#arr)"/><text x="127.5" y="750" text-anchor="middle" font-family="-apple-system, 'Helvetica Neue', Arial, sans-serif" font-size="10" fill="#6b7280">繼續</text><line x1="377.5" y1="899.0" x2="645.6" y2="674.8" stroke="#3b82f6" stroke-width="1.5" marker-end="url(#arr)"/><text x="515.0" y="776.0" text-anchor="middle" font-family="-apple-system, 'Helvetica Neue', Arial, sans-serif" font-size="10" fill="#6b7280">觸發Cutover</text><line x1="750.0" y1="688.0" x2="750.0" y2="721.0" stroke="#3b82f6" stroke-width="1.5" marker-end="url(#arr)"/><line x1="750.0" y1="768.0" x2="750.0" y2="801.0" stroke="#3b82f6" stroke-width="1.5" marker-end="url(#arr)"/><line x1="750.0" y1="848.0" x2="750.0" y2="871.0" stroke="#3b82f6" stroke-width="1.5" marker-end="url(#arr)"/><line x1="750.0" y1="918.0" x2="750.0" y2="931.0" stroke="#3b82f6" stroke-width="1.5" marker-end="url(#arr)"/><line x1="652.5" y1="959.0" x2="386.5" y2="959.0" stroke="#3b82f6" stroke-width="1.5" marker-end="url(#arr)"/><line x1="280.0" y1="978.0" x2="280.0" y2="984.0" stroke="#3b82f6" stroke-width="1.5" marker-end="url(#arr)"/>
</svg>