<svg xmlns="http://www.w3.org/2000/svg" width="1500" height="620" style="font-family:-apple-system, 'Helvetica Neue', Arial, sans-serif;background:#ffffff">
<defs>
  <marker id="arr" markerWidth="10" markerHeight="8" refX="8.5" refY="3.5" orient="auto">
    <polygon points="0 0.5,8.5 3.5,0 6.5" fill="#3b82f6"/>
  </marker>
  <marker id="arrd" markerWidth="10" markerHeight="8" refX="8.5" refY="3.5" orient="auto">
    <polygon points="0 0.5,8.5 3.5,0 6.5" fill="#6b7280"/>
  </marker>
  <marker id="arro" markerWidth="10" markerHeight="8" refX="8.5" refY="3.5" orient="auto">
    <polygon points="0 0.5,8.5 3.5,0 6.5" fill="#92400e"/>
  </marker>
</defs>
<text x="750.0" y="28" text-anchor="middle" font-family="-apple-system, 'Helvetica Neue', Arial, sans-serif" font-size="15" font-weight="bold" fill="#111827">Forklift Tekton Pipelines</text><rect x="30" y="55" width="260" height="510" fill="#f0f4ff" stroke="#c7d2fe" stroke-width="1.5" rx="10"/><text x="42" y="73" font-family="-apple-system, 'Helvetica Neue', Arial, sans-serif" font-size="12" font-weight="bold" fill="#111827">Tekton Pipelines</text><rect x="50" y="160" width="220" height="64" fill="#f0f4ff" stroke="#c7d2fe" stroke-width="1.5" rx="6"/><text x="160.0" y="188.0" text-anchor="middle" font-family="-apple-system, 'Helvetica Neue', Arial, sans-serif" font-size="12" fill="#111827">pull-request 管線</text><text x="160.0" y="204.0" text-anchor="middle" font-family="-apple-system, 'Helvetica Neue', Arial, sans-serif" font-size="12" fill="#111827">PR 觸發</text><rect x="50" y="370" width="220" height="64" fill="#f0f4ff" stroke="#c7d2fe" stroke-width="1.5" rx="6"/><text x="160.0" y="398.0" text-anchor="middle" font-family="-apple-system, 'Helvetica Neue', Arial, sans-serif" font-size="12" fill="#111827">push 管線</text><text x="160.0" y="414.0" text-anchor="middle" font-family="-apple-system, 'Helvetica Neue', Arial, sans-serif" font-size="12" fill="#111827">merge 觸發</text><rect x="360" y="55" width="1110" height="510" fill="#f0f4ff" stroke="#c7d2fe" stroke-width="1.5" rx="10"/><text x="372" y="73" font-family="-apple-system, 'Helvetica Neue', Arial, sans-serif" font-size="12" font-weight="bold" fill="#111827">元件</text><rect x="380" y="100" width="100" height="42" fill="#f9fafb" stroke="#e5e7eb" stroke-width="1.5" rx="6"/><text x="430.0" y="124.0" text-anchor="middle" font-family="-apple-system, 'Helvetica Neue', Arial, sans-serif" font-size="10" fill="#111827">API</text><rect x="510" y="100" width="170" height="42" fill="#f9fafb" stroke="#e5e7eb" stroke-width="1.5" rx="6"/><text x="595.0" y="124.0" text-anchor="middle" font-family="-apple-system, 'Helvetica Neue', Arial, sans-serif" font-size="10" fill="#111827">forklift-controller</text><rect x="710" y="100" width="165" height="42" fill="#f9fafb" stroke="#e5e7eb" stroke-width="1.5" rx="6"/><text x="792.5" y="124.0" text-anchor="middle" font-family="-apple-system, 'Helvetica Neue', Arial, sans-serif" font-size="10" fill="#111827">forklift-operator</text><rect x="905" y="100" width="175" height="42" fill="#f9fafb" stroke="#e5e7eb" stroke-width="1.5" rx="6"/><text x="992.5" y="124.0" text-anchor="middle" font-family="-apple-system, 'Helvetica Neue', Arial, sans-serif" font-size="10" fill="#111827">ova-provider-server</text><rect x="1110" y="100" width="120" height="42" fill="#f9fafb" stroke="#e5e7eb" stroke-width="1.5" rx="6"/><text x="1170.0" y="124.0" text-anchor="middle" font-family="-apple-system, 'Helvetica Neue', Arial, sans-serif" font-size="10" fill="#111827">ova-proxy</text><rect x="1255" y="100" width="130" height="42" fill="#f9fafb" stroke="#e5e7eb" stroke-width="1.5" rx="6"/><text x="1320.0" y="124.0" text-anchor="middle" font-family="-apple-system, 'Helvetica Neue', Arial, sans-serif" font-size="10" fill="#111827">virt-v2v</text><rect x="380" y="200" width="155" height="42" fill="#f9fafb" stroke="#e5e7eb" stroke-width="1.5" rx="6"/><text x="457.5" y="224.0" text-anchor="middle" font-family="-apple-system, 'Helvetica Neue', Arial, sans-serif" font-size="10" fill="#111827">ovirt-populator</text><rect x="560" y="200" width="185" height="42" fill="#f9fafb" stroke="#e5e7eb" stroke-width="1.5" rx="6"/><text x="652.5" y="224.0" text-anchor="middle" font-family="-apple-system, 'Helvetica Neue', Arial, sans-serif" font-size="10" fill="#111827">openstack-populator</text><rect x="775" y="200" width="210" height="42" fill="#f9fafb" stroke="#e5e7eb" stroke-width="1.5" rx="6"/><text x="880.0" y="224.0" text-anchor="middle" font-family="-apple-system, 'Helvetica Neue', Arial, sans-serif" font-size="10" fill="#111827">vsphere-xcopy-populator</text><rect x="1010" y="200" width="185" height="42" fill="#f9fafb" stroke="#e5e7eb" stroke-width="1.5" rx="6"/><text x="1102.5" y="224.0" text-anchor="middle" font-family="-apple-system, 'Helvetica Neue', Arial, sans-serif" font-size="10" fill="#111827">populator-controller</text><rect x="1220" y="200" width="175" height="42" fill="#f9fafb" stroke="#e5e7eb" stroke-width="1.5" rx="6"/><text x="1307.5" y="224.0" text-anchor="middle" font-family="-apple-system, 'Helvetica Neue', Arial, sans-serif" font-size="10" fill="#111827">forklift-validation</text><rect x="380" y="300" width="200" height="42" fill="#f9fafb" stroke="#e5e7eb" stroke-width="1.5" rx="6"/><text x="480.0" y="324.0" text-anchor="middle" font-family="-apple-system, 'Helvetica Neue', Arial, sans-serif" font-size="10" fill="#111827">hyperv-provider-server</text><rect x="610" y="300" width="200" height="42" fill="#f9fafb" stroke="#e5e7eb" stroke-width="1.5" rx="6"/><text x="710.0" y="324.0" text-anchor="middle" font-family="-apple-system, 'Helvetica Neue', Arial, sans-serif" font-size="10" fill="#111827">forklift-cli-download</text><line x1="270.0" y1="192.0" x2="372.4" y2="125.9" stroke="#3b82f6" stroke-width="1.5" marker-end="url(#arr)"/><line x1="270.0" y1="402.0" x2="376.7" y2="129.4" stroke="#6b7280" stroke-width="1.5" stroke-dasharray="6,3" marker-end="url(#arrd)"/><line x1="270.0" y1="192.0" x2="501.4" y2="123.6" stroke="#3b82f6" stroke-width="1.5" marker-end="url(#arr)"/><line x1="270.0" y1="402.0" x2="504.2" y2="127.8" stroke="#6b7280" stroke-width="1.5" stroke-dasharray="6,3" marker-end="url(#arrd)"/><line x1="270.0" y1="192.0" x2="701.1" y2="122.4" stroke="#3b82f6" stroke-width="1.5" marker-end="url(#arr)"/><line x1="270.0" y1="402.0" x2="702.4" y2="125.8" stroke="#6b7280" stroke-width="1.5" stroke-dasharray="6,3" marker-end="url(#arrd)"/><line x1="270.0" y1="192.0" x2="896.1" y2="122.0" stroke="#3b82f6" stroke-width="1.5" marker-end="url(#arr)"/><line x1="270.0" y1="402.0" x2="896.8" y2="124.6" stroke="#6b7280" stroke-width="1.5" stroke-dasharray="6,3" marker-end="url(#arrd)"/><line x1="270.0" y1="192.0" x2="1101.0" y2="121.8" stroke="#3b82f6" stroke-width="1.5" marker-end="url(#arr)"/><line x1="270.0" y1="402.0" x2="1101.5" y2="123.9" stroke="#6b7280" stroke-width="1.5" stroke-dasharray="6,3" marker-end="url(#arrd)"/><line x1="270.0" y1="192.0" x2="1246.0" y2="121.6" stroke="#3b82f6" stroke-width="1.5" marker-end="url(#arr)"/><line x1="270.0" y1="402.0" x2="1246.3" y2="123.5" stroke="#6b7280" stroke-width="1.5" stroke-dasharray="6,3" marker-end="url(#arrd)"/><line x1="270.0" y1="192.0" x2="371.3" y2="218.7" stroke="#3b82f6" stroke-width="1.5" marker-end="url(#arr)"/><line x1="270.0" y1="402.0" x2="375.3" y2="228.7" stroke="#6b7280" stroke-width="1.5" stroke-dasharray="6,3" marker-end="url(#arrd)"/><line x1="270.0" y1="192.0" x2="551.0" y2="220.1" stroke="#3b82f6" stroke-width="1.5" marker-end="url(#arr)"/><line x1="270.0" y1="402.0" x2="552.4" y2="225.8" stroke="#6b7280" stroke-width="1.5" stroke-dasharray="6,3" marker-end="url(#arrd)"/><line x1="270.0" y1="192.0" x2="766.0" y2="220.5" stroke="#3b82f6" stroke-width="1.5" marker-end="url(#arr)"/><line x1="270.0" y1="402.0" x2="766.5" y2="224.0" stroke="#6b7280" stroke-width="1.5" stroke-dasharray="6,3" marker-end="url(#arrd)"/><line x1="270.0" y1="192.0" x2="1001.0" y2="220.6" stroke="#3b82f6" stroke-width="1.5" marker-end="url(#arr)"/><line x1="270.0" y1="402.0" x2="1001.3" y2="223.1" stroke="#6b7280" stroke-width="1.5" stroke-dasharray="6,3" marker-end="url(#arrd)"/><line x1="270.0" y1="192.0" x2="1211.0" y2="220.7" stroke="#3b82f6" stroke-width="1.5" marker-end="url(#arr)"/><line x1="270.0" y1="402.0" x2="1211.2" y2="222.7" stroke="#6b7280" stroke-width="1.5" stroke-dasharray="6,3" marker-end="url(#arrd)"/><line x1="270.0" y1="192.0" x2="374.2" y2="314.2" stroke="#3b82f6" stroke-width="1.5" marker-end="url(#arr)"/><line x1="270.0" y1="402.0" x2="372.8" y2="326.3" stroke="#6b7280" stroke-width="1.5" stroke-dasharray="6,3" marker-end="url(#arrd)"/><line x1="270.0" y1="192.0" x2="601.6" y2="317.8" stroke="#3b82f6" stroke-width="1.5" marker-end="url(#arr)"/><line x1="270.0" y1="402.0" x2="601.2" y2="323.1" stroke="#6b7280" stroke-width="1.5" stroke-dasharray="6,3" marker-end="url(#arrd)"/>
</svg>