<svg xmlns="http://www.w3.org/2000/svg" width="1300" height="900" style="font-family:-apple-system, 'Helvetica Neue', Arial, sans-serif;background:#ffffff">
<defs>
  <marker id="arr" markerWidth="10" markerHeight="8" refX="8.5" refY="3.5" orient="auto">
    <polygon points="0 0.5,8.5 3.5,0 6.5" fill="#3b82f6"/>
  </marker>
  <marker id="arrd" markerWidth="10" markerHeight="8" refX="8.5" refY="3.5" orient="auto">
    <polygon points="0 0.5,8.5 3.5,0 6.5" fill="#6b7280"/>
  </marker>
  <marker id="arro" markerWidth="10" markerHeight="8" refX="8.5" refY="3.5" orient="auto">
    <polygon points="0 0.5,8.5 3.5,0 6.5" fill="#92400e"/>
  </marker>
</defs>
<text x="650.0" y="28" text-anchor="middle" font-family="-apple-system, 'Helvetica Neue', Arial, sans-serif" font-size="15" font-weight="bold" fill="#111827">Live Migration 狀態流程 (OCP-to-OCP)</text><rect x="40" y="180" width="1220" height="330" fill="#f0f4ff" stroke="#c7d2fe" stroke-width="1.5" rx="10"/><text x="52" y="198" font-family="-apple-system, 'Helvetica Neue', Arial, sans-serif" font-size="12" font-weight="bold" fill="#111827">準備目標階段 (prepare_target)</text><rect x="40" y="540" width="1220" height="195" fill="#f0f4ff" stroke="#c7d2fe" stroke-width="1.5" rx="10"/><text x="52" y="558" font-family="-apple-system, 'Helvetica Neue', Arial, sans-serif" font-size="12" font-weight="bold" fill="#111827">同步階段 (synchronization)</text><circle cx="300" cy="60" r="10" fill="#3b82f6"/><rect x="195.0" y="120" width="210" height="38" fill="#f9fafb" stroke="#e5e7eb" stroke-width="1.5" rx="18"/><text x="300.0" y="142.5" text-anchor="middle" font-family="-apple-system, 'Helvetica Neue', Arial, sans-serif" font-size="11" fill="#111827">Started</text><polygon points="300,183.0 410.0,209 300,235.0 190.0,209" fill="#f9fafb" stroke="#e5e7eb" stroke-width="1.5"/><text x="300" y="213.0" text-anchor="middle" font-family="-apple-system, 'Helvetica Neue', Arial, sans-serif" font-size="11" fill="#111827">FlagPreHook?</text><rect x="195.0" y="260" width="210" height="38" fill="#f0f4ff" stroke="#c7d2fe" stroke-width="1.5" rx="18"/><text x="300.0" y="282.5" text-anchor="middle" font-family="-apple-system, 'Helvetica Neue', Arial, sans-serif" font-size="11" fill="#111827">PreHook</text><rect x="195.0" y="330" width="210" height="38" fill="#f9fafb" stroke="#e5e7eb" stroke-width="1.5" rx="18"/><text x="300.0" y="352.5" text-anchor="middle" font-family="-apple-system, 'Helvetica Neue', Arial, sans-serif" font-size="11" fill="#111827">CreateSecrets</text><rect x="195.0" y="395" width="210" height="38" fill="#f9fafb" stroke="#e5e7eb" stroke-width="1.5" rx="18"/><text x="300.0" y="417.5" text-anchor="middle" font-family="-apple-system, 'Helvetica Neue', Arial, sans-serif" font-size="11" fill="#111827">CreateConfigMaps</text><rect x="195.0" y="460" width="210" height="38" fill="#f9fafb" stroke="#e5e7eb" stroke-width="1.5" rx="18"/><text x="300.0" y="482.5" text-anchor="middle" font-family="-apple-system, 'Helvetica Neue', Arial, sans-serif" font-size="11" fill="#111827">EnsurePreference</text><rect x="195.0" y="525" width="210" height="38" fill="#f9fafb" stroke="#e5e7eb" stroke-width="1.5" rx="18"/><text x="300.0" y="547.5" text-anchor="middle" font-family="-apple-system, 'Helvetica Neue', Arial, sans-serif" font-size="11" fill="#111827">EnsureInstanceType</text><rect x="195.0" y="590" width="210" height="38" fill="#f9fafb" stroke="#e5e7eb" stroke-width="1.5" rx="18"/><text x="300.0" y="612.5" text-anchor="middle" font-family="-apple-system, 'Helvetica Neue', Arial, sans-serif" font-size="11" fill="#111827">EnsureDataVolumes</text><rect x="195.0" y="650" width="210" height="38" fill="#f9fafb" stroke="#e5e7eb" stroke-width="1.5" rx="18"/><text x="300.0" y="672.5" text-anchor="middle" font-family="-apple-system, 'Helvetica Neue', Arial, sans-serif" font-size="11" fill="#111827">EnsurePersistentVolumeClaims</text><rect x="195.0" y="710" width="210" height="38" fill="#f9fafb" stroke="#e5e7eb" stroke-width="1.5" rx="18"/><text x="300.0" y="732.5" text-anchor="middle" font-family="-apple-system, 'Helvetica Neue', Arial, sans-serif" font-size="11" fill="#111827">CreateTarget</text><rect x="195.0" y="770" width="210" height="38" fill="#f9fafb" stroke="#e5e7eb" stroke-width="1.5" rx="18"/><text x="300.0" y="792.5" text-anchor="middle" font-family="-apple-system, 'Helvetica Neue', Arial, sans-serif" font-size="11" fill="#111827">SetOwnerReferences</text><rect x="195.0" y="825" width="210" height="38" fill="#f9fafb" stroke="#e5e7eb" stroke-width="1.5" rx="18"/><text x="300.0" y="840.0" text-anchor="middle" font-family="-apple-system, 'Helvetica Neue', Arial, sans-serif" font-size="11" fill="#111827">CreateServiceExports</text><text x="300.0" y="855.0" text-anchor="middle" font-family="-apple-system, 'Helvetica Neue', Arial, sans-serif" font-size="11" fill="#111827">/ WaitForTargetVMI</text><rect x="715.0" y="770" width="210" height="38" fill="#f9fafb" stroke="#e5e7eb" stroke-width="1.5" rx="18"/><text x="820.0" y="792.5" text-anchor="middle" font-family="-apple-system, 'Helvetica Neue', Arial, sans-serif" font-size="11" fill="#111827">CreateVMIMigrations</text><rect x="715.0" y="825" width="210" height="38" fill="#f9fafb" stroke="#e5e7eb" stroke-width="1.5" rx="18"/><text x="820.0" y="847.5" text-anchor="middle" font-family="-apple-system, 'Helvetica Neue', Arial, sans-serif" font-size="11" fill="#111827">WaitForStateTransfer</text><rect x="195.0" y="845" width="210" height="38" fill="#f0f4ff" stroke="#c7d2fe" stroke-width="1.5" rx="18"/><text x="300.0" y="867.5" text-anchor="middle" font-family="-apple-system, 'Helvetica Neue', Arial, sans-serif" font-size="11" fill="#111827">PostHook / Completed</text><circle cx="300" cy="898" r="12" fill="#ffffff" stroke="#3b82f6" stroke-width="2.5"/><circle cx="300" cy="898" r="7" fill="#3b82f6"/><line x1="300.0" y1="70.0" x2="300.0" y2="111.0" stroke="#3b82f6" stroke-width="1.5" marker-end="url(#arr)"/><line x1="300.0" y1="158.0" x2="300.0" y2="173.0" stroke="#3b82f6" stroke-width="1.5" marker-end="url(#arr)"/><line x1="250.0" y1="209.0" x2="223.5" y2="270.7" stroke="#3b82f6" stroke-width="1.5" marker-end="url(#arr)"/><text x="253.0" y="244.0" text-anchor="middle" font-family="-apple-system, 'Helvetica Neue', Arial, sans-serif" font-size="10" fill="#6b7280">HasPreHook</text><line x1="220.0" y1="279.0" x2="220.0" y2="340.0" stroke="#3b82f6" stroke-width="1.5" marker-end="url(#arr)"/><line x1="220.0" y1="349.0" x2="204.0" y2="349.0" stroke="#3b82f6" stroke-width="1.5" marker-end="url(#arr)"/><line x1="350.0" y1="209.0" x2="303.0" y2="340.5" stroke="#3b82f6" stroke-width="1.5" marker-end="url(#arr)"/><text x="343.0" y="279.0" text-anchor="middle" font-family="-apple-system, 'Helvetica Neue', Arial, sans-serif" font-size="10" fill="#6b7280">無Hook</text><line x1="300.0" y1="368.0" x2="300.0" y2="386.0" stroke="#3b82f6" stroke-width="1.5" marker-end="url(#arr)"/><line x1="300.0" y1="433.0" x2="300.0" y2="451.0" stroke="#3b82f6" stroke-width="1.5" marker-end="url(#arr)"/><line x1="300.0" y1="498.0" x2="300.0" y2="516.0" stroke="#3b82f6" stroke-width="1.5" marker-end="url(#arr)"/><line x1="300.0" y1="563.0" x2="300.0" y2="581.0" stroke="#3b82f6" stroke-width="1.5" marker-end="url(#arr)"/><line x1="300.0" y1="628.0" x2="300.0" y2="641.0" stroke="#3b82f6" stroke-width="1.5" marker-end="url(#arr)"/><line x1="300.0" y1="688.0" x2="300.0" y2="701.0" stroke="#3b82f6" stroke-width="1.5" marker-end="url(#arr)"/><line x1="300.0" y1="748.0" x2="300.0" y2="761.0" stroke="#3b82f6" stroke-width="1.5" marker-end="url(#arr)"/><line x1="300.0" y1="808.0" x2="300.0" y2="816.0" stroke="#3b82f6" stroke-width="1.5" marker-end="url(#arr)"/><line x1="405.0" y1="844.0" x2="706.1" y2="790.6" stroke="#3b82f6" stroke-width="1.5" marker-end="url(#arr)"/><text x="560.0" y="808.5" text-anchor="middle" font-family="-apple-system, 'Helvetica Neue', Arial, sans-serif" font-size="10" fill="#6b7280">同叢集</text><line x1="820.0" y1="808.0" x2="820.0" y2="816.0" stroke="#3b82f6" stroke-width="1.5" marker-end="url(#arr)"/><line x1="715.0" y1="844.0" x2="414.0" y2="863.4" stroke="#3b82f6" stroke-width="1.5" marker-end="url(#arr)"/><line x1="300.0" y1="863.0" x2="300.0" y2="854.0" stroke="#3b82f6" stroke-width="1.5" marker-end="url(#arr)"/><text x="318.0" y="854.0" text-anchor="middle" font-family="-apple-system, 'Helvetica Neue', Arial, sans-serif" font-size="10" fill="#6b7280">Submariner/同叢集</text><line x1="300.0" y1="883.0" x2="300.0" y2="884.0" stroke="#3b82f6" stroke-width="1.5" marker-end="url(#arr)"/>
</svg>