<svg xmlns="http://www.w3.org/2000/svg" width="1050" height="900" style="font-family:-apple-system, 'Helvetica Neue', Arial, sans-serif;background:#ffffff">
<defs>
  <marker id="arr" markerWidth="10" markerHeight="8" refX="8.5" refY="3.5" orient="auto">
    <polygon points="0 0.5,8.5 3.5,0 6.5" fill="#3b82f6"/>
  </marker>
  <marker id="arrd" markerWidth="10" markerHeight="8" refX="8.5" refY="3.5" orient="auto">
    <polygon points="0 0.5,8.5 3.5,0 6.5" fill="#6b7280"/>
  </marker>
  <marker id="arro" markerWidth="10" markerHeight="8" refX="8.5" refY="3.5" orient="auto">
    <polygon points="0 0.5,8.5 3.5,0 6.5" fill="#92400e"/>
  </marker>
</defs>
<text x="525.0" y="28" text-anchor="middle" font-family="-apple-system, 'Helvetica Neue', Arial, sans-serif" font-size="15" font-weight="bold" fill="#111827">vSphere Migration Scheduler</text><circle cx="340" cy="55" r="10" fill="#3b82f6"/><rect x="220.0" y="115" width="240" height="44" fill="#f9fafb" stroke="#e5e7eb" stroke-width="1.5" rx="6"/><text x="340.0" y="140.5" text-anchor="middle" font-family="-apple-system, 'Helvetica Neue', Arial, sans-serif" font-size="11" fill="#111827">Start</text><rect x="220.0" y="190" width="240" height="44" fill="#f9fafb" stroke="#e5e7eb" stroke-width="1.5" rx="6"/><text x="340.0" y="215.5" text-anchor="middle" font-family="-apple-system, 'Helvetica Neue', Arial, sans-serif" font-size="11" fill="#111827">取得 Package Mutex</text><rect x="220.0" y="270" width="240" height="44" fill="#f9fafb" stroke="#e5e7eb" stroke-width="1.5" rx="6"/><text x="340.0" y="288.0" text-anchor="middle" font-family="-apple-system, 'Helvetica Neue', Arial, sans-serif" font-size="11" fill="#111827">buildInFlight: 掃描所有同Provider Plan</text><text x="340.0" y="303.0" text-anchor="middle" font-family="-apple-system, 'Helvetica Neue', Arial, sans-serif" font-size="11" fill="#111827">累加每Host正在傳輸的磁碟數</text><rect x="220.0" y="360" width="240" height="44" fill="#f9fafb" stroke="#e5e7eb" stroke-width="1.5" rx="6"/><text x="340.0" y="378.0" text-anchor="middle" font-family="-apple-system, 'Helvetica Neue', Arial, sans-serif" font-size="11" fill="#111827">buildPending: 收集當前Plan</text><text x="340.0" y="393.0" text-anchor="middle" font-family="-apple-system, 'Helvetica Neue', Arial, sans-serif" font-size="11" fill="#111827">尚未開始的VM按Host分組</text><rect x="220.0" y="450" width="240" height="44" fill="#f9fafb" stroke="#e5e7eb" stroke-width="1.5" rx="6"/><text x="340.0" y="475.5" text-anchor="middle" font-family="-apple-system, 'Helvetica Neue', Arial, sans-serif" font-size="11" fill="#111827">schedulable: 逐 Host 檢查</text><polygon points="340,545.0 470.0,577.0 340,609.0 210.0,577.0" fill="#f9fafb" stroke="#e5e7eb" stroke-width="1.5"/><text x="340" y="574.0" text-anchor="middle" font-family="-apple-system, 'Helvetica Neue', Arial, sans-serif" font-size="11" fill="#111827">Host inFlight</text><text x="340" y="588.0" text-anchor="middle" font-family="-apple-system, 'Helvetica Neue', Arial, sans-serif" font-size="11" fill="#111827">&lt; MaxInFlight?</text><rect x="680.0" y="555" width="240" height="44" fill="#fffbeb" stroke="#fbbf24" stroke-width="1.5" rx="6"/><text x="800.0" y="580.5" text-anchor="middle" font-family="-apple-system, 'Helvetica Neue', Arial, sans-serif" font-size="11" fill="#111827">跳過此 Host</text><polygon points="340,635.0 470.0,667.0 340,699.0 210.0,667.0" fill="#f9fafb" stroke="#e5e7eb" stroke-width="1.5"/><text x="340" y="664.0" text-anchor="middle" font-family="-apple-system, 'Helvetica Neue', Arial, sans-serif" font-size="11" fill="#111827">VM cost+inFlight</text><text x="340" y="678.0" text-anchor="middle" font-family="-apple-system, 'Helvetica Neue', Arial, sans-serif" font-size="11" fill="#111827">&lt;= MaxInFlight?</text><rect x="220.0" y="720" width="240" height="44" fill="#f0fdf4" stroke="#bbf7d0" stroke-width="1.5" rx="6"/><text x="340.0" y="745.5" text-anchor="middle" font-family="-apple-system, 'Helvetica Neue', Arial, sans-serif" font-size="11" fill="#111827">加入可排程清單</text><polygon points="800,635.0 930.0,667.0 800,699.0 670.0,667.0" fill="#f9fafb" stroke="#e5e7eb" stroke-width="1.5"/><text x="800" y="664.0" text-anchor="middle" font-family="-apple-system, 'Helvetica Neue', Arial, sans-serif" font-size="11" fill="#111827">VM cost &gt; MaxInFlight</text><text x="800" y="678.0" text-anchor="middle" font-family="-apple-system, 'Helvetica Neue', Arial, sans-serif" font-size="11" fill="#111827">且 Host 完全閒置?</text><rect x="680.0" y="730" width="240" height="44" fill="#fffbeb" stroke="#fbbf24" stroke-width="1.5" rx="6"/><text x="800.0" y="755.5" text-anchor="middle" font-family="-apple-system, 'Helvetica Neue', Arial, sans-serif" font-size="11" fill="#111827">跳過此 VM</text><rect x="220.0" y="800" width="240" height="44" fill="#f9fafb" stroke="#e5e7eb" stroke-width="1.5" rx="6"/><text x="340.0" y="825.5" text-anchor="middle" font-family="-apple-system, 'Helvetica Neue', Arial, sans-serif" font-size="11" fill="#111827">回傳第一個可排程 VM</text><circle cx="340" cy="865" r="12" fill="#ffffff" stroke="#3b82f6" stroke-width="2.5"/><circle cx="340" cy="865" r="7" fill="#3b82f6"/><line x1="340.0" y1="65.0" x2="340.0" y2="106.0" stroke="#3b82f6" stroke-width="1.5" marker-end="url(#arr)"/><line x1="340.0" y1="159.0" x2="340.0" y2="181.0" stroke="#3b82f6" stroke-width="1.5" marker-end="url(#arr)"/><line x1="340.0" y1="234.0" x2="340.0" y2="261.0" stroke="#3b82f6" stroke-width="1.5" marker-end="url(#arr)"/><line x1="340.0" y1="314.0" x2="340.0" y2="351.0" stroke="#3b82f6" stroke-width="1.5" marker-end="url(#arr)"/><line x1="340.0" y1="404.0" x2="340.0" y2="441.0" stroke="#3b82f6" stroke-width="1.5" marker-end="url(#arr)"/><line x1="340.0" y1="494.0" x2="340.0" y2="536.0" stroke="#3b82f6" stroke-width="1.5" marker-end="url(#arr)"/><line x1="470.0" y1="577.0" x2="671.0" y2="577.0" stroke="#3b82f6" stroke-width="1.5" marker-end="url(#arr)"/><text x="575.0" y="569.0" text-anchor="middle" font-family="-apple-system, 'Helvetica Neue', Arial, sans-serif" font-size="10" fill="#6b7280">否</text><line x1="340.0" y1="609.0" x2="340.0" y2="626.0" stroke="#3b82f6" stroke-width="1.5" marker-end="url(#arr)"/><text x="358.0" y="622.0" text-anchor="middle" font-family="-apple-system, 'Helvetica Neue', Arial, sans-serif" font-size="10" fill="#6b7280">是</text><line x1="340.0" y1="699.0" x2="340.0" y2="711.0" stroke="#3b82f6" stroke-width="1.5" marker-end="url(#arr)"/><text x="358.0" y="709.5" text-anchor="middle" font-family="-apple-system, 'Helvetica Neue', Arial, sans-serif" font-size="10" fill="#6b7280">是</text><line x1="470.0" y1="667.0" x2="661.0" y2="667.0" stroke="#3b82f6" stroke-width="1.5" marker-end="url(#arr)"/><text x="570.0" y="659.0" text-anchor="middle" font-family="-apple-system, 'Helvetica Neue', Arial, sans-serif" font-size="10" fill="#6b7280">否</text><line x1="800.0" y1="699.0" x2="800.0" y2="722.0" stroke="#3b82f6" stroke-width="1.5" marker-end="url(#arr)"/><text x="818.0" y="715.0" text-anchor="middle" font-family="-apple-system, 'Helvetica Neue', Arial, sans-serif" font-size="10" fill="#6b7280">否</text><line x1="670.0" y1="651.0" x2="468.4" y2="727.8" stroke="#3b82f6" stroke-width="1.5" marker-end="url(#arr)"/><text x="565.0" y="683.0" text-anchor="middle" font-family="-apple-system, 'Helvetica Neue', Arial, sans-serif" font-size="10" fill="#6b7280">是</text><line x1="340.0" y1="764.0" x2="340.0" y2="791.0" stroke="#3b82f6" stroke-width="1.5" marker-end="url(#arr)"/><line x1="340.0" y1="844.0" x2="340.0" y2="856.0" stroke="#3b82f6" stroke-width="1.5" marker-end="url(#arr)"/>
</svg>