<svg xmlns="http://www.w3.org/2000/svg" width="1050" height="1050" style="font-family:-apple-system, 'Helvetica Neue', Arial, sans-serif;background:#ffffff">
<defs>
  <marker id="arr" markerWidth="10" markerHeight="8" refX="8.5" refY="3.5" orient="auto">
    <polygon points="0 0.5,8.5 3.5,0 6.5" fill="#3b82f6"/>
  </marker>
  <marker id="arrd" markerWidth="10" markerHeight="8" refX="8.5" refY="3.5" orient="auto">
    <polygon points="0 0.5,8.5 3.5,0 6.5" fill="#6b7280"/>
  </marker>
  <marker id="arro" markerWidth="10" markerHeight="8" refX="8.5" refY="3.5" orient="auto">
    <polygon points="0 0.5,8.5 3.5,0 6.5" fill="#92400e"/>
  </marker>
</defs>
<text x="525.0" y="28" text-anchor="middle" font-family="-apple-system, 'Helvetica Neue', Arial, sans-serif" font-size="15" font-weight="bold" fill="#111827">virt-v2v 轉換 Pipeline</text><circle cx="330" cy="55" r="10" fill="#3b82f6"/><rect x="210.0" y="110" width="240" height="44" fill="#f9fafb" stroke="#e5e7eb" stroke-width="1.5" rx="6"/><text x="330.0" y="135.5" text-anchor="middle" font-family="-apple-system, 'Helvetica Neue', Arial, sans-serif" font-size="11" fill="#111827">entrypoint.go: main</text><rect x="210.0" y="175" width="240" height="44" fill="#f9fafb" stroke="#e5e7eb" stroke-width="1.5" rx="6"/><text x="330.0" y="200.5" text-anchor="middle" font-family="-apple-system, 'Helvetica Neue', Arial, sans-serif" font-size="11" fill="#111827">載入 AppConfig 環境變數</text><rect x="210.0" y="250" width="240" height="44" fill="#f9fafb" stroke="#e5e7eb" stroke-width="1.5" rx="6"/><text x="330.0" y="275.5" text-anchor="middle" font-family="-apple-system, 'Helvetica Neue', Arial, sans-serif" font-size="11" fill="#111827">linkCertificates: 設定 CA 憑證</text><rect x="210.0" y="330" width="240" height="44" fill="#f9fafb" stroke="#e5e7eb" stroke-width="1.5" rx="6"/><text x="330.0" y="355.5" text-anchor="middle" font-family="-apple-system, 'Helvetica Neue', Arial, sans-serif" font-size="11" fill="#111827">createV2vOutputDir: 建立工作目錄</text><rect x="210.0" y="420" width="240" height="44" fill="#f9fafb" stroke="#e5e7eb" stroke-width="1.5" rx="6"/><text x="330.0" y="445.5" text-anchor="middle" font-family="-apple-system, 'Helvetica Neue', Arial, sans-serif" font-size="11" fill="#111827">NewConversion: 偵測磁碟</text><polygon points="330,510.0 460.0,542.0 330,574.0 200.0,542.0" fill="#f9fafb" stroke="#e5e7eb" stroke-width="1.5"/><text x="330" y="546.0" text-anchor="middle" font-family="-apple-system, 'Helvetica Neue', Arial, sans-serif" font-size="11" fill="#111827">IsRemoteInspection?</text><rect x="670.0" y="518" width="240" height="44" fill="#f9fafb" stroke="#e5e7eb" stroke-width="1.5" rx="6"/><text x="790.0" y="536.0" text-anchor="middle" font-family="-apple-system, 'Helvetica Neue', Arial, sans-serif" font-size="11" fill="#111827">RunRemoteV2vInspection</text><text x="790.0" y="551.0" text-anchor="middle" font-family="-apple-system, 'Helvetica Neue', Arial, sans-serif" font-size="11" fill="#111827">virt-v2v-inspector+VDDK</text><polygon points="330,590.0 460.0,622.0 330,654.0 200.0,622.0" fill="#f9fafb" stroke="#e5e7eb" stroke-width="1.5"/><text x="330" y="626.0" text-anchor="middle" font-family="-apple-system, 'Helvetica Neue', Arial, sans-serif" font-size="11" fill="#111827">IsInPlace?</text><polygon points="330,670.0 460.0,702.0 330,734.0 200.0,702.0" fill="#f9fafb" stroke="#e5e7eb" stroke-width="1.5"/><text x="330" y="706.0" text-anchor="middle" font-family="-apple-system, 'Helvetica Neue', Arial, sans-serif" font-size="11" fill="#111827">LibvirtUrl 存在?</text><rect x="210.0" y="745" width="240" height="44" fill="#f9fafb" stroke="#e5e7eb" stroke-width="1.5" rx="6"/><text x="330.0" y="763.0" text-anchor="middle" font-family="-apple-system, 'Helvetica Neue', Arial, sans-serif" font-size="11" fill="#111827">GetDomainXML</text><text x="330.0" y="778.0" text-anchor="middle" font-family="-apple-system, 'Helvetica Neue', Arial, sans-serif" font-size="11" fill="#111827">從 Libvirt 取得 Domain XML</text><rect x="210.0" y="820" width="240" height="44" fill="#f9fafb" stroke="#e5e7eb" stroke-width="1.5" rx="6"/><text x="330.0" y="838.0" text-anchor="middle" font-family="-apple-system, 'Helvetica Neue', Arial, sans-serif" font-size="11" fill="#111827">RunVirtV2vInPlace</text><text x="330.0" y="853.0" text-anchor="middle" font-family="-apple-system, 'Helvetica Neue', Arial, sans-serif" font-size="11" fill="#111827">virt-v2v-in-place -i libvirtxml</text><rect x="670.0" y="678" width="240" height="44" fill="#f9fafb" stroke="#e5e7eb" stroke-width="1.5" rx="6"/><text x="790.0" y="696.0" text-anchor="middle" font-family="-apple-system, 'Helvetica Neue', Arial, sans-serif" font-size="11" fill="#111827">RunVirtV2vInPlaceDisk</text><text x="790.0" y="711.0" text-anchor="middle" font-family="-apple-system, 'Helvetica Neue', Arial, sans-serif" font-size="11" fill="#111827">virt-v2v-in-place -i disk</text><rect x="670.0" y="598" width="240" height="44" fill="#f9fafb" stroke="#e5e7eb" stroke-width="1.5" rx="6"/><text x="790.0" y="616.0" text-anchor="middle" font-family="-apple-system, 'Helvetica Neue', Arial, sans-serif" font-size="11" fill="#111827">RunVirtV2v</text><text x="790.0" y="631.0" text-anchor="middle" font-family="-apple-system, 'Helvetica Neue', Arial, sans-serif" font-size="11" fill="#111827">virt-v2v+virt-v2v-monitor</text><rect x="210.0" y="895" width="240" height="44" fill="#f9fafb" stroke="#e5e7eb" stroke-width="1.5" rx="6"/><text x="330.0" y="913.0" text-anchor="middle" font-family="-apple-system, 'Helvetica Neue', Arial, sans-serif" font-size="11" fill="#111827">RunVirtV2VInspection</text><text x="330.0" y="928.0" text-anchor="middle" font-family="-apple-system, 'Helvetica Neue', Arial, sans-serif" font-size="11" fill="#111827">virt-v2v-inspector</text><rect x="210.0" y="975" width="240" height="44" fill="#f9fafb" stroke="#e5e7eb" stroke-width="1.5" rx="6"/><text x="330.0" y="993.0" text-anchor="middle" font-family="-apple-system, 'Helvetica Neue', Arial, sans-serif" font-size="11" fill="#111827">RunCustomize</text><text x="330.0" y="1008.0" text-anchor="middle" font-family="-apple-system, 'Helvetica Neue', Arial, sans-serif" font-size="11" fill="#111827">virt-customize: 驅動安裝/客製化</text><line x1="330.0" y1="65.0" x2="330.0" y2="101.0" stroke="#3b82f6" stroke-width="1.5" marker-end="url(#arr)"/><line x1="330.0" y1="154.0" x2="330.0" y2="166.0" stroke="#3b82f6" stroke-width="1.5" marker-end="url(#arr)"/><line x1="330.0" y1="219.0" x2="330.0" y2="241.0" stroke="#3b82f6" stroke-width="1.5" marker-end="url(#arr)"/><line x1="330.0" y1="294.0" x2="330.0" y2="321.0" stroke="#3b82f6" stroke-width="1.5" marker-end="url(#arr)"/><line x1="330.0" y1="374.0" x2="330.0" y2="411.0" stroke="#3b82f6" stroke-width="1.5" marker-end="url(#arr)"/><line x1="330.0" y1="464.0" x2="330.0" y2="501.0" stroke="#3b82f6" stroke-width="1.5" marker-end="url(#arr)"/><line x1="460.0" y1="542.0" x2="661.0" y2="540.1" stroke="#3b82f6" stroke-width="1.5" marker-end="url(#arr)"/><text x="565.0" y="533.0" text-anchor="middle" font-family="-apple-system, 'Helvetica Neue', Arial, sans-serif" font-size="10" fill="#6b7280">是</text><line x1="330.0" y1="574.0" x2="330.0" y2="581.0" stroke="#3b82f6" stroke-width="1.5" marker-end="url(#arr)"/><text x="348.0" y="582.0" text-anchor="middle" font-family="-apple-system, 'Helvetica Neue', Arial, sans-serif" font-size="10" fill="#6b7280">否</text><line x1="460.0" y1="622.0" x2="661.0" y2="620.1" stroke="#3b82f6" stroke-width="1.5" marker-end="url(#arr)"/><text x="565.0" y="613.0" text-anchor="middle" font-family="-apple-system, 'Helvetica Neue', Arial, sans-serif" font-size="10" fill="#6b7280">否→FullV2V</text><line x1="330.0" y1="654.0" x2="330.0" y2="661.0" stroke="#3b82f6" stroke-width="1.5" marker-end="url(#arr)"/><text x="348.0" y="662.0" text-anchor="middle" font-family="-apple-system, 'Helvetica Neue', Arial, sans-serif" font-size="10" fill="#6b7280">是</text><line x1="330.0" y1="734.0" x2="330.0" y2="736.0" stroke="#3b82f6" stroke-width="1.5" marker-end="url(#arr)"/><text x="348.0" y="739.5" text-anchor="middle" font-family="-apple-system, 'Helvetica Neue', Arial, sans-serif" font-size="10" fill="#6b7280">是</text><line x1="460.0" y1="702.0" x2="661.0" y2="700.1" stroke="#3b82f6" stroke-width="1.5" marker-end="url(#arr)"/><text x="565.0" y="693.0" text-anchor="middle" font-family="-apple-system, 'Helvetica Neue', Arial, sans-serif" font-size="10" fill="#6b7280">否→InPlaceDisk</text><line x1="330.0" y1="789.0" x2="330.0" y2="811.0" stroke="#3b82f6" stroke-width="1.5" marker-end="url(#arr)"/><line x1="330.0" y1="864.0" x2="330.0" y2="886.0" stroke="#3b82f6" stroke-width="1.5" marker-end="url(#arr)"/><line x1="790.0" y1="642.0" x2="790.0" y2="833.0" stroke="#3b82f6" stroke-width="1.5" marker-end="url(#arr)"/><line x1="790.0" y1="842.0" x2="458.8" y2="915.1" stroke="#3b82f6" stroke-width="1.5" marker-end="url(#arr)"/><line x1="790.0" y1="722.0" x2="785.4" y2="833.0" stroke="#3b82f6" stroke-width="1.5" marker-end="url(#arr)"/><line x1="330.0" y1="939.0" x2="330.0" y2="966.0" stroke="#3b82f6" stroke-width="1.5" marker-end="url(#arr)"/>
</svg>