<svg xmlns="http://www.w3.org/2000/svg" width="1200" height="860" style="font-family:-apple-system, 'Helvetica Neue', Arial, sans-serif;background:#ffffff">
<defs>
  <marker id="arr" markerWidth="10" markerHeight="8" refX="8.5" refY="3.5" orient="auto">
    <polygon points="0 0.5,8.5 3.5,0 6.5" fill="#3b82f6"/>
  </marker>
  <marker id="arrd" markerWidth="10" markerHeight="8" refX="8.5" refY="3.5" orient="auto">
    <polygon points="0 0.5,8.5 3.5,0 6.5" fill="#6b7280"/>
  </marker>
  <marker id="arro" markerWidth="10" markerHeight="8" refX="8.5" refY="3.5" orient="auto">
    <polygon points="0 0.5,8.5 3.5,0 6.5" fill="#92400e"/>
  </marker>
</defs>
<text x="600.0" y="28" text-anchor="middle" font-family="-apple-system, 'Helvetica Neue', Arial, sans-serif" font-size="15" font-weight="bold" fill="#111827">Cold Migration 狀態流程</text><circle cx="220" cy="60" r="10" fill="#3b82f6"/><rect x="120.0" y="140" width="200" height="40" fill="#f9fafb" stroke="#e5e7eb" stroke-width="1.5" rx="20"/><text x="220.0" y="163.5" text-anchor="middle" font-family="-apple-system, 'Helvetica Neue', Arial, sans-serif" font-size="11" fill="#111827">Started</text><rect x="120.0" y="220" width="200" height="40" fill="#f0f4ff" stroke="#c7d2fe" stroke-width="1.5" rx="20"/><text x="220.0" y="243.5" text-anchor="middle" font-family="-apple-system, 'Helvetica Neue', Arial, sans-serif" font-size="11" fill="#111827">PreHook</text><rect x="120.0" y="300" width="200" height="40" fill="#f9fafb" stroke="#e5e7eb" stroke-width="1.5" rx="20"/><text x="220.0" y="323.5" text-anchor="middle" font-family="-apple-system, 'Helvetica Neue', Arial, sans-serif" font-size="11" fill="#111827">StorePowerState</text><rect x="120.0" y="380" width="200" height="40" fill="#f9fafb" stroke="#e5e7eb" stroke-width="1.5" rx="20"/><text x="220.0" y="403.5" text-anchor="middle" font-family="-apple-system, 'Helvetica Neue', Arial, sans-serif" font-size="11" fill="#111827">PowerOffSource</text><rect x="120.0" y="460" width="200" height="40" fill="#f9fafb" stroke="#e5e7eb" stroke-width="1.5" rx="20"/><text x="220.0" y="483.5" text-anchor="middle" font-family="-apple-system, 'Helvetica Neue', Arial, sans-serif" font-size="11" fill="#111827">WaitForPowerOff</text><rect x="120.0" y="560" width="200" height="40" fill="#f9fafb" stroke="#e5e7eb" stroke-width="1.5" rx="20"/><text x="220.0" y="583.5" text-anchor="middle" font-family="-apple-system, 'Helvetica Neue', Arial, sans-serif" font-size="11" fill="#111827">CreateDataVolumes</text><polygon points="220,632.0 330.0,660 220,688.0 110.0,660" fill="#f9fafb" stroke="#e5e7eb" stroke-width="1.5"/><text x="220" y="664.0" text-anchor="middle" font-family="-apple-system, 'Helvetica Neue', Arial, sans-serif" font-size="11" fill="#111827">disk_path?</text><rect x="500.0" y="560" width="200" height="40" fill="#f0f4ff" stroke="#c7d2fe" stroke-width="1.5" rx="20"/><text x="600.0" y="576.0" text-anchor="middle" font-family="-apple-system, 'Helvetica Neue', Arial, sans-serif" font-size="11" fill="#111827">CopyDisks</text><text x="600.0" y="591.0" text-anchor="middle" font-family="-apple-system, 'Helvetica Neue', Arial, sans-serif" font-size="11" fill="#111827">(CDIDiskCopy)</text><rect x="820.0" y="560" width="200" height="40" fill="#f0f4ff" stroke="#c7d2fe" stroke-width="1.5" rx="20"/><text x="920.0" y="576.0" text-anchor="middle" font-family="-apple-system, 'Helvetica Neue', Arial, sans-serif" font-size="11" fill="#111827">AllocateDisks</text><text x="920.0" y="591.0" text-anchor="middle" font-family="-apple-system, 'Helvetica Neue', Arial, sans-serif" font-size="11" fill="#111827">(VirtV2vDiskCopy)</text><rect x="820.0" y="460" width="200" height="40" fill="#f9fafb" stroke="#e5e7eb" stroke-width="1.5" rx="20"/><text x="920.0" y="483.5" text-anchor="middle" font-family="-apple-system, 'Helvetica Neue', Arial, sans-serif" font-size="11" fill="#111827">CreateGuestConversionPod</text><rect x="820.0" y="380" width="200" height="40" fill="#f9fafb" stroke="#e5e7eb" stroke-width="1.5" rx="20"/><text x="920.0" y="403.5" text-anchor="middle" font-family="-apple-system, 'Helvetica Neue', Arial, sans-serif" font-size="11" fill="#111827">ConvertGuest</text><rect x="820.0" y="300" width="200" height="40" fill="#f9fafb" stroke="#e5e7eb" stroke-width="1.5" rx="20"/><text x="920.0" y="323.5" text-anchor="middle" font-family="-apple-system, 'Helvetica Neue', Arial, sans-serif" font-size="11" fill="#111827">CopyDisksVirtV2V</text><rect x="500.0" y="380" width="200" height="40" fill="#f9fafb" stroke="#e5e7eb" stroke-width="1.5" rx="20"/><text x="600.0" y="403.5" text-anchor="middle" font-family="-apple-system, 'Helvetica Neue', Arial, sans-serif" font-size="11" fill="#111827">CreateVM</text><rect x="500.0" y="300" width="200" height="40" fill="#f0f4ff" stroke="#c7d2fe" stroke-width="1.5" rx="20"/><text x="600.0" y="323.5" text-anchor="middle" font-family="-apple-system, 'Helvetica Neue', Arial, sans-serif" font-size="11" fill="#111827">PostHook</text><rect x="500.0" y="220" width="200" height="40" fill="#f9fafb" stroke="#e5e7eb" stroke-width="1.5" rx="20"/><text x="600.0" y="243.5" text-anchor="middle" font-family="-apple-system, 'Helvetica Neue', Arial, sans-serif" font-size="11" fill="#111827">Completed</text><circle cx="600" cy="140" r="12" fill="#ffffff" stroke="#3b82f6" stroke-width="2.5"/><circle cx="600" cy="140" r="7" fill="#3b82f6"/><line x1="220.0" y1="70.0" x2="220.0" y2="131.0" stroke="#3b82f6" stroke-width="1.5" marker-end="url(#arr)"/><line x1="220.0" y1="180.0" x2="220.0" y2="211.0" stroke="#3b82f6" stroke-width="1.5" marker-end="url(#arr)"/><text x="238.0" y="200.0" text-anchor="middle" font-family="-apple-system, 'Helvetica Neue', Arial, sans-serif" font-size="10" fill="#6b7280">HasPreHook</text><line x1="220.0" y1="260.0" x2="220.0" y2="291.0" stroke="#3b82f6" stroke-width="1.5" marker-end="url(#arr)"/><text x="238.0" y="280.0" text-anchor="middle" font-family="-apple-system, 'Helvetica Neue', Arial, sans-serif" font-size="10" fill="#6b7280">無Hook</text><line x1="220.0" y1="340.0" x2="220.0" y2="371.0" stroke="#3b82f6" stroke-width="1.5" marker-end="url(#arr)"/><line x1="220.0" y1="420.0" x2="220.0" y2="451.0" stroke="#3b82f6" stroke-width="1.5" marker-end="url(#arr)"/><line x1="220.0" y1="500.0" x2="220.0" y2="551.0" stroke="#3b82f6" stroke-width="1.5" marker-end="url(#arr)"/><line x1="220.0" y1="600.0" x2="220.0" y2="623.0" stroke="#3b82f6" stroke-width="1.5" marker-end="url(#arr)"/><line x1="110.0" y1="660.0" x2="491.2" y2="581.8" stroke="#3b82f6" stroke-width="1.5" marker-end="url(#arr)"/><text x="305.0" y="612.0" text-anchor="middle" font-family="-apple-system, 'Helvetica Neue', Arial, sans-serif" font-size="10" fill="#6b7280">CDIDiskCopy</text><line x1="330.0" y1="660.0" x2="811.1" y2="581.5" stroke="#3b82f6" stroke-width="1.5" marker-end="url(#arr)"/><text x="575.0" y="612.0" text-anchor="middle" font-family="-apple-system, 'Helvetica Neue', Arial, sans-serif" font-size="10" fill="#6b7280">VirtV2vDiskCopy</text><line x1="600.0" y1="560.0" x2="600.0" y2="429.0" stroke="#3b82f6" stroke-width="1.5" marker-end="url(#arr)"/><line x1="920.0" y1="560.0" x2="920.0" y2="509.0" stroke="#3b82f6" stroke-width="1.5" marker-end="url(#arr)"/><line x1="920.0" y1="460.0" x2="920.0" y2="429.0" stroke="#3b82f6" stroke-width="1.5" marker-end="url(#arr)"/><line x1="920.0" y1="380.0" x2="920.0" y2="349.0" stroke="#3b82f6" stroke-width="1.5" marker-end="url(#arr)"/><line x1="820.0" y1="320.0" x2="707.5" y2="395.0" stroke="#3b82f6" stroke-width="1.5" marker-end="url(#arr)"/><line x1="600.0" y1="380.0" x2="600.0" y2="349.0" stroke="#3b82f6" stroke-width="1.5" marker-end="url(#arr)"/><text x="618.0" y="360.0" text-anchor="middle" font-family="-apple-system, 'Helvetica Neue', Arial, sans-serif" font-size="10" fill="#6b7280">HasPostHook</text><line x1="600.0" y1="300.0" x2="600.0" y2="269.0" stroke="#3b82f6" stroke-width="1.5" marker-end="url(#arr)"/><line x1="710.0" y1="400.0" x2="741.0" y2="400.0" stroke="#3b82f6" stroke-width="1.5" marker-end="url(#arr)"/><path d="M 750.0,400.0 L 750.0,240.0 L 710.0,240.0" fill="none" stroke="#6b7280" stroke-width="1.5" stroke-dasharray="6,3" marker-end="url(#arrd)"/><text x="780.0" y="310" text-anchor="middle" font-family="-apple-system, 'Helvetica Neue', Arial, sans-serif" font-size="10" fill="#6b7280">無Hook</text><line x1="600.0" y1="220.0" x2="600.0" y2="154.0" stroke="#3b82f6" stroke-width="1.5" marker-end="url(#arr)"/>
</svg>