<svg xmlns="http://www.w3.org/2000/svg" width="1400" height="700" style="font-family:-apple-system, 'Helvetica Neue', Arial, sans-serif;background:#ffffff">
<defs>
  <marker id="arr" markerWidth="10" markerHeight="8" refX="8.5" refY="3.5" orient="auto">
    <polygon points="0 0.5,8.5 3.5,0 6.5" fill="#3b82f6"/>
  </marker>
  <marker id="arrd" markerWidth="10" markerHeight="8" refX="8.5" refY="3.5" orient="auto">
    <polygon points="0 0.5,8.5 3.5,0 6.5" fill="#6b7280"/>
  </marker>
  <marker id="arro" markerWidth="10" markerHeight="8" refX="8.5" refY="3.5" orient="auto">
    <polygon points="0 0.5,8.5 3.5,0 6.5" fill="#92400e"/>
  </marker>
</defs>
<text x="700.0" y="28" text-anchor="middle" font-family="-apple-system, 'Helvetica Neue', Arial, sans-serif" font-size="15" font-weight="bold" fill="#111827">Forklift Integration Overview</text><rect x="30" y="50" width="620" height="130" fill="#f0f4ff" stroke="#c7d2fe" stroke-width="1.5" rx="10"/><text x="42" y="68" font-family="-apple-system, 'Helvetica Neue', Arial, sans-serif" font-size="12" font-weight="bold" fill="#111827">Forklift Controller</text><rect x="60" y="90" width="250" height="50" fill="#f0f4ff" stroke="#c7d2fe" stroke-width="1.5" rx="6"/><text x="185.0" y="119.0" text-anchor="middle" font-family="-apple-system, 'Helvetica Neue', Arial, sans-serif" font-size="12" fill="#111827">Migration Controller</text><rect x="360" y="90" width="250" height="50" fill="#f0f4ff" stroke="#c7d2fe" stroke-width="1.5" rx="6"/><text x="485.0" y="119.0" text-anchor="middle" font-family="-apple-system, 'Helvetica Neue', Arial, sans-serif" font-size="12" fill="#111827">Plan Controller</text><rect x="30" y="210" width="1340" height="130" fill="#f0f4ff" stroke="#c7d2fe" stroke-width="1.5" rx="10"/><text x="42" y="228" font-family="-apple-system, 'Helvetica Neue', Arial, sans-serif" font-size="12" font-weight="bold" fill="#111827">Adapter Layer</text><rect x="50" y="250" width="230" height="50" fill="#f9fafb" stroke="#e5e7eb" stroke-width="1.5" rx="6"/><text x="165.0" y="279.0" text-anchor="middle" font-family="-apple-system, 'Helvetica Neue', Arial, sans-serif" font-size="12" fill="#111827">vSphere Adapter</text><rect x="310" y="250" width="230" height="50" fill="#f9fafb" stroke="#e5e7eb" stroke-width="1.5" rx="6"/><text x="425.0" y="279.0" text-anchor="middle" font-family="-apple-system, 'Helvetica Neue', Arial, sans-serif" font-size="12" fill="#111827">oVirt Adapter</text><rect x="570" y="250" width="230" height="50" fill="#f9fafb" stroke="#e5e7eb" stroke-width="1.5" rx="6"/><text x="685.0" y="279.0" text-anchor="middle" font-family="-apple-system, 'Helvetica Neue', Arial, sans-serif" font-size="12" fill="#111827">OpenStack Adapter</text><rect x="830" y="250" width="230" height="50" fill="#f9fafb" stroke="#e5e7eb" stroke-width="1.5" rx="6"/><text x="945.0" y="279.0" text-anchor="middle" font-family="-apple-system, 'Helvetica Neue', Arial, sans-serif" font-size="12" fill="#111827">Hyper-V Adapter</text><rect x="1090" y="250" width="230" height="50" fill="#f9fafb" stroke="#e5e7eb" stroke-width="1.5" rx="6"/><text x="1205.0" y="279.0" text-anchor="middle" font-family="-apple-system, 'Helvetica Neue', Arial, sans-serif" font-size="12" fill="#111827">OVA Adapter</text><rect x="30" y="370" width="620" height="130" fill="#f0f4ff" stroke="#c7d2fe" stroke-width="1.5" rx="10"/><text x="42" y="388" font-family="-apple-system, 'Helvetica Neue', Arial, sans-serif" font-size="12" font-weight="bold" fill="#111827">目標平台</text><rect x="55" y="410" width="165" height="50" fill="#f9fafb" stroke="#e5e7eb" stroke-width="1.5" rx="6"/><text x="137.5" y="439.0" text-anchor="middle" font-family="-apple-system, 'Helvetica Neue', Arial, sans-serif" font-size="12" fill="#111827">KubeVirt API</text><rect x="240" y="410" width="180" height="50" fill="#f9fafb" stroke="#e5e7eb" stroke-width="1.5" rx="6"/><text x="330.0" y="439.0" text-anchor="middle" font-family="-apple-system, 'Helvetica Neue', Arial, sans-serif" font-size="12" fill="#111827">CDI DataVolume</text><rect x="440" y="410" width="185" height="50" fill="#f9fafb" stroke="#e5e7eb" stroke-width="1.5" rx="6"/><text x="532.5" y="439.0" text-anchor="middle" font-family="-apple-system, 'Helvetica Neue', Arial, sans-serif" font-size="12" fill="#111827">Volume Populators</text><rect x="700" y="370" width="670" height="130" fill="#f0f4ff" stroke="#c7d2fe" stroke-width="1.5" rx="10"/><text x="712" y="388" font-family="-apple-system, 'Helvetica Neue', Arial, sans-serif" font-size="12" font-weight="bold" fill="#111827">來源平台</text><rect x="715" y="410" width="110" height="50" fill="#f9fafb" stroke="#e5e7eb" stroke-width="1.5" rx="6"/><text x="770.0" y="438.0" text-anchor="middle" font-family="-apple-system, 'Helvetica Neue', Arial, sans-serif" font-size="10" fill="#111827">vCenter/ESXi</text><rect x="840" y="410" width="110" height="50" fill="#f9fafb" stroke="#e5e7eb" stroke-width="1.5" rx="6"/><text x="895.0" y="438.0" text-anchor="middle" font-family="-apple-system, 'Helvetica Neue', Arial, sans-serif" font-size="10" fill="#111827">oVirt Engine</text><rect x="965" y="410" width="110" height="50" fill="#f9fafb" stroke="#e5e7eb" stroke-width="1.5" rx="6"/><text x="1020.0" y="438.0" text-anchor="middle" font-family="-apple-system, 'Helvetica Neue', Arial, sans-serif" font-size="10" fill="#111827">OpenStack</text><rect x="1090" y="410" width="110" height="50" fill="#f9fafb" stroke="#e5e7eb" stroke-width="1.5" rx="6"/><text x="1145.0" y="438.0" text-anchor="middle" font-family="-apple-system, 'Helvetica Neue', Arial, sans-serif" font-size="10" fill="#111827">Hyper-V Host</text><rect x="1215" y="410" width="110" height="50" fill="#f9fafb" stroke="#e5e7eb" stroke-width="1.5" rx="6"/><text x="1270.0" y="438.0" text-anchor="middle" font-family="-apple-system, 'Helvetica Neue', Arial, sans-serif" font-size="10" fill="#111827">OVA Files</text><line x1="185.0" y1="115.0" x2="351.0" y2="115.0" stroke="#3b82f6" stroke-width="1.5" marker-end="url(#arr)"/><line x1="485.0" y1="140.0" x2="173.5" y2="247.1" stroke="#3b82f6" stroke-width="1.5" marker-end="url(#arr)"/><line x1="485.0" y1="140.0" x2="429.3" y2="242.1" stroke="#3b82f6" stroke-width="1.5" marker-end="url(#arr)"/><line x1="485.0" y1="140.0" x2="677.1" y2="245.7" stroke="#3b82f6" stroke-width="1.5" marker-end="url(#arr)"/><line x1="485.0" y1="140.0" x2="936.2" y2="247.9" stroke="#3b82f6" stroke-width="1.5" marker-end="url(#arr)"/><line x1="485.0" y1="140.0" x2="1196.1" y2="248.6" stroke="#3b82f6" stroke-width="1.5" marker-end="url(#arr)"/><line x1="165.0" y1="300.0" x2="139.2" y2="401.3" stroke="#6b7280" stroke-width="1.5" stroke-dasharray="6,3" marker-end="url(#arrd)"/><line x1="165.0" y1="300.0" x2="322.5" y2="405.0" stroke="#6b7280" stroke-width="1.5" stroke-dasharray="6,3" marker-end="url(#arrd)"/><line x1="165.0" y1="300.0" x2="523.4" y2="407.4" stroke="#6b7280" stroke-width="1.5" stroke-dasharray="6,3" marker-end="url(#arrd)"/><line x1="425.0" y1="300.0" x2="145.4" y2="406.8" stroke="#6b7280" stroke-width="1.5" stroke-dasharray="6,3" marker-end="url(#arrd)"/><line x1="425.0" y1="300.0" x2="335.9" y2="403.2" stroke="#6b7280" stroke-width="1.5" stroke-dasharray="6,3" marker-end="url(#arrd)"/><line x1="425.0" y1="300.0" x2="525.7" y2="403.5" stroke="#6b7280" stroke-width="1.5" stroke-dasharray="6,3" marker-end="url(#arrd)"/><line x1="685.0" y1="300.0" x2="145.8" y2="408.2" stroke="#6b7280" stroke-width="1.5" stroke-dasharray="6,3" marker-end="url(#arrd)"/><line x1="685.0" y1="300.0" x2="539.3" y2="404.7" stroke="#6b7280" stroke-width="1.5" stroke-dasharray="6,3" marker-end="url(#arrd)"/><line x1="945.0" y1="300.0" x2="145.9" y2="408.8" stroke="#6b7280" stroke-width="1.5" stroke-dasharray="6,3" marker-end="url(#arrd)"/><line x1="945.0" y1="300.0" x2="338.9" y2="408.4" stroke="#6b7280" stroke-width="1.5" stroke-dasharray="6,3" marker-end="url(#arrd)"/><line x1="1205.0" y1="300.0" x2="146.0" y2="409.1" stroke="#6b7280" stroke-width="1.5" stroke-dasharray="6,3" marker-end="url(#arrd)"/><line x1="1205.0" y1="300.0" x2="338.9" y2="408.9" stroke="#6b7280" stroke-width="1.5" stroke-dasharray="6,3" marker-end="url(#arrd)"/><line x1="165.0" y1="300.0" x2="761.1" y2="408.4" stroke="#3b82f6" stroke-width="1.5" marker-end="url(#arr)"/><line x1="425.0" y1="300.0" x2="886.2" y2="407.9" stroke="#3b82f6" stroke-width="1.5" marker-end="url(#arr)"/><line x1="685.0" y1="300.0" x2="1011.4" y2="407.2" stroke="#3b82f6" stroke-width="1.5" marker-end="url(#arr)"/><line x1="945.0" y1="300.0" x2="1137.1" y2="405.7" stroke="#3b82f6" stroke-width="1.5" marker-end="url(#arr)"/><line x1="1205.0" y1="300.0" x2="1265.4" y2="402.3" stroke="#3b82f6" stroke-width="1.5" marker-end="url(#arr)"/>
</svg>