<svg xmlns="http://www.w3.org/2000/svg" width="1050" height="1080" style="font-family:-apple-system, 'Helvetica Neue', Arial, sans-serif;background:#ffffff">
<defs>
  <marker id="arr" markerWidth="10" markerHeight="8" refX="8.5" refY="3.5" orient="auto">
    <polygon points="0 0.5,8.5 3.5,0 6.5" fill="#3b82f6"/>
  </marker>
  <marker id="arrd" markerWidth="10" markerHeight="8" refX="8.5" refY="3.5" orient="auto">
    <polygon points="0 0.5,8.5 3.5,0 6.5" fill="#6b7280"/>
  </marker>
  <marker id="arro" markerWidth="10" markerHeight="8" refX="8.5" refY="3.5" orient="auto">
    <polygon points="0 0.5,8.5 3.5,0 6.5" fill="#92400e"/>
  </marker>
</defs>
<text x="525.0" y="28" text-anchor="middle" font-family="-apple-system, 'Helvetica Neue', Arial, sans-serif" font-size="15" font-weight="bold" fill="#111827">Volume Populator 流程</text><circle cx="320" cy="55" r="10" fill="#3b82f6"/><rect x="202.5" y="115" width="235" height="44" fill="#f9fafb" stroke="#e5e7eb" stroke-width="1.5" rx="6"/><text x="320.0" y="133.0" text-anchor="middle" font-family="-apple-system, 'Helvetica Neue', Arial, sans-serif" font-size="11" fill="#111827">使用者建立PVC</text><text x="320.0" y="148.0" text-anchor="middle" font-family="-apple-system, 'Helvetica Neue', Arial, sans-serif" font-size="11" fill="#111827">dataSourceRef 指向 Populator CR</text><rect x="202.5" y="185" width="235" height="44" fill="#f9fafb" stroke="#e5e7eb" stroke-width="1.5" rx="6"/><text x="320.0" y="210.5" text-anchor="middle" font-family="-apple-system, 'Helvetica Neue', Arial, sans-serif" font-size="11" fill="#111827">Controller 偵測 PVC</text><polygon points="320,255.0 450.0,286.0 320,317.0 190.0,286.0" fill="#f9fafb" stroke="#e5e7eb" stroke-width="1.5"/><text x="320" y="283.0" text-anchor="middle" font-family="-apple-system, 'Helvetica Neue', Arial, sans-serif" font-size="11" fill="#111827">驗證 StorageClass</text><text x="320" y="297.0" text-anchor="middle" font-family="-apple-system, 'Helvetica Neue', Arial, sans-serif" font-size="11" fill="#111827">非 in-tree provisioner</text><rect x="662.5" y="265" width="235" height="44" fill="#fffbeb" stroke="#fbbf24" stroke-width="1.5" rx="6"/><text x="780.0" y="290.5" text-anchor="middle" font-family="-apple-system, 'Helvetica Neue', Arial, sans-serif" font-size="11" fill="#111827">跳過</text><rect x="202.5" y="330" width="235" height="44" fill="#f9fafb" stroke="#e5e7eb" stroke-width="1.5" rx="6"/><text x="320.0" y="348.0" text-anchor="middle" font-family="-apple-system, 'Helvetica Neue', Arial, sans-serif" font-size="11" fill="#111827">處理 WaitForFirstConsumer</text><text x="320.0" y="363.0" text-anchor="middle" font-family="-apple-system, 'Helvetica Neue', Arial, sans-serif" font-size="11" fill="#111827">Binding Mode</text><rect x="202.5" y="415" width="235" height="44" fill="#f9fafb" stroke="#e5e7eb" stroke-width="1.5" rx="6"/><text x="320.0" y="433.0" text-anchor="middle" font-family="-apple-system, 'Helvetica Neue', Arial, sans-serif" font-size="11" fill="#111827">建立 prime PVC</text><text x="320.0" y="448.0" text-anchor="middle" font-family="-apple-system, 'Helvetica Neue', Arial, sans-serif" font-size="11" fill="#111827">前綴: prime-</text><rect x="202.5" y="500" width="235" height="44" fill="#f9fafb" stroke="#e5e7eb" stroke-width="1.5" rx="6"/><text x="320.0" y="518.0" text-anchor="middle" font-family="-apple-system, 'Helvetica Neue', Arial, sans-serif" font-size="11" fill="#111827">建立 Populator Pod</text><text x="320.0" y="533.0" text-anchor="middle" font-family="-apple-system, 'Helvetica Neue', Arial, sans-serif" font-size="11" fill="#111827">前綴: populate-</text><rect x="202.5" y="580" width="235" height="44" fill="#f9fafb" stroke="#e5e7eb" stroke-width="1.5" rx="6"/><text x="320.0" y="598.0" text-anchor="middle" font-family="-apple-system, 'Helvetica Neue', Arial, sans-serif" font-size="11" fill="#111827">監控 Pod 進度</text><text x="320.0" y="613.0" text-anchor="middle" font-family="-apple-system, 'Helvetica Neue', Arial, sans-serif" font-size="11" fill="#111827">每5秒擷取 HTTPS :8443 metrics</text><polygon points="320,660.0 450.0,691.0 320,722.0 190.0,691.0" fill="#f9fafb" stroke="#e5e7eb" stroke-width="1.5"/><text x="320" y="695.0" text-anchor="middle" font-family="-apple-system, 'Helvetica Neue', Arial, sans-serif" font-size="11" fill="#111827">Pod 狀態?</text><rect x="202.5" y="740" width="235" height="44" fill="#f9fafb" stroke="#e5e7eb" stroke-width="1.5" rx="6"/><text x="320.0" y="758.0" text-anchor="middle" font-family="-apple-system, 'Helvetica Neue', Arial, sans-serif" font-size="11" fill="#111827">Patch PV ClaimRef</text><text x="320.0" y="773.0" text-anchor="middle" font-family="-apple-system, 'Helvetica Neue', Arial, sans-serif" font-size="11" fill="#111827">指向原始 PVC</text><polygon points="780,660.0 910.0,691.0 780,722.0 650.0,691.0" fill="#f9fafb" stroke="#e5e7eb" stroke-width="1.5"/><text x="780" y="688.0" text-anchor="middle" font-family="-apple-system, 'Helvetica Neue', Arial, sans-serif" font-size="11" fill="#111827">重試次數 &lt; 3?</text><text x="780" y="702.0" text-anchor="middle" font-family="-apple-system, 'Helvetica Neue', Arial, sans-serif" font-size="11" fill="#111827">vSphere 不重試</text><rect x="662.5" y="740" width="235" height="44" fill="#fffbeb" stroke="#fbbf24" stroke-width="1.5" rx="6"/><text x="780.0" y="765.5" text-anchor="middle" font-family="-apple-system, 'Helvetica Neue', Arial, sans-serif" font-size="11" fill="#111827">標記失敗</text><rect x="202.5" y="820" width="235" height="44" fill="#f9fafb" stroke="#e5e7eb" stroke-width="1.5" rx="6"/><text x="320.0" y="845.5" text-anchor="middle" font-family="-apple-system, 'Helvetica Neue', Arial, sans-serif" font-size="11" fill="#111827">等待 prime PVC 進入 Lost 狀態</text><rect x="202.5" y="900" width="235" height="44" fill="#f9fafb" stroke="#e5e7eb" stroke-width="1.5" rx="6"/><text x="320.0" y="925.5" text-anchor="middle" font-family="-apple-system, 'Helvetica Neue', Arial, sans-serif" font-size="11" fill="#111827">刪除 prime PVC</text><rect x="202.5" y="980" width="235" height="44" fill="#f9fafb" stroke="#e5e7eb" stroke-width="1.5" rx="6"/><text x="320.0" y="998.0" text-anchor="middle" font-family="-apple-system, 'Helvetica Neue', Arial, sans-serif" font-size="11" fill="#111827">PV 重新綁定至原始 PVC</text><text x="320.0" y="1013.0" text-anchor="middle" font-family="-apple-system, 'Helvetica Neue', Arial, sans-serif" font-size="11" fill="#111827">Population 完成</text><line x1="320.0" y1="65.0" x2="320.0" y2="106.0" stroke="#3b82f6" stroke-width="1.5" marker-end="url(#arr)"/><line x1="320.0" y1="159.0" x2="320.0" y2="176.0" stroke="#3b82f6" stroke-width="1.5" marker-end="url(#arr)"/><line x1="320.0" y1="229.0" x2="320.0" y2="246.0" stroke="#3b82f6" stroke-width="1.5" marker-end="url(#arr)"/><line x1="450.0" y1="286.0" x2="653.5" y2="287.0" stroke="#3b82f6" stroke-width="1.5" marker-end="url(#arr)"/><text x="556.2" y="278.5" text-anchor="middle" font-family="-apple-system, 'Helvetica Neue', Arial, sans-serif" font-size="10" fill="#6b7280">驗證失敗</text><line x1="320.0" y1="317.0" x2="320.0" y2="321.0" stroke="#3b82f6" stroke-width="1.5" marker-end="url(#arr)"/><text x="338.0" y="323.5" text-anchor="middle" font-family="-apple-system, 'Helvetica Neue', Arial, sans-serif" font-size="10" fill="#6b7280">驗證通過</text><line x1="320.0" y1="374.0" x2="320.0" y2="406.0" stroke="#3b82f6" stroke-width="1.5" marker-end="url(#arr)"/><line x1="320.0" y1="459.0" x2="320.0" y2="491.0" stroke="#3b82f6" stroke-width="1.5" marker-end="url(#arr)"/><line x1="320.0" y1="544.0" x2="320.0" y2="571.0" stroke="#3b82f6" stroke-width="1.5" marker-end="url(#arr)"/><line x1="320.0" y1="624.0" x2="320.0" y2="651.0" stroke="#3b82f6" stroke-width="1.5" marker-end="url(#arr)"/><path d="M 202.5,691.0 L 162.5,691.0 L 162.5,602.0 L 202.5,602.0" fill="none" stroke="#3b82f6" stroke-width="1.5" marker-end="url(#arr)"/><text x="142.5" y="631.0" text-anchor="middle" font-family="-apple-system, 'Helvetica Neue', Arial, sans-serif" font-size="10" fill="#6b7280">Running</text><line x1="320.0" y1="722.0" x2="320.0" y2="731.0" stroke="#3b82f6" stroke-width="1.5" marker-end="url(#arr)"/><text x="338.0" y="731.0" text-anchor="middle" font-family="-apple-system, 'Helvetica Neue', Arial, sans-serif" font-size="10" fill="#6b7280">Succeeded</text><line x1="450.0" y1="691.0" x2="641.0" y2="691.0" stroke="#3b82f6" stroke-width="1.5" marker-end="url(#arr)"/><text x="550.0" y="683.0" text-anchor="middle" font-family="-apple-system, 'Helvetica Neue', Arial, sans-serif" font-size="10" fill="#6b7280">Failed</text><line x1="780.0" y1="722.0" x2="780.0" y2="742.0" stroke="#3b82f6" stroke-width="1.5" marker-end="url(#arr)"/><text x="798.0" y="736.5" text-anchor="middle" font-family="-apple-system, 'Helvetica Neue', Arial, sans-serif" font-size="10" fill="#6b7280">否</text><line x1="650.0" y1="655.0" x2="445.1" y2="526.8" stroke="#3b82f6" stroke-width="1.5" marker-end="url(#arr)"/><text x="543.8" y="580.5" text-anchor="middle" font-family="-apple-system, 'Helvetica Neue', Arial, sans-serif" font-size="10" fill="#6b7280">是→重建</text><line x1="320.0" y1="784.0" x2="320.0" y2="811.0" stroke="#3b82f6" stroke-width="1.5" marker-end="url(#arr)"/><line x1="320.0" y1="864.0" x2="320.0" y2="891.0" stroke="#3b82f6" stroke-width="1.5" marker-end="url(#arr)"/><line x1="320.0" y1="944.0" x2="320.0" y2="971.0" stroke="#3b82f6" stroke-width="1.5" marker-end="url(#arr)"/>
</svg>