<svg xmlns="http://www.w3.org/2000/svg" width="1100" height="1100" style="font-family:-apple-system, 'Helvetica Neue', Arial, sans-serif;background:#ffffff">
<defs>
  <marker id="arr" markerWidth="10" markerHeight="8" refX="8.5" refY="3.5" orient="auto">
    <polygon points="0 0.5,8.5 3.5,0 6.5" fill="#3b82f6"/>
  </marker>
  <marker id="arrd" markerWidth="10" markerHeight="8" refX="8.5" refY="3.5" orient="auto">
    <polygon points="0 0.5,8.5 3.5,0 6.5" fill="#6b7280"/>
  </marker>
  <marker id="arro" markerWidth="10" markerHeight="8" refX="8.5" refY="3.5" orient="auto">
    <polygon points="0 0.5,8.5 3.5,0 6.5" fill="#92400e"/>
  </marker>
</defs>
<text x="550.0" y="28" text-anchor="middle" font-family="-apple-system, 'Helvetica Neue', Arial, sans-serif" font-size="15" font-weight="bold" fill="#111827">Plan Controller Reconcile 流程</text><circle cx="280" cy="55" r="10" fill="#3b82f6"/><rect x="170.0" y="120" width="220" height="42" fill="#f9fafb" stroke="#e5e7eb" stroke-width="1.5" rx="6"/><text x="280.0" y="144.5" text-anchor="middle" font-family="-apple-system, 'Helvetica Neue', Arial, sans-serif" font-size="11" fill="#111827">Reconcile 入口</text><polygon points="280,200.0 400.0,230.0 280,260.0 160.0,230.0" fill="#f9fafb" stroke="#e5e7eb" stroke-width="1.5"/><text x="280" y="234.0" text-anchor="middle" font-family="-apple-system, 'Helvetica Neue', Arial, sans-serif" font-size="11" fill="#111827">Fetch Plan</text><rect x="640.0" y="210" width="220" height="42" fill="#fffbeb" stroke="#fbbf24" stroke-width="1.5" rx="6"/><text x="750.0" y="234.5" text-anchor="middle" font-family="-apple-system, 'Helvetica Neue', Arial, sans-serif" font-size="11" fill="#111827">cleanupOrphanedResources</text><polygon points="280,280.0 400.0,310.0 280,340.0 160.0,310.0" fill="#f9fafb" stroke="#e5e7eb" stroke-width="1.5"/><text x="280" y="314.0" text-anchor="middle" font-family="-apple-system, 'Helvetica Neue', Arial, sans-serif" font-size="11" fill="#111827">Archived 且已標記?</text><rect x="640.0" y="290" width="220" height="42" fill="#fffbeb" stroke="#fbbf24" stroke-width="1.5" rx="6"/><text x="750.0" y="314.5" text-anchor="middle" font-family="-apple-system, 'Helvetica Neue', Arial, sans-serif" font-size="11" fill="#111827">return 跳過</text><polygon points="280,360.0 400.0,390.0 280,420.0 160.0,390.0" fill="#f9fafb" stroke="#e5e7eb" stroke-width="1.5"/><text x="280" y="394.0" text-anchor="middle" font-family="-apple-system, 'Helvetica Neue', Arial, sans-serif" font-size="11" fill="#111827">Succeeded 且未Archived?</text><polygon points="280,440.0 400.0,470.0 280,500.0 160.0,470.0" fill="#f9fafb" stroke="#e5e7eb" stroke-width="1.5"/><text x="280" y="474.0" text-anchor="middle" font-family="-apple-system, 'Helvetica Neue', Arial, sans-serif" font-size="11" fill="#111827">postpone 等待依賴</text><rect x="640.0" y="450" width="220" height="42" fill="#fffbeb" stroke="#fbbf24" stroke-width="1.5" rx="6"/><text x="750.0" y="474.5" text-anchor="middle" font-family="-apple-system, 'Helvetica Neue', Arial, sans-serif" font-size="11" fill="#111827">Requeue 延後重試</text><rect x="170.0" y="530" width="220" height="42" fill="#f9fafb" stroke="#e5e7eb" stroke-width="1.5" rx="6"/><text x="280.0" y="554.5" text-anchor="middle" font-family="-apple-system, 'Helvetica Neue', Arial, sans-serif" font-size="11" fill="#111827">Validation 驗證 Plan</text><rect x="640.0" y="535" width="220" height="42" fill="#fffbeb" stroke="#fbbf24" stroke-width="1.5" rx="6"/><text x="750.0" y="559.5" text-anchor="middle" font-family="-apple-system, 'Helvetica Neue', Arial, sans-serif" font-size="11" fill="#111827">標記 Archived→return</text><rect x="170.0" y="620" width="220" height="42" fill="#f9fafb" stroke="#e5e7eb" stroke-width="1.5" rx="6"/><text x="280.0" y="644.5" text-anchor="middle" font-family="-apple-system, 'Helvetica Neue', Arial, sans-serif" font-size="11" fill="#111827">setPopulatorDataSourceLabels</text><polygon points="280,710.0 400.0,740.0 280,770.0 160.0,740.0" fill="#f9fafb" stroke="#e5e7eb" stroke-width="1.5"/><text x="280" y="744.0" text-anchor="middle" font-family="-apple-system, 'Helvetica Neue', Arial, sans-serif" font-size="11" fill="#111827">plan.Spec.Archived?</text><rect x="640.0" y="720" width="220" height="42" fill="#f0f4ff" stroke="#c7d2fe" stroke-width="1.5" rx="6"/><text x="750.0" y="737.0" text-anchor="middle" font-family="-apple-system, 'Helvetica Neue', Arial, sans-serif" font-size="11" fill="#111827">archive 清理</text><text x="750.0" y="752.0" text-anchor="middle" font-family="-apple-system, 'Helvetica Neue', Arial, sans-serif" font-size="11" fill="#111827">+設定 Archived Condition</text><rect x="170.0" y="800" width="220" height="42" fill="#f9fafb" stroke="#e5e7eb" stroke-width="1.5" rx="6"/><text x="280.0" y="824.5" text-anchor="middle" font-family="-apple-system, 'Helvetica Neue', Arial, sans-serif" font-size="11" fill="#111827">設定 Ready Condition</text><rect x="170.0" y="890" width="220" height="42" fill="#f9fafb" stroke="#e5e7eb" stroke-width="1.5" rx="6"/><text x="280.0" y="914.5" text-anchor="middle" font-family="-apple-system, 'Helvetica Neue', Arial, sans-serif" font-size="11" fill="#111827">Stage Conditions</text><rect x="170.0" y="980" width="220" height="42" fill="#f9fafb" stroke="#e5e7eb" stroke-width="1.5" rx="6"/><text x="280.0" y="1004.5" text-anchor="middle" font-family="-apple-system, 'Helvetica Neue', Arial, sans-serif" font-size="11" fill="#111827">execute 執行遷移</text><rect x="170.0" y="1055" width="220" height="42" fill="#f9fafb" stroke="#e5e7eb" stroke-width="1.5" rx="6"/><text x="280.0" y="1079.5" text-anchor="middle" font-family="-apple-system, 'Helvetica Neue', Arial, sans-serif" font-size="11" fill="#111827">updatePlanStatus 持久化狀態</text><line x1="280.0" y1="65.0" x2="280.0" y2="111.0" stroke="#3b82f6" stroke-width="1.5" marker-end="url(#arr)"/><line x1="280.0" y1="162.0" x2="280.0" y2="191.0" stroke="#3b82f6" stroke-width="1.5" marker-end="url(#arr)"/><line x1="400.0" y1="230.0" x2="631.0" y2="231.0" stroke="#3b82f6" stroke-width="1.5" marker-end="url(#arr)"/><text x="520.0" y="222.5" text-anchor="middle" font-family="-apple-system, 'Helvetica Neue', Arial, sans-serif" font-size="10" fill="#6b7280">NotFound</text><line x1="280.0" y1="260.0" x2="280.0" y2="271.0" stroke="#3b82f6" stroke-width="1.5" marker-end="url(#arr)"/><text x="298.0" y="270.0" text-anchor="middle" font-family="-apple-system, 'Helvetica Neue', Arial, sans-serif" font-size="10" fill="#6b7280">Found</text><line x1="400.0" y1="310.0" x2="631.0" y2="311.0" stroke="#3b82f6" stroke-width="1.5" marker-end="url(#arr)"/><text x="520.0" y="302.5" text-anchor="middle" font-family="-apple-system, 'Helvetica Neue', Arial, sans-serif" font-size="10" fill="#6b7280">是</text><line x1="280.0" y1="340.0" x2="280.0" y2="351.0" stroke="#3b82f6" stroke-width="1.5" marker-end="url(#arr)"/><text x="298.0" y="350.0" text-anchor="middle" font-family="-apple-system, 'Helvetica Neue', Arial, sans-serif" font-size="10" fill="#6b7280">否</text><line x1="400.0" y1="390.0" x2="631.5" y2="313.8" stroke="#3b82f6" stroke-width="1.5" marker-end="url(#arr)"/><text x="520.0" y="342.5" text-anchor="middle" font-family="-apple-system, 'Helvetica Neue', Arial, sans-serif" font-size="10" fill="#6b7280">是</text><line x1="280.0" y1="420.0" x2="280.0" y2="431.0" stroke="#3b82f6" stroke-width="1.5" marker-end="url(#arr)"/><text x="298.0" y="430.0" text-anchor="middle" font-family="-apple-system, 'Helvetica Neue', Arial, sans-serif" font-size="10" fill="#6b7280">否</text><line x1="400.0" y1="470.0" x2="631.0" y2="471.0" stroke="#3b82f6" stroke-width="1.5" marker-end="url(#arr)"/><text x="520.0" y="462.5" text-anchor="middle" font-family="-apple-system, 'Helvetica Neue', Arial, sans-serif" font-size="10" fill="#6b7280">尚未就緒</text><line x1="280.0" y1="500.0" x2="280.0" y2="521.0" stroke="#3b82f6" stroke-width="1.5" marker-end="url(#arr)"/><text x="298.0" y="515.0" text-anchor="middle" font-family="-apple-system, 'Helvetica Neue', Arial, sans-serif" font-size="10" fill="#6b7280">全部就緒</text><line x1="390.0" y1="551.0" x2="631.0" y2="555.8" stroke="#3b82f6" stroke-width="1.5" marker-end="url(#arr)"/><text x="515.0" y="545.5" text-anchor="middle" font-family="-apple-system, 'Helvetica Neue', Arial, sans-serif" font-size="10" fill="#6b7280">dangling archived</text><line x1="280.0" y1="572.0" x2="280.0" y2="611.0" stroke="#3b82f6" stroke-width="1.5" marker-end="url(#arr)"/><text x="298.0" y="596.0" text-anchor="middle" font-family="-apple-system, 'Helvetica Neue', Arial, sans-serif" font-size="10" fill="#6b7280">驗證通過</text><line x1="280.0" y1="662.0" x2="280.0" y2="701.0" stroke="#3b82f6" stroke-width="1.5" marker-end="url(#arr)"/><line x1="400.0" y1="740.0" x2="631.0" y2="741.0" stroke="#3b82f6" stroke-width="1.5" marker-end="url(#arr)"/><text x="520.0" y="732.5" text-anchor="middle" font-family="-apple-system, 'Helvetica Neue', Arial, sans-serif" font-size="10" fill="#6b7280">是</text><line x1="280.0" y1="770.0" x2="280.0" y2="791.0" stroke="#3b82f6" stroke-width="1.5" marker-end="url(#arr)"/><text x="298.0" y="785.0" text-anchor="middle" font-family="-apple-system, 'Helvetica Neue', Arial, sans-serif" font-size="10" fill="#6b7280">否</text><line x1="280.0" y1="842.0" x2="280.0" y2="881.0" stroke="#3b82f6" stroke-width="1.5" marker-end="url(#arr)"/><line x1="280.0" y1="932.0" x2="280.0" y2="971.0" stroke="#3b82f6" stroke-width="1.5" marker-end="url(#arr)"/><line x1="280.0" y1="1022.0" x2="280.0" y2="1046.0" stroke="#3b82f6" stroke-width="1.5" marker-end="url(#arr)"/>
</svg>