<svg xmlns="http://www.w3.org/2000/svg" width="1470" height="734" style="font-family:-apple-system, 'Helvetica Neue', Arial, sans-serif;background:#ffffff">
<defs>
  <marker id="arr" markerWidth="10" markerHeight="8" refX="8.5" refY="3.5" orient="auto">
    <polygon points="0 0.5,8.5 3.5,0 6.5" fill="#3b82f6"/>
  </marker>
  <marker id="arrd" markerWidth="10" markerHeight="8" refX="8.5" refY="3.5" orient="auto">
    <polygon points="0 0.5,8.5 3.5,0 6.5" fill="#6b7280"/>
  </marker>
  <marker id="arro" markerWidth="10" markerHeight="8" refX="8.5" refY="3.5" orient="auto">
    <polygon points="0 0.5,8.5 3.5,0 6.5" fill="#92400e"/>
  </marker>
</defs>
<rect x="82.5" y="55" width="115" height="44" fill="#f9fafb" stroke="#e5e7eb" stroke-width="1.5" rx="6"/><text x="140.0" y="81.0" text-anchor="middle" font-family="-apple-system, 'Helvetica Neue', Arial, sans-serif" font-size="12" fill="#111827">使用者</text><rect x="252.5" y="55" width="115" height="44" fill="#f9fafb" stroke="#e5e7eb" stroke-width="1.5" rx="6"/><text x="310.0" y="81.0" text-anchor="middle" font-family="-apple-system, 'Helvetica Neue', Arial, sans-serif" font-size="12" fill="#111827">forklift-api</text><rect x="422.5" y="55" width="115" height="44" fill="#f9fafb" stroke="#e5e7eb" stroke-width="1.5" rx="6"/><text x="480.0" y="81.0" text-anchor="middle" font-family="-apple-system, 'Helvetica Neue', Arial, sans-serif" font-size="12" fill="#111827">Plan Controller</text><rect x="592.5" y="55" width="115" height="44" fill="#f9fafb" stroke="#e5e7eb" stroke-width="1.5" rx="6"/><text x="650.0" y="81.0" text-anchor="middle" font-family="-apple-system, 'Helvetica Neue', Arial, sans-serif" font-size="12" fill="#111827">Itinerary 狀態機</text><rect x="762.5" y="55" width="115" height="44" fill="#f9fafb" stroke="#e5e7eb" stroke-width="1.5" rx="6"/><text x="820.0" y="81.0" text-anchor="middle" font-family="-apple-system, 'Helvetica Neue', Arial, sans-serif" font-size="12" fill="#111827">Volume Populator</text><rect x="932.5" y="55" width="115" height="44" fill="#f9fafb" stroke="#e5e7eb" stroke-width="1.5" rx="6"/><text x="990.0" y="81.0" text-anchor="middle" font-family="-apple-system, 'Helvetica Neue', Arial, sans-serif" font-size="12" fill="#111827">virt-v2v</text><rect x="1102.5" y="55" width="115" height="44" fill="#f9fafb" stroke="#e5e7eb" stroke-width="1.5" rx="6"/><text x="1160.0" y="81.0" text-anchor="middle" font-family="-apple-system, 'Helvetica Neue', Arial, sans-serif" font-size="12" fill="#111827">CDI</text><rect x="1272.5" y="55" width="115" height="44" fill="#f9fafb" stroke="#e5e7eb" stroke-width="1.5" rx="6"/><text x="1330.0" y="81.0" text-anchor="middle" font-family="-apple-system, 'Helvetica Neue', Arial, sans-serif" font-size="12" fill="#111827">KubeVirt</text><line x1="140.0" y1="99" x2="140.0" y2="709" stroke="#d1d5db" stroke-width="1" stroke-dasharray="4,3"/><line x1="310.0" y1="99" x2="310.0" y2="709" stroke="#d1d5db" stroke-width="1" stroke-dasharray="4,3"/><line x1="480.0" y1="99" x2="480.0" y2="709" stroke="#d1d5db" stroke-width="1" stroke-dasharray="4,3"/><line x1="650.0" y1="99" x2="650.0" y2="709" stroke="#d1d5db" stroke-width="1" stroke-dasharray="4,3"/><line x1="820.0" y1="99" x2="820.0" y2="709" stroke="#d1d5db" stroke-width="1" stroke-dasharray="4,3"/><line x1="990.0" y1="99" x2="990.0" y2="709" stroke="#d1d5db" stroke-width="1" stroke-dasharray="4,3"/><line x1="1160.0" y1="99" x2="1160.0" y2="709" stroke="#d1d5db" stroke-width="1" stroke-dasharray="4,3"/><line x1="1330.0" y1="99" x2="1330.0" y2="709" stroke="#d1d5db" stroke-width="1" stroke-dasharray="4,3"/><line x1="140.0" y1="134" x2="301.0" y2="134" stroke="#3b82f6" stroke-width="1.5" marker-end="url(#arr)"/><text x="225.0" y="128" text-anchor="middle" font-family="-apple-system, 'Helvetica Neue', Arial, sans-serif" font-size="10" fill="#6b7280">建立 Migration CR</text><line x1="310.0" y1="184" x2="471.0" y2="184" stroke="#3b82f6" stroke-width="1.5" marker-end="url(#arr)"/><text x="395.0" y="178" text-anchor="middle" font-family="-apple-system, 'Helvetica Neue', Arial, sans-serif" font-size="10" fill="#6b7280">Reconcile Plan</text><line x1="480.0" y1="234" x2="641.0" y2="234" stroke="#3b82f6" stroke-width="1.5" marker-end="url(#arr)"/><text x="565.0" y="228" text-anchor="middle" font-family="-apple-system, 'Helvetica Neue', Arial, sans-serif" font-size="10" fill="#6b7280">選擇 Itinerary (Cold/Warm/Live)</text><rect x="33" y="294" width="1404" height="22" fill="#f0f4ff" stroke="#c7d2fe" stroke-width="1.5" rx="4"/><text x="41" y="309" font-family="-apple-system, 'Helvetica Neue', Arial, sans-serif" font-size="10" font-weight="bold" fill="#111827">loop  每個 VM</text><line x1="650.0" y1="324" x2="489.0" y2="324" stroke="#3b82f6" stroke-width="1.5" marker-end="url(#arr)"/><text x="565.0" y="318" text-anchor="middle" font-family="-apple-system, 'Helvetica Neue', Arial, sans-serif" font-size="10" fill="#6b7280">下一步驟 (Phase)</text><line x1="480.0" y1="374" x2="811.0" y2="374" stroke="#3b82f6" stroke-width="1.5" marker-end="url(#arr)"/><text x="650.0" y="368" text-anchor="middle" font-family="-apple-system, 'Helvetica Neue', Arial, sans-serif" font-size="10" fill="#6b7280">建立 DataVolume / 複製磁碟</text><line x1="820.0" y1="424" x2="1151.0" y2="424" stroke="#3b82f6" stroke-width="1.5" marker-end="url(#arr)"/><text x="990.0" y="418" text-anchor="middle" font-family="-apple-system, 'Helvetica Neue', Arial, sans-serif" font-size="10" fill="#6b7280">寫入 PVC</text><line x1="480.0" y1="474" x2="981.0" y2="474" stroke="#3b82f6" stroke-width="1.5" marker-end="url(#arr)"/><text x="735.0" y="468" text-anchor="middle" font-family="-apple-system, 'Helvetica Neue', Arial, sans-serif" font-size="10" fill="#6b7280">啟動 Guest OS 轉換</text><line x1="990.0" y1="524" x2="489.0" y2="524" stroke="#6b7280" stroke-width="1.5" stroke-dasharray="5,3" marker-end="url(#arrd)"/><text x="735.0" y="518" text-anchor="middle" font-family="-apple-system, 'Helvetica Neue', Arial, sans-serif" font-size="10" fill="#6b7280">轉換完成</text><line x1="480.0" y1="574" x2="1321.0" y2="574" stroke="#3b82f6" stroke-width="1.5" marker-end="url(#arr)"/><text x="905.0" y="568" text-anchor="middle" font-family="-apple-system, 'Helvetica Neue', Arial, sans-serif" font-size="10" fill="#6b7280">建立 VirtualMachine</text><line x1="480.0" y1="629" x2="149.0" y2="629" stroke="#6b7280" stroke-width="1.5" stroke-dasharray="5,3" marker-end="url(#arrd)"/><text x="310.0" y="623" text-anchor="middle" font-family="-apple-system, 'Helvetica Neue', Arial, sans-serif" font-size="10" fill="#6b7280">Migration 完成</text>
</svg>