<svg xmlns="http://www.w3.org/2000/svg" width="850" height="560" style="font-family:-apple-system, 'Helvetica Neue', Arial, sans-serif;background:#ffffff">
<defs>
  <marker id="arr" markerWidth="10" markerHeight="8" refX="8.5" refY="3.5" orient="auto">
    <polygon points="0 0.5,8.5 3.5,0 6.5" fill="#3b82f6"/>
  </marker>
  <marker id="arrd" markerWidth="10" markerHeight="8" refX="8.5" refY="3.5" orient="auto">
    <polygon points="0 0.5,8.5 3.5,0 6.5" fill="#6b7280"/>
  </marker>
  <marker id="arro" markerWidth="10" markerHeight="8" refX="8.5" refY="3.5" orient="auto">
    <polygon points="0 0.5,8.5 3.5,0 6.5" fill="#92400e"/>
  </marker>
</defs>
<text x="425.0" y="28" text-anchor="middle" font-family="-apple-system, 'Helvetica Neue', Arial, sans-serif" font-size="15" font-weight="bold" fill="#111827">vSphere Client 選擇邏輯</text><circle cx="280" cy="55" r="10" fill="#3b82f6"/><rect x="180.0" y="80" width="200" height="42" fill="#f9fafb" stroke="#e5e7eb" stroke-width="1.5" rx="6"/><text x="280.0" y="105.0" text-anchor="middle" font-family="-apple-system, 'Helvetica Neue', Arial, sans-serif" font-size="12" fill="#111827">getClient</text><polygon points="280,150.0 400.0,180 280,210.0 160.0,180" fill="#f9fafb" stroke="#e5e7eb" stroke-width="1.5"/><text x="280" y="184.0" text-anchor="middle" font-family="-apple-system, 'Helvetica Neue', Arial, sans-serif" font-size="11" fill="#111827">virt-v2v 啟用?</text><rect x="540.0" y="180" width="200" height="42" fill="#f0f4ff" stroke="#c7d2fe" stroke-width="1.5" rx="6"/><text x="640.0" y="205.0" text-anchor="middle" font-family="-apple-system, 'Helvetica Neue', Arial, sans-serif" font-size="12" fill="#111827">使用 Provider SDK</text><polygon points="280,270.0 400.0,300 280,330.0 160.0,300" fill="#f9fafb" stroke="#e5e7eb" stroke-width="1.5"/><text x="280" y="304.0" text-anchor="middle" font-family="-apple-system, 'Helvetica Neue', Arial, sans-serif" font-size="11" fill="#111827">SDK = ESXI?</text><polygon points="280,390.0 400.0,420 280,450.0 160.0,420" fill="#f9fafb" stroke="#e5e7eb" stroke-width="1.5"/><text x="280" y="424.0" text-anchor="middle" font-family="-apple-system, 'Helvetica Neue', Arial, sans-serif" font-size="11" fill="#111827">ESXi Host 可用?</text><rect x="180.0" y="510" width="200" height="42" fill="#f0fdf4" stroke="#bbf7d0" stroke-width="1.5" rx="6"/><text x="280.0" y="535.0" text-anchor="middle" font-family="-apple-system, 'Helvetica Neue', Arial, sans-serif" font-size="12" fill="#111827">建立/快取 ESXi Client</text><line x1="280.0" y1="65.0" x2="280.0" y2="71.0" stroke="#3b82f6" stroke-width="1.5" marker-end="url(#arr)"/><line x1="280.0" y1="122.0" x2="280.0" y2="171.0" stroke="#3b82f6" stroke-width="1.5" marker-end="url(#arr)"/><line x1="400.0" y1="210.0" x2="531.0" y2="210.0" stroke="#3b82f6" stroke-width="1.5" marker-end="url(#arr)"/><text x="470.0" y="202.0" text-anchor="middle" font-family="-apple-system, 'Helvetica Neue', Arial, sans-serif" font-size="10" fill="#6b7280">是</text><line x1="280.0" y1="240.0" x2="280.0" y2="291.0" stroke="#3b82f6" stroke-width="1.5" marker-end="url(#arr)"/><text x="298.0" y="270.0" text-anchor="middle" font-family="-apple-system, 'Helvetica Neue', Arial, sans-serif" font-size="10" fill="#6b7280">否</text><line x1="400.0" y1="330.0" x2="532.7" y2="235.2" stroke="#3b82f6" stroke-width="1.5" marker-end="url(#arr)"/><text x="470.0" y="272.0" text-anchor="middle" font-family="-apple-system, 'Helvetica Neue', Arial, sans-serif" font-size="10" fill="#6b7280">是</text><line x1="280.0" y1="360.0" x2="280.0" y2="411.0" stroke="#3b82f6" stroke-width="1.5" marker-end="url(#arr)"/><text x="298.0" y="390.0" text-anchor="middle" font-family="-apple-system, 'Helvetica Neue', Arial, sans-serif" font-size="10" fill="#6b7280">否</text><line x1="400.0" y1="450.0" x2="534.8" y2="257.4" stroke="#3b82f6" stroke-width="1.5" marker-end="url(#arr)"/><text x="488.0" y="350.0" text-anchor="middle" font-family="-apple-system, 'Helvetica Neue', Arial, sans-serif" font-size="10" fill="#6b7280">否</text><line x1="280.0" y1="480.0" x2="280.0" y2="501.0" stroke="#3b82f6" stroke-width="1.5" marker-end="url(#arr)"/><text x="298.0" y="495.0" text-anchor="middle" font-family="-apple-system, 'Helvetica Neue', Arial, sans-serif" font-size="10" fill="#6b7280">是</text>
</svg>