<svg xmlns="http://www.w3.org/2000/svg" width="1400" height="920" viewBox="0 0 1400 920" font-family="-apple-system, 'Helvetica Neue', Arial, sans-serif">
<defs>
<marker id="arrow" markerWidth="10" markerHeight="7" refX="9" refY="3.5" orient="auto">
  <polygon points="0 0.5, 8.5 3.5, 0 6.5" fill="#3b82f6"/>
</marker>
<marker id="arrow-rev" markerWidth="10" markerHeight="7" refX="1" refY="3.5" orient="auto">
  <polygon points="8.5 0.5, 0 3.5, 8.5 6.5" fill="#3b82f6"/>
</marker>
</defs>
<rect width="1400" height="920" fill="#ffffff"/>
<text x="20" y="30" fill="#6b7280" font-size="12" font-family="-apple-system, 'Helvetica Neue', Arial, sans-serif">netbox-production-deployment — 生產環境部署架構</text><rect x="20" y="60" width="400" height="160" rx="8" fill="#f0f4ff" stroke="#c7d2fe" stroke-width="1.5" stroke-dasharray="6,3"/><text x="30" y="78" fill="#6b7280" font-size="12" font-family="-apple-system, 'Helvetica Neue', Arial, sans-serif" font-weight="600">前端</text><rect x="60" y="110" width="140" height="40" rx="6" fill="#f9fafb" stroke="#e5e7eb" stroke-width="1.5"/><text x="130" y="130" text-anchor="middle" dominant-baseline="central" fill="#111827" font-size="13" font-family="-apple-system, 'Helvetica Neue', Arial, sans-serif">Load Balancer/CDN</text><line x1="200" y1="150" x2="260" y2="150" stroke="#3b82f6" stroke-width="1.5" marker-end="url(#arrow)"/><rect x="260" y="110" width="140" height="40" rx="6" fill="#f9fafb" stroke="#e5e7eb" stroke-width="1.5"/><text x="330" y="130" text-anchor="middle" dominant-baseline="central" fill="#111827" font-size="13" font-family="-apple-system, 'Helvetica Neue', Arial, sans-serif">Nginx/Apache</text><rect x="20" y="270" width="400" height="160" rx="8" fill="#f0f4ff" stroke="#c7d2fe" stroke-width="1.5" stroke-dasharray="6,3"/><text x="30" y="288" fill="#6b7280" font-size="12" font-family="-apple-system, 'Helvetica Neue', Arial, sans-serif" font-weight="600">應用層</text><rect x="60" y="320" width="160" height="40" rx="6" fill="#f9fafb" stroke="#e5e7eb" stroke-width="1.5"/><text x="140" y="340" text-anchor="middle" dominant-baseline="central" fill="#111827" font-size="13" font-family="-apple-system, 'Helvetica Neue', Arial, sans-serif">Gunicorn netbox.service</text><rect x="260" y="320" width="140" height="40" rx="6" fill="#f9fafb" stroke="#e5e7eb" stroke-width="1.5"/><text x="330" y="340" text-anchor="middle" dominant-baseline="central" fill="#111827" font-size="13" font-family="-apple-system, 'Helvetica Neue', Arial, sans-serif">RQ Worker netbox-rq.service</text><rect x="20" y="490" width="560" height="200" rx="8" fill="#f0f4ff" stroke="#c7d2fe" stroke-width="1.5" stroke-dasharray="6,3"/><text x="30" y="508" fill="#6b7280" font-size="12" font-family="-apple-system, 'Helvetica Neue', Arial, sans-serif" font-weight="600">資料層</text><rect x="50" y="552" width="150" height="68" fill="#f9fafb" stroke="#e5e7eb" stroke-width="1.5"/><ellipse cx="125" cy="552" rx="75" ry="12" fill="#f9fafb" stroke="#e5e7eb" stroke-width="1.5"/><ellipse cx="125" cy="620" rx="75" ry="12" fill="#f9fafb" stroke="#e5e7eb" stroke-width="1.5"/><text x="125" y="586" text-anchor="middle" dominant-baseline="central" fill="#111827" font-size="13" font-family="-apple-system, 'Helvetica Neue', Arial, sans-serif">PostgreSQL</text><rect x="230" y="552" width="160" height="68" fill="#f9fafb" stroke="#e5e7eb" stroke-width="1.5"/><ellipse cx="310" cy="552" rx="80" ry="12" fill="#f9fafb" stroke="#e5e7eb" stroke-width="1.5"/><ellipse cx="310" cy="620" rx="80" ry="12" fill="#f9fafb" stroke="#e5e7eb" stroke-width="1.5"/><text x="310" y="586" text-anchor="middle" dominant-baseline="central" fill="#111827" font-size="13" font-family="-apple-system, 'Helvetica Neue', Arial, sans-serif">Redis tasks DB 0</text><rect x="420" y="552" width="160" height="68" fill="#f9fafb" stroke="#e5e7eb" stroke-width="1.5"/><ellipse cx="500" cy="552" rx="80" ry="12" fill="#f9fafb" stroke="#e5e7eb" stroke-width="1.5"/><ellipse cx="500" cy="620" rx="80" ry="12" fill="#f9fafb" stroke="#e5e7eb" stroke-width="1.5"/><text x="500" y="586" text-anchor="middle" dominant-baseline="central" fill="#111827" font-size="13" font-family="-apple-system, 'Helvetica Neue', Arial, sans-serif">Redis caching DB 1</text><rect x="650" y="60" width="720" height="600" rx="8" fill="#f0f4ff" stroke="#c7d2fe" stroke-width="1.5" stroke-dasharray="6,3"/><text x="660" y="78" fill="#6b7280" font-size="12" font-family="-apple-system, 'Helvetica Neue', Arial, sans-serif" font-weight="600">外部整合</text><rect x="700" y="120" width="200" height="40" rx="6" fill="#f9fafb" stroke="#e5e7eb" stroke-width="1.5"/><text x="800" y="140" text-anchor="middle" dominant-baseline="central" fill="#111827" font-size="13" font-family="-apple-system, 'Helvetica Neue', Arial, sans-serif">Webhook 接收端</text><rect x="700" y="200" width="200" height="40" rx="6" fill="#f9fafb" stroke="#e5e7eb" stroke-width="1.5"/><text x="800" y="220" text-anchor="middle" dominant-baseline="central" fill="#111827" font-size="13" font-family="-apple-system, 'Helvetica Neue', Arial, sans-serif">LDAP/AD</text><rect x="700" y="280" width="200" height="40" rx="6" fill="#f9fafb" stroke="#e5e7eb" stroke-width="1.5"/><text x="800" y="300" text-anchor="middle" dominant-baseline="central" fill="#111827" font-size="13" font-family="-apple-system, 'Helvetica Neue', Arial, sans-serif">OAuth2/SAML IdP</text><rect x="700" y="360" width="200" height="40" rx="6" fill="#f9fafb" stroke="#e5e7eb" stroke-width="1.5"/><text x="800" y="380" text-anchor="middle" dominant-baseline="central" fill="#111827" font-size="13" font-family="-apple-system, 'Helvetica Neue', Arial, sans-serif">Git/S3 DataSource</text><rect x="700" y="440" width="200" height="40" rx="6" fill="#f9fafb" stroke="#e5e7eb" stroke-width="1.5"/><text x="800" y="460" text-anchor="middle" dominant-baseline="central" fill="#111827" font-size="13" font-family="-apple-system, 'Helvetica Neue', Arial, sans-serif">Prometheus</text><path d="M 330 155 L 330 230 L 140 230 L 140 320" stroke="#3b82f6" stroke-width="1.5" fill="none" marker-end="url(#arrow)"/><text x="230" y="220" text-anchor="middle" fill="#6b7280" font-size="11" font-family="-apple-system, 'Helvetica Neue', Arial, sans-serif">proxy_pass :8001</text><path d="M 140 360 L 140 450 L 125 450 L 125 540" stroke="#3b82f6" stroke-width="1.5" fill="none" marker-end="url(#arrow)"/><path d="M 140 380 L 140 470 L 500 470 L 500 540" stroke="#3b82f6" stroke-width="1.5" fill="none" marker-end="url(#arrow)"/><text x="330" y="460" text-anchor="middle" fill="#6b7280" font-size="11" font-family="-apple-system, 'Helvetica Neue', Arial, sans-serif">caching</text><path d="M 180 360 L 310 360 L 310 430 L 310 540" stroke="#3b82f6" stroke-width="1.5" fill="none" marker-end="url(#arrow)"/><text x="320" y="435" text-anchor="middle" fill="#6b7280" font-size="11" font-family="-apple-system, 'Helvetica Neue', Arial, sans-serif">enqueue</text><path d="M 330 360 L 310 360" stroke="#3b82f6" stroke-width="1.5" fill="none" marker-end="url(#arrow)"/><text x="340" y="348" text-anchor="middle" fill="#6b7280" font-size="11" font-family="-apple-system, 'Helvetica Neue', Arial, sans-serif">dequeue</text><path d="M 330 380 L 330 450 L 125 450 L 125 560" stroke="#3b82f6" stroke-width="1.5" fill="none" marker-end="url(#arrow)"/><path d="M 220 320 L 620 140" stroke="#3b82f6" stroke-width="1.5" fill="none" marker-end="url(#arrow)"/><text x="420" y="220" text-anchor="middle" fill="#6b7280" font-size="11" font-family="-apple-system, 'Helvetica Neue', Arial, sans-serif">send_webhook</text><path d="M 220 335 L 620 220" stroke="#3b82f6" stroke-width="1.5" fill="none" marker-end="url(#arrow)"/><text x="420" y="270" text-anchor="middle" fill="#6b7280" font-size="11" font-family="-apple-system, 'Helvetica Neue', Arial, sans-serif">auth</text><path d="M 220 345 L 620 300" stroke="#3b82f6" stroke-width="1.5" fill="none" marker-end="url(#arrow)"/><text x="420" y="315" text-anchor="middle" fill="#6b7280" font-size="11" font-family="-apple-system, 'Helvetica Neue', Arial, sans-serif">auth</text><path d="M 220 355 L 620 380" stroke="#3b82f6" stroke-width="1.5" fill="none" marker-end="url(#arrow)"/><text x="420" y="360" text-anchor="middle" fill="#6b7280" font-size="11" font-family="-apple-system, 'Helvetica Neue', Arial, sans-serif">sync</text><path d="M 220 365 L 620 460" stroke="#3b82f6" stroke-width="1.5" fill="none" marker-end="url(#arrow)"/><text x="420" y="410" text-anchor="middle" fill="#6b7280" font-size="11" font-family="-apple-system, 'Helvetica Neue', Arial, sans-serif">/metrics</text></svg>
