<svg xmlns="http://www.w3.org/2000/svg" width="900" height="620" viewBox="0 0 900 620" font-family="-apple-system, 'Helvetica Neue', Arial, sans-serif">
<defs>
<marker id="arrow" markerWidth="10" markerHeight="7" refX="9" refY="3.5" orient="auto">
  <polygon points="0 0.5, 8.5 3.5, 0 6.5" fill="#3b82f6"/>
</marker>
<marker id="arrow-rev" markerWidth="10" markerHeight="7" refX="1" refY="3.5" orient="auto">
  <polygon points="8.5 0.5, 0 3.5, 8.5 6.5" fill="#3b82f6"/>
</marker>
</defs>
<rect width="900" height="620" fill="#ffffff"/>
<text x="20" y="30" fill="#6b7280" font-size="12" font-family="-apple-system, 'Helvetica Neue', Arial, sans-serif">netbox-notification-flow — 通知機制流程</text><rect x="330" y="60" width="240" height="40" rx="6" fill="#f9fafb" stroke="#e5e7eb" stroke-width="1.5"/><text x="450" y="80" text-anchor="middle" dominant-baseline="central" fill="#111827" font-size="13" font-family="-apple-system, 'Helvetica Neue', Arial, sans-serif">物件變更事件</text><line x1="450" y1="100" x2="450" y2="140" stroke="#3b82f6" stroke-width="1.5" marker-end="url(#arrow)"/><polygon points="450,125 560,160 450,195 340,160" fill="#f9fafb" stroke="#e5e7eb" stroke-width="1.5"/><text x="450" y="160" text-anchor="middle" dominant-baseline="central" fill="#111827" font-size="13" font-family="-apple-system, 'Helvetica Neue', Arial, sans-serif">Subscription 存在?</text><path d="M 340 160 L 200 160 L 200 300" stroke="#3b82f6" stroke-width="1.5" fill="none" marker-end="url(#arrow)"/><text x="260" y="150" text-anchor="middle" fill="#6b7280" font-size="11" font-family="-apple-system, 'Helvetica Neue', Arial, sans-serif">是</text><rect x="100" y="300" width="200" height="40" rx="6" fill="#f9fafb" stroke="#e5e7eb" stroke-width="1.5"/><text x="200" y="320" text-anchor="middle" dominant-baseline="central" fill="#111827" font-size="13" font-family="-apple-system, 'Helvetica Neue', Arial, sans-serif">建立 Notification</text><path d="M 560 160 L 700 160 L 700 300" stroke="#3b82f6" stroke-width="1.5" fill="none" marker-end="url(#arrow)"/><text x="635" y="150" text-anchor="middle" fill="#6b7280" font-size="11" font-family="-apple-system, 'Helvetica Neue', Arial, sans-serif">否</text><rect x="600" y="300" width="200" height="40" rx="6" fill="#f9fafb" stroke="#e5e7eb" stroke-width="1.5"/><text x="700" y="320" text-anchor="middle" dominant-baseline="central" fill="#111827" font-size="13" font-family="-apple-system, 'Helvetica Neue', Arial, sans-serif">檢查 EventRule</text><path d="M 700 340 L 700 380" stroke="#3b82f6" stroke-width="1.5" fill="none" marker-end="url(#arrow)"/><text x="720" y="362" text-anchor="middle" fill="#6b7280" font-size="11" font-family="-apple-system, 'Helvetica Neue', Arial, sans-serif">匹配</text><rect x="600" y="380" width="200" height="40" rx="6" fill="#f9fafb" stroke="#e5e7eb" stroke-width="1.5"/><text x="700" y="400" text-anchor="middle" dominant-baseline="central" fill="#111827" font-size="13" font-family="-apple-system, 'Helvetica Neue', Arial, sans-serif">NotificationGroup.notify</text><line x1="700" y1="420" x2="700" y2="460" stroke="#3b82f6" stroke-width="1.5" marker-end="url(#arrow)"/><rect x="580" y="460" width="240" height="40" rx="6" fill="#f9fafb" stroke="#e5e7eb" stroke-width="1.5"/><text x="700" y="480" text-anchor="middle" dominant-baseline="central" fill="#111827" font-size="13" font-family="-apple-system, 'Helvetica Neue', Arial, sans-serif">為每位 member 建立 Notification</text><path d="M 200 340 L 200 520 L 330 520" stroke="#3b82f6" stroke-width="1.5" fill="none" marker-end="url(#arrow)"/><path d="M 700 500 L 700 520 L 570 520" stroke="#3b82f6" stroke-width="1.5" fill="none" marker-end="url(#arrow)"/><rect x="330" y="500" width="240" height="40" rx="6" fill="#f9fafb" stroke="#e5e7eb" stroke-width="1.5"/><text x="450" y="520" text-anchor="middle" dominant-baseline="central" fill="#111827" font-size="13" font-family="-apple-system, 'Helvetica Neue', Arial, sans-serif">使用者 Dashboard</text><line x1="450" y1="540" x2="450" y2="570" stroke="#3b82f6" stroke-width="1.5" marker-end="url(#arrow)"/><rect x="330" y="570" width="240" height="40" rx="6" fill="#f9fafb" stroke="#e5e7eb" stroke-width="1.5"/><text x="450" y="590" text-anchor="middle" dominant-baseline="central" fill="#111827" font-size="13" font-family="-apple-system, 'Helvetica Neue', Arial, sans-serif">標記已讀 / 未讀</text></svg>
