<?xml version="1.0" encoding="utf-8" ?>
<svg baseProfile="full" height="200" version="1.1" width="1400" xmlns="http://www.w3.org/2000/svg" xmlns:ev="http://www.w3.org/2001/xml-events" xmlns:xlink="http://www.w3.org/1999/xlink"><defs><marker id="arrow" markerHeight="7" markerWidth="10" orient="auto" refX="9" refY="3.5"><polygon fill="#3b82f6" points="0,0 10,3.5 0,7" /></marker></defs><rect fill="#ffffff" height="200" width="1400" x="0" y="0" /><text fill="#111827" font-family="-apple-system, 'Helvetica Neue', Arial, sans-serif" font-size="15" font-weight="700" text-anchor="middle" x="700.0" y="28">NetBox Middleware Pipeline（請求處理順序）</text><rect fill="#f0f4ff" height="48" rx="5" ry="5" stroke="#c7d2fe" stroke-width="1.5" width="78" x="18" y="95" /><text fill="#111827" font-family="-apple-system, 'Helvetica Neue', Arial, sans-serif" font-size="10" text-anchor="middle" x="57.0" y="112.0">HTTP</text><text fill="#111827" font-family="-apple-system, 'Helvetica Neue', Arial, sans-serif" font-size="10" text-anchor="middle" x="57.0" y="126.0">Request</text><line marker-end="url(#arrow)" stroke="#3b82f6" stroke-width="1.5" x1="96" x2="108" y1="119.0" y2="119.0" /><rect fill="#f9fafb" height="48" rx="5" ry="5" stroke="#e5e7eb" stroke-width="1.5" width="78" x="110" y="95" /><text fill="#111827" font-family="-apple-system, 'Helvetica Neue', Arial, sans-serif" font-size="10" text-anchor="middle" x="149.0" y="119.0">Cors</text><line marker-end="url(#arrow)" stroke="#3b82f6" stroke-width="1.5" x1="188" x2="200" y1="119.0" y2="119.0" /><rect fill="#f9fafb" height="48" rx="5" ry="5" stroke="#e5e7eb" stroke-width="1.5" width="78" x="202" y="95" /><text fill="#111827" font-family="-apple-system, 'Helvetica Neue', Arial, sans-serif" font-size="10" text-anchor="middle" x="241.0" y="119.0">Session</text><line marker-end="url(#arrow)" stroke="#3b82f6" stroke-width="1.5" x1="280" x2="292" y1="119.0" y2="119.0" /><rect fill="#f9fafb" height="48" rx="5" ry="5" stroke="#e5e7eb" stroke-width="1.5" width="78" x="294" y="95" /><text fill="#111827" font-family="-apple-system, 'Helvetica Neue', Arial, sans-serif" font-size="10" text-anchor="middle" x="333.0" y="119.0">Locale</text><line marker-end="url(#arrow)" stroke="#3b82f6" stroke-width="1.5" x1="372" x2="384" y1="119.0" y2="119.0" /><rect fill="#f9fafb" height="48" rx="5" ry="5" stroke="#e5e7eb" stroke-width="1.5" width="78" x="386" y="95" /><text fill="#111827" font-family="-apple-system, 'Helvetica Neue', Arial, sans-serif" font-size="10" text-anchor="middle" x="425.0" y="119.0">Common</text><line marker-end="url(#arrow)" stroke="#3b82f6" stroke-width="1.5" x1="464" x2="476" y1="119.0" y2="119.0" /><rect fill="#f9fafb" height="48" rx="5" ry="5" stroke="#e5e7eb" stroke-width="1.5" width="78" x="478" y="95" /><text fill="#111827" font-family="-apple-system, 'Helvetica Neue', Arial, sans-serif" font-size="10" text-anchor="middle" x="517.0" y="119.0">CSRF</text><line marker-end="url(#arrow)" stroke="#3b82f6" stroke-width="1.5" x1="556" x2="568" y1="119.0" y2="119.0" /><rect fill="#f9fafb" height="48" rx="5" ry="5" stroke="#e5e7eb" stroke-width="1.5" width="78" x="570" y="95" /><text fill="#111827" font-family="-apple-system, 'Helvetica Neue', Arial, sans-serif" font-size="10" text-anchor="middle" x="609.0" y="119.0">Auth</text><line marker-end="url(#arrow)" stroke="#3b82f6" stroke-width="1.5" x1="648" x2="660" y1="119.0" y2="119.0" /><rect fill="#f9fafb" height="48" rx="5" ry="5" stroke="#e5e7eb" stroke-width="1.5" width="78" x="662" y="95" /><text fill="#111827" font-family="-apple-system, 'Helvetica Neue', Arial, sans-serif" font-size="10" text-anchor="middle" x="701.0" y="119.0">Message</text><line marker-end="url(#arrow)" stroke="#3b82f6" stroke-width="1.5" x1="740" x2="752" y1="119.0" y2="119.0" /><rect fill="#f9fafb" height="48" rx="5" ry="5" stroke="#e5e7eb" stroke-width="1.5" width="78" x="754" y="95" /><text fill="#111827" font-family="-apple-system, 'Helvetica Neue', Arial, sans-serif" font-size="10" text-anchor="middle" x="793.0" y="119.0">XFrame</text><line marker-end="url(#arrow)" stroke="#3b82f6" stroke-width="1.5" x1="832" x2="844" y1="119.0" y2="119.0" /><rect fill="#f9fafb" height="48" rx="5" ry="5" stroke="#e5e7eb" stroke-width="1.5" width="78" x="846" y="95" /><text fill="#111827" font-family="-apple-system, 'Helvetica Neue', Arial, sans-serif" font-size="10" text-anchor="middle" x="885.0" y="119.0">Security</text><line marker-end="url(#arrow)" stroke="#3b82f6" stroke-width="1.5" x1="924" x2="936" y1="119.0" y2="119.0" /><rect fill="#f9fafb" height="48" rx="5" ry="5" stroke="#e5e7eb" stroke-width="1.5" width="78" x="938" y="95" /><text fill="#111827" font-family="-apple-system, 'Helvetica Neue', Arial, sans-serif" font-size="10" text-anchor="middle" x="977.0" y="119.0">HTMX</text><line marker-end="url(#arrow)" stroke="#3b82f6" stroke-width="1.5" x1="1016" x2="1028" y1="119.0" y2="119.0" /><rect fill="#f9fafb" height="48" rx="5" ry="5" stroke="#e5e7eb" stroke-width="1.5" width="78" x="1030" y="95" /><text fill="#111827" font-family="-apple-system, 'Helvetica Neue', Arial, sans-serif" font-size="10" text-anchor="middle" x="1069.0" y="119.0">RemoteUser</text><line marker-end="url(#arrow)" stroke="#3b82f6" stroke-width="1.5" x1="1108" x2="1120" y1="119.0" y2="119.0" /><rect fill="#f9fafb" height="48" rx="5" ry="5" stroke="#e5e7eb" stroke-width="1.5" width="78" x="1122" y="95" /><text fill="#111827" font-family="-apple-system, 'Helvetica Neue', Arial, sans-serif" font-size="10" text-anchor="middle" x="1161.0" y="119.0">Core</text><line marker-end="url(#arrow)" stroke="#3b82f6" stroke-width="1.5" x1="1200" x2="1212" y1="119.0" y2="119.0" /><rect fill="#f9fafb" height="48" rx="5" ry="5" stroke="#e5e7eb" stroke-width="1.5" width="78" x="1214" y="95" /><text fill="#111827" font-family="-apple-system, 'Helvetica Neue', Arial, sans-serif" font-size="10" text-anchor="middle" x="1253.0" y="119.0">Maint.</text><line marker-end="url(#arrow)" stroke="#3b82f6" stroke-width="1.5" x1="1292" x2="1304" y1="119.0" y2="119.0" /><rect fill="#f0f4ff" height="48" rx="5" ry="5" stroke="#c7d2fe" stroke-width="1.5" width="78" x="1306" y="95" /><text fill="#111827" font-family="-apple-system, 'Helvetica Neue', Arial, sans-serif" font-size="10" text-anchor="middle" x="1345.0" y="119.0">View</text></svg>