<svg xmlns="http://www.w3.org/2000/svg" width="900" height="580" viewBox="0 0 900 580" font-family="-apple-system, 'Helvetica Neue', Arial, sans-serif">
<defs>
<marker id="arrow" markerWidth="10" markerHeight="7" refX="9" refY="3.5" orient="auto">
  <polygon points="0 0.5, 8.5 3.5, 0 6.5" fill="#3b82f6"/>
</marker>
<marker id="arrow-rev" markerWidth="10" markerHeight="7" refX="1" refY="3.5" orient="auto">
  <polygon points="8.5 0.5, 0 3.5, 8.5 6.5" fill="#3b82f6"/>
</marker>
</defs>
<rect width="900" height="580" fill="#ffffff"/>
<text x="20" y="30" fill="#6b7280" font-size="12" font-family="-apple-system, 'Helvetica Neue', Arial, sans-serif">netbox-notification-group — 通知群組觸發機制</text><rect x="310" y="60" width="280" height="40" rx="6" fill="#f9fafb" stroke="#e5e7eb" stroke-width="1.5"/><text x="450" y="80" text-anchor="middle" dominant-baseline="central" fill="#111827" font-size="13" font-family="-apple-system, 'Helvetica Neue', Arial, sans-serif">EventRule action_type=notification</text><line x1="450" y1="100" x2="450" y2="140" stroke="#3b82f6" stroke-width="1.5" marker-end="url(#arrow)"/><rect x="310" y="140" width="280" height="40" rx="6" fill="#f9fafb" stroke="#e5e7eb" stroke-width="1.5"/><text x="450" y="160" text-anchor="middle" dominant-baseline="central" fill="#111827" font-size="13" font-family="-apple-system, 'Helvetica Neue', Arial, sans-serif">NotificationGroup</text><line x1="450" y1="180" x2="450" y2="220" stroke="#3b82f6" stroke-width="1.5" marker-end="url(#arrow)"/><rect x="310" y="220" width="280" height="40" rx="6" fill="#f9fafb" stroke="#e5e7eb" stroke-width="1.5"/><text x="450" y="240" text-anchor="middle" dominant-baseline="central" fill="#111827" font-size="13" font-family="-apple-system, 'Helvetica Neue', Arial, sans-serif">members 計算 users ∪ group.users</text><line x1="450" y1="260" x2="450" y2="300" stroke="#3b82f6" stroke-width="1.5" marker-end="url(#arrow)"/><rect x="310" y="300" width="280" height="40" rx="6" fill="#f9fafb" stroke="#e5e7eb" stroke-width="1.5"/><text x="450" y="320" text-anchor="middle" dominant-baseline="central" fill="#111827" font-size="13" font-family="-apple-system, 'Helvetica Neue', Arial, sans-serif">Notification.update_or_create per user</text><rect x="80" y="220" width="220" height="40" rx="6" fill="#f9fafb" stroke="#e5e7eb" stroke-width="1.5"/><text x="190" y="240" text-anchor="middle" dominant-baseline="central" fill="#111827" font-size="13" font-family="-apple-system, 'Helvetica Neue', Arial, sans-serif">使用者訂閱</text><line x1="190" y1="260" x2="190" y2="300" stroke="#3b82f6" stroke-width="1.5" marker-end="url(#arrow)"/><rect x="80" y="300" width="220" height="40" rx="6" fill="#f9fafb" stroke="#e5e7eb" stroke-width="1.5"/><text x="190" y="320" text-anchor="middle" dominant-baseline="central" fill="#111827" font-size="13" font-family="-apple-system, 'Helvetica Neue', Arial, sans-serif">Subscription Model</text><line x1="190" y1="340" x2="190" y2="380" stroke="#3b82f6" stroke-width="1.5" marker-end="url(#arrow)"/><rect x="30" y="380" width="260" height="40" rx="6" fill="#f9fafb" stroke="#e5e7eb" stroke-width="1.5"/><text x="160" y="400" text-anchor="middle" dominant-baseline="central" fill="#111827" font-size="13" font-family="-apple-system, 'Helvetica Neue', Arial, sans-serif">物件變更時觸發個人通知</text><path d="M 160 420 L 160 460 L 310 460 L 310 440" stroke="#3b82f6" stroke-width="1.5" fill="none" marker-end="url(#arrow)"/><rect x="310" y="440" width="280" height="40" rx="6" fill="#f9fafb" stroke="#e5e7eb" stroke-width="1.5"/><text x="450" y="460" text-anchor="middle" dominant-baseline="central" fill="#111827" font-size="13" font-family="-apple-system, 'Helvetica Neue', Arial, sans-serif">使用者 Notification Dashboard</text><path d="M 450 340 L 450 440" stroke="#3b82f6" stroke-width="1.5" fill="none" marker-end="url(#arrow)"/><path d="M 160 420 L 160 460 L 310 460" stroke="#3b82f6" stroke-width="1.5" fill="none" marker-end="url(#arrow)"/></svg>
