<?xml version="1.0" encoding="utf-8" ?>
<svg baseProfile="full" height="460" version="1.1" width="900" xmlns="http://www.w3.org/2000/svg" xmlns:ev="http://www.w3.org/2001/xml-events" xmlns:xlink="http://www.w3.org/1999/xlink"><defs><marker id="inh" markerHeight="10" markerWidth="12" orient="auto" refX="1" refY="5"><polygon fill="#ffffff" points="0,0 12,5 0,10" stroke="#3b82f6" stroke-width="1.5" /></marker></defs><rect fill="#ffffff" height="460" width="900" x="0" y="0" /><text fill="#111827" font-family="-apple-system, 'Helvetica Neue', Arial, sans-serif" font-size="15" font-weight="700" text-anchor="middle" x="450.0" y="30">Serializer 繼承體系</text><rect fill="#f0f4ff" height="82" rx="6" ry="6" stroke="#c7d2fe" stroke-width="1.5" width="220" x="340.0" y="50" /><text fill="#111827" font-family="-apple-system, 'Helvetica Neue', Arial, sans-serif" font-size="12" font-weight="700" text-anchor="middle" x="450.0" y="70">BaseModelSerializer</text><line stroke="#e5e7eb" stroke-width="0.8" x1="348.0" x2="552.0" y1="82" y2="82" /><text fill="#6b7280" font-family="-apple-system, 'Helvetica Neue', Arial, sans-serif" font-size="9" x="350.0" y="96">url: HyperlinkedIdentityField</text><text fill="#6b7280" font-family="-apple-system, 'Helvetica Neue', Arial, sans-serif" font-size="9" x="350.0" y="109">display: SerializerMethodField</text><text fill="#6b7280" font-family="-apple-system, 'Helvetica Neue', Arial, sans-serif" font-size="9" x="350.0" y="122">__init__(nested, fields, omit)</text><text fill="#6b7280" font-family="-apple-system, 'Helvetica Neue', Arial, sans-serif" font-size="9" x="350.0" y="135">fields: property</text><rect fill="#f9fafb" height="52" rx="6" ry="6" stroke="#e5e7eb" stroke-width="1.5" width="220" x="340.0" y="190" /><text fill="#111827" font-family="-apple-system, 'Helvetica Neue', Arial, sans-serif" font-size="12" font-weight="700" text-anchor="middle" x="450.0" y="210">ValidatedModelSerializer</text><line stroke="#e5e7eb" stroke-width="0.8" x1="348.0" x2="552.0" y1="222" y2="222" /><text fill="#6b7280" font-family="-apple-system, 'Helvetica Neue', Arial, sans-serif" font-size="9" x="350.0" y="236">validate(data)</text><text fill="#6b7280" font-family="-apple-system, 'Helvetica Neue', Arial, sans-serif" font-size="9" x="350.0" y="249">full_clean()</text><rect fill="#f9fafb" height="55" rx="6" ry="6" stroke="#e5e7eb" stroke-width="1.5" width="180" x="40" y="230" /><text fill="#111827" font-family="-apple-system, 'Helvetica Neue', Arial, sans-serif" font-size="12" font-weight="700" text-anchor="middle" x="130.0" y="250">CustomFieldModel
Serializer</text><line stroke="#e5e7eb" stroke-width="0.8" x1="48" x2="212" y1="262" y2="262" /><text fill="#6b7280" font-family="-apple-system, 'Helvetica Neue', Arial, sans-serif" font-size="9" x="50" y="276">custom_fields</text><line marker-end="url(#inh)" stroke="#3b82f6" stroke-width="1.5" x1="220" x2="338.0" y1="257" y2="330" /><rect fill="#f9fafb" height="55" rx="6" ry="6" stroke="#e5e7eb" stroke-width="1.5" width="180" x="40" y="310" /><text fill="#111827" font-family="-apple-system, 'Helvetica Neue', Arial, sans-serif" font-size="12" font-weight="700" text-anchor="middle" x="130.0" y="330">TaggableModel
Serializer</text><line stroke="#e5e7eb" stroke-width="0.8" x1="48" x2="212" y1="342" y2="342" /><text fill="#6b7280" font-family="-apple-system, 'Helvetica Neue', Arial, sans-serif" font-size="9" x="50" y="356">tags</text><text fill="#6b7280" font-family="-apple-system, 'Helvetica Neue', Arial, sans-serif" font-size="9" x="50" y="369">create()</text><text fill="#6b7280" font-family="-apple-system, 'Helvetica Neue', Arial, sans-serif" font-size="9" x="50" y="382">update()</text><line marker-end="url(#inh)" stroke="#3b82f6" stroke-width="1.5" x1="220" x2="338.0" y1="337" y2="330" /><rect fill="#f9fafb" height="55" rx="6" ry="6" stroke="#e5e7eb" stroke-width="1.5" width="180" x="40" y="385" /><text fill="#111827" font-family="-apple-system, 'Helvetica Neue', Arial, sans-serif" font-size="12" font-weight="700" text-anchor="middle" x="130.0" y="405">ChangeLogMessage
Serializer</text><line stroke="#e5e7eb" stroke-width="0.8" x1="48" x2="212" y1="417" y2="417" /><text fill="#6b7280" font-family="-apple-system, 'Helvetica Neue', Arial, sans-serif" font-size="9" x="50" y="431">changelog_message: str</text><line marker-end="url(#inh)" stroke="#3b82f6" stroke-width="1.5" x1="220" x2="338.0" y1="412" y2="330" /><rect fill="#f0f4ff" height="46" rx="6" ry="6" stroke="#c7d2fe" stroke-width="1.5" width="220" x="340.0" y="300" /><text fill="#111827" font-family="-apple-system, 'Helvetica Neue', Arial, sans-serif" font-size="12" font-weight="700" text-anchor="middle" x="450.0" y="320">NetBoxModelSerializer</text><rect fill="#f9fafb" height="46" rx="6" ry="6" stroke="#e5e7eb" stroke-width="1.5" width="220" x="340.0" y="400" /><text fill="#111827" font-family="-apple-system, 'Helvetica Neue', Arial, sans-serif" font-size="12" font-weight="700" text-anchor="middle" x="450.0" y="420">PrimaryModelSerializer</text><line stroke="#e5e7eb" stroke-width="0.8" x1="348.0" x2="552.0" y1="432" y2="432" /><text fill="#6b7280" font-family="-apple-system, 'Helvetica Neue', Arial, sans-serif" font-size="9" x="350.0" y="446">&lt;&lt;OwnerMixin&gt;&gt;</text><line marker-end="url(#inh)" stroke="#3b82f6" stroke-width="1.5" x1="450.0" x2="450.0" y1="132" y2="188" /><line marker-end="url(#inh)" stroke="#3b82f6" stroke-width="1.5" x1="450.0" x2="450.0" y1="242" y2="298" /><line marker-end="url(#inh)" stroke="#3b82f6" stroke-width="1.5" x1="450.0" x2="450.0" y1="346" y2="398" /></svg>