<svg xmlns="http://www.w3.org/2000/svg" width="1600" height="820" viewBox="0 0 1600 820" font-family="-apple-system, 'Helvetica Neue', Arial, sans-serif">
<defs>
<marker id="arrow" markerWidth="10" markerHeight="7" refX="9" refY="3.5" orient="auto">
  <polygon points="0 0.5, 8.5 3.5, 0 6.5" fill="#3b82f6"/>
</marker>
<marker id="arrow-rev" markerWidth="10" markerHeight="7" refX="1" refY="3.5" orient="auto">
  <polygon points="8.5 0.5, 0 3.5, 8.5 6.5" fill="#3b82f6"/>
</marker>
</defs>
<rect width="1600" height="820" fill="#ffffff"/>
<text x="20" y="30" fill="#6b7280" font-size="12" font-family="-apple-system, 'Helvetica Neue', Arial, sans-serif">netbox-webhook-flow — Webhook / EventRule 執行流程（Sequence）</text><rect x="35" y="50" width="150" height="44" rx="6" fill="#f9fafb" stroke="#e5e7eb" stroke-width="1.5"/><text x="110" y="72" text-anchor="middle" dominant-baseline="central" fill="#111827" font-size="11" font-family="-apple-system, 'Helvetica Neue', Arial, sans-serif">使用者/API</text><line x1="110" y1="104" x2="110" y2="760" stroke="#e5e7eb" stroke-width="1.5" stroke-dasharray="5,3"/><rect x="235" y="50" width="150" height="54" rx="6" fill="#f9fafb" stroke="#e5e7eb" stroke-width="1.5"/><text x="310" y="69" text-anchor="middle" dominant-baseline="central" fill="#111827" font-size="11" font-family="-apple-system, 'Helvetica Neue', Arial, sans-serif">EventTracking</text><text x="310" y="87" text-anchor="middle" dominant-baseline="central" fill="#6b7280" font-size="11" font-family="-apple-system, 'Helvetica Neue', Arial, sans-serif">Middleware</text><line x1="310" y1="104" x2="310" y2="760" stroke="#e5e7eb" stroke-width="1.5" stroke-dasharray="5,3"/><rect x="435" y="50" width="150" height="44" rx="6" fill="#f9fafb" stroke="#e5e7eb" stroke-width="1.5"/><text x="510" y="72" text-anchor="middle" dominant-baseline="central" fill="#111827" font-size="11" font-family="-apple-system, 'Helvetica Neue', Arial, sans-serif">enqueue_event()</text><line x1="510" y1="104" x2="510" y2="760" stroke="#e5e7eb" stroke-width="1.5" stroke-dasharray="5,3"/><rect x="635" y="50" width="150" height="54" rx="6" fill="#f9fafb" stroke="#e5e7eb" stroke-width="1.5"/><text x="710" y="69" text-anchor="middle" dominant-baseline="central" fill="#111827" font-size="11" font-family="-apple-system, 'Helvetica Neue', Arial, sans-serif">process_event</text><text x="710" y="87" text-anchor="middle" dominant-baseline="central" fill="#6b7280" font-size="11" font-family="-apple-system, 'Helvetica Neue', Arial, sans-serif">_queue()</text><line x1="710" y1="104" x2="710" y2="760" stroke="#e5e7eb" stroke-width="1.5" stroke-dasharray="5,3"/><rect x="835" y="50" width="150" height="54" rx="6" fill="#f9fafb" stroke="#e5e7eb" stroke-width="1.5"/><text x="910" y="69" text-anchor="middle" dominant-baseline="central" fill="#111827" font-size="11" font-family="-apple-system, 'Helvetica Neue', Arial, sans-serif">process_event</text><text x="910" y="87" text-anchor="middle" dominant-baseline="central" fill="#6b7280" font-size="11" font-family="-apple-system, 'Helvetica Neue', Arial, sans-serif">_rules()</text><line x1="910" y1="104" x2="910" y2="760" stroke="#e5e7eb" stroke-width="1.5" stroke-dasharray="5,3"/><rect x="1035" y="50" width="150" height="44" rx="6" fill="#f9fafb" stroke="#e5e7eb" stroke-width="1.5"/><text x="1110" y="72" text-anchor="middle" dominant-baseline="central" fill="#111827" font-size="11" font-family="-apple-system, 'Helvetica Neue', Arial, sans-serif">Redis Queue</text><line x1="1110" y1="104" x2="1110" y2="760" stroke="#e5e7eb" stroke-width="1.5" stroke-dasharray="5,3"/><rect x="1235" y="50" width="150" height="44" rx="6" fill="#f9fafb" stroke="#e5e7eb" stroke-width="1.5"/><text x="1310" y="72" text-anchor="middle" dominant-baseline="central" fill="#111827" font-size="11" font-family="-apple-system, 'Helvetica Neue', Arial, sans-serif">send_webhook()</text><line x1="1310" y1="104" x2="1310" y2="760" stroke="#e5e7eb" stroke-width="1.5" stroke-dasharray="5,3"/><rect x="1415" y="50" width="150" height="44" rx="6" fill="#f9fafb" stroke="#e5e7eb" stroke-width="1.5"/><text x="1490" y="72" text-anchor="middle" dominant-baseline="central" fill="#111827" font-size="11" font-family="-apple-system, 'Helvetica Neue', Arial, sans-serif">外部系統</text><line x1="1490" y1="104" x2="1490" y2="760" stroke="#e5e7eb" stroke-width="1.5" stroke-dasharray="5,3"/><line x1="110" y1="160" x2="310" y2="160" stroke="#3b82f6" stroke-width="1.5" marker-end="url(#arrow)"/><text x="210" y="152" text-anchor="middle" fill="#6b7280" font-size="11" font-family="-apple-system, 'Helvetica Neue', Arial, sans-serif">HTTP Request（CRUD 操作）</text><line x1="310" y1="210" x2="510" y2="210" stroke="#3b82f6" stroke-width="1.5" marker-end="url(#arrow)"/><text x="410" y="202" text-anchor="middle" fill="#6b7280" font-size="11" font-family="-apple-system, 'Helvetica Neue', Arial, sans-serif">物件變更偵測</text><path d="M 510 260 C 560 260, 560 290, 510 290" stroke="#3b82f6" stroke-width="1.5" fill="none" marker-end="url(#arrow)"/><text x="565" y="278" fill="#6b7280" font-size="11" font-family="-apple-system, 'Helvetica Neue', Arial, sans-serif">合併同一 Request 中的重複事件</text><line x1="310" y1="320" x2="710" y2="320" stroke="#3b82f6" stroke-width="1.5" marker-end="url(#arrow)"/><text x="510" y="312" text-anchor="middle" fill="#6b7280" font-size="11" font-family="-apple-system, 'Helvetica Neue', Arial, sans-serif">Request 完成後 flush_events()</text><line x1="710" y1="370" x2="910" y2="370" stroke="#3b82f6" stroke-width="1.5" marker-end="url(#arrow)"/><text x="810" y="362" text-anchor="middle" fill="#6b7280" font-size="11" font-family="-apple-system, 'Helvetica Neue', Arial, sans-serif">逐事件比對 EventRule</text><path d="M 910 420 C 960 420, 960 450, 910 450" stroke="#3b82f6" stroke-width="1.5" fill="none" marker-end="url(#arrow)"/><text x="965" y="438" fill="#6b7280" font-size="11" font-family="-apple-system, 'Helvetica Neue', Arial, sans-serif">eval_conditions(data)</text><rect x="200" y="470" width="1350" height="230" rx="6" fill="none" stroke="#c7d2fe" stroke-width="1.5" stroke-dasharray="6,3"/><text x="210" y="488" fill="#6b7280" font-size="11" font-family="-apple-system, 'Helvetica Neue', Arial, sans-serif">action_type</text><line x1="910" y1="510" x2="1110" y2="510" stroke="#3b82f6" stroke-width="1.5" marker-end="url(#arrow)"/><text x="1010" y="502" text-anchor="middle" fill="#6b7280" font-size="11" font-family="-apple-system, 'Helvetica Neue', Arial, sans-serif">enqueue send_webhook</text><line x1="1110" y1="555" x2="1310" y2="555" stroke="#3b82f6" stroke-width="1.5" marker-end="url(#arrow)"/><text x="1210" y="547" text-anchor="middle" fill="#6b7280" font-size="11" font-family="-apple-system, 'Helvetica Neue', Arial, sans-serif">Worker 執行</text><line x1="1310" y1="600" x2="1490" y2="600" stroke="#3b82f6" stroke-width="1.5" marker-end="url(#arrow)"/><text x="1400" y="592" text-anchor="middle" fill="#6b7280" font-size="11" font-family="-apple-system, 'Helvetica Neue', Arial, sans-serif">HTTP POST + HMAC-SHA512</text><line x1="200" y1="640" x2="1550" y2="640" stroke="#c7d2fe" stroke-width="1" stroke-dasharray="4,2"/><text x="210" y="658" fill="#6b7280" font-size="11" font-family="-apple-system, 'Helvetica Neue', Arial, sans-serif">action_type=script/notification</text><line x1="910" y1="675" x2="1110" y2="675" stroke="#3b82f6" stroke-width="1.5" marker-end="url(#arrow)"/><text x="1010" y="667" text-anchor="middle" fill="#6b7280" font-size="11" font-family="-apple-system, 'Helvetica Neue', Arial, sans-serif">enqueue ScriptJob / NotificationGroup.notify</text></svg>
