<svg xmlns="http://www.w3.org/2000/svg" width="900" height="450" viewBox="0 0 900 450" font-family="-apple-system, 'Helvetica Neue', Arial, sans-serif">
<defs>
<marker id="arrow" markerWidth="10" markerHeight="7" refX="9" refY="3.5" orient="auto">
  <polygon points="0 0.5, 8.5 3.5, 0 6.5" fill="#3b82f6"/>
</marker>
<marker id="arrow-rev" markerWidth="10" markerHeight="7" refX="1" refY="3.5" orient="auto">
  <polygon points="8.5 0.5, 0 3.5, 8.5 6.5" fill="#3b82f6"/>
</marker>
</defs>
<rect width="900" height="450" fill="#ffffff"/>
<text x="20" y="30" fill="#6b7280" font-size="12" font-family="-apple-system, 'Helvetica Neue', Arial, sans-serif">netbox-ipam-erd — IPAM 核心模型關聯</text><rect x="50" y="80" width="140" height="40" rx="6" fill="#f9fafb" stroke="#e5e7eb" stroke-width="1.5"/><text x="120" y="100" text-anchor="middle" dominant-baseline="central" fill="#111827" font-size="13" font-family="-apple-system, 'Helvetica Neue', Arial, sans-serif">VRF</text><rect x="260" y="80" width="140" height="40" rx="6" fill="#f9fafb" stroke="#e5e7eb" stroke-width="1.5"/><text x="330" y="100" text-anchor="middle" dominant-baseline="central" fill="#111827" font-size="13" font-family="-apple-system, 'Helvetica Neue', Arial, sans-serif">RouteTarget</text><rect x="500" y="80" width="140" height="40" rx="6" fill="#f9fafb" stroke="#e5e7eb" stroke-width="1.5"/><text x="570" y="100" text-anchor="middle" dominant-baseline="central" fill="#111827" font-size="13" font-family="-apple-system, 'Helvetica Neue', Arial, sans-serif">IPAddress</text><rect x="50" y="220" width="140" height="40" rx="6" fill="#f9fafb" stroke="#e5e7eb" stroke-width="1.5"/><text x="120" y="240" text-anchor="middle" dominant-baseline="central" fill="#111827" font-size="13" font-family="-apple-system, 'Helvetica Neue', Arial, sans-serif">Aggregate</text><rect x="300" y="220" width="140" height="40" rx="6" fill="#f9fafb" stroke="#e5e7eb" stroke-width="1.5"/><text x="370" y="240" text-anchor="middle" dominant-baseline="central" fill="#111827" font-size="13" font-family="-apple-system, 'Helvetica Neue', Arial, sans-serif">Prefix</text><rect x="550" y="220" width="140" height="40" rx="6" fill="#f9fafb" stroke="#e5e7eb" stroke-width="1.5"/><text x="620" y="240" text-anchor="middle" dominant-baseline="central" fill="#111827" font-size="13" font-family="-apple-system, 'Helvetica Neue', Arial, sans-serif">IPRange</text><rect x="50" y="360" width="140" height="40" rx="6" fill="#f9fafb" stroke="#e5e7eb" stroke-width="1.5"/><text x="120" y="380" text-anchor="middle" dominant-baseline="central" fill="#111827" font-size="13" font-family="-apple-system, 'Helvetica Neue', Arial, sans-serif">RIR</text><path d="M 190 120 L 190 200 L 300 200 L 300 220" stroke="#3b82f6" stroke-width="1.5" fill="none" marker-end="url(#arrow)"/><text x="240" y="185" text-anchor="middle" fill="#6b7280" font-size="11" font-family="-apple-system, 'Helvetica Neue', Arial, sans-serif">contains</text><path d="M 190 80 L 500 80" stroke="#3b82f6" stroke-width="1.5" fill="none" marker-end="url(#arrow)"/><text x="340" y="70" text-anchor="middle" fill="#6b7280" font-size="11" font-family="-apple-system, 'Helvetica Neue', Arial, sans-serif">contains</text><path d="M 260 95 L 190 95" stroke="#3b82f6" stroke-width="1.5" fill="none" marker-end="url(#arrow)"/><text x="225" y="83" text-anchor="middle" fill="#6b7280" font-size="11" font-family="-apple-system, 'Helvetica Neue', Arial, sans-serif">import/export_targets</text><path d="M 440 230 L 500 230" stroke="#3b82f6" stroke-width="1.5" fill="none" marker-end="url(#arrow)"/><text x="465" y="218" text-anchor="middle" fill="#6b7280" font-size="11" font-family="-apple-system, 'Helvetica Neue', Arial, sans-serif">child IPs</text><path d="M 440 250 L 530 250 L 530 260 L 550 260" stroke="#3b82f6" stroke-width="1.5" fill="none" marker-end="url(#arrow)"/><text x="490" y="248" text-anchor="middle" fill="#6b7280" font-size="11" font-family="-apple-system, 'Helvetica Neue', Arial, sans-serif">child ranges</text><path d="M 190 235 L 300 235" stroke="#3b82f6" stroke-width="1.5" fill="none" marker-end="url(#arrow)"/><text x="245" y="225" text-anchor="middle" fill="#6b7280" font-size="11" font-family="-apple-system, 'Helvetica Neue', Arial, sans-serif">contains</text><line x1="120" y1="360" x2="120" y2="260" stroke="#3b82f6" stroke-width="1.5" marker-end="url(#arrow)"/><text x="135" y="315" fill="#6b7280" font-size="11" font-family="-apple-system, 'Helvetica Neue', Arial, sans-serif">belongs to</text></svg>
