<svg xmlns="http://www.w3.org/2000/svg" width="1000" height="680" viewBox="0 0 1000 680" font-family="-apple-system, 'Helvetica Neue', Arial, sans-serif">
<defs>
<marker id="arrow" markerWidth="10" markerHeight="7" refX="9" refY="3.5" orient="auto">
  <polygon points="0 0.5, 8.5 3.5, 0 6.5" fill="#3b82f6"/>
</marker>
<marker id="arrow-rev" markerWidth="10" markerHeight="7" refX="1" refY="3.5" orient="auto">
  <polygon points="8.5 0.5, 0 3.5, 8.5 6.5" fill="#3b82f6"/>
</marker>
</defs>
<rect width="1000" height="680" fill="#ffffff"/>
<text x="20" y="30" fill="#6b7280" font-size="12" font-family="-apple-system, 'Helvetica Neue', Arial, sans-serif">netbox-script-execution — Script 執行流程</text><rect x="350" y="60" width="300" height="40" rx="6" fill="#f9fafb" stroke="#e5e7eb" stroke-width="1.5"/><text x="500" y="80" text-anchor="middle" dominant-baseline="central" fill="#111827" font-size="13" font-family="-apple-system, 'Helvetica Neue', Arial, sans-serif">ScriptModule (ManagedFile proxy)</text><line x1="500" y1="100" x2="500" y2="140" stroke="#3b82f6" stroke-width="1.5" marker-end="url(#arrow)"/><rect x="350" y="140" width="300" height="40" rx="6" fill="#f9fafb" stroke="#e5e7eb" stroke-width="1.5"/><text x="500" y="160" text-anchor="middle" dominant-baseline="central" fill="#111827" font-size="13" font-family="-apple-system, 'Helvetica Neue', Arial, sans-serif">module_scripts dict</text><line x1="500" y1="180" x2="500" y2="220" stroke="#3b82f6" stroke-width="1.5" marker-end="url(#arrow)"/><rect x="350" y="220" width="300" height="40" rx="6" fill="#f9fafb" stroke="#e5e7eb" stroke-width="1.5"/><text x="500" y="240" text-anchor="middle" dominant-baseline="central" fill="#111827" font-size="13" font-family="-apple-system, 'Helvetica Neue', Arial, sans-serif">Script model</text><line x1="500" y1="260" x2="500" y2="300" stroke="#3b82f6" stroke-width="1.5" marker-end="url(#arrow)"/><rect x="350" y="300" width="300" height="40" rx="6" fill="#f9fafb" stroke="#e5e7eb" stroke-width="1.5"/><text x="500" y="320" text-anchor="middle" dominant-baseline="central" fill="#111827" font-size="13" font-family="-apple-system, 'Helvetica Neue', Arial, sans-serif">BaseScript subclass</text><line x1="500" y1="340" x2="500" y2="380" stroke="#3b82f6" stroke-width="1.5" marker-end="url(#arrow)"/><rect x="350" y="380" width="300" height="40" rx="6" fill="#f9fafb" stroke="#e5e7eb" stroke-width="1.5"/><text x="500" y="400" text-anchor="middle" dominant-baseline="central" fill="#111827" font-size="13" font-family="-apple-system, 'Helvetica Neue', Arial, sans-serif">執行自訂邏輯</text><rect x="200" y="480" width="200" height="40" rx="6" fill="#f9fafb" stroke="#e5e7eb" stroke-width="1.5"/><text x="300" y="500" text-anchor="middle" dominant-baseline="central" fill="#111827" font-size="13" font-family="-apple-system, 'Helvetica Neue', Arial, sans-serif">messages list</text><path d="M 350 420 L 300 420 L 300 480" stroke="#3b82f6" stroke-width="1.5" fill="none" marker-end="url(#arrow)"/><text x="290" y="450" text-anchor="middle" fill="#6b7280" font-size="11" font-family="-apple-system, 'Helvetica Neue', Arial, sans-serif">log_*</text><rect x="580" y="480" width="220" height="40" rx="6" fill="#f9fafb" stroke="#e5e7eb" stroke-width="1.5"/><text x="690" y="500" text-anchor="middle" dominant-baseline="central" fill="#111827" font-size="13" font-family="-apple-system, 'Helvetica Neue', Arial, sans-serif">DB Transaction</text><path d="M 650 420 L 700 420 L 700 480" stroke="#3b82f6" stroke-width="1.5" fill="none" marker-end="url(#arrow)"/><text x="700" y="450" text-anchor="middle" fill="#6b7280" font-size="11" font-family="-apple-system, 'Helvetica Neue', Arial, sans-serif">commit=True</text><rect x="350" y="590" width="300" height="40" rx="6" fill="#f9fafb" stroke="#e5e7eb" stroke-width="1.5"/><text x="500" y="610" text-anchor="middle" dominant-baseline="central" fill="#111827" font-size="13" font-family="-apple-system, 'Helvetica Neue', Arial, sans-serif">Job 記錄完成狀態</text><path d="M 300 520 L 300 610 L 350 610" stroke="#3b82f6" stroke-width="1.5" fill="none" marker-end="url(#arrow)"/><path d="M 690 520 L 690 610 L 650 610" stroke="#3b82f6" stroke-width="1.5" fill="none" marker-end="url(#arrow)"/></svg>
