<svg xmlns="http://www.w3.org/2000/svg" width="1600" height="720" viewBox="0 0 1600 720" font-family="-apple-system, 'Helvetica Neue', Arial, sans-serif">
<defs>
<marker id="arrow" markerWidth="10" markerHeight="7" refX="9" refY="3.5" orient="auto">
  <polygon points="0 0.5, 8.5 3.5, 0 6.5" fill="#3b82f6"/>
</marker>
<marker id="arrow-rev" markerWidth="10" markerHeight="7" refX="1" refY="3.5" orient="auto">
  <polygon points="8.5 0.5, 0 3.5, 8.5 6.5" fill="#3b82f6"/>
</marker>
</defs>
<rect width="1600" height="720" fill="#ffffff"/>
<text x="20" y="30" fill="#6b7280" font-size="12" font-family="-apple-system, 'Helvetica Neue', Arial, sans-serif">netbox-change-log-flow — 變更日誌記錄流程（Sequence）</text><rect x="50" y="50" width="160" height="44" rx="6" fill="#f9fafb" stroke="#e5e7eb" stroke-width="1.5"/><text x="130" y="72" text-anchor="middle" dominant-baseline="central" fill="#111827" font-size="12" font-family="-apple-system, 'Helvetica Neue', Arial, sans-serif">Client</text><line x1="130" y1="94" x2="130" y2="660" stroke="#e5e7eb" stroke-width="1.5" stroke-dasharray="5,3"/><rect x="250" y="50" width="160" height="44" rx="6" fill="#f9fafb" stroke="#e5e7eb" stroke-width="1.5"/><text x="330" y="72" text-anchor="middle" dominant-baseline="central" fill="#111827" font-size="12" font-family="-apple-system, 'Helvetica Neue', Arial, sans-serif">CoreMiddleware</text><line x1="330" y1="94" x2="330" y2="660" stroke="#e5e7eb" stroke-width="1.5" stroke-dasharray="5,3"/><rect x="450" y="50" width="160" height="44" rx="6" fill="#f9fafb" stroke="#e5e7eb" stroke-width="1.5"/><text x="530" y="72" text-anchor="middle" dominant-baseline="central" fill="#111827" font-size="12" font-family="-apple-system, 'Helvetica Neue', Arial, sans-serif">event_tracking</text><line x1="530" y1="94" x2="530" y2="660" stroke="#e5e7eb" stroke-width="1.5" stroke-dasharray="5,3"/><rect x="650" y="50" width="160" height="44" rx="6" fill="#f9fafb" stroke="#e5e7eb" stroke-width="1.5"/><text x="730" y="72" text-anchor="middle" dominant-baseline="central" fill="#111827" font-size="12" font-family="-apple-system, 'Helvetica Neue', Arial, sans-serif">View</text><line x1="730" y1="94" x2="730" y2="660" stroke="#e5e7eb" stroke-width="1.5" stroke-dasharray="5,3"/><rect x="850" y="50" width="160" height="44" rx="6" fill="#f9fafb" stroke="#e5e7eb" stroke-width="1.5"/><text x="930" y="72" text-anchor="middle" dominant-baseline="central" fill="#111827" font-size="12" font-family="-apple-system, 'Helvetica Neue', Arial, sans-serif">Model</text><line x1="930" y1="94" x2="930" y2="660" stroke="#e5e7eb" stroke-width="1.5" stroke-dasharray="5,3"/><rect x="1050" y="50" width="160" height="44" rx="6" fill="#f9fafb" stroke="#e5e7eb" stroke-width="1.5"/><text x="1130" y="72" text-anchor="middle" dominant-baseline="central" fill="#111827" font-size="12" font-family="-apple-system, 'Helvetica Neue', Arial, sans-serif">ObjectChange</text><line x1="1130" y1="94" x2="1130" y2="660" stroke="#e5e7eb" stroke-width="1.5" stroke-dasharray="5,3"/><path d="M 130 140 L 330 140" stroke="#3b82f6" stroke-width="1.5" fill="none" marker-end="url(#arrow)"/><text x="230" y="132" text-anchor="middle" fill="#6b7280" font-size="11" font-family="-apple-system, 'Helvetica Neue', Arial, sans-serif">HTTP Request</text><path d="M 330 175 L 530 175" stroke="#3b82f6" stroke-width="1.5" fill="none" marker-end="url(#arrow)"/><text x="430" y="167" text-anchor="middle" fill="#6b7280" font-size="11" font-family="-apple-system, 'Helvetica Neue', Arial, sans-serif">enter context</text><path d="M 530 210 C 590 210, 590 245, 530 245" stroke="#3b82f6" stroke-width="1.5" fill="none" marker-end="url(#arrow)"/><text x="595" y="230" fill="#6b7280" font-size="11" font-family="-apple-system, 'Helvetica Neue', Arial, sans-serif">set request_id, init queue</text><path d="M 330 265 L 730 265" stroke="#3b82f6" stroke-width="1.5" fill="none" marker-end="url(#arrow)"/><text x="530" y="257" text-anchor="middle" fill="#6b7280" font-size="11" font-family="-apple-system, 'Helvetica Neue', Arial, sans-serif">process request</text><path d="M 730 305 L 930 305" stroke="#3b82f6" stroke-width="1.5" fill="none" marker-end="url(#arrow)"/><text x="830" y="297" text-anchor="middle" fill="#6b7280" font-size="11" font-family="-apple-system, 'Helvetica Neue', Arial, sans-serif">snapshot() — 拍攝 prechange</text><path d="M 730 345 L 930 345" stroke="#3b82f6" stroke-width="1.5" fill="none" marker-end="url(#arrow)"/><text x="830" y="337" text-anchor="middle" fill="#6b7280" font-size="11" font-family="-apple-system, 'Helvetica Neue', Arial, sans-serif">save()</text><path d="M 930 380 L 1130 380" stroke="#3b82f6" stroke-width="1.5" fill="none" marker-end="url(#arrow)"/><text x="1030" y="372" text-anchor="middle" fill="#6b7280" font-size="11" font-family="-apple-system, 'Helvetica Neue', Arial, sans-serif">to_objectchange(UPDATE)</text><path d="M 1130 415 C 1190 415, 1190 450, 1130 450" stroke="#3b82f6" stroke-width="1.5" fill="none" marker-end="url(#arrow)"/><text x="1195" y="435" fill="#6b7280" font-size="11" font-family="-apple-system, 'Helvetica Neue', Arial, sans-serif">儲存 pre/post data</text><path d="M 730 465 L 330 465" stroke="#3b82f6" stroke-width="1.5" fill="none" stroke-dasharray="6,3" marker-end="url(#arrow)"/><text x="530" y="457" text-anchor="middle" fill="#6b7280" font-size="11" font-family="-apple-system, 'Helvetica Neue', Arial, sans-serif">response</text><path d="M 530 505 C 590 505, 590 540, 530 540" stroke="#3b82f6" stroke-width="1.5" fill="none" marker-end="url(#arrow)"/><text x="595" y="525" fill="#6b7280" font-size="11" font-family="-apple-system, 'Helvetica Neue', Arial, sans-serif">flush_events() — 發送 webhook</text><path d="M 330 565 L 130 565" stroke="#3b82f6" stroke-width="1.5" fill="none" stroke-dasharray="6,3" marker-end="url(#arrow)"/><text x="230" y="557" text-anchor="middle" fill="#6b7280" font-size="11" font-family="-apple-system, 'Helvetica Neue', Arial, sans-serif">HTTP Response + X-Request-ID</text></svg>
