<?xml version="1.0" encoding="utf-8" ?>
<svg baseProfile="full" height="700" version="1.1" width="1200" xmlns="http://www.w3.org/2000/svg" xmlns:ev="http://www.w3.org/2001/xml-events" xmlns:xlink="http://www.w3.org/1999/xlink"><defs><marker id="arrow" markerHeight="7" markerWidth="10" orient="auto" refX="9" refY="3.5"><polygon fill="#3b82f6" points="0,0 10,3.5 0,7" /></marker></defs><rect fill="#ffffff" height="700" width="1200" x="0" y="0" /><text fill="#111827" font-family="-apple-system, 'Helvetica Neue', Arial, sans-serif" font-size="18" font-weight="700" text-anchor="middle" x="600.0" y="35">NetBox 系統部署架構</text><g><rect fill="#f0f4ff" height="80" rx="8" ry="8" stroke="#c7d2fe" stroke-width="1.5" width="200" x="50" y="60" /><text fill="#6b7280" font-family="-apple-system, 'Helvetica Neue', Arial, sans-serif" font-size="11" font-weight="600" x="60" y="78">使用者端</text></g><g><rect fill="#f9fafb" height="45" rx="6" ry="6" stroke="#e5e7eb" stroke-width="1.5" width="160" x="70" y="80" /><text fill="#111827" font-family="-apple-system, 'Helvetica Neue', Arial, sans-serif" font-size="11" text-anchor="middle" x="150.0" y="102.5">瀏覽器 / API Client</text></g><g><rect fill="#f0f4ff" height="80" rx="8" ry="8" stroke="#c7d2fe" stroke-width="1.5" width="240" x="300" y="60" /><text fill="#6b7280" font-family="-apple-system, 'Helvetica Neue', Arial, sans-serif" font-size="11" font-weight="600" x="310" y="78">反向代理層</text></g><g><rect fill="#f9fafb" height="45" rx="6" ry="6" stroke="#e5e7eb" stroke-width="1.5" width="200" x="320" y="80" /><text fill="#111827" font-family="-apple-system, 'Helvetica Neue', Arial, sans-serif" font-size="11" text-anchor="middle" x="420.0" y="94.5">Nginx</text><text fill="#111827" font-family="-apple-system, 'Helvetica Neue', Arial, sans-serif" font-size="11" text-anchor="middle" x="420.0" y="110.5">:443 SSL / 靜態檔案</text></g><g><rect fill="#f0f4ff" height="110" rx="8" ry="8" stroke="#c7d2fe" stroke-width="1.5" width="240" x="590" y="60" /><text fill="#6b7280" font-family="-apple-system, 'Helvetica Neue', Arial, sans-serif" font-size="11" font-weight="600" x="600" y="78">應用伺服器層</text></g><g><rect fill="#f9fafb" height="40" rx="6" ry="6" stroke="#e5e7eb" stroke-width="1.5" width="200" x="610" y="80" /><text fill="#111827" font-family="-apple-system, 'Helvetica Neue', Arial, sans-serif" font-size="11" text-anchor="middle" x="710.0" y="92.0">Gunicorn WSGI</text><text fill="#111827" font-family="-apple-system, 'Helvetica Neue', Arial, sans-serif" font-size="11" text-anchor="middle" x="710.0" y="108.0">127.0.0.1:8001</text></g><g><rect fill="#f9fafb" height="30" rx="6" ry="6" stroke="#e5e7eb" stroke-width="1.5" width="200" x="610" y="128" /><text fill="#111827" font-family="-apple-system, 'Helvetica Neue', Arial, sans-serif" font-size="11" text-anchor="middle" x="710.0" y="143.0">Django 5.2.12</text></g><g><rect fill="#f0f4ff" height="110" rx="8" ry="8" stroke="#c7d2fe" stroke-width="1.5" width="200" x="880" y="60" /><text fill="#6b7280" font-family="-apple-system, 'Helvetica Neue', Arial, sans-serif" font-size="11" font-weight="600" x="890" y="78">API 層</text></g><g><rect fill="#f9fafb" height="35" rx="6" ry="6" stroke="#e5e7eb" stroke-width="1.5" width="160" x="900" y="80" /><text fill="#111827" font-family="-apple-system, 'Helvetica Neue', Arial, sans-serif" font-size="11" text-anchor="middle" x="980.0" y="97.5">REST API (DRF)</text></g><g><rect fill="#f9fafb" height="35" rx="6" ry="6" stroke="#e5e7eb" stroke-width="1.5" width="160" x="900" y="123" /><text fill="#111827" font-family="-apple-system, 'Helvetica Neue', Arial, sans-serif" font-size="11" text-anchor="middle" x="980.0" y="140.5">GraphQL (Strawberry)</text></g><g><rect fill="#f0f4ff" height="110" rx="8" ry="8" stroke="#c7d2fe" stroke-width="1.5" width="240" x="300" y="250" /><text fill="#6b7280" font-family="-apple-system, 'Helvetica Neue', Arial, sans-serif" font-size="11" font-weight="600" x="310" y="268">資料儲存層</text></g><g><rect fill="#f9fafb" height="40" rx="6" ry="6" stroke="#e5e7eb" stroke-width="1.5" width="200" x="320" y="270" /><text fill="#111827" font-family="-apple-system, 'Helvetica Neue', Arial, sans-serif" font-size="11" text-anchor="middle" x="420.0" y="282.0">PostgreSQL</text><text fill="#111827" font-family="-apple-system, 'Helvetica Neue', Arial, sans-serif" font-size="11" text-anchor="middle" x="420.0" y="298.0">主要資料庫</text></g><g><rect fill="#f9fafb" height="35" rx="6" ry="6" stroke="#e5e7eb" stroke-width="1.5" width="200" x="320" y="318" /><text fill="#111827" font-family="-apple-system, 'Helvetica Neue', Arial, sans-serif" font-size="11" text-anchor="middle" x="420.0" y="327.5">Redis</text><text fill="#111827" font-family="-apple-system, 'Helvetica Neue', Arial, sans-serif" font-size="11" text-anchor="middle" x="420.0" y="343.5">Cache + Queue</text></g><g><rect fill="#f0f4ff" height="80" rx="8" ry="8" stroke="#c7d2fe" stroke-width="1.5" width="240" x="590" y="250" /><text fill="#6b7280" font-family="-apple-system, 'Helvetica Neue', Arial, sans-serif" font-size="11" font-weight="600" x="600" y="268">背景工作層</text></g><g><rect fill="#f9fafb" height="45" rx="6" ry="6" stroke="#e5e7eb" stroke-width="1.5" width="200" x="610" y="270" /><text fill="#111827" font-family="-apple-system, 'Helvetica Neue', Arial, sans-serif" font-size="11" text-anchor="middle" x="710.0" y="284.5">RQ Worker</text><text fill="#111827" font-family="-apple-system, 'Helvetica Neue', Arial, sans-serif" font-size="11" text-anchor="middle" x="710.0" y="300.5">high / default / low</text></g><g><line marker-end="url(#arrow)" stroke="#3b82f6" stroke-width="1.5" x1="230" x2="320" y1="102" y2="102" /><text fill="#6b7280" font-family="-apple-system, 'Helvetica Neue', Arial, sans-serif" font-size="10" text-anchor="middle" x="275.0" y="96.0">HTTPS :443</text></g><g><line marker-end="url(#arrow)" stroke="#3b82f6" stroke-width="1.5" x1="520" x2="610" y1="102" y2="102" /><text fill="#6b7280" font-family="-apple-system, 'Helvetica Neue', Arial, sans-serif" font-size="10" text-anchor="middle" x="565.0" y="96.0">proxy_pass</text></g><line stroke="#3b82f6" stroke-width="1.5" x1="710" x2="710" y1="120" y2="128" /><g><line marker-end="url(#arrow)" stroke="#3b82f6" stroke-width="1.5" x1="810" x2="900" y1="100" y2="97" /></g><g><line marker-end="url(#arrow)" stroke="#3b82f6" stroke-width="1.5" x1="810" x2="900" y1="135" y2="140" /></g><g><line marker-end="url(#arrow)" stroke="#3b82f6" stroke-width="1.5" x1="710" x2="520" y1="175" y2="288" /><text fill="#6b7280" font-family="-apple-system, 'Helvetica Neue', Arial, sans-serif" font-size="10" text-anchor="middle" x="615.0" y="225.5">ORM</text></g><g><line marker-end="url(#arrow)" stroke="#3b82f6" stroke-width="1.5" x1="710" x2="520" y1="175" y2="335" /><text fill="#6b7280" font-family="-apple-system, 'Helvetica Neue', Arial, sans-serif" font-size="10" text-anchor="middle" x="615.0" y="249.0">Cache</text></g><g><line marker-end="url(#arrow)" stroke="#3b82f6" stroke-width="1.5" x1="610" x2="520" y1="292" y2="335" /><text fill="#6b7280" font-family="-apple-system, 'Helvetica Neue', Arial, sans-serif" font-size="10" text-anchor="middle" x="565.0" y="307.5">Dequeue</text></g><g><line marker-end="url(#arrow)" stroke="#3b82f6" stroke-width="1.5" x1="610" x2="520" y1="292" y2="287" /></g><g><line marker-end="url(#arrow)" stroke="#3b82f6" stroke-width="1.5" x1="710" x2="610" y1="175" y2="280" /><text fill="#6b7280" font-family="-apple-system, 'Helvetica Neue', Arial, sans-serif" font-size="10" text-anchor="middle" x="660.0" y="221.5">Enqueue</text></g></svg>