<svg xmlns="http://www.w3.org/2000/svg" width="1600" height="560" viewBox="0 0 1600 560" font-family="-apple-system, 'Helvetica Neue', Arial, sans-serif">
<defs>
<marker id="arrow" markerWidth="10" markerHeight="7" refX="9" refY="3.5" orient="auto">
  <polygon points="0 0.5, 8.5 3.5, 0 6.5" fill="#3b82f6"/>
</marker>
<marker id="arrow-rev" markerWidth="10" markerHeight="7" refX="1" refY="3.5" orient="auto">
  <polygon points="8.5 0.5, 0 3.5, 8.5 6.5" fill="#3b82f6"/>
</marker>
</defs>
<rect width="1600" height="560" fill="#ffffff"/>
<text x="20" y="30" fill="#6b7280" font-size="12" font-family="-apple-system, 'Helvetica Neue', Arial, sans-serif">netbox-search-index — 搜尋索引快取機制</text><rect x="40" y="80" width="180" height="40" rx="6" fill="#f9fafb" stroke="#e5e7eb" stroke-width="1.5"/><text x="130" y="100" text-anchor="middle" dominant-baseline="central" fill="#111827" font-size="13" font-family="-apple-system, 'Helvetica Neue', Arial, sans-serif">物件 save/delete</text><line x1="220" y1="100" x2="260" y2="100" stroke="#3b82f6" stroke-width="1.5" marker-end="url(#arrow)"/><rect x="260" y="80" width="180" height="40" rx="6" fill="#f9fafb" stroke="#e5e7eb" stroke-width="1.5"/><text x="350" y="100" text-anchor="middle" dominant-baseline="central" fill="#111827" font-size="13" font-family="-apple-system, 'Helvetica Neue', Arial, sans-serif">caching_handler</text><line x1="440" y1="100" x2="480" y2="100" stroke="#3b82f6" stroke-width="1.5" marker-end="url(#arrow)"/><polygon points="580,65 670,100 580,135 490,100" fill="#f9fafb" stroke="#e5e7eb" stroke-width="1.5"/><text x="580" y="100" text-anchor="middle" dominant-baseline="central" fill="#111827" font-size="13" font-family="-apple-system, 'Helvetica Neue', Arial, sans-serif">remove_existing?</text><path d="M 580 65 L 580 40 L 700 40 L 700 80" stroke="#3b82f6" stroke-width="1.5" fill="none" marker-end="url(#arrow)"/><text x="640" y="30" text-anchor="middle" fill="#6b7280" font-size="11" font-family="-apple-system, 'Helvetica Neue', Arial, sans-serif">否</text><path d="M 670 100 L 700 100 L 700 80" stroke="#3b82f6" stroke-width="1.5" fill="none" marker-end="url(#arrow)"/><text x="685" y="90" text-anchor="middle" fill="#6b7280" font-size="11" font-family="-apple-system, 'Helvetica Neue', Arial, sans-serif">是</text><rect x="670" y="40" width="180" height="40" rx="6" fill="#f9fafb" stroke="#e5e7eb" stroke-width="1.5"/><text x="760" y="60" text-anchor="middle" dominant-baseline="central" fill="#111827" font-size="13" font-family="-apple-system, 'Helvetica Neue', Arial, sans-serif">刪除舊 CachedValue</text><rect x="900" y="60" width="180" height="40" rx="6" fill="#f9fafb" stroke="#e5e7eb" stroke-width="1.5"/><text x="990" y="80" text-anchor="middle" dominant-baseline="central" fill="#111827" font-size="13" font-family="-apple-system, 'Helvetica Neue', Arial, sans-serif">indexer.to_cache</text><path d="M 850 60 L 900 80" stroke="#3b82f6" stroke-width="1.5" fill="none" marker-end="url(#arrow)"/><line x1="1080" y1="80" x2="1120" y2="80" stroke="#3b82f6" stroke-width="1.5" marker-end="url(#arrow)"/><rect x="1120" y="60" width="200" height="40" rx="6" fill="#f9fafb" stroke="#e5e7eb" stroke-width="1.5"/><text x="1220" y="80" text-anchor="middle" dominant-baseline="central" fill="#111827" font-size="13" font-family="-apple-system, 'Helvetica Neue', Arial, sans-serif">產生 CachedValue 記錄</text><line x1="1320" y1="80" x2="1360" y2="80" stroke="#3b82f6" stroke-width="1.5" marker-end="url(#arrow)"/><rect x="1360" y="60" width="180" height="40" rx="6" fill="#f9fafb" stroke="#e5e7eb" stroke-width="1.5"/><text x="1450" y="80" text-anchor="middle" dominant-baseline="central" fill="#111827" font-size="13" font-family="-apple-system, 'Helvetica Neue', Arial, sans-serif">bulk_create buffer</text><path d="M 1450 100 L 1450 130 L 1380 130 L 1380 160" stroke="#3b82f6" stroke-width="1.5" fill="none" marker-end="url(#arrow)"/><text x="1490" y="145" text-anchor="middle" fill="#6b7280" font-size="11" font-family="-apple-system, 'Helvetica Neue', Arial, sans-serif">buffer ≥ 2000</text><rect x="1310" y="160" width="160" height="40" rx="6" fill="#f9fafb" stroke="#e5e7eb" stroke-width="1.5"/><text x="1390" y="180" text-anchor="middle" dominant-baseline="central" fill="#111827" font-size="13" font-family="-apple-system, 'Helvetica Neue', Arial, sans-serif">flush to DB</text><rect x="40" y="340" width="180" height="40" rx="6" fill="#f9fafb" stroke="#e5e7eb" stroke-width="1.5"/><text x="130" y="360" text-anchor="middle" dominant-baseline="central" fill="#111827" font-size="13" font-family="-apple-system, 'Helvetica Neue', Arial, sans-serif">搜尋請求</text><line x1="220" y1="360" x2="260" y2="360" stroke="#3b82f6" stroke-width="1.5" marker-end="url(#arrow)"/><rect x="260" y="340" width="230" height="40" rx="6" fill="#f9fafb" stroke="#e5e7eb" stroke-width="1.5"/><text x="375" y="360" text-anchor="middle" dominant-baseline="central" fill="#111827" font-size="13" font-family="-apple-system, 'Helvetica Neue', Arial, sans-serif">CachedValueSearchBackend.search</text><line x1="490" y1="360" x2="530" y2="360" stroke="#3b82f6" stroke-width="1.5" marker-end="url(#arrow)"/><rect x="530" y="340" width="180" height="40" rx="6" fill="#f9fafb" stroke="#e5e7eb" stroke-width="1.5"/><text x="620" y="360" text-anchor="middle" dominant-baseline="central" fill="#111827" font-size="13" font-family="-apple-system, 'Helvetica Neue', Arial, sans-serif">建構 Q filter</text><line x1="710" y1="360" x2="750" y2="360" stroke="#3b82f6" stroke-width="1.5" marker-end="url(#arrow)"/><polygon points="840,325 920,360 840,395 760,360" fill="#f9fafb" stroke="#e5e7eb" stroke-width="1.5"/><text x="840" y="360" text-anchor="middle" dominant-baseline="central" fill="#111827" font-size="13" font-family="-apple-system, 'Helvetica Neue', Arial, sans-serif">值像 IP?</text><path d="M 840 325 L 840 280 L 990 280 L 990 320" stroke="#3b82f6" stroke-width="1.5" fill="none" marker-end="url(#arrow)"/><text x="920" y="270" text-anchor="middle" fill="#6b7280" font-size="11" font-family="-apple-system, 'Helvetica Neue', Arial, sans-serif">是</text><rect x="940" y="320" width="200" height="40" rx="6" fill="#f9fafb" stroke="#e5e7eb" stroke-width="1.5"/><text x="1040" y="340" text-anchor="middle" dominant-baseline="central" fill="#111827" font-size="13" font-family="-apple-system, 'Helvetica Neue', Arial, sans-serif">加入 INET/CIDR 條件</text><path d="M 920 380 L 960 380 L 960 420 L 1050 420 L 1050 400" stroke="#3b82f6" stroke-width="1.5" fill="none" marker-end="url(#arrow)"/><text x="1010" y="395" text-anchor="middle" fill="#6b7280" font-size="11" font-family="-apple-system, 'Helvetica Neue', Arial, sans-serif">否</text><rect x="1000" y="360" width="160" height="40" rx="6" fill="#f9fafb" stroke="#e5e7eb" stroke-width="1.5"/><text x="1080" y="380" text-anchor="middle" dominant-baseline="central" fill="#111827" font-size="13" font-family="-apple-system, 'Helvetica Neue', Arial, sans-serif">標準文字搜尋</text><rect x="1210" y="360" width="200" height="40" rx="6" fill="#f9fafb" stroke="#e5e7eb" stroke-width="1.5"/><text x="1310" y="380" text-anchor="middle" dominant-baseline="central" fill="#111827" font-size="13" font-family="-apple-system, 'Helvetica Neue', Arial, sans-serif">Window RowNumber 去重</text><path d="M 1060 360 L 1210 370" stroke="#3b82f6" stroke-width="1.5" fill="none" marker-end="url(#arrow)"/><path d="M 1140 340 L 1210 355" stroke="#3b82f6" stroke-width="1.5" fill="none" marker-end="url(#arrow)"/><line x1="1410" y1="370" x2="1450" y2="370" stroke="#3b82f6" stroke-width="1.5" marker-end="url(#arrow)"/><rect x="1450" y="350" width="130" height="40" rx="6" fill="#f9fafb" stroke="#e5e7eb" stroke-width="1.5"/><text x="1515" y="370" text-anchor="middle" dominant-baseline="central" fill="#111827" font-size="13" font-family="-apple-system, 'Helvetica Neue', Arial, sans-serif">回傳最低 weight</text></svg>
