<svg xmlns="http://www.w3.org/2000/svg" width="1400" height="780" viewBox="0 0 1400 780" font-family="-apple-system, 'Helvetica Neue', Arial, sans-serif">
<defs>
<marker id="arrow" markerWidth="10" markerHeight="7" refX="9" refY="3.5" orient="auto">
  <polygon points="0 0.5, 8.5 3.5, 0 6.5" fill="#3b82f6"/>
</marker>
<marker id="arrow-rev" markerWidth="10" markerHeight="7" refX="1" refY="3.5" orient="auto">
  <polygon points="8.5 0.5, 0 3.5, 8.5 6.5" fill="#3b82f6"/>
</marker>
</defs>
<rect width="1400" height="780" fill="#ffffff"/>
<text x="20" y="30" fill="#6b7280" font-size="12" font-family="-apple-system, 'Helvetica Neue', Arial, sans-serif">netbox-auth-flow — 認證與授權流程</text><rect x="590" y="50" width="220" height="40" rx="6" fill="#f9fafb" stroke="#e5e7eb" stroke-width="1.5"/><text x="700" y="70" text-anchor="middle" dominant-baseline="central" fill="#111827" font-size="13" font-family="-apple-system, 'Helvetica Neue', Arial, sans-serif">使用者請求</text><line x1="700" y1="90" x2="700" y2="130" stroke="#3b82f6" stroke-width="1.5" marker-end="url(#arrow)"/><polygon points="700,120 850,165 700,210 550,165" fill="#f9fafb" stroke="#e5e7eb" stroke-width="1.5"/><text x="700" y="165" text-anchor="middle" dominant-baseline="central" fill="#111827" font-size="13" font-family="-apple-system, 'Helvetica Neue', Arial, sans-serif">認證方式</text><path d="M 700 165 L 220 165 L 220 310" stroke="#3b82f6" stroke-width="1.5" fill="none" marker-end="url(#arrow)"/><text x="460" y="155" text-anchor="middle" fill="#6b7280" font-size="11" font-family="-apple-system, 'Helvetica Neue', Arial, sans-serif">Local</text><rect x="120" y="310" width="200" height="40" rx="6" fill="#f9fafb" stroke="#e5e7eb" stroke-width="1.5"/><text x="220" y="330" text-anchor="middle" dominant-baseline="central" fill="#111827" font-size="11" font-family="-apple-system, 'Helvetica Neue', Arial, sans-serif">Django ModelBackend</text><path d="M 700 210 L 410 165 L 410 310" stroke="#3b82f6" stroke-width="1.5" fill="none" marker-end="url(#arrow)"/><text x="555" y="155" text-anchor="middle" fill="#6b7280" font-size="11" font-family="-apple-system, 'Helvetica Neue', Arial, sans-serif">LDAP</text><rect x="310" y="310" width="200" height="40" rx="6" fill="#f9fafb" stroke="#e5e7eb" stroke-width="1.5"/><text x="410" y="330" text-anchor="middle" dominant-baseline="central" fill="#111827" font-size="11" font-family="-apple-system, 'Helvetica Neue', Arial, sans-serif">NBLDAPBackend</text><path d="M 700 210 L 600 165 L 600 310" stroke="#3b82f6" stroke-width="1.5" fill="none" marker-end="url(#arrow)"/><text x="650" y="155" text-anchor="middle" fill="#6b7280" font-size="11" font-family="-apple-system, 'Helvetica Neue', Arial, sans-serif">SSO/Proxy</text><rect x="500" y="310" width="200" height="40" rx="6" fill="#f9fafb" stroke="#e5e7eb" stroke-width="1.5"/><text x="600" y="330" text-anchor="middle" dominant-baseline="central" fill="#111827" font-size="11" font-family="-apple-system, 'Helvetica Neue', Arial, sans-serif">RemoteUserBackend</text><path d="M 700 210 L 800 165 L 800 310" stroke="#3b82f6" stroke-width="1.5" fill="none" marker-end="url(#arrow)"/><text x="750" y="155" text-anchor="middle" fill="#6b7280" font-size="11" font-family="-apple-system, 'Helvetica Neue', Arial, sans-serif">OAuth2/SAML</text><rect x="700" y="310" width="200" height="40" rx="6" fill="#f9fafb" stroke="#e5e7eb" stroke-width="1.5"/><text x="800" y="330" text-anchor="middle" dominant-baseline="central" fill="#111827" font-size="11" font-family="-apple-system, 'Helvetica Neue', Arial, sans-serif">Social Auth Backend</text><path d="M 700 165 L 1100 165 L 1100 310" stroke="#3b82f6" stroke-width="1.5" fill="none" marker-end="url(#arrow)"/><text x="900" y="155" text-anchor="middle" fill="#6b7280" font-size="11" font-family="-apple-system, 'Helvetica Neue', Arial, sans-serif">API Token</text><rect x="1000" y="310" width="200" height="40" rx="6" fill="#f9fafb" stroke="#e5e7eb" stroke-width="1.5"/><text x="1100" y="330" text-anchor="middle" dominant-baseline="central" fill="#111827" font-size="11" font-family="-apple-system, 'Helvetica Neue', Arial, sans-serif">TokenAuthentication</text><polygon points="500,390 630,430 500,470 370,430" fill="#f9fafb" stroke="#e5e7eb" stroke-width="1.5"/><text x="500" y="430" text-anchor="middle" dominant-baseline="central" fill="#111827" font-size="13" font-family="-apple-system, 'Helvetica Neue', Arial, sans-serif">GROUP_SYNC?</text><line x1="600" y1="350" x2="600" y2="390" stroke="#3b82f6" stroke-width="1.5" marker-end="url(#arrow)"/><path d="M 370 430 L 250 430 L 250 530" stroke="#3b82f6" stroke-width="1.5" fill="none" marker-end="url(#arrow)"/><text x="300" y="420" text-anchor="middle" fill="#6b7280" font-size="11" font-family="-apple-system, 'Helvetica Neue', Arial, sans-serif">Yes</text><rect x="170" y="530" width="190" height="40" rx="6" fill="#f9fafb" stroke="#e5e7eb" stroke-width="1.5"/><text x="265" y="550" text-anchor="middle" dominant-baseline="central" fill="#111827" font-size="13" font-family="-apple-system, 'Helvetica Neue', Arial, sans-serif">configure_groups</text><path d="M 630 430 L 760 430 L 760 530" stroke="#3b82f6" stroke-width="1.5" fill="none" marker-end="url(#arrow)"/><text x="700" y="420" text-anchor="middle" fill="#6b7280" font-size="11" font-family="-apple-system, 'Helvetica Neue', Arial, sans-serif">No</text><rect x="660" y="530" width="220" height="40" rx="6" fill="#f9fafb" stroke="#e5e7eb" stroke-width="1.5"/><text x="770" y="550" text-anchor="middle" dominant-baseline="central" fill="#111827" font-size="13" font-family="-apple-system, 'Helvetica Neue', Arial, sans-serif">configure_user 預設群組</text><path d="M 800 350 L 800 460 L 920 460 L 920 530" stroke="#3b82f6" stroke-width="1.5" fill="none" marker-end="url(#arrow)"/><rect x="840" y="530" width="240" height="40" rx="6" fill="#f9fafb" stroke="#e5e7eb" stroke-width="1.5"/><text x="960" y="550" text-anchor="middle" dominant-baseline="central" fill="#111827" font-size="13" font-family="-apple-system, 'Helvetica Neue', Arial, sans-serif">user_default_groups_handler</text><rect x="540" y="640" width="260" height="40" rx="6" fill="#f9fafb" stroke="#e5e7eb" stroke-width="1.5"/><text x="670" y="660" text-anchor="middle" dominant-baseline="central" fill="#111827" font-size="13" font-family="-apple-system, 'Helvetica Neue', Arial, sans-serif">ObjectPermissionMixin</text><path d="M 220 570 L 220 640 L 670 640 L 670 640" stroke="#3b82f6" stroke-width="1.5" fill="none" marker-end="url(#arrow)"/><path d="M 265 570 L 265 640 L 670 640 L 670 640" stroke="#3b82f6" stroke-width="1.5" fill="none" marker-end="url(#arrow)"/><path d="M 880 490 L 880 640 L 670 640 L 670 640" stroke="#3b82f6" stroke-width="1.5" fill="none" marker-end="url(#arrow)"/><path d="M 960 570 L 960 640 L 800 640 L 800 640" stroke="#3b82f6" stroke-width="1.5" fill="none" marker-end="url(#arrow)"/><path d="M 1100 350 L 1100 460 L 1100 460 L 1100 460" stroke="#3b82f6" stroke-width="1.5" fill="none" marker-end="url(#arrow)"/><path d="M 1100 350 L 1100 660 L 800 660" stroke="#3b82f6" stroke-width="1.5" fill="none" marker-end="url(#arrow)"/><path d="M 220 350 L 220 600 L 540 660" stroke="#3b82f6" stroke-width="1.5" fill="none" marker-end="url(#arrow)"/><path d="M 410 350 L 410 600 L 540 660" stroke="#3b82f6" stroke-width="1.5" fill="none" marker-end="url(#arrow)"/><rect x="540" y="700" width="260" height="40" rx="6" fill="#f9fafb" stroke="#e5e7eb" stroke-width="1.5"/><text x="670" y="720" text-anchor="middle" dominant-baseline="central" fill="#111827" font-size="13" font-family="-apple-system, 'Helvetica Neue', Arial, sans-serif">ObjectPermission 物件級權限</text><line x1="670" y1="680" x2="670" y2="700" stroke="#3b82f6" stroke-width="1.5" marker-end="url(#arrow)"/><rect x="540" y="740" width="260" height="40" rx="6" fill="#f9fafb" stroke="#e5e7eb" stroke-width="1.5"/><text x="670" y="760" text-anchor="middle" dominant-baseline="central" fill="#111827" font-size="13" font-family="-apple-system, 'Helvetica Neue', Arial, sans-serif">允許 / 拒絕存取</text><line x1="670" y1="740" x2="670" y2="760" stroke="#3b82f6" stroke-width="1.5" marker-end="url(#arrow)"/></svg>
