<svg xmlns="http://www.w3.org/2000/svg" width="1500" height="280" viewBox="0 0 1500 280" font-family="-apple-system, 'Helvetica Neue', Arial, sans-serif">
<defs>
<marker id="arrow" markerWidth="10" markerHeight="7" refX="9" refY="3.5" orient="auto">
  <polygon points="0 0.5, 8.5 3.5, 0 6.5" fill="#3b82f6"/>
</marker>
<marker id="arrow-rev" markerWidth="10" markerHeight="7" refX="1" refY="3.5" orient="auto">
  <polygon points="8.5 0.5, 0 3.5, 8.5 6.5" fill="#3b82f6"/>
</marker>
</defs>
<rect width="1500" height="280" fill="#ffffff"/>
<text x="20" y="30" fill="#6b7280" font-size="12" font-family="-apple-system, 'Helvetica Neue', Arial, sans-serif">netbox-custom-fields-cache — Custom Field 快取存取流程</text><rect x="30" y="120" width="200" height="40" rx="6" fill="#f9fafb" stroke="#e5e7eb" stroke-width="1.5"/><text x="130" y="140" text-anchor="middle" dominant-baseline="central" fill="#111827" font-size="13" font-family="-apple-system, 'Helvetica Neue', Arial, sans-serif">Model Instance</text><rect x="270" y="120" width="200" height="40" rx="6" fill="#f9fafb" stroke="#e5e7eb" stroke-width="1.5"/><text x="370" y="140" text-anchor="middle" dominant-baseline="central" fill="#111827" font-size="13" font-family="-apple-system, 'Helvetica Neue', Arial, sans-serif">CustomFieldsMixin.cf</text><rect x="510" y="120" width="230" height="40" rx="6" fill="#f9fafb" stroke="#e5e7eb" stroke-width="1.5"/><text x="625" y="140" text-anchor="middle" dominant-baseline="central" fill="#111827" font-size="13" font-family="-apple-system, 'Helvetica Neue', Arial, sans-serif">CustomFieldManager.get_for_model</text><polygon points="870,100 980,140 870,180 760,140" fill="#f9fafb" stroke="#e5e7eb" stroke-width="1.5"/><text x="870" y="140" text-anchor="middle" dominant-baseline="central" fill="#111827" font-size="13" font-family="-apple-system, 'Helvetica Neue', Arial, sans-serif">Request Cache 命中?</text><rect x="1060" y="80" width="160" height="40" rx="6" fill="#f9fafb" stroke="#e5e7eb" stroke-width="1.5"/><text x="1140" y="100" text-anchor="middle" dominant-baseline="central" fill="#111827" font-size="13" font-family="-apple-system, 'Helvetica Neue', Arial, sans-serif">回傳快取結果</text><rect x="1060" y="170" width="160" height="40" rx="6" fill="#f9fafb" stroke="#e5e7eb" stroke-width="1.5"/><text x="1140" y="190" text-anchor="middle" dominant-baseline="central" fill="#111827" font-size="13" font-family="-apple-system, 'Helvetica Neue', Arial, sans-serif">查詢 DB</text><rect x="1260" y="170" width="180" height="40" rx="6" fill="#f9fafb" stroke="#e5e7eb" stroke-width="1.5"/><text x="1350" y="190" text-anchor="middle" dominant-baseline="central" fill="#111827" font-size="13" font-family="-apple-system, 'Helvetica Neue', Arial, sans-serif">寫入 Request Cache</text><rect x="1260" y="80" width="180" height="40" rx="6" fill="#f9fafb" stroke="#e5e7eb" stroke-width="1.5"/><text x="1350" y="100" text-anchor="middle" dominant-baseline="central" fill="#111827" font-size="13" font-family="-apple-system, 'Helvetica Neue', Arial, sans-serif">逐一 deserialize</text><line x1="230" y1="140" x2="270" y2="140" stroke="#3b82f6" stroke-width="1.5" marker-end="url(#arrow)"/><line x1="470" y1="140" x2="510" y2="140" stroke="#3b82f6" stroke-width="1.5" marker-end="url(#arrow)"/><line x1="740" y1="140" x2="760" y2="140" stroke="#3b82f6" stroke-width="1.5" marker-end="url(#arrow)"/><path d="M 870 100 L 870 80 L 1060 80" stroke="#3b82f6" stroke-width="1.5" fill="none" marker-end="url(#arrow)"/><text x="970" y="70" text-anchor="middle" fill="#6b7280" font-size="11" font-family="-apple-system, 'Helvetica Neue', Arial, sans-serif">是</text><path d="M 870 180 L 1060 180 L 1060 185" stroke="#3b82f6" stroke-width="1.5" fill="none" marker-end="url(#arrow)"/><text x="960" y="173" text-anchor="middle" fill="#6b7280" font-size="11" font-family="-apple-system, 'Helvetica Neue', Arial, sans-serif">否</text><line x1="1220" y1="190" x2="1260" y2="190" stroke="#3b82f6" stroke-width="1.5" marker-end="url(#arrow)"/><path d="M 1350 170 L 1350 100 L 1220 100" stroke="#3b82f6" stroke-width="1.5" fill="none" marker-end="url(#arrow)"/><line x1="1240" y1="100" x2="1260" y2="100" stroke="#3b82f6" stroke-width="1.5" marker-end="url(#arrow)"/><text x="1480" y="100" text-anchor="middle" fill="#111827" font-size="12" font-family="-apple-system, 'Helvetica Neue', Arial, sans-serif">&#123;&#39;field&#39;: v&#125;</text></svg>
