<?xml version="1.0" encoding="utf-8" ?>
<svg baseProfile="full" height="520" version="1.1" width="1100" xmlns="http://www.w3.org/2000/svg" xmlns:ev="http://www.w3.org/2001/xml-events" xmlns:xlink="http://www.w3.org/1999/xlink"><defs><marker id="arrow" markerHeight="7" markerWidth="10" orient="auto" refX="9" refY="3.5"><polygon fill="#3b82f6" points="0,0 10,3.5 0,7" /></marker><marker id="arrow2" markerHeight="7" markerWidth="10" orient="auto" refX="9" refY="3.5"><polygon fill="#6b7280" points="0,0 10,3.5 0,7" /></marker></defs><rect fill="#ffffff" height="520" width="1100" x="0" y="0" /><text fill="#111827" font-family="-apple-system, 'Helvetica Neue', Arial, sans-serif" font-size="15" font-weight="700" text-anchor="middle" x="550.0" y="30">API 請求處理流程 (Sequence)</text><rect fill="#f0f4ff" height="44" rx="5" ry="5" stroke="#c7d2fe" stroke-width="1.5" width="90" x="15.0" y="50" /><text fill="#111827" font-family="-apple-system, 'Helvetica Neue', Arial, sans-serif" font-size="10" text-anchor="middle" x="60.0" y="72.0">Client</text><line stroke="#d1d5db" stroke-dasharray="4,3" stroke-width="1" x1="60.0" x2="60.0" y1="94" y2="490" /><rect fill="#f0f4ff" height="44" rx="5" ry="5" stroke="#c7d2fe" stroke-width="1.5" width="90" x="155.0" y="50" /><text fill="#111827" font-family="-apple-system, 'Helvetica Neue', Arial, sans-serif" font-size="10" text-anchor="middle" x="200.0" y="65.0">Django</text><text fill="#111827" font-family="-apple-system, 'Helvetica Neue', Arial, sans-serif" font-size="10" text-anchor="middle" x="200.0" y="79.0">Dispatcher</text><line stroke="#d1d5db" stroke-dasharray="4,3" stroke-width="1" x1="200.0" x2="200.0" y1="94" y2="490" /><rect fill="#f0f4ff" height="44" rx="5" ry="5" stroke="#c7d2fe" stroke-width="1.5" width="90" x="295.0" y="50" /><text fill="#111827" font-family="-apple-system, 'Helvetica Neue', Arial, sans-serif" font-size="10" text-anchor="middle" x="340.0" y="65.0">Token</text><text fill="#111827" font-family="-apple-system, 'Helvetica Neue', Arial, sans-serif" font-size="10" text-anchor="middle" x="340.0" y="79.0">Auth</text><line stroke="#d1d5db" stroke-dasharray="4,3" stroke-width="1" x1="340.0" x2="340.0" y1="94" y2="490" /><rect fill="#f0f4ff" height="44" rx="5" ry="5" stroke="#c7d2fe" stroke-width="1.5" width="90" x="435.0" y="50" /><text fill="#111827" font-family="-apple-system, 'Helvetica Neue', Arial, sans-serif" font-size="10" text-anchor="middle" x="480.0" y="65.0">Token</text><text fill="#111827" font-family="-apple-system, 'Helvetica Neue', Arial, sans-serif" font-size="10" text-anchor="middle" x="480.0" y="79.0">Perm</text><line stroke="#d1d5db" stroke-dasharray="4,3" stroke-width="1" x1="480.0" x2="480.0" y1="94" y2="490" /><rect fill="#f0f4ff" height="44" rx="5" ry="5" stroke="#c7d2fe" stroke-width="1.5" width="90" x="575.0" y="50" /><text fill="#111827" font-family="-apple-system, 'Helvetica Neue', Arial, sans-serif" font-size="10" text-anchor="middle" x="620.0" y="72.0">ViewSet</text><line stroke="#d1d5db" stroke-dasharray="4,3" stroke-width="1" x1="620.0" x2="620.0" y1="94" y2="490" /><rect fill="#f0f4ff" height="44" rx="5" ry="5" stroke="#c7d2fe" stroke-width="1.5" width="90" x="715.0" y="50" /><text fill="#111827" font-family="-apple-system, 'Helvetica Neue', Arial, sans-serif" font-size="10" text-anchor="middle" x="760.0" y="72.0">FilterSet</text><line stroke="#d1d5db" stroke-dasharray="4,3" stroke-width="1" x1="760.0" x2="760.0" y1="94" y2="490" /><rect fill="#f0f4ff" height="44" rx="5" ry="5" stroke="#c7d2fe" stroke-width="1.5" width="90" x="855.0" y="50" /><text fill="#111827" font-family="-apple-system, 'Helvetica Neue', Arial, sans-serif" font-size="10" text-anchor="middle" x="900.0" y="72.0">Serializer</text><line stroke="#d1d5db" stroke-dasharray="4,3" stroke-width="1" x1="900.0" x2="900.0" y1="94" y2="490" /><rect fill="#f0f4ff" height="44" rx="5" ry="5" stroke="#c7d2fe" stroke-width="1.5" width="90" x="995.0" y="50" /><text fill="#111827" font-family="-apple-system, 'Helvetica Neue', Arial, sans-serif" font-size="10" text-anchor="middle" x="1040.0" y="72.0">PostgreSQL</text><line stroke="#d1d5db" stroke-dasharray="4,3" stroke-width="1" x1="1040.0" x2="1040.0" y1="94" y2="490" /><line marker-end="url(#arrow)" stroke="#3b82f6" stroke-width="1.3" x1="60.0" x2="200.0" y1="126.53333333333333" y2="126.53333333333333" /><text fill="#6b7280" font-family="-apple-system, 'Helvetica Neue', Arial, sans-serif" font-size="9" text-anchor="middle" x="130.0" y="122.53333333333333">GET /api/dcim/devices/?site=nyc</text><line marker-end="url(#arrow)" stroke="#3b82f6" stroke-width="1.3" x1="200.0" x2="340.0" y1="151.6" y2="151.6" /><text fill="#6b7280" font-family="-apple-system, 'Helvetica Neue', Arial, sans-serif" font-size="9" text-anchor="middle" x="270.0" y="147.6">authenticate(request)</text><path d="M 340.0 176.66666666666666 Q 375.0 166.66666666666666 375.0 186.66666666666666 Q 375.0 201.66666666666666 340.0 196.66666666666666" fill="none" marker-end="url(#arrow)" stroke="#3b82f6" stroke-width="1.3" /><text fill="#6b7280" font-family="-apple-system, 'Helvetica Neue', Arial, sans-serif" font-size="9" text-anchor="middle" x="380.0" y="181.66666666666666">驗證 Token (v1/v2)</text><line marker-end="url(#arrow2)" stroke="#6b7280" stroke-dasharray="5,3" stroke-width="1.3" x1="340.0" x2="200.0" y1="201.73333333333332" y2="201.73333333333332" /><text fill="#6b7280" font-family="-apple-system, 'Helvetica Neue', Arial, sans-serif" font-size="9" text-anchor="middle" x="270.0" y="197.73333333333332">(user, token) </text><line marker-end="url(#arrow)" stroke="#3b82f6" stroke-width="1.3" x1="200.0" x2="480.0" y1="226.79999999999998" y2="226.79999999999998" /><text fill="#6b7280" font-family="-apple-system, 'Helvetica Neue', Arial, sans-serif" font-size="9" text-anchor="middle" x="340.0" y="222.79999999999998">has_permission(request, view)</text><path d="M 480.0 251.86666666666665 Q 515.0 241.86666666666665 515.0 261.8666666666667 Q 515.0 276.8666666666667 480.0 271.8666666666667" fill="none" marker-end="url(#arrow)" stroke="#3b82f6" stroke-width="1.3" /><text fill="#6b7280" font-family="-apple-system, 'Helvetica Neue', Arial, sans-serif" font-size="9" text-anchor="middle" x="520.0" y="256.8666666666667">檢查 write_enabled</text><line marker-end="url(#arrow2)" stroke="#6b7280" stroke-dasharray="5,3" stroke-width="1.3" x1="480.0" x2="200.0" y1="276.93333333333334" y2="276.93333333333334" /><text fill="#6b7280" font-family="-apple-system, 'Helvetica Neue', Arial, sans-serif" font-size="9" text-anchor="middle" x="340.0" y="272.93333333333334">True </text><line marker-end="url(#arrow)" stroke="#3b82f6" stroke-width="1.3" x1="200.0" x2="620.0" y1="302.0" y2="302.0" /><text fill="#6b7280" font-family="-apple-system, 'Helvetica Neue', Arial, sans-serif" font-size="9" text-anchor="middle" x="410.0" y="298.0">list(request)</text><path d="M 620.0 327.06666666666666 Q 655.0 317.06666666666666 655.0 337.06666666666666 Q 655.0 352.06666666666666 620.0 347.06666666666666" fill="none" marker-end="url(#arrow)" stroke="#3b82f6" stroke-width="1.3" /><text fill="#6b7280" font-family="-apple-system, 'Helvetica Neue', Arial, sans-serif" font-size="9" text-anchor="middle" x="660.0" y="332.06666666666666">queryset.restrict(user)</text><line marker-end="url(#arrow)" stroke="#3b82f6" stroke-width="1.3" x1="620.0" x2="760.0" y1="352.1333333333333" y2="352.1333333333333" /><text fill="#6b7280" font-family="-apple-system, 'Helvetica Neue', Arial, sans-serif" font-size="9" text-anchor="middle" x="690.0" y="348.1333333333333">套用查詢參數</text><line marker-end="url(#arrow)" stroke="#3b82f6" stroke-width="1.3" x1="760.0" x2="1040.0" y1="377.2" y2="377.2" /><text fill="#6b7280" font-family="-apple-system, 'Helvetica Neue', Arial, sans-serif" font-size="9" text-anchor="middle" x="900.0" y="373.2">SQL Query</text><line marker-end="url(#arrow2)" stroke="#6b7280" stroke-dasharray="5,3" stroke-width="1.3" x1="1040.0" x2="760.0" y1="402.26666666666665" y2="402.26666666666665" /><text fill="#6b7280" font-family="-apple-system, 'Helvetica Neue', Arial, sans-serif" font-size="9" text-anchor="middle" x="900.0" y="398.26666666666665">QuerySet </text><line marker-end="url(#arrow2)" stroke="#6b7280" stroke-dasharray="5,3" stroke-width="1.3" x1="760.0" x2="620.0" y1="427.3333333333333" y2="427.3333333333333" /><text fill="#6b7280" font-family="-apple-system, 'Helvetica Neue', Arial, sans-serif" font-size="9" text-anchor="middle" x="690.0" y="423.3333333333333">filtered QuerySet </text><line marker-end="url(#arrow)" stroke="#3b82f6" stroke-width="1.3" x1="620.0" x2="900.0" y1="452.4" y2="452.4" /><text fill="#6b7280" font-family="-apple-system, 'Helvetica Neue', Arial, sans-serif" font-size="9" text-anchor="middle" x="760.0" y="448.4">序列化</text><line marker-end="url(#arrow2)" stroke="#6b7280" stroke-dasharray="5,3" stroke-width="1.3" x1="900.0" x2="60.0" y1="477.46666666666664" y2="477.46666666666664" /><text fill="#6b7280" font-family="-apple-system, 'Helvetica Neue', Arial, sans-serif" font-size="9" text-anchor="middle" x="480.0" y="473.46666666666664">JSON 200 </text></svg>