<svg xmlns="http://www.w3.org/2000/svg" width="1200" height="720" viewBox="0 0 1200 720" font-family="-apple-system, 'Helvetica Neue', Arial, sans-serif">
<defs>
<marker id="arrow" markerWidth="10" markerHeight="7" refX="9" refY="3.5" orient="auto">
  <polygon points="0 0.5, 8.5 3.5, 0 6.5" fill="#3b82f6"/>
</marker>
<marker id="arrow-rev" markerWidth="10" markerHeight="7" refX="1" refY="3.5" orient="auto">
  <polygon points="8.5 0.5, 0 3.5, 8.5 6.5" fill="#3b82f6"/>
</marker>
</defs>
<rect width="1200" height="720" fill="#ffffff"/>
<text x="20" y="30" fill="#6b7280" font-size="12" font-family="-apple-system, 'Helvetica Neue', Arial, sans-serif">netbox-plugin-loading — Plugin 載入與初始化流程</text><rect x="20" y="60" width="560" height="270" rx="8" fill="#f0f4ff" stroke="#c7d2fe" stroke-width="1.5" stroke-dasharray="6,3"/><text x="30" y="78" fill="#6b7280" font-size="12" font-family="-apple-system, 'Helvetica Neue', Arial, sans-serif" font-weight="600">Plugin 載入</text><rect x="60" y="110" width="240" height="40" rx="6" fill="#f9fafb" stroke="#e5e7eb" stroke-width="1.5"/><text x="180" y="130" text-anchor="middle" dominant-baseline="central" fill="#111827" font-size="13" font-family="-apple-system, 'Helvetica Neue', Arial, sans-serif">settings.py 遍歷 PLUGINS</text><line x1="180" y1="150" x2="180" y2="190" stroke="#3b82f6" stroke-width="1.5" marker-end="url(#arrow)"/><rect x="60" y="190" width="240" height="40" rx="6" fill="#f9fafb" stroke="#e5e7eb" stroke-width="1.5"/><text x="180" y="210" text-anchor="middle" dominant-baseline="central" fill="#111827" font-size="13" font-family="-apple-system, 'Helvetica Neue', Arial, sans-serif">importlib.import_module</text><line x1="180" y1="230" x2="180" y2="270" stroke="#3b82f6" stroke-width="1.5" marker-end="url(#arrow)"/><rect x="60" y="270" width="240" height="40" rx="6" fill="#f9fafb" stroke="#e5e7eb" stroke-width="1.5"/><text x="180" y="290" text-anchor="middle" dominant-baseline="central" fill="#111827" font-size="13" font-family="-apple-system, 'Helvetica Neue', Arial, sans-serif">取得 plugin.config</text><line x1="180" y1="310" x2="180" y2="350" stroke="#3b82f6" stroke-width="1.5" marker-end="url(#arrow)"/><rect x="380" y="100" width="160" height="36" rx="6" fill="#f9fafb" stroke="#e5e7eb" stroke-width="1.5"/><text x="460" y="118" text-anchor="middle" dominant-baseline="central" fill="#111827" font-size="13" font-family="-apple-system, 'Helvetica Neue', Arial, sans-serif">INSTALLED_APPS</text><rect x="380" y="150" width="160" height="36" rx="6" fill="#f9fafb" stroke="#e5e7eb" stroke-width="1.5"/><text x="460" y="168" text-anchor="middle" dominant-baseline="central" fill="#111827" font-size="13" font-family="-apple-system, 'Helvetica Neue', Arial, sans-serif">MIDDLEWARE</text><rect x="380" y="200" width="160" height="36" rx="6" fill="#f9fafb" stroke="#e5e7eb" stroke-width="1.5"/><text x="460" y="218" text-anchor="middle" dominant-baseline="central" fill="#111827" font-size="13" font-family="-apple-system, 'Helvetica Neue', Arial, sans-serif">RQ_QUEUES</text><rect x="380" y="250" width="160" height="36" rx="6" fill="#f9fafb" stroke="#e5e7eb" stroke-width="1.5"/><text x="460" y="268" text-anchor="middle" dominant-baseline="central" fill="#111827" font-size="13" font-family="-apple-system, 'Helvetica Neue', Arial, sans-serif">EVENTS_PIPELINE</text><path d="M 300 330 L 460 130 L 460 118" stroke="#3b82f6" stroke-width="1.5" fill="none" marker-end="url(#arrow)"/><path d="M 300 330 L 460 168" stroke="#3b82f6" stroke-width="1.5" fill="none" marker-end="url(#arrow)"/><path d="M 300 330 L 460 218" stroke="#3b82f6" stroke-width="1.5" fill="none" marker-end="url(#arrow)"/><path d="M 300 330 L 460 268" stroke="#3b82f6" stroke-width="1.5" fill="none" marker-end="url(#arrow)"/><rect x="60" y="350" width="240" height="40" rx="6" fill="#f9fafb" stroke="#e5e7eb" stroke-width="1.5"/><text x="180" y="370" text-anchor="middle" dominant-baseline="central" fill="#111827" font-size="13" font-family="-apple-system, 'Helvetica Neue', Arial, sans-serif">validate 版本+設定</text><line x1="180" y1="350" x2="180" y2="350" stroke="#3b82f6" stroke-width="1.5" marker-end="url(#arrow)"/><rect x="60" y="270" width="240" height="40" rx="6" fill="#f9fafb" stroke="#e5e7eb" stroke-width="1.5"/><text x="180" y="290" text-anchor="middle" dominant-baseline="central" fill="#111827" font-size="13" font-family="-apple-system, 'Helvetica Neue', Arial, sans-serif">取得 plugin.config</text><line x1="180" y1="310" x2="180" y2="350" stroke="#3b82f6" stroke-width="1.5" marker-end="url(#arrow)"/><rect x="60" y="350" width="240" height="40" rx="6" fill="#f9fafb" stroke="#e5e7eb" stroke-width="1.5"/><text x="180" y="370" text-anchor="middle" dominant-baseline="central" fill="#111827" font-size="13" font-family="-apple-system, 'Helvetica Neue', Arial, sans-serif">validate 版本+設定</text><line x1="180" y1="390" x2="180" y2="430" stroke="#3b82f6" stroke-width="1.5" marker-end="url(#arrow)"/><rect x="60" y="430" width="240" height="40" rx="6" fill="#f9fafb" stroke="#e5e7eb" stroke-width="1.5"/><text x="180" y="450" text-anchor="middle" dominant-baseline="central" fill="#111827" font-size="13" font-family="-apple-system, 'Helvetica Neue', Arial, sans-serif">registry 註冊</text><path d="M 300 450 L 380 136" stroke="#3b82f6" stroke-width="1.5" fill="none" marker-end="url(#arrow)"/><text x="360" y="300" text-anchor="middle" fill="#6b7280" font-size="11" font-family="-apple-system, 'Helvetica Neue', Arial, sans-serif">→INSTALLED_APPS</text><path d="M 300 450 L 380 168" stroke="#3b82f6" stroke-width="1.5" fill="none" marker-end="url(#arrow)"/><text x="360" y="310" text-anchor="middle" fill="#6b7280" font-size="11" font-family="-apple-system, 'Helvetica Neue', Arial, sans-serif">→MIDDLEWARE</text><path d="M 300 450 L 380 218" stroke="#3b82f6" stroke-width="1.5" fill="none" marker-end="url(#arrow)"/><text x="360" y="330" text-anchor="middle" fill="#6b7280" font-size="11" font-family="-apple-system, 'Helvetica Neue', Arial, sans-serif">→RQ_QUEUES</text><path d="M 300 450 L 380 268" stroke="#3b82f6" stroke-width="1.5" fill="none" marker-end="url(#arrow)"/><text x="360" y="360" text-anchor="middle" fill="#6b7280" font-size="11" font-family="-apple-system, 'Helvetica Neue', Arial, sans-serif">→EVENTS_PIPELINE</text><rect x="20" y="400" width="1160" height="290" rx="8" fill="#f0f4ff" stroke="#c7d2fe" stroke-width="1.5" stroke-dasharray="6,3"/><text x="30" y="418" fill="#6b7280" font-size="12" font-family="-apple-system, 'Helvetica Neue', Arial, sans-serif" font-weight="600">Plugin ready()</text><rect x="60" y="450" width="220" height="40" rx="6" fill="#f9fafb" stroke="#e5e7eb" stroke-width="1.5"/><text x="170" y="470" text-anchor="middle" dominant-baseline="central" fill="#111827" font-size="13" font-family="-apple-system, 'Helvetica Neue', Arial, sans-serif">PluginConfig.ready()</text><rect x="350" y="450" width="185" height="40" rx="6" fill="#f9fafb" stroke="#e5e7eb" stroke-width="1.5"/><text x="442" y="470" text-anchor="middle" dominant-baseline="central" fill="#111827" font-size="11" font-family="-apple-system, 'Helvetica Neue', Arial, sans-serif">register_models</text><path d="M 280 470 L 350 470" stroke="#3b82f6" stroke-width="1.5" fill="none" marker-end="url(#arrow)"/><rect x="545" y="450" width="185" height="40" rx="6" fill="#f9fafb" stroke="#e5e7eb" stroke-width="1.5"/><text x="637" y="470" text-anchor="middle" dominant-baseline="central" fill="#111827" font-size="11" font-family="-apple-system, 'Helvetica Neue', Arial, sans-serif">register_search</text><path d="M 280 470 L 545 470" stroke="#3b82f6" stroke-width="1.5" fill="none" marker-end="url(#arrow)"/><rect x="740" y="450" width="185" height="40" rx="6" fill="#f9fafb" stroke="#e5e7eb" stroke-width="1.5"/><text x="832" y="470" text-anchor="middle" dominant-baseline="central" fill="#111827" font-size="11" font-family="-apple-system, 'Helvetica Neue', Arial, sans-serif">register_data_backend</text><path d="M 280 470 L 740 470" stroke="#3b82f6" stroke-width="1.5" fill="none" marker-end="url(#arrow)"/><rect x="935" y="450" width="185" height="40" rx="6" fill="#f9fafb" stroke="#e5e7eb" stroke-width="1.5"/><text x="1027" y="470" text-anchor="middle" dominant-baseline="central" fill="#111827" font-size="11" font-family="-apple-system, 'Helvetica Neue', Arial, sans-serif">register_template_extensions</text><path d="M 280 470 L 935 470" stroke="#3b82f6" stroke-width="1.5" fill="none" marker-end="url(#arrow)"/><rect x="350" y="530" width="185" height="40" rx="6" fill="#f9fafb" stroke="#e5e7eb" stroke-width="1.5"/><text x="442" y="550" text-anchor="middle" dominant-baseline="central" fill="#111827" font-size="11" font-family="-apple-system, 'Helvetica Neue', Arial, sans-serif">register_menu_items</text><path d="M 280 470 L 350 550" stroke="#3b82f6" stroke-width="1.5" fill="none" marker-end="url(#arrow)"/><rect x="545" y="530" width="185" height="40" rx="6" fill="#f9fafb" stroke="#e5e7eb" stroke-width="1.5"/><text x="637" y="550" text-anchor="middle" dominant-baseline="central" fill="#111827" font-size="11" font-family="-apple-system, 'Helvetica Neue', Arial, sans-serif">register_graphql_schema</text><path d="M 280 470 L 545 550" stroke="#3b82f6" stroke-width="1.5" fill="none" marker-end="url(#arrow)"/><rect x="740" y="530" width="185" height="40" rx="6" fill="#f9fafb" stroke="#e5e7eb" stroke-width="1.5"/><text x="832" y="550" text-anchor="middle" dominant-baseline="central" fill="#111827" font-size="11" font-family="-apple-system, 'Helvetica Neue', Arial, sans-serif">register_user_preferences</text><path d="M 280 470 L 740 550" stroke="#3b82f6" stroke-width="1.5" fill="none" marker-end="url(#arrow)"/></svg>
