<svg xmlns="http://www.w3.org/2000/svg" width="1100" height="220" viewBox="0 0 1100 220" font-family="-apple-system, 'Helvetica Neue', Arial, sans-serif">
<defs>
<marker id="arrow" markerWidth="10" markerHeight="7" refX="9" refY="3.5" orient="auto">
  <polygon points="0 0.5, 8.5 3.5, 0 6.5" fill="#3b82f6"/>
</marker>
<marker id="arrow-rev" markerWidth="10" markerHeight="7" refX="1" refY="3.5" orient="auto">
  <polygon points="8.5 0.5, 0 3.5, 8.5 6.5" fill="#3b82f6"/>
</marker>
</defs>
<rect width="1100" height="220" fill="#ffffff"/>
<text x="20" y="30" fill="#6b7280" font-size="12" font-family="-apple-system, 'Helvetica Neue', Arial, sans-serif">netbox-datasource-sync — DataSource 同步流程</text><rect x="30" y="90" width="190" height="40" rx="6" fill="#f9fafb" stroke="#e5e7eb" stroke-width="1.5"/><text x="125" y="110" text-anchor="middle" dominant-baseline="central" fill="#111827" font-size="13" font-family="-apple-system, 'Helvetica Neue', Arial, sans-serif">外部 Git/S3</text><rect x="270" y="90" width="190" height="40" rx="6" fill="#f9fafb" stroke="#e5e7eb" stroke-width="1.5"/><text x="365" y="110" text-anchor="middle" dominant-baseline="central" fill="#111827" font-size="13" font-family="-apple-system, 'Helvetica Neue', Arial, sans-serif">DataSource</text><rect x="470" y="90" width="190" height="40" rx="6" fill="#f9fafb" stroke="#e5e7eb" stroke-width="1.5"/><text x="565" y="110" text-anchor="middle" dominant-baseline="central" fill="#111827" font-size="13" font-family="-apple-system, 'Helvetica Neue', Arial, sans-serif">DataFile</text><rect x="670" y="90" width="190" height="40" rx="6" fill="#f9fafb" stroke="#e5e7eb" stroke-width="1.5"/><text x="765" y="110" text-anchor="middle" dominant-baseline="central" fill="#111827" font-size="13" font-family="-apple-system, 'Helvetica Neue', Arial, sans-serif">AutoSyncRecord</text><rect x="870" y="90" width="190" height="50" rx="6" fill="#f9fafb" stroke="#e5e7eb" stroke-width="1.5"/><text x="965" y="107" text-anchor="middle" dominant-baseline="central" fill="#111827" font-size="13" font-family="-apple-system, 'Helvetica Neue', Arial, sans-serif">ConfigContext/</text><text x="965" y="125" text-anchor="middle" dominant-baseline="central" fill="#6b7280" font-size="11" font-family="-apple-system, 'Helvetica Neue', Arial, sans-serif">ExportTemplate</text><line x1="220" y1="115" x2="270" y2="115" stroke="#3b82f6" stroke-width="1.5" marker-end="url(#arrow)"/><text x="245.0" y="107.0" text-anchor="middle" fill="#6b7280" font-size="11" font-family="-apple-system, 'Helvetica Neue', Arial, sans-serif">sync</text><line x1="460" y1="115" x2="470" y2="115" stroke="#3b82f6" stroke-width="1.5" marker-end="url(#arrow)"/><line x1="660" y1="115" x2="670" y2="115" stroke="#3b82f6" stroke-width="1.5" marker-end="url(#arrow)"/><line x1="860" y1="115" x2="870" y2="115" stroke="#3b82f6" stroke-width="1.5" marker-end="url(#arrow)"/></svg>
