<svg xmlns="http://www.w3.org/2000/svg" width="1200" height="750" viewBox="0 0 1200 750" font-family="-apple-system, 'Helvetica Neue', Arial, sans-serif">
<defs>
<marker id="arrow" markerWidth="10" markerHeight="7" refX="9" refY="3.5" orient="auto">
  <polygon points="0 0.5, 8.5 3.5, 0 6.5" fill="#3b82f6"/>
</marker>
<marker id="arrow-rev" markerWidth="10" markerHeight="7" refX="1" refY="3.5" orient="auto">
  <polygon points="8.5 0.5, 0 3.5, 8.5 6.5" fill="#3b82f6"/>
</marker>
</defs>
<rect width="1200" height="750" fill="#ffffff"/>
<text x="20" y="30" fill="#6b7280" font-size="12" font-family="-apple-system, 'Helvetica Neue', Arial, sans-serif">netbox-prefix-hierarchy-update — Prefix 層級更新流程</text><rect x="490" y="55" width="220" height="40" rx="6" fill="#f9fafb" stroke="#e5e7eb" stroke-width="1.5"/><text x="600" y="75" text-anchor="middle" dominant-baseline="central" fill="#111827" font-size="13" font-family="-apple-system, 'Helvetica Neue', Arial, sans-serif">Prefix save / delete</text><polygon points="600,130 730,170 600,210 470,170" fill="#f9fafb" stroke="#e5e7eb" stroke-width="1.5"/><text x="600" y="170" text-anchor="middle" dominant-baseline="central" fill="#111827" font-size="13" font-family="-apple-system, 'Helvetica Neue', Arial, sans-serif">是否為新建或變更?</text><rect x="50" y="305" width="220" height="40" rx="6" fill="#f9fafb" stroke="#e5e7eb" stroke-width="1.5"/><text x="160" y="325" text-anchor="middle" dominant-baseline="central" fill="#111827" font-size="13" font-family="-apple-system, 'Helvetica Neue', Arial, sans-serif">update_parents_children</text><rect x="450" y="305" width="220" height="40" rx="6" fill="#f9fafb" stroke="#e5e7eb" stroke-width="1.5"/><text x="560" y="325" text-anchor="middle" dominant-baseline="central" fill="#111827" font-size="13" font-family="-apple-system, 'Helvetica Neue', Arial, sans-serif">update_children_depth</text><rect x="870" y="305" width="160" height="40" rx="6" fill="#f9fafb" stroke="#e5e7eb" stroke-width="1.5"/><text x="950" y="325" text-anchor="middle" dominant-baseline="central" fill="#111827" font-size="13" font-family="-apple-system, 'Helvetica Neue', Arial, sans-serif">跳過更新</text><rect x="400" y="430" width="320" height="40" rx="6" fill="#f9fafb" stroke="#e5e7eb" stroke-width="1.5"/><text x="560" y="450" text-anchor="middle" dominant-baseline="central" fill="#111827" font-size="13" font-family="-apple-system, 'Helvetica Neue', Arial, sans-serif">對舊 prefix 也執行更新</text><rect x="10" y="480" width="310" height="40" rx="6" fill="#f9fafb" stroke="#e5e7eb" stroke-width="1.5"/><text x="165" y="500" text-anchor="middle" dominant-baseline="central" fill="#111827" font-size="13" font-family="-apple-system, 'Helvetica Neue', Arial, sans-serif">查詢所有 parent prefixes annotate_hierarchy</text><rect x="50" y="570" width="220" height="40" rx="6" fill="#f9fafb" stroke="#e5e7eb" stroke-width="1.5"/><text x="160" y="590" text-anchor="middle" dominant-baseline="central" fill="#111827" font-size="13" font-family="-apple-system, 'Helvetica Neue', Arial, sans-serif">bulk_update _children 欄位</text><rect x="430" y="530" width="310" height="40" rx="6" fill="#f9fafb" stroke="#e5e7eb" stroke-width="1.5"/><text x="585" y="550" text-anchor="middle" dominant-baseline="central" fill="#111827" font-size="13" font-family="-apple-system, 'Helvetica Neue', Arial, sans-serif">查詢所有 child prefixes annotate_hierarchy</text><rect x="470" y="630" width="220" height="40" rx="6" fill="#f9fafb" stroke="#e5e7eb" stroke-width="1.5"/><text x="580" y="650" text-anchor="middle" dominant-baseline="central" fill="#111827" font-size="13" font-family="-apple-system, 'Helvetica Neue', Arial, sans-serif">bulk_update _depth 欄位</text><line x1="600" y1="95" x2="600" y2="130" stroke="#3b82f6" stroke-width="1.5" marker-end="url(#arrow)"/><path d="M 470 170 L 160 170 L 160 305" stroke="#3b82f6" stroke-width="1.5" fill="none" marker-end="url(#arrow)"/><text x="310" y="160" text-anchor="middle" fill="#6b7280" font-size="11" font-family="-apple-system, 'Helvetica Neue', Arial, sans-serif">是</text><path d="M 560 195 L 560 305" stroke="#3b82f6" stroke-width="1.5" fill="none" marker-end="url(#arrow)"/><text x="540" y="255" text-anchor="middle" fill="#6b7280" font-size="11" font-family="-apple-system, 'Helvetica Neue', Arial, sans-serif">是</text><path d="M 730 170 L 950 170 L 950 305" stroke="#3b82f6" stroke-width="1.5" fill="none" marker-end="url(#arrow)"/><text x="850" y="160" text-anchor="middle" fill="#6b7280" font-size="11" font-family="-apple-system, 'Helvetica Neue', Arial, sans-serif">否</text><path d="M 640 205 L 640 360 L 560 360 L 560 430" stroke="#3b82f6" stroke-width="1.5" fill="none" marker-end="url(#arrow)"/><text x="700" y="395" text-anchor="middle" fill="#6b7280" font-size="11" font-family="-apple-system, 'Helvetica Neue', Arial, sans-serif">修改且 prefix 改變</text><line x1="160" y1="345" x2="160" y2="480" stroke="#3b82f6" stroke-width="1.5" marker-end="url(#arrow)"/><line x1="165" y1="520" x2="165" y2="570" stroke="#3b82f6" stroke-width="1.5" marker-end="url(#arrow)"/><line x1="560" y1="345" x2="560" y2="530" stroke="#3b82f6" stroke-width="1.5" marker-end="url(#arrow)"/><line x1="580" y1="570" x2="580" y2="630" stroke="#3b82f6" stroke-width="1.5" marker-end="url(#arrow)"/><path d="M 400 450 L 160 450 L 160 345" stroke="#3b82f6" stroke-width="1.5" fill="none" marker-end="url(#arrow)"/><path d="M 590 470 L 590 490 L 560 490 L 560 530" stroke="#3b82f6" stroke-width="1.5" fill="none" marker-end="url(#arrow)"/></svg>
