<?xml version="1.0" encoding="utf-8" ?>
<svg baseProfile="full" height="380" version="1.1" width="1600" xmlns="http://www.w3.org/2000/svg" xmlns:ev="http://www.w3.org/2001/xml-events" xmlns:xlink="http://www.w3.org/1999/xlink"><defs><marker id="arr" markerHeight="10" markerWidth="10" orient="auto" refX="10" refY="5"><path d="M0,0 L10,5 L0,10 Z" fill="#3b82f6" /></marker></defs><rect fill="#ffffff" height="380" width="1600" x="0" y="0" /><rect fill="#f9fafb" height="170" rx="12" stroke="#e5e7eb" stroke-width="1.5" width="680" x="50" y="50" /><text fill="#6b7280" font-family="-apple-system, 'Helvetica Neue', Arial, sans-serif" font-size="13" font-weight="600" x="64" y="72">Compaction 前</text><rect fill="#f9fafb" height="110" rx="12" stroke="#e5e7eb" stroke-width="1.5" width="480" x="50" y="250" /><text fill="#6b7280" font-family="-apple-system, 'Helvetica Neue', Arial, sans-serif" font-size="13" font-weight="600" x="64" y="272">Compaction 後</text><rect fill="#fef2f2" height="55" rx="8" stroke="#fca5a5" stroke-width="1.5" width="110" x="80" y="110" /><text dominant-baseline="middle" fill="#111827" font-family="-apple-system, 'Helvetica Neue', Arial, sans-serif" font-size="13" font-weight="600" text-anchor="middle" x="135.0" y="137.5">k=A, v=1</text><line marker-end="url(#arr)" stroke="#3b82f6" stroke-width="1.5" x1="190" x2="208" y1="137.5" y2="137.5" /><rect fill="#fef2f2" height="55" rx="8" stroke="#fca5a5" stroke-width="1.5" width="110" x="208" y="110" /><text dominant-baseline="middle" fill="#111827" font-family="-apple-system, 'Helvetica Neue', Arial, sans-serif" font-size="13" font-weight="600" text-anchor="middle" x="263.0" y="137.5">k=B, v=2</text><line marker-end="url(#arr)" stroke="#3b82f6" stroke-width="1.5" x1="318" x2="336" y1="137.5" y2="137.5" /><rect fill="#f0fdf4" height="55" rx="8" stroke="#86efac" stroke-width="1.5" width="110" x="336" y="110" /><text dominant-baseline="middle" fill="#111827" font-family="-apple-system, 'Helvetica Neue', Arial, sans-serif" font-size="13" font-weight="600" text-anchor="middle" x="391.0" y="137.5">k=A, v=3</text><line marker-end="url(#arr)" stroke="#3b82f6" stroke-width="1.5" x1="446" x2="464" y1="137.5" y2="137.5" /><rect fill="#f0fdf4" height="55" rx="8" stroke="#86efac" stroke-width="1.5" width="110" x="464" y="110" /><text dominant-baseline="middle" fill="#111827" font-family="-apple-system, 'Helvetica Neue', Arial, sans-serif" font-size="13" font-weight="600" text-anchor="middle" x="519.0" y="137.5">k=C, v=4</text><line marker-end="url(#arr)" stroke="#3b82f6" stroke-width="1.5" x1="574" x2="592" y1="137.5" y2="137.5" /><rect fill="#f0fdf4" height="55" rx="8" stroke="#86efac" stroke-width="1.5" width="110" x="592" y="110" /><text dominant-baseline="middle" fill="#111827" font-family="-apple-system, 'Helvetica Neue', Arial, sans-serif" font-size="13" font-weight="600" text-anchor="middle" x="647.0" y="137.5">k=B, v=5</text><rect fill="#f0fdf4" height="55" rx="8" stroke="#86efac" stroke-width="1.5" width="110" x="80" y="285" /><text dominant-baseline="middle" fill="#111827" font-family="-apple-system, 'Helvetica Neue', Arial, sans-serif" font-size="13" font-weight="600" text-anchor="middle" x="135.0" y="312.5">k=A, v=3</text><line marker-end="url(#arr)" stroke="#3b82f6" stroke-width="1.5" x1="190" x2="208" y1="312.5" y2="312.5" /><rect fill="#f0fdf4" height="55" rx="8" stroke="#86efac" stroke-width="1.5" width="110" x="208" y="285" /><text dominant-baseline="middle" fill="#111827" font-family="-apple-system, 'Helvetica Neue', Arial, sans-serif" font-size="13" font-weight="600" text-anchor="middle" x="263.0" y="312.5">k=C, v=4</text><line marker-end="url(#arr)" stroke="#3b82f6" stroke-width="1.5" x1="318" x2="336" y1="312.5" y2="312.5" /><rect fill="#f0fdf4" height="55" rx="8" stroke="#86efac" stroke-width="1.5" width="110" x="336" y="285" /><text dominant-baseline="middle" fill="#111827" font-family="-apple-system, 'Helvetica Neue', Arial, sans-serif" font-size="13" font-weight="600" text-anchor="middle" x="391.0" y="312.5">k=B, v=5</text><line marker-end="url(#arr)" stroke="#3b82f6" stroke-width="2" x1="760" x2="900" y1="135" y2="305" /><text fill="#3b82f6" font-family="-apple-system, 'Helvetica Neue', Arial, sans-serif" font-size="13" font-weight="600" transform="rotate(-25,890,210)" x="890" y="210">Log Compaction</text><rect fill="#f9fafb" height="150" rx="8" stroke="#e5e7eb" stroke-width="1" width="280" x="980" y="100" /><text fill="#6b7280" font-family="-apple-system, 'Helvetica Neue', Arial, sans-serif" font-size="13" font-weight="600" x="994" y="122">圖例</text><rect fill="#fef2f2" height="24" rx="4" stroke="#fca5a5" stroke-width="1.5" width="40" x="1000" y="140" /><text fill="#111827" font-family="-apple-system, 'Helvetica Neue', Arial, sans-serif" font-size="12" x="1052" y="156">已被 Compact 移除</text><rect fill="#f0fdf4" height="24" rx="4" stroke="#86efac" stroke-width="1.5" width="40" x="1000" y="180" /><text fill="#111827" font-family="-apple-system, 'Helvetica Neue', Arial, sans-serif" font-size="12" x="1052" y="196">保留（最新版本）</text></svg>