<?xml version="1.0" encoding="utf-8" ?>
<svg baseProfile="full" height="680" version="1.1" width="1600" xmlns="http://www.w3.org/2000/svg" xmlns:ev="http://www.w3.org/2001/xml-events" xmlns:xlink="http://www.w3.org/1999/xlink"><defs><marker id="arr" markerHeight="10" markerWidth="10" orient="auto" refX="10" refY="5"><path d="M0,0 L10,5 L0,10 Z" fill="#3b82f6" /></marker></defs><rect fill="#ffffff" height="680" width="1600" x="0" y="0" /><rect fill="#f0f4ff" height="55" rx="8" stroke="#c7d2fe" stroke-width="1.5" width="200" x="140" y="30" /><text dominant-baseline="middle" fill="#111827" font-family="-apple-system, 'Helvetica Neue', Arial, sans-serif" font-size="13" font-weight="600" text-anchor="middle" x="240" y="58">Consumer 1</text><line stroke="#d1d5db" stroke-dasharray="6,4" stroke-width="1.5" x1="240" x2="240" y1="85" y2="640" /><rect fill="#f0f4ff" height="55" rx="8" stroke="#c7d2fe" stroke-width="1.5" width="200" x="520" y="30" /><text dominant-baseline="middle" fill="#111827" font-family="-apple-system, 'Helvetica Neue', Arial, sans-serif" font-size="13" font-weight="600" text-anchor="middle" x="620" y="58">Consumer 2</text><line stroke="#d1d5db" stroke-dasharray="6,4" stroke-width="1.5" x1="620" x2="620" y1="85" y2="640" /><rect fill="#f0f4ff" height="55" rx="8" stroke="#c7d2fe" stroke-width="1.5" width="200" x="950" y="30" /><text fill="#111827" font-family="-apple-system, 'Helvetica Neue', Arial, sans-serif" font-size="13" font-weight="600" text-anchor="middle" x="1050" y="51">Group Coordinator</text><text fill="#6b7280" font-family="-apple-system, 'Helvetica Neue', Arial, sans-serif" font-size="11" text-anchor="middle" x="1050" y="70">(Broker)</text><line stroke="#d1d5db" stroke-dasharray="6,4" stroke-width="1.5" x1="1050" x2="1050" y1="85" y2="640" /><line marker-end="url(#arr)" stroke="#3b82f6" stroke-width="1.5" x1="240" x2="1050" y1="120" y2="120" /><rect fill="#ffffff" height="16" opacity="0.92" rx="3" width="224.0" x="533.0" y="107" /><text fill="#6b7280" font-family="-apple-system, 'Helvetica Neue', Arial, sans-serif" font-size="10" text-anchor="middle" x="645.0" y="118">FindCoordinator（按 group.id Hash）</text><line marker-end="url(#arr)" stroke="#3b82f6" stroke-dasharray="8,4" stroke-width="1.5" x1="1050" x2="240" y1="150" y2="150" /><rect fill="#ffffff" height="16" opacity="0.92" rx="3" width="107.0" x="591.5" y="137" /><text fill="#6b7280" font-family="-apple-system, 'Helvetica Neue', Arial, sans-serif" font-size="10" text-anchor="middle" x="645.0" y="148">Coordinator 位址</text><line marker-end="url(#arr)" stroke="#3b82f6" stroke-width="1.5" x1="240" x2="1050" y1="190" y2="190" /><rect fill="#ffffff" height="16" opacity="0.92" rx="3" width="185.0" x="552.5" y="177" /><text fill="#6b7280" font-family="-apple-system, 'Helvetica Neue', Arial, sans-serif" font-size="10" text-anchor="middle" x="645.0" y="188">JoinGroup（第一個加入者成為 Leader）</text><line marker-end="url(#arr)" stroke="#3b82f6" stroke-width="1.5" x1="620" x2="1050" y1="220" y2="220" /><rect fill="#ffffff" height="16" opacity="0.92" rx="3" width="74.5" x="797.75" y="207" /><text fill="#6b7280" font-family="-apple-system, 'Helvetica Neue', Arial, sans-serif" font-size="10" text-anchor="middle" x="835.0" y="218">JoinGroup</text><line marker-end="url(#arr)" stroke="#3b82f6" stroke-dasharray="8,4" stroke-width="1.5" x1="1050" x2="240" y1="255" y2="255" /><rect fill="#ffffff" height="16" opacity="0.92" rx="3" width="276.0" x="507.0" y="242" /><text fill="#6b7280" font-family="-apple-system, 'Helvetica Neue', Arial, sans-serif" font-size="10" text-anchor="middle" x="645.0" y="253">JoinGroupResponse（包含成員資訊，指定 C1 為 Leader）</text><line marker-end="url(#arr)" stroke="#3b82f6" stroke-dasharray="8,4" stroke-width="1.5" x1="1050" x2="620" y1="285" y2="285" /><rect fill="#ffffff" height="16" opacity="0.92" rx="3" width="217.5" x="726.25" y="272" /><text fill="#6b7280" font-family="-apple-system, 'Helvetica Neue', Arial, sans-serif" font-size="10" text-anchor="middle" x="835.0" y="283">JoinGroupResponse（等待 Leader 分配）</text><rect fill="#fefce8" height="22" rx="4" stroke="#fde68a" stroke-width="1" width="171" x="154.5" y="305" /><text fill="#92400e" font-family="-apple-system, 'Helvetica Neue', Arial, sans-serif" font-size="11" text-anchor="middle" x="240" y="321">C1 執行 Partition 分配演算法</text><line marker-end="url(#arr)" stroke="#3b82f6" stroke-width="1.5" x1="240" x2="1050" y1="340" y2="340" /><rect fill="#ffffff" height="16" opacity="0.92" rx="3" width="126.5" x="581.75" y="327" /><text fill="#6b7280" font-family="-apple-system, 'Helvetica Neue', Arial, sans-serif" font-size="10" text-anchor="middle" x="645.0" y="338">SyncGroup（提交分配方案）</text><line marker-end="url(#arr)" stroke="#3b82f6" stroke-width="1.5" x1="620" x2="1050" y1="365" y2="365" /><rect fill="#ffffff" height="16" opacity="0.92" rx="3" width="74.5" x="797.75" y="352" /><text fill="#6b7280" font-family="-apple-system, 'Helvetica Neue', Arial, sans-serif" font-size="10" text-anchor="middle" x="835.0" y="363">SyncGroup</text><line marker-end="url(#arr)" stroke="#3b82f6" stroke-dasharray="8,4" stroke-width="1.5" x1="1050" x2="240" y1="400" y2="400" /><rect fill="#ffffff" height="16" opacity="0.92" rx="3" width="250.0" x="520.0" y="387" /><text fill="#6b7280" font-family="-apple-system, 'Helvetica Neue', Arial, sans-serif" font-size="10" text-anchor="middle" x="645.0" y="398">SyncGroupResponse（C1 的 Partition 分配）</text><line marker-end="url(#arr)" stroke="#3b82f6" stroke-dasharray="8,4" stroke-width="1.5" x1="1050" x2="620" y1="430" y2="430" /><rect fill="#ffffff" height="16" opacity="0.92" rx="3" width="250.0" x="710.0" y="417" /><text fill="#6b7280" font-family="-apple-system, 'Helvetica Neue', Arial, sans-serif" font-size="10" text-anchor="middle" x="835.0" y="428">SyncGroupResponse（C2 的 Partition 分配）</text><rect fill="#f0fdf4" height="120" opacity="0.7" rx="6" stroke="#86efac" stroke-width="1.5" width="760" x="120" y="460" /><text fill="#166534" font-family="-apple-system, 'Helvetica Neue', Arial, sans-serif" font-size="11" font-weight="600" x="130" y="478">loop  Heartbeat</text><line marker-end="url(#arr)" stroke="#3b82f6" stroke-width="1.5" x1="240" x2="1050" y1="510" y2="510" /><rect fill="#ffffff" height="16" opacity="0.92" rx="3" width="217.5" x="536.25" y="497" /><text fill="#6b7280" font-family="-apple-system, 'Helvetica Neue', Arial, sans-serif" font-size="10" text-anchor="middle" x="645.0" y="508">Heartbeat（session.timeout.ms 内）</text><line marker-end="url(#arr)" stroke="#3b82f6" stroke-width="1.5" x1="620" x2="1050" y1="545" y2="545" /><rect fill="#ffffff" height="16" opacity="0.92" rx="3" width="74.5" x="797.75" y="532" /><text fill="#6b7280" font-family="-apple-system, 'Helvetica Neue', Arial, sans-serif" font-size="10" text-anchor="middle" x="835.0" y="543">Heartbeat</text></svg>