<?xml version="1.0" encoding="utf-8" ?>
<svg baseProfile="full" height="620" version="1.1" width="1600" xmlns="http://www.w3.org/2000/svg" xmlns:ev="http://www.w3.org/2001/xml-events" xmlns:xlink="http://www.w3.org/1999/xlink"><defs><marker id="arr" markerHeight="10" markerWidth="10" orient="auto" refX="10" refY="5"><path d="M0,0 L10,5 L0,10 Z" fill="#3b82f6" /></marker></defs><rect fill="#ffffff" height="620" width="1600" x="0" y="0" /><rect fill="#f0f4ff" height="55" rx="8" stroke="#c7d2fe" stroke-width="1.5" width="200" x="100" y="30" /><text dominant-baseline="middle" fill="#111827" font-family="-apple-system, 'Helvetica Neue', Arial, sans-serif" font-size="13" font-weight="600" text-anchor="middle" x="200" y="58">Producer</text><line stroke="#d1d5db" stroke-dasharray="6,4" stroke-width="1.5" x1="200" x2="200" y1="85" y2="580" /><rect fill="#f0f4ff" height="55" rx="8" stroke="#c7d2fe" stroke-width="1.5" width="200" x="420" y="30" /><text fill="#111827" font-family="-apple-system, 'Helvetica Neue', Arial, sans-serif" font-size="13" font-weight="600" text-anchor="middle" x="520" y="52">Partition Leader</text><text fill="#6b7280" font-family="-apple-system, 'Helvetica Neue', Arial, sans-serif" font-size="11" text-anchor="middle" x="520" y="70">(Broker 1)</text><line stroke="#d1d5db" stroke-dasharray="6,4" stroke-width="1.5" x1="520" x2="520" y1="85" y2="580" /><rect fill="#f0f4ff" height="55" rx="8" stroke="#c7d2fe" stroke-width="1.5" width="200" x="740" y="30" /><text fill="#111827" font-family="-apple-system, 'Helvetica Neue', Arial, sans-serif" font-size="13" font-weight="600" text-anchor="middle" x="840" y="52">Follower</text><text fill="#6b7280" font-family="-apple-system, 'Helvetica Neue', Arial, sans-serif" font-size="11" text-anchor="middle" x="840" y="70">(Broker 2)</text><line stroke="#d1d5db" stroke-dasharray="6,4" stroke-width="1.5" x1="840" x2="840" y1="85" y2="580" /><rect fill="#f0f4ff" height="55" rx="8" stroke="#c7d2fe" stroke-width="1.5" width="200" x="1060" y="30" /><text fill="#111827" font-family="-apple-system, 'Helvetica Neue', Arial, sans-serif" font-size="13" font-weight="600" text-anchor="middle" x="1160" y="52">Follower</text><text fill="#6b7280" font-family="-apple-system, 'Helvetica Neue', Arial, sans-serif" font-size="11" text-anchor="middle" x="1160" y="70">(Broker 3)</text><line stroke="#d1d5db" stroke-dasharray="6,4" stroke-width="1.5" x1="1160" x2="1160" y1="85" y2="580" /><line marker-end="url(#arr)" stroke="#3b82f6" stroke-width="1.5" x1="200" x2="520" y1="150" y2="150" /><rect fill="#ffffff" height="16" opacity="0.92" rx="3" width="184" x="268.0" y="137" /><text fill="#6b7280" font-family="-apple-system, 'Helvetica Neue', Arial, sans-serif" font-size="10" text-anchor="middle" x="360.0" y="148">ProduceRequest (acks=-1)</text><path d="M520 185 C580 185,580 210,520 210" fill="none" marker-end="url(#arr)" stroke="#3b82f6" stroke-width="1.5" /><text fill="#6b7280" font-family="-apple-system, 'Helvetica Neue', Arial, sans-serif" font-size="10" x="585" y="199">寫入本地 Log</text><line marker-end="url(#arr)" stroke="#3b82f6" stroke-width="1.5" x1="840" x2="520" y1="230" y2="230" /><rect fill="#ffffff" height="16" opacity="0.92" rx="3" width="198" x="581.0" y="217" /><text fill="#6b7280" font-family="-apple-system, 'Helvetica Neue', Arial, sans-serif" font-size="10" text-anchor="middle" x="680.0" y="228">FetchRequest (Follower 複製)</text><line marker-end="url(#arr)" stroke="#3b82f6" stroke-dasharray="8,4" stroke-width="1.5" x1="520" x2="840" y1="260" y2="260" /><rect fill="#ffffff" height="16" opacity="0.92" rx="3" width="149" x="605.5" y="247" /><text fill="#6b7280" font-family="-apple-system, 'Helvetica Neue', Arial, sans-serif" font-size="10" text-anchor="middle" x="680.0" y="258">FetchResponse (新訊息)</text><path d="M840 290 C900 290,900 315,840 315" fill="none" marker-end="url(#arr)" stroke="#3b82f6" stroke-width="1.5" /><text fill="#6b7280" font-family="-apple-system, 'Helvetica Neue', Arial, sans-serif" font-size="10" x="905" y="304">寫入本地 Log</text><line marker-end="url(#arr)" stroke="#3b82f6" stroke-width="1.5" x1="1160" x2="520" y1="330" y2="330" /><rect fill="#ffffff" height="16" opacity="0.92" rx="3" width="100" x="790.0" y="317" /><text fill="#6b7280" font-family="-apple-system, 'Helvetica Neue', Arial, sans-serif" font-size="10" text-anchor="middle" x="840.0" y="328">FetchRequest</text><line marker-end="url(#arr)" stroke="#3b82f6" stroke-dasharray="8,4" stroke-width="1.5" x1="520" x2="1160" y1="360" y2="360" /><rect fill="#ffffff" height="16" opacity="0.92" rx="3" width="107" x="786.5" y="347" /><text fill="#6b7280" font-family="-apple-system, 'Helvetica Neue', Arial, sans-serif" font-size="10" text-anchor="middle" x="840.0" y="358">FetchResponse</text><path d="M1160 390 C1220 390,1220 415,1160 415" fill="none" marker-end="url(#arr)" stroke="#3b82f6" stroke-width="1.5" /><text fill="#6b7280" font-family="-apple-system, 'Helvetica Neue', Arial, sans-serif" font-size="10" x="1225" y="404">寫入本地 Log</text><rect fill="#fefce8" height="26" rx="4" stroke="#fde68a" stroke-width="1" width="320" x="360" y="424" /><text fill="#92400e" font-family="-apple-system, 'Helvetica Neue', Arial, sans-serif" font-size="11" text-anchor="middle" x="520" y="444">所有 ISR 成員確認後 — 更新 High Watermark</text><line marker-end="url(#arr)" stroke="#3b82f6" stroke-dasharray="8,4" stroke-width="1.5" x1="520" x2="200" y1="490" y2="490" /><rect fill="#ffffff" height="16" opacity="0.92" rx="3" width="184" x="268.0" y="477" /><text fill="#6b7280" font-family="-apple-system, 'Helvetica Neue', Arial, sans-serif" font-size="10" text-anchor="middle" x="360.0" y="488">ProduceResponse (offset)</text></svg>