<?xml version="1.0" encoding="utf-8" ?>
<svg baseProfile="full" height="620" version="1.1" width="1600" xmlns="http://www.w3.org/2000/svg" xmlns:ev="http://www.w3.org/2001/xml-events" xmlns:xlink="http://www.w3.org/1999/xlink"><defs><marker id="arr" markerHeight="10" markerWidth="10" orient="auto" refX="10" refY="5"><path d="M0,0 L10,5 L0,10 Z" fill="#3b82f6" /></marker><marker id="arr2" markerHeight="10" markerWidth="10" orient="auto-start-reverse" refX="0" refY="5"><path d="M0,0 L10,5 L0,10 Z" fill="#3b82f6" /></marker></defs><rect fill="#ffffff" height="620" width="1600" x="0" y="0" /><rect fill="#f0f4ff" height="480" rx="12" stroke="#c7d2fe" stroke-width="1.5" width="490" x="55" y="50" /><text fill="#6b7280" font-family="-apple-system, 'Helvetica Neue', Arial, sans-serif" font-size="13" font-weight="600" x="69" y="72">Controller Quorum（Raft）</text><rect fill="#f9fafb" height="480" rx="12" stroke="#e5e7eb" stroke-width="1.5" width="370" x="630" y="50" /><text fill="#6b7280" font-family="-apple-system, 'Helvetica Neue', Arial, sans-serif" font-size="13" font-weight="600" x="644" y="72">Broker 叢集</text><rect fill="#f9fafb" height="480" rx="12" stroke="#e5e7eb" stroke-width="1.5" width="460" x="1090" y="50" /><text fill="#6b7280" font-family="-apple-system, 'Helvetica Neue', Arial, sans-serif" font-size="13" font-weight="600" x="1104" y="72">用戶端</text><rect fill="#eff6ff" height="70" rx="8" stroke="#3b82f6" stroke-width="1.5" width="220" x="110" y="95" /><text dominant-baseline="middle" fill="#111827" font-family="-apple-system, 'Helvetica Neue', Arial, sans-serif" font-size="13" font-weight="600" text-anchor="middle" x="220.0" y="122.0">Controller 1</text><text fill="#6b7280" font-family="-apple-system, 'Helvetica Neue', Arial, sans-serif" font-size="11" text-anchor="middle" x="220.0" y="142.0">Active Leader</text><rect fill="#f9fafb" height="55" rx="8" stroke="#e5e7eb" stroke-width="1.5" width="180" x="85" y="330" /><text dominant-baseline="middle" fill="#111827" font-family="-apple-system, 'Helvetica Neue', Arial, sans-serif" font-size="13" font-weight="600" text-anchor="middle" x="175.0" y="349.5">Controller 2</text><text fill="#6b7280" font-family="-apple-system, 'Helvetica Neue', Arial, sans-serif" font-size="11" text-anchor="middle" x="175.0" y="369.5">Voter</text><rect fill="#f9fafb" height="55" rx="8" stroke="#e5e7eb" stroke-width="1.5" width="180" x="335" y="330" /><text dominant-baseline="middle" fill="#111827" font-family="-apple-system, 'Helvetica Neue', Arial, sans-serif" font-size="13" font-weight="600" text-anchor="middle" x="425.0" y="349.5">Controller 3</text><text fill="#6b7280" font-family="-apple-system, 'Helvetica Neue', Arial, sans-serif" font-size="11" text-anchor="middle" x="425.0" y="369.5">Voter</text><rect fill="#f9fafb" height="55" rx="8" stroke="#e5e7eb" stroke-width="1.5" width="180" x="675" y="130" /><text dominant-baseline="middle" fill="#111827" font-family="-apple-system, 'Helvetica Neue', Arial, sans-serif" font-size="13" font-weight="600" text-anchor="middle" x="765.0" y="157.5">Broker 1</text><rect fill="#f9fafb" height="55" rx="8" stroke="#e5e7eb" stroke-width="1.5" width="180" x="675" y="235" /><text dominant-baseline="middle" fill="#111827" font-family="-apple-system, 'Helvetica Neue', Arial, sans-serif" font-size="13" font-weight="600" text-anchor="middle" x="765.0" y="262.5">Broker 2</text><rect fill="#f9fafb" height="55" rx="8" stroke="#e5e7eb" stroke-width="1.5" width="180" x="675" y="340" /><text dominant-baseline="middle" fill="#111827" font-family="-apple-system, 'Helvetica Neue', Arial, sans-serif" font-size="13" font-weight="600" text-anchor="middle" x="765.0" y="367.5">Broker 3</text><rect fill="#f9fafb" height="55" rx="8" stroke="#e5e7eb" stroke-width="1.5" width="180" x="1140" y="130" /><text dominant-baseline="middle" fill="#111827" font-family="-apple-system, 'Helvetica Neue', Arial, sans-serif" font-size="13" font-weight="600" text-anchor="middle" x="1230.0" y="157.5">Producer</text><rect fill="#f9fafb" height="55" rx="8" stroke="#e5e7eb" stroke-width="1.5" width="180" x="1140" y="235" /><text dominant-baseline="middle" fill="#111827" font-family="-apple-system, 'Helvetica Neue', Arial, sans-serif" font-size="13" font-weight="600" text-anchor="middle" x="1230.0" y="262.5">Consumer</text><rect fill="#f9fafb" height="55" rx="8" stroke="#e5e7eb" stroke-width="1.5" width="200" x="1140" y="340" /><text dominant-baseline="middle" fill="#111827" font-family="-apple-system, 'Helvetica Neue', Arial, sans-serif" font-size="13" font-weight="600" text-anchor="middle" x="1240.0" y="367.5">AdminClient</text><line marker-end="url(#arr)" marker-start="url(#arr2)" stroke="#3b82f6" stroke-width="1.5" x1="200" x2="180" y1="165" y2="347" /><rect fill="#ffffff" height="18" opacity="0.92" rx="3" width="108" x="136.0" y="246.0" /><text dominant-baseline="middle" fill="#6b7280" font-family="-apple-system, 'Helvetica Neue', Arial, sans-serif" font-size="10" text-anchor="middle" x="190.0" y="257.0">Raft 選舉 / Log 複製</text><line marker-end="url(#arr)" marker-start="url(#arr2)" stroke="#3b82f6" stroke-width="1.5" x1="240" x2="420" y1="165" y2="347" /><rect fill="#ffffff" height="18" opacity="0.92" rx="3" width="108" x="276.0" y="246.0" /><text dominant-baseline="middle" fill="#6b7280" font-family="-apple-system, 'Helvetica Neue', Arial, sans-serif" font-size="10" text-anchor="middle" x="330.0" y="257.0">Raft 選舉 / Log 複製</text><line marker-end="url(#arr)" marker-start="url(#arr2)" stroke="#3b82f6" stroke-width="1.5" x1="185" x2="415" y1="365" y2="365" /><rect fill="#ffffff" height="18" opacity="0.92" rx="3" width="108" x="246.0" y="355.0" /><text dominant-baseline="middle" fill="#6b7280" font-family="-apple-system, 'Helvetica Neue', Arial, sans-serif" font-size="10" text-anchor="middle" x="300.0" y="366.0">Raft 選舉 / Log 複製</text><line marker-end="url(#arr)" stroke="#3b82f6" stroke-width="1.5" x1="545" x2="675" y1="130" y2="157" /><rect fill="#ffffff" height="18" opacity="0.92" rx="3" width="144" x="538.0" y="133.5" /><text dominant-baseline="middle" fill="#6b7280" font-family="-apple-system, 'Helvetica Neue', Arial, sans-serif" font-size="10" text-anchor="middle" x="610.0" y="144.5">MetadataUpdate (Fetch)</text><line marker-end="url(#arr)" stroke="#3b82f6" stroke-width="1.5" x1="545" x2="675" y1="165" y2="262" /><line marker-end="url(#arr)" stroke="#3b82f6" stroke-width="1.5" x1="545" x2="675" y1="200" y2="367" /><rect fill="#ffffff" height="18" opacity="0.92" rx="3" width="144" x="538.0" y="273.5" /><text dominant-baseline="middle" fill="#6b7280" font-family="-apple-system, 'Helvetica Neue', Arial, sans-serif" font-size="10" text-anchor="middle" x="610.0" y="284.5">MetadataUpdate (Fetch)</text><line marker-end="url(#arr)" stroke="#3b82f6" stroke-width="1.5" x1="1140" x2="855" y1="157" y2="157" /><rect fill="#ffffff" height="18" opacity="0.92" rx="3" width="54" x="970.5" y="147.0" /><text dominant-baseline="middle" fill="#6b7280" font-family="-apple-system, 'Helvetica Neue', Arial, sans-serif" font-size="10" text-anchor="middle" x="997.5" y="158.0">Produce</text><line marker-end="url(#arr)" stroke="#3b82f6" stroke-width="1.5" x1="1140" x2="855" y1="262" y2="262" /><rect fill="#ffffff" height="18" opacity="0.92" rx="3" width="42" x="976.5" y="252.0" /><text dominant-baseline="middle" fill="#6b7280" font-family="-apple-system, 'Helvetica Neue', Arial, sans-serif" font-size="10" text-anchor="middle" x="997.5" y="263.0">Fetch</text><line marker-end="url(#arr)" stroke="#3b82f6" stroke-width="1.5" x1="1150" x2="545" y1="357" y2="350" /><rect fill="#ffffff" height="18" opacity="0.92" rx="3" width="66" x="814.5" y="343.5" /><text dominant-baseline="middle" fill="#6b7280" font-family="-apple-system, 'Helvetica Neue', Arial, sans-serif" font-size="10" text-anchor="middle" x="847.5" y="354.5">Admin API</text><line marker-end="url(#arr)" stroke="#3b82f6" stroke-width="1.5" x1="1150" x2="855" y1="377" y2="167" /><rect fill="#ffffff" height="18" opacity="0.92" rx="3" width="66" x="969.5" y="262.0" /><text dominant-baseline="middle" fill="#6b7280" font-family="-apple-system, 'Helvetica Neue', Arial, sans-serif" font-size="10" text-anchor="middle" x="1002.5" y="273.0">Admin API</text></svg>