<?xml version="1.0" encoding="utf-8" ?>
<svg baseProfile="full" height="620" version="1.1" width="1600" xmlns="http://www.w3.org/2000/svg" xmlns:ev="http://www.w3.org/2001/xml-events" xmlns:xlink="http://www.w3.org/1999/xlink"><defs><marker id="arr" markerHeight="10" markerWidth="10" orient="auto" refX="10" refY="5"><path d="M0,0 L10,5 L0,10 Z" fill="#3b82f6" /></marker></defs><rect fill="#ffffff" height="620" width="1600" x="0" y="0" /><rect fill="#f0f4ff" height="55" rx="8" stroke="#c7d2fe" stroke-width="1.5" width="200" x="120" y="30" /><text fill="#111827" font-family="-apple-system, 'Helvetica Neue', Arial, sans-serif" font-size="13" font-weight="600" text-anchor="middle" x="220" y="51">Transactional</text><text fill="#111827" font-family="-apple-system, 'Helvetica Neue', Arial, sans-serif" font-size="13" font-weight="600" text-anchor="middle" x="220" y="71">Producer</text><line stroke="#d1d5db" stroke-dasharray="6,4" stroke-width="1.5" x1="220" x2="220" y1="85" y2="600" /><rect fill="#f0f4ff" height="55" rx="8" stroke="#c7d2fe" stroke-width="1.5" width="200" x="580" y="30" /><text fill="#111827" font-family="-apple-system, 'Helvetica Neue', Arial, sans-serif" font-size="13" font-weight="600" text-anchor="middle" x="680" y="51">Transaction</text><text fill="#111827" font-family="-apple-system, 'Helvetica Neue', Arial, sans-serif" font-size="13" font-weight="600" text-anchor="middle" x="680" y="71">Coordinator</text><line stroke="#d1d5db" stroke-dasharray="6,4" stroke-width="1.5" x1="680" x2="680" y1="85" y2="600" /><rect fill="#f0f4ff" height="55" rx="8" stroke="#c7d2fe" stroke-width="1.5" width="200" x="1100" y="30" /><text fill="#111827" font-family="-apple-system, 'Helvetica Neue', Arial, sans-serif" font-size="13" font-weight="600" text-anchor="middle" x="1200" y="51">Broker</text><text fill="#111827" font-family="-apple-system, 'Helvetica Neue', Arial, sans-serif" font-size="13" font-weight="600" text-anchor="middle" x="1200" y="71">（目標 Partition）</text><line stroke="#d1d5db" stroke-dasharray="6,4" stroke-width="1.5" x1="1200" x2="1200" y1="85" y2="600" /><line marker-end="url(#arr)" stroke="#3b82f6" stroke-width="1.5" x1="220" x2="680" y1="120" y2="120" /><rect fill="#ffffff" height="16" opacity="0.92" rx="3" width="220.0" x="340.0" y="107" /><text fill="#6b7280" font-family="-apple-system, 'Helvetica Neue', Arial, sans-serif" font-size="10" text-anchor="middle" x="450.0" y="118">InitProducerId（取得 PID 與 Epoch）</text><line marker-end="url(#arr)" stroke="#3b82f6" stroke-dasharray="8,4" stroke-width="1.5" x1="680" x2="220" y1="155" y2="155" /><rect fill="#ffffff" height="16" opacity="0.92" rx="3" width="186.0" x="357.0" y="142" /><text fill="#6b7280" font-family="-apple-system, 'Helvetica Neue', Arial, sans-serif" font-size="10" text-anchor="middle" x="450.0" y="153">ProducerId, ProducerEpoch</text><line marker-end="url(#arr)" stroke="#3b82f6" stroke-width="1.5" x1="220" x2="680" y1="200" y2="200" /><rect fill="#ffffff" height="16" opacity="0.92" rx="3" width="179.2" x="360.4" y="187" /><text fill="#6b7280" font-family="-apple-system, 'Helvetica Neue', Arial, sans-serif" font-size="10" text-anchor="middle" x="450.0" y="198">BeginTransaction（本地狀態變更）</text><line marker-end="url(#arr)" stroke="#3b82f6" stroke-width="1.5" x1="220" x2="680" y1="235" y2="235" /><rect fill="#ffffff" height="16" opacity="0.92" rx="3" width="247.2" x="326.4" y="222" /><text fill="#6b7280" font-family="-apple-system, 'Helvetica Neue', Arial, sans-serif" font-size="10" text-anchor="middle" x="450.0" y="233">AddPartitionsToTxn（登記參與 Partition）</text><line marker-end="url(#arr)" stroke="#3b82f6" stroke-dasharray="8,4" stroke-width="1.5" x1="680" x2="220" y1="265" y2="265" /><rect fill="#ffffff" height="16" opacity="0.92" rx="3" width="29.6" x="435.2" y="252" /><text fill="#6b7280" font-family="-apple-system, 'Helvetica Neue', Arial, sans-serif" font-size="10" text-anchor="middle" x="450.0" y="263">OK</text><line marker-end="url(#arr)" stroke="#3b82f6" stroke-width="1.5" x1="220" x2="1200" y1="305" y2="305" /><rect fill="#ffffff" height="16" opacity="0.92" rx="3" width="288.0" x="566.0" y="292" /><text fill="#6b7280" font-family="-apple-system, 'Helvetica Neue', Arial, sans-serif" font-size="10" text-anchor="middle" x="710.0" y="303">ProduceRequest（帶 PID + Epoch + Sequence）</text><line marker-end="url(#arr)" stroke="#3b82f6" stroke-dasharray="8,4" stroke-width="1.5" x1="1200" x2="220" y1="340" y2="340" /><rect fill="#ffffff" height="16" opacity="0.92" rx="3" width="118.0" x="651.0" y="327" /><text fill="#6b7280" font-family="-apple-system, 'Helvetica Neue', Arial, sans-serif" font-size="10" text-anchor="middle" x="710.0" y="338">ProduceResponse</text><line marker-end="url(#arr)" stroke="#3b82f6" stroke-width="1.5" x1="220" x2="680" y1="385" y2="385" /><rect fill="#ffffff" height="16" opacity="0.92" rx="3" width="220.0" x="340.0" y="372" /><text fill="#6b7280" font-family="-apple-system, 'Helvetica Neue', Arial, sans-serif" font-size="10" text-anchor="middle" x="450.0" y="383">EndTransaction（Commit 或 Abort）</text><line marker-end="url(#arr)" stroke="#3b82f6" stroke-width="1.5" x1="680" x2="1200" y1="420" y2="420" /><rect fill="#ffffff" height="16" opacity="0.92" rx="3" width="254.0" x="813.0" y="407" /><text fill="#6b7280" font-family="-apple-system, 'Helvetica Neue', Arial, sans-serif" font-size="10" text-anchor="middle" x="940.0" y="418">WriteTxnMarkers（寫入 COMMIT/ABORT 標記）</text><line marker-end="url(#arr)" stroke="#3b82f6" stroke-dasharray="8,4" stroke-width="1.5" x1="680" x2="220" y1="455" y2="455" /><rect fill="#ffffff" height="16" opacity="0.92" rx="3" width="145.2" x="377.4" y="442" /><text fill="#6b7280" font-family="-apple-system, 'Helvetica Neue', Arial, sans-serif" font-size="10" text-anchor="middle" x="450.0" y="453">TransactionComplete</text></svg>