<?xml version="1.0" encoding="utf-8" ?>
<svg baseProfile="full" height="420" version="1.1" width="1200" xmlns="http://www.w3.org/2000/svg" xmlns:ev="http://www.w3.org/2001/xml-events" xmlns:xlink="http://www.w3.org/1999/xlink"><defs><marker id="arr" markerHeight="10" markerWidth="10" orient="auto" refX="10" refY="5"><path d="M0,0 L10,5 L0,10 Z" fill="#3b82f6" /></marker></defs><rect fill="#ffffff" height="420" width="1200" x="0" y="0" /><rect fill="#f0f4ff" height="55" rx="8" stroke="#c7d2fe" stroke-width="1.5" width="200" x="130" y="30" /><text dominant-baseline="middle" fill="#111827" font-family="-apple-system, 'Helvetica Neue', Arial, sans-serif" font-size="13" font-weight="600" text-anchor="middle" x="230" y="57">Consumer</text><line stroke="#d1d5db" stroke-dasharray="6,4" stroke-width="1.5" x1="230" x2="230" y1="85" y2="390" /><rect fill="#f0f4ff" height="55" rx="8" stroke="#c7d2fe" stroke-width="1.5" width="200" x="630" y="30" /><text fill="#111827" font-family="-apple-system, 'Helvetica Neue', Arial, sans-serif" font-size="13" font-weight="600" text-anchor="middle" x="730" y="51">Broker</text><text fill="#6b7280" font-family="-apple-system, 'Helvetica Neue', Arial, sans-serif" font-size="11" text-anchor="middle" x="730" y="70">(Group Coordinator)</text><line stroke="#d1d5db" stroke-dasharray="6,4" stroke-width="1.5" x1="730" x2="730" y1="85" y2="390" /><line marker-end="url(#arr)" stroke="#3b82f6" stroke-width="1.5" x1="230" x2="730" y1="130" y2="130" /><rect fill="#ffffff" height="16" opacity="0.92" rx="3" width="288.0" x="336.0" y="117" /><text fill="#6b7280" font-family="-apple-system, 'Helvetica Neue', Arial, sans-serif" font-size="10" text-anchor="middle" x="480.0" y="128">FetchRequest（從 lastCommittedOffset 開始消費）</text><line marker-end="url(#arr)" stroke="#3b82f6" stroke-dasharray="8,4" stroke-width="1.5" x1="730" x2="230" y1="175" y2="175" /><rect fill="#ffffff" height="16" opacity="0.92" rx="3" width="145.2" x="407.4" y="162" /><text fill="#6b7280" font-family="-apple-system, 'Helvetica Neue', Arial, sans-serif" font-size="10" text-anchor="middle" x="480.0" y="173">FetchResponse（批次訊息）</text><rect fill="#fefce8" height="22" rx="4" stroke="#fde68a" stroke-width="1" width="54.0" x="203.0" y="205" /><text fill="#92400e" font-family="-apple-system, 'Helvetica Neue', Arial, sans-serif" font-size="11" text-anchor="middle" x="230" y="221">處理訊息</text><line marker-end="url(#arr)" stroke="#3b82f6" stroke-width="1.5" x1="230" x2="730" y1="255" y2="255" /><rect fill="#ffffff" height="16" opacity="0.92" rx="3" width="294.8" x="332.6" y="242" /><text fill="#6b7280" font-family="-apple-system, 'Helvetica Neue', Arial, sans-serif" font-size="10" text-anchor="middle" x="480.0" y="253">OffsetCommitRequest（提交 currentOffset + 1）</text><line marker-end="url(#arr)" stroke="#3b82f6" stroke-dasharray="8,4" stroke-width="1.5" x1="730" x2="230" y1="300" y2="300" /><rect fill="#ffffff" height="16" opacity="0.92" rx="3" width="152.0" x="404.0" y="287" /><text fill="#6b7280" font-family="-apple-system, 'Helvetica Neue', Arial, sans-serif" font-size="10" text-anchor="middle" x="480.0" y="298">OffsetCommitResponse</text></svg>