<svg xmlns="http://www.w3.org/2000/svg" width="900" height="800" viewBox="0 0 900 800">
<defs>
  <marker id="arr" markerWidth="8" markerHeight="8" refX="6" refY="3" orient="auto">
    <path d="M0,0 L0,6 L8,3 z" fill="#3b82f6"/>
  </marker>
</defs>
<rect width="900" height="800" fill="#ffffff"/>
<rect x="350" y="28" width="200" height="44" rx="8" fill="#f9fafb" stroke="#e5e7eb" stroke-width="1.5"/>
<text x="450" y="55" text-anchor="middle" font-family="-apple-system, 'Helvetica Neue', Arial, sans-serif" font-size="12" fill="#111827" font-weight="600">遍歷每個 Go 檔案</text>
<polygon points="450,105 580,140 450,175 320,140" fill="#fef3c7" stroke="#fbbf24" stroke-width="1.5"/>
<text x="450" y="133" text-anchor="middle" font-family="-apple-system, 'Helvetica Neue', Arial, sans-serif" font-size="11" fill="#111827" font-weight="600">檔案是否 import</text>
<text x="450" y="149" text-anchor="middle" font-family="-apple-system, 'Helvetica Neue', Arial, sans-serif" font-size="11" fill="#6b7280">監控相關套件?</text>
<rect x="630" y="118" width="140" height="44" rx="8" fill="#f9fafb" stroke="#e5e7eb" stroke-width="1.5"/>
<text x="700" y="145" text-anchor="middle" font-family="-apple-system, 'Helvetica Neue', Arial, sans-serif" font-size="12" fill="#111827" font-weight="600">跳過此檔案</text>
<rect x="340" y="218" width="220" height="44" rx="8" fill="#f9fafb" stroke="#e5e7eb" stroke-width="1.5"/>
<text x="450" y="245" text-anchor="middle" font-family="-apple-system, 'Helvetica Neue', Arial, sans-serif" font-size="12" fill="#111827" font-weight="600">AST Inspect 所有節點</text>
<polygon points="450,300 560,330 450,360 340,330" fill="#fef3c7" stroke="#fbbf24" stroke-width="1.5"/>
<text x="450" y="323" text-anchor="middle" font-family="-apple-system, 'Helvetica Neue', Arial, sans-serif" font-size="11" fill="#111827" font-weight="600">節點是</text>
<text x="450" y="339" text-anchor="middle" font-family="-apple-system, 'Helvetica Neue', Arial, sans-serif" font-size="11" fill="#6b7280">CallExpr?</text>
<rect x="640" y="308" width="120" height="44" rx="8" fill="#f9fafb" stroke="#e5e7eb" stroke-width="1.5"/>
<text x="700" y="335" text-anchor="middle" font-family="-apple-system, 'Helvetica Neue', Arial, sans-serif" font-size="12" fill="#111827" font-weight="600">繼續遍歷</text>
<polygon points="450,390 570,420 450,450 330,420" fill="#fef3c7" stroke="#fbbf24" stroke-width="1.5"/>
<text x="450" y="413" text-anchor="middle" font-family="-apple-system, 'Helvetica Neue', Arial, sans-serif" font-size="11" fill="#111827" font-weight="600">是 SelectorExpr</text>
<text x="450" y="429" text-anchor="middle" font-family="-apple-system, 'Helvetica Neue', Arial, sans-serif" font-size="11" fill="#6b7280">方法呼叫?</text>
<polygon points="450,480 565,510 450,540 335,510" fill="#fef3c7" stroke="#fbbf24" stroke-width="1.5"/>
<text x="450" y="515" text-anchor="middle" font-family="-apple-system, 'Helvetica Neue', Arial, sans-serif" font-size="11" fill="#111827" font-weight="600">使用 prometheus 套件?</text>
<rect x="80" y="488" width="200" height="44" rx="8" fill="#f9fafb" stroke="#e5e7eb" stroke-width="1.5"/>
<text x="180" y="515" text-anchor="middle" font-family="-apple-system, 'Helvetica Neue', Arial, sans-serif" font-size="12" fill="#111827" font-weight="600">checkPrometheusMethodCall</text>
<polygon points="450,570 565,600 450,630 335,600" fill="#fef3c7" stroke="#fbbf24" stroke-width="1.5"/>
<text x="450" y="593" text-anchor="middle" font-family="-apple-system, 'Helvetica Neue', Arial, sans-serif" font-size="11" fill="#111827" font-weight="600">檔案在</text>
<text x="450" y="609" text-anchor="middle" font-family="-apple-system, 'Helvetica Neue', Arial, sans-serif" font-size="11" fill="#6b7280">pkg/monitoring 內?</text>
<polygon points="450,663 555,690 450,717 345,690" fill="#fef3c7" stroke="#fbbf24" stroke-width="1.5"/>
<text x="450" y="695" text-anchor="middle" font-family="-apple-system, 'Helvetica Neue', Arial, sans-serif" font-size="11" fill="#111827" font-weight="600">使用 operatormetrics?</text>
<rect x="65" y="668" width="210" height="44" rx="8" fill="#f9fafb" stroke="#e5e7eb" stroke-width="1.5"/>
<text x="170" y="695" text-anchor="middle" font-family="-apple-system, 'Helvetica Neue', Arial, sans-serif" font-size="12" fill="#111827" font-weight="600">checkOperatorMetricsMethodCall</text>
<polygon points="680,663 780,690 680,717 580,690" fill="#fef3c7" stroke="#fbbf24" stroke-width="1.5"/>
<text x="680" y="695" text-anchor="middle" font-family="-apple-system, 'Helvetica Neue', Arial, sans-serif" font-size="11" fill="#111827" font-weight="600">使用 operatorrules?</text>
<rect x="580" y="738" width="200" height="44" rx="8" fill="#f9fafb" stroke="#e5e7eb" stroke-width="1.5"/>
<text x="680" y="765" text-anchor="middle" font-family="-apple-system, 'Helvetica Neue', Arial, sans-serif" font-size="12" fill="#111827" font-weight="600">checkOperatorRulesMethodCall</text>
<line x1="450" y1="72" x2="450" y2="105" stroke="#3b82f6" stroke-width="1.5" marker-end="url(#arr)"/>
<line x1="580" y1="140" x2="630" y2="140" stroke="#3b82f6" stroke-width="1.5" marker-end="url(#arr)"/>
<text x="605" y="134" text-anchor="middle" font-family="-apple-system, 'Helvetica Neue', Arial, sans-serif" font-size="10" fill="#6b7280">否</text>
<line x1="450" y1="175" x2="450" y2="218" stroke="#3b82f6" stroke-width="1.5" marker-end="url(#arr)"/>
<text x="458" y="200" text-anchor="start" font-family="-apple-system, 'Helvetica Neue', Arial, sans-serif" font-size="10" fill="#6b7280">是</text>
<line x1="450" y1="262" x2="450" y2="300" stroke="#3b82f6" stroke-width="1.5" marker-end="url(#arr)"/>
<line x1="560" y1="330" x2="640" y2="330" stroke="#3b82f6" stroke-width="1.5" marker-end="url(#arr)"/>
<text x="600" y="324" text-anchor="middle" font-family="-apple-system, 'Helvetica Neue', Arial, sans-serif" font-size="10" fill="#6b7280">否</text>
<line x1="450" y1="360" x2="450" y2="390" stroke="#3b82f6" stroke-width="1.5" marker-end="url(#arr)"/>
<text x="458" y="379" text-anchor="start" font-family="-apple-system, 'Helvetica Neue', Arial, sans-serif" font-size="10" fill="#6b7280">是</text>
<line x1="570" y1="420" x2="640" y2="420" stroke="#3b82f6" stroke-width="1.5" marker-end="url(#arr)"/>
<text x="605" y="414" text-anchor="middle" font-family="-apple-system, 'Helvetica Neue', Arial, sans-serif" font-size="10" fill="#6b7280">否</text>
<line x1="450" y1="450" x2="450" y2="480" stroke="#3b82f6" stroke-width="1.5" marker-end="url(#arr)"/>
<text x="458" y="469" text-anchor="start" font-family="-apple-system, 'Helvetica Neue', Arial, sans-serif" font-size="10" fill="#6b7280">是</text>
<line x1="335" y1="510" x2="280" y2="510" stroke="#3b82f6" stroke-width="1.5" marker-end="url(#arr)"/>
<text x="307" y="504" text-anchor="middle" font-family="-apple-system, 'Helvetica Neue', Arial, sans-serif" font-size="10" fill="#6b7280">是</text>
<line x1="450" y1="540" x2="450" y2="570" stroke="#3b82f6" stroke-width="1.5" marker-end="url(#arr)"/>
<text x="458" y="559" text-anchor="start" font-family="-apple-system, 'Helvetica Neue', Arial, sans-serif" font-size="10" fill="#6b7280">否</text>
<path d="M565,600 L700,600 L700,352" stroke="#3b82f6" stroke-width="1.5" fill="none" marker-end="url(#arr)"/>
<text x="730" y="594" text-anchor="middle" font-family="-apple-system, 'Helvetica Neue', Arial, sans-serif" font-size="10" fill="#6b7280">是</text>
<line x1="450" y1="630" x2="450" y2="662" stroke="#3b82f6" stroke-width="1.5" marker-end="url(#arr)"/>
<text x="458" y="650" text-anchor="start" font-family="-apple-system, 'Helvetica Neue', Arial, sans-serif" font-size="10" fill="#6b7280">否</text>
<line x1="345" y1="690" x2="275" y2="690" stroke="#3b82f6" stroke-width="1.5" marker-end="url(#arr)"/>
<text x="310" y="684" text-anchor="middle" font-family="-apple-system, 'Helvetica Neue', Arial, sans-serif" font-size="10" fill="#6b7280">是</text>
<line x1="555" y1="690" x2="580" y2="690" stroke="#3b82f6" stroke-width="1.5" marker-end="url(#arr)"/>
<text x="567" y="684" text-anchor="middle" font-family="-apple-system, 'Helvetica Neue', Arial, sans-serif" font-size="10" fill="#6b7280">否</text>
<line x1="680" y1="718" x2="680" y2="738" stroke="#3b82f6" stroke-width="1.5" marker-end="url(#arr)"/>
<text x="688" y="732" text-anchor="start" font-family="-apple-system, 'Helvetica Neue', Arial, sans-serif" font-size="10" fill="#6b7280">是</text>
</svg>