<svg xmlns="http://www.w3.org/2000/svg" width="820" height="700" viewBox="0 0 820 700">
  <defs>
    <marker id="arrow" markerWidth="10" markerHeight="7" refX="9" refY="3.5" orient="auto">
      <polygon points="0 0.5, 8.5 3.5, 0 6.5" fill="#3b82f6"/>
    </marker>
    <marker id="arrow-gray" markerWidth="10" markerHeight="7" refX="9" refY="3.5" orient="auto">
      <polygon points="0 0.5, 8.5 3.5, 0 6.5" fill="#6b7280"/>
    </marker>
    <marker id="arrow-dash" markerWidth="10" markerHeight="7" refX="9" refY="3.5" orient="auto">
      <polygon points="0 0.5, 8.5 3.5, 0 6.5" fill="#3b82f6"/>
    </marker>
  </defs>
  <rect width="820" height="700" fill="#ffffff"/>
  <text x="410" y="26" text-anchor="middle" fill="#111827" font-size="15" font-weight="600" font-family="-apple-system, 'Helvetica Neue', Arial, sans-serif">runbook-sync-downstream 同步架構</text>
  <rect x="360" y="390" width="420" height="280" rx="8" fill="#f0f4ff" stroke="#c7d2fe" stroke-width="1.5" stroke-dasharray="6,3"/>
  <text x="570" y="408" text-anchor="middle" fill="#6b7280" font-size="11" font-weight="600" font-family="-apple-system, 'Helvetica Neue', Arial, sans-serif">updateRunbook</text>
  <rect x="180" y="47" width="200" height="36" rx="6" fill="#f9fafb" stroke="#e5e7eb" stroke-width="1.5"/>
  <text x="280" y="69.25" text-anchor="middle" fill="#111827" font-size="12" font-weight="normal" font-family="-apple-system, 'Helvetica Neue', Arial, sans-serif">開始</text>
  <rect x="145" y="112" width="270" height="36" rx="6" fill="#f9fafb" stroke="#e5e7eb" stroke-width="1.5"/>
  <text x="280" y="134.25" text-anchor="middle" fill="#111827" font-size="12" font-weight="normal" font-family="-apple-system, 'Helvetica Neue', Arial, sans-serif">setup: 克隆 upstream 與 downstream</text>
  <rect x="165" y="182" width="230" height="36" rx="6" fill="#f9fafb" stroke="#e5e7eb" stroke-width="1.5"/>
  <text x="280" y="204.25" text-anchor="middle" fill="#111827" font-size="12" font-weight="normal" font-family="-apple-system, 'Helvetica Neue', Arial, sans-serif">listRunbooksThatNeedUpdate</text>
  <polygon points="280,258 375,280 280,302 185,280" fill="#f9fafb" stroke="#e5e7eb" stroke-width="1.5"/>
  <text x="280" y="284.25" text-anchor="middle" fill="#111827" font-size="12" font-weight="normal" font-family="-apple-system, 'Helvetica Neue', Arial, sans-serif">比對 commit 日期</text>
  <rect x="415" y="322" width="170" height="36" rx="6" fill="#fef9c3" stroke="#fde047" stroke-width="1.5"/>
  <text x="500" y="344.25" text-anchor="middle" fill="#111827" font-size="12" font-weight="normal" font-family="-apple-system, 'Helvetica Neue', Arial, sans-serif">runbooksToUpdate</text>
  <rect x="65" y="322" width="170" height="36" rx="6" fill="#fee2e2" stroke="#fca5a5" stroke-width="1.5"/>
  <text x="150" y="344.25" text-anchor="middle" fill="#111827" font-size="12" font-weight="normal" font-family="-apple-system, 'Helvetica Neue', Arial, sans-serif">runbooksToDeprecate</text>
  <rect x="230" y="344" width="100" height="32" rx="6" fill="#f9fafb" stroke="#e5e7eb" stroke-width="1.5"/>
  <text x="280" y="364.25" text-anchor="middle" fill="#111827" font-size="12" font-weight="normal" font-family="-apple-system, 'Helvetica Neue', Arial, sans-serif">跳過</text>
  <polygon points="570,415 670,435 570,455 470,435" fill="#f9fafb" stroke="#e5e7eb" stroke-width="1.5"/>
  <text x="570" y="439.25" text-anchor="middle" fill="#111827" font-size="12" font-weight="normal" font-family="-apple-system, 'Helvetica Neue', Arial, sans-serif">檢查 PR 是否已存在?</text>
  <rect x="640" y="469" width="80" height="32" rx="6" fill="#f9fafb" stroke="#e5e7eb" stroke-width="1.5"/>
  <text x="680" y="489.25" text-anchor="middle" fill="#111827" font-size="12" font-weight="normal" font-family="-apple-system, 'Helvetica Neue', Arial, sans-serif">跳過</text>
  <rect x="490" y="473" width="160" height="34" rx="6" fill="#f9fafb" stroke="#e5e7eb" stroke-width="1.5"/>
  <text x="570" y="494.25" text-anchor="middle" fill="#111827" font-size="12" font-weight="normal" font-family="-apple-system, 'Helvetica Neue', Arial, sans-serif">建立新分支</text>
  <rect x="470" y="523" width="200" height="34" rx="6" fill="#f9fafb" stroke="#e5e7eb" stroke-width="1.5"/>
  <text x="570" y="544.25" text-anchor="middle" fill="#111827" font-size="12" font-weight="normal" font-family="-apple-system, 'Helvetica Neue', Arial, sans-serif">copyRunbook + transform</text>
  <rect x="490" y="573" width="160" height="34" rx="6" fill="#f9fafb" stroke="#e5e7eb" stroke-width="1.5"/>
  <text x="570" y="594.25" text-anchor="middle" fill="#111827" font-size="12" font-weight="normal" font-family="-apple-system, 'Helvetica Neue', Arial, sans-serif">commit &amp; push</text>
  <rect x="490" y="618" width="160" height="34" rx="6" fill="#f9fafb" stroke="#e5e7eb" stroke-width="1.5"/>
  <text x="570" y="639.25" text-anchor="middle" fill="#111827" font-size="12" font-weight="normal" font-family="-apple-system, 'Helvetica Neue', Arial, sans-serif">建立 PR</text>
  <rect x="490" y="638" width="160" height="34" rx="6" fill="#f9fafb" stroke="#e5e7eb" stroke-width="1.5"/>
  <text x="570" y="659.25" text-anchor="middle" fill="#111827" font-size="12" font-weight="normal" font-family="-apple-system, 'Helvetica Neue', Arial, sans-serif">關閉過時 PR</text>
  <rect x="20" y="390" width="270" height="280" rx="8" fill="#f0f4ff" stroke="#c7d2fe" stroke-width="1.5" stroke-dasharray="6,3"/>
  <text x="155" y="408" text-anchor="middle" fill="#6b7280" font-size="11" font-weight="600" font-family="-apple-system, 'Helvetica Neue', Arial, sans-serif">deprecateRunbook</text>
  <polygon points="155,415 255,435 155,455 55,435" fill="#f9fafb" stroke="#e5e7eb" stroke-width="1.5"/>
  <text x="155" y="439.25" text-anchor="middle" fill="#111827" font-size="12" font-weight="normal" font-family="-apple-system, 'Helvetica Neue', Arial, sans-serif">檢查 PR 是否已存在?</text>
  <rect x="15" y="469" width="70" height="32" rx="6" fill="#f9fafb" stroke="#e5e7eb" stroke-width="1.5"/>
  <text x="50" y="489.25" text-anchor="middle" fill="#111827" font-size="12" font-weight="normal" font-family="-apple-system, 'Helvetica Neue', Arial, sans-serif">跳過</text>
  <rect x="80" y="473" width="150" height="34" rx="6" fill="#f9fafb" stroke="#e5e7eb" stroke-width="1.5"/>
  <text x="155" y="494.25" text-anchor="middle" fill="#111827" font-size="12" font-weight="normal" font-family="-apple-system, 'Helvetica Neue', Arial, sans-serif">建立新分支</text>
  <rect x="65" y="523" width="180" height="34" rx="6" fill="#f9fafb" stroke="#e5e7eb" stroke-width="1.5"/>
  <text x="155" y="544.25" text-anchor="middle" fill="#111827" font-size="12" font-weight="normal" font-family="-apple-system, 'Helvetica Neue', Arial, sans-serif">套用棄用模板</text>
  <rect x="80" y="573" width="150" height="34" rx="6" fill="#f9fafb" stroke="#e5e7eb" stroke-width="1.5"/>
  <text x="155" y="594.25" text-anchor="middle" fill="#111827" font-size="12" font-weight="normal" font-family="-apple-system, 'Helvetica Neue', Arial, sans-serif">commit &amp; push</text>
  <rect x="80" y="618" width="150" height="34" rx="6" fill="#f9fafb" stroke="#e5e7eb" stroke-width="1.5"/>
  <text x="155" y="639.25" text-anchor="middle" fill="#111827" font-size="12" font-weight="normal" font-family="-apple-system, 'Helvetica Neue', Arial, sans-serif">建立 PR</text>
  <line x1="280" y1="83" x2="280" y2="112" stroke="#3b82f6" stroke-width="1.5" marker-end="url(#arrow)"/>
  <line x1="280" y1="148" x2="280" y2="182" stroke="#3b82f6" stroke-width="1.5" marker-end="url(#arrow)"/>
  <line x1="280" y1="218" x2="280" y2="258" stroke="#3b82f6" stroke-width="1.5" marker-end="url(#arrow)"/>
  <line x1="375" y1="280" x2="415" y2="340" stroke="#3b82f6" stroke-width="1.5" marker-end="url(#arrow)"/>
  <text x="410" y="275" text-anchor="middle" fill="#6b7280" font-size="10" font-family="-apple-system, 'Helvetica Neue', Arial, sans-serif">upstream 較新</text>
  <line x1="185" y1="280" x2="235" y2="340" stroke="#3b82f6" stroke-width="1.5" marker-end="url(#arrow)"/>
  <text x="185" y="275" text-anchor="middle" fill="#6b7280" font-size="10" font-family="-apple-system, 'Helvetica Neue', Arial, sans-serif">upstream 不存在</text>
  <line x1="280" y1="302" x2="280" y2="344" stroke="#3b82f6" stroke-width="1.5" marker-end="url(#arrow)"/>
  <text x="305" y="292" text-anchor="middle" fill="#6b7280" font-size="10" font-family="-apple-system, 'Helvetica Neue', Arial, sans-serif">已是最新</text>
  <line x1="500" y1="358" x2="570" y2="415" stroke="#3b82f6" stroke-width="1.5" marker-end="url(#arrow)"/>
  <line x1="150" y1="358" x2="155" y2="415" stroke="#3b82f6" stroke-width="1.5" marker-end="url(#arrow)"/>
  <line x1="670" y1="435" x2="640" y2="485" stroke="#3b82f6" stroke-width="1.5" marker-end="url(#arrow)"/>
  <text x="636" y="430" text-anchor="middle" fill="#6b7280" font-size="10" font-family="-apple-system, 'Helvetica Neue', Arial, sans-serif">已存在</text>
  <line x1="570" y1="455" x2="570" y2="473" stroke="#3b82f6" stroke-width="1.5" marker-end="url(#arrow)"/>
  <text x="588" y="445" text-anchor="middle" fill="#6b7280" font-size="10" font-family="-apple-system, 'Helvetica Neue', Arial, sans-serif">不存在</text>
  <line x1="570" y1="507" x2="570" y2="523" stroke="#3b82f6" stroke-width="1.5" marker-end="url(#arrow)"/>
  <line x1="570" y1="557" x2="570" y2="573" stroke="#3b82f6" stroke-width="1.5" marker-end="url(#arrow)"/>
  <line x1="570" y1="607" x2="570" y2="618" stroke="#3b82f6" stroke-width="1.5" marker-end="url(#arrow)"/>
  <line x1="570" y1="652" x2="570" y2="638" stroke="#3b82f6" stroke-width="1.5" marker-end="url(#arrow)"/>
  <line x1="55" y1="435" x2="85" y2="485" stroke="#3b82f6" stroke-width="1.5" marker-end="url(#arrow)"/>
  <text x="90" y="430" text-anchor="middle" fill="#6b7280" font-size="10" font-family="-apple-system, 'Helvetica Neue', Arial, sans-serif">已存在</text>
  <line x1="155" y1="455" x2="155" y2="473" stroke="#3b82f6" stroke-width="1.5" marker-end="url(#arrow)"/>
  <text x="173" y="445" text-anchor="middle" fill="#6b7280" font-size="10" font-family="-apple-system, 'Helvetica Neue', Arial, sans-serif">不存在</text>
  <line x1="155" y1="507" x2="155" y2="523" stroke="#3b82f6" stroke-width="1.5" marker-end="url(#arrow)"/>
  <line x1="155" y1="557" x2="155" y2="573" stroke="#3b82f6" stroke-width="1.5" marker-end="url(#arrow)"/>
  <line x1="155" y1="607" x2="155" y2="618" stroke="#3b82f6" stroke-width="1.5" marker-end="url(#arrow)"/>
  <text x="410" y="688" text-anchor="middle" fill="#6b7280" font-size="10" font-weight="normal" font-family="-apple-system, 'Helvetica Neue', Arial, sans-serif">runbook-sync-downstream 同步架構與流程分支</text>
</svg>