<svg xmlns="http://www.w3.org/2000/svg" width="1080" height="820" viewBox="0 0 1080 820">
<defs>
  <marker id="arr" markerWidth="8" markerHeight="8" refX="6" refY="3" orient="auto">
    <path d="M0,0 L0,6 L8,3 z" fill="#3b82f6"/>
  </marker>
</defs>
<rect width="1080" height="820" fill="#ffffff"/>
<rect x="170" y="21" width="120" height="38" rx="8" fill="#f9fafb" stroke="#e5e7eb" stroke-width="1.5"/>
<text x="230" y="45" text-anchor="middle" font-family="-apple-system, 'Helvetica Neue', Arial, sans-serif" font-size="12" fill="#111827" font-weight="600">開始</text>
<rect x="100" y="81" width="260" height="38" rx="8" fill="#f9fafb" stroke="#e5e7eb" stroke-width="1.5"/>
<text x="230" y="105" text-anchor="middle" font-family="-apple-system, 'Helvetica Neue', Arial, sans-serif" font-size="12" fill="#111827" font-weight="600">setup: 克隆 upstream 與 downstream</text>
<rect x="115" y="141" width="230" height="38" rx="8" fill="#f9fafb" stroke="#e5e7eb" stroke-width="1.5"/>
<text x="230" y="165" text-anchor="middle" font-family="-apple-system, 'Helvetica Neue', Arial, sans-serif" font-size="12" fill="#111827" font-weight="600">listRunbooksThatNeedUpdate</text>
<polygon points="230,209 345,240 230,271 115,240" fill="#fef3c7" stroke="#fbbf24" stroke-width="1.5"/>
<text x="230" y="244" text-anchor="middle" font-family="-apple-system, 'Helvetica Neue', Arial, sans-serif" font-size="11" fill="#111827" font-weight="600">比對 commit 日期</text>
<rect x="140" y="321" width="180" height="38" rx="8" fill="#f9fafb" stroke="#e5e7eb" stroke-width="1.5"/>
<text x="230" y="345" text-anchor="middle" font-family="-apple-system, 'Helvetica Neue', Arial, sans-serif" font-size="12" fill="#111827" font-weight="600">runbooksToUpdate</text>
<rect x="440" y="221" width="100" height="38" rx="8" fill="#f9fafb" stroke="#e5e7eb" stroke-width="1.5"/>
<text x="490" y="245" text-anchor="middle" font-family="-apple-system, 'Helvetica Neue', Arial, sans-serif" font-size="12" fill="#111827" font-weight="600">跳過</text>
<rect x="385" y="321" width="190" height="38" rx="8" fill="#f9fafb" stroke="#e5e7eb" stroke-width="1.5"/>
<text x="480" y="345" text-anchor="middle" font-family="-apple-system, 'Helvetica Neue', Arial, sans-serif" font-size="12" fill="#111827" font-weight="600">runbooksToDeprecate</text>
<line x1="230" y1="59" x2="230" y2="81" stroke="#3b82f6" stroke-width="1.5" marker-end="url(#arr)"/>
<line x1="230" y1="119" x2="230" y2="141" stroke="#3b82f6" stroke-width="1.5" marker-end="url(#arr)"/>
<line x1="230" y1="179" x2="230" y2="209" stroke="#3b82f6" stroke-width="1.5" marker-end="url(#arr)"/>
<line x1="230" y1="271" x2="230" y2="321" stroke="#3b82f6" stroke-width="1.5" marker-end="url(#arr)"/>
<text x="236" y="300" text-anchor="start" font-family="-apple-system, 'Helvetica Neue', Arial, sans-serif" font-size="10" fill="#6b7280">upstream 較新</text>
<path d="M345,240 L440,240" stroke="#3b82f6" stroke-width="1.5" fill="none" marker-end="url(#arr)"/>
<text x="392" y="233" text-anchor="middle" font-family="-apple-system, 'Helvetica Neue', Arial, sans-serif" font-size="10" fill="#6b7280">已是最新</text>
<path d="M345,240 L480,240 L480,321" stroke="#3b82f6" stroke-width="1.5" fill="none" marker-end="url(#arr)"/>
<text x="500" y="225" text-anchor="middle" font-family="-apple-system, 'Helvetica Neue', Arial, sans-serif" font-size="10" fill="#6b7280">upstream 不存在</text>
<rect x="30" y="395" width="280" height="380" rx="10" fill="#f0f4ff" stroke="#c7d2fe" stroke-width="1.5"/>
<text x="42" y="411" font-family="-apple-system, 'Helvetica Neue', Arial, sans-serif" font-size="11" fill="#6b7280" font-weight="700" font-style="italic">updateRunbook</text>
<rect x="60" y="421" width="200" height="38" rx="8" fill="#f9fafb" stroke="#e5e7eb" stroke-width="1.5"/>
<text x="160" y="445" text-anchor="middle" font-family="-apple-system, 'Helvetica Neue', Arial, sans-serif" font-size="12" fill="#111827" font-weight="600">updateRunbook 流程</text>
<polygon points="160,483 260,510 160,537 60,510" fill="#fef3c7" stroke="#fbbf24" stroke-width="1.5"/>
<text x="160" y="514" text-anchor="middle" font-family="-apple-system, 'Helvetica Neue', Arial, sans-serif" font-size="11" fill="#111827" font-weight="600">PR 是否已存在?</text>
<rect x="255" y="491" width="90" height="38" rx="8" fill="#f9fafb" stroke="#e5e7eb" stroke-width="1.5"/>
<text x="300" y="515" text-anchor="middle" font-family="-apple-system, 'Helvetica Neue', Arial, sans-serif" font-size="12" fill="#111827" font-weight="600">跳過</text>
<rect x="90" y="566" width="140" height="38" rx="8" fill="#f9fafb" stroke="#e5e7eb" stroke-width="1.5"/>
<text x="160" y="590" text-anchor="middle" font-family="-apple-system, 'Helvetica Neue', Arial, sans-serif" font-size="12" fill="#111827" font-weight="600">建立新分支</text>
<rect x="65" y="621" width="190" height="38" rx="8" fill="#f9fafb" stroke="#e5e7eb" stroke-width="1.5"/>
<text x="160" y="645" text-anchor="middle" font-family="-apple-system, 'Helvetica Neue', Arial, sans-serif" font-size="12" fill="#111827" font-weight="600">copyRunbook + transform</text>
<rect x="95" y="676" width="130" height="38" rx="8" fill="#f9fafb" stroke="#e5e7eb" stroke-width="1.5"/>
<text x="160" y="700" text-anchor="middle" font-family="-apple-system, 'Helvetica Neue', Arial, sans-serif" font-size="12" fill="#111827" font-weight="600">commit &amp; push</text>
<rect x="110" y="731" width="100" height="38" rx="8" fill="#f9fafb" stroke="#e5e7eb" stroke-width="1.5"/>
<text x="160" y="755" text-anchor="middle" font-family="-apple-system, 'Helvetica Neue', Arial, sans-serif" font-size="12" fill="#111827" font-weight="600">建立 PR</text>
<rect x="100" y="786" width="120" height="38" rx="8" fill="#f9fafb" stroke="#e5e7eb" stroke-width="1.5"/>
<text x="160" y="810" text-anchor="middle" font-family="-apple-system, 'Helvetica Neue', Arial, sans-serif" font-size="12" fill="#111827" font-weight="600">關閉過時 PR</text>
<line x1="230" y1="359" x2="230" y2="421" stroke="#3b82f6" stroke-width="1.5" marker-end="url(#arr)"/>
<line x1="160" y1="459" x2="160" y2="483" stroke="#3b82f6" stroke-width="1.5" marker-end="url(#arr)"/>
<line x1="260" y1="510" x2="255" y2="510" stroke="#3b82f6" stroke-width="1.5" marker-end="url(#arr)"/>
<text x="257" y="504" text-anchor="middle" font-family="-apple-system, 'Helvetica Neue', Arial, sans-serif" font-size="10" fill="#6b7280">已存在</text>
<line x1="160" y1="537" x2="160" y2="566" stroke="#3b82f6" stroke-width="1.5" marker-end="url(#arr)"/>
<text x="166" y="555" text-anchor="start" font-family="-apple-system, 'Helvetica Neue', Arial, sans-serif" font-size="10" fill="#6b7280">不存在</text>
<line x1="160" y1="604" x2="160" y2="621" stroke="#3b82f6" stroke-width="1.5" marker-end="url(#arr)"/>
<line x1="160" y1="659" x2="160" y2="676" stroke="#3b82f6" stroke-width="1.5" marker-end="url(#arr)"/>
<line x1="160" y1="714" x2="160" y2="731" stroke="#3b82f6" stroke-width="1.5" marker-end="url(#arr)"/>
<line x1="160" y1="769" x2="160" y2="786" stroke="#3b82f6" stroke-width="1.5" marker-end="url(#arr)"/>
<rect x="580" y="395" width="270" height="320" rx="10" fill="#fff0f0" stroke="#fca5a5" stroke-width="1.5"/>
<text x="592" y="411" font-family="-apple-system, 'Helvetica Neue', Arial, sans-serif" font-size="11" fill="#6b7280" font-weight="700" font-style="italic">deprecateRunbook</text>
<rect x="605" y="421" width="190" height="38" rx="8" fill="#f9fafb" stroke="#e5e7eb" stroke-width="1.5"/>
<text x="700" y="445" text-anchor="middle" font-family="-apple-system, 'Helvetica Neue', Arial, sans-serif" font-size="12" fill="#111827" font-weight="600">deprecateRunbook 流程</text>
<polygon points="700,483 795,510 700,537 605,510" fill="#fef3c7" stroke="#fbbf24" stroke-width="1.5"/>
<text x="700" y="514" text-anchor="middle" font-family="-apple-system, 'Helvetica Neue', Arial, sans-serif" font-size="11" fill="#111827" font-weight="600">PR 是否已存在?</text>
<rect x="795" y="491" width="90" height="38" rx="8" fill="#f9fafb" stroke="#e5e7eb" stroke-width="1.5"/>
<text x="840" y="515" text-anchor="middle" font-family="-apple-system, 'Helvetica Neue', Arial, sans-serif" font-size="12" fill="#111827" font-weight="600">跳過</text>
<rect x="630" y="566" width="140" height="38" rx="8" fill="#f9fafb" stroke="#e5e7eb" stroke-width="1.5"/>
<text x="700" y="590" text-anchor="middle" font-family="-apple-system, 'Helvetica Neue', Arial, sans-serif" font-size="12" fill="#111827" font-weight="600">建立新分支</text>
<rect x="620" y="621" width="160" height="38" rx="8" fill="#f9fafb" stroke="#e5e7eb" stroke-width="1.5"/>
<text x="700" y="645" text-anchor="middle" font-family="-apple-system, 'Helvetica Neue', Arial, sans-serif" font-size="12" fill="#111827" font-weight="600">套用棄用模板</text>
<rect x="635" y="676" width="130" height="38" rx="8" fill="#f9fafb" stroke="#e5e7eb" stroke-width="1.5"/>
<text x="700" y="700" text-anchor="middle" font-family="-apple-system, 'Helvetica Neue', Arial, sans-serif" font-size="12" fill="#111827" font-weight="600">commit &amp; push</text>
<rect x="650" y="731" width="100" height="38" rx="8" fill="#f9fafb" stroke="#e5e7eb" stroke-width="1.5"/>
<text x="700" y="755" text-anchor="middle" font-family="-apple-system, 'Helvetica Neue', Arial, sans-serif" font-size="12" fill="#111827" font-weight="600">建立 PR</text>
<line x1="480" y1="359" x2="480" y2="421" stroke="#3b82f6" stroke-width="1.5" marker-end="url(#arr)"/>
<line x1="700" y1="459" x2="700" y2="483" stroke="#3b82f6" stroke-width="1.5" marker-end="url(#arr)"/>
<line x1="795" y1="510" x2="795" y2="510" stroke="#3b82f6" stroke-width="1.5" marker-end="url(#arr)"/>
<text x="795" y="504" text-anchor="middle" font-family="-apple-system, 'Helvetica Neue', Arial, sans-serif" font-size="10" fill="#6b7280">已存在</text>
<line x1="700" y1="537" x2="700" y2="566" stroke="#3b82f6" stroke-width="1.5" marker-end="url(#arr)"/>
<text x="706" y="555" text-anchor="start" font-family="-apple-system, 'Helvetica Neue', Arial, sans-serif" font-size="10" fill="#6b7280">不存在</text>
<line x1="700" y1="604" x2="700" y2="621" stroke="#3b82f6" stroke-width="1.5" marker-end="url(#arr)"/>
<line x1="700" y1="659" x2="700" y2="676" stroke="#3b82f6" stroke-width="1.5" marker-end="url(#arr)"/>
<line x1="700" y1="714" x2="700" y2="731" stroke="#3b82f6" stroke-width="1.5" marker-end="url(#arr)"/>
</svg>