<svg xmlns="http://www.w3.org/2000/svg" width="920" height="520" viewBox="0 0 920 520">
  <defs>
    <marker id="arrow" markerWidth="10" markerHeight="7" refX="9" refY="3.5" orient="auto">
      <polygon points="0 0.5, 8.5 3.5, 0 6.5" fill="#3b82f6"/>
    </marker>
    <marker id="arrow-gray" markerWidth="10" markerHeight="7" refX="9" refY="3.5" orient="auto">
      <polygon points="0 0.5, 8.5 3.5, 0 6.5" fill="#6b7280"/>
    </marker>
    <marker id="arrow-dash" markerWidth="10" markerHeight="7" refX="9" refY="3.5" orient="auto">
      <polygon points="0 0.5, 8.5 3.5, 0 6.5" fill="#3b82f6"/>
    </marker>
  </defs>
  <rect width="920" height="520" fill="#ffffff"/>
  <text x="460" y="26" text-anchor="middle" fill="#111827" font-size="15" font-weight="600" font-family="-apple-system, 'Helvetica Neue', Arial, sans-serif">metricsdocs 生成流程 — Sequence Diagram</text>
  <rect x="10" y="75" width="140" height="40" rx="6" fill="#f0f4ff" stroke="#c7d2fe" stroke-width="1.5"/>
  <text x="80" y="99.25" text-anchor="middle" fill="#111827" font-size="12" font-weight="normal" font-family="-apple-system, 'Helvetica Neue', Arial, sans-serif">main()</text>
  <line x1="80" y1="115" x2="80" y2="470" stroke="#e5e7eb" stroke-width="1" stroke-dasharray="5,3"/>
  <rect x="170" y="75" width="140" height="40" rx="6" fill="#f0f4ff" stroke="#c7d2fe" stroke-width="1.5"/>
  <text x="240" y="99.25" text-anchor="middle" fill="#111827" font-size="12" font-weight="normal" font-family="-apple-system, 'Helvetica Neue', Arial, sans-serif">git.go</text>
  <line x1="240" y1="115" x2="240" y2="470" stroke="#e5e7eb" stroke-width="1" stroke-dasharray="5,3"/>
  <rect x="330" y="75" width="140" height="40" rx="6" fill="#f0f4ff" stroke="#c7d2fe" stroke-width="1.5"/>
  <text x="400" y="99.25" text-anchor="middle" fill="#111827" font-size="12" font-weight="normal" font-family="-apple-system, 'Helvetica Neue', Arial, sans-serif">parseMetrics</text>
  <line x1="400" y1="115" x2="400" y2="470" stroke="#e5e7eb" stroke-width="1" stroke-dasharray="5,3"/>
  <rect x="510" y="75" width="140" height="40" rx="6" fill="#f0f4ff" stroke="#c7d2fe" stroke-width="1.5"/>
  <text x="580" y="99.25" text-anchor="middle" fill="#111827" font-size="12" font-weight="normal" font-family="-apple-system, 'Helvetica Neue', Arial, sans-serif">metrics.tmpl</text>
  <line x1="580" y1="115" x2="580" y2="470" stroke="#e5e7eb" stroke-width="1" stroke-dasharray="5,3"/>
  <rect x="690" y="75" width="140" height="40" rx="6" fill="#f0f4ff" stroke="#c7d2fe" stroke-width="1.5"/>
  <text x="760" y="99.25" text-anchor="middle" fill="#111827" font-size="12" font-weight="normal" font-family="-apple-system, 'Helvetica Neue', Arial, sans-serif">GitHub API</text>
  <line x1="760" y1="115" x2="760" y2="470" stroke="#e5e7eb" stroke-width="1" stroke-dasharray="5,3"/>
  <path d="M 80 155 Q 150 155 150 171 Q 150 185 80 185" stroke="#3b82f6" stroke-width="1.5" fill="none" marker-end="url(#arrow)"/>
  <text x="145" y="163" text-anchor="middle" fill="#6b7280" font-size="10" font-family="-apple-system, 'Helvetica Neue', Arial, sans-serif">parseArguments()</text>
  <line x1="80" y1="185" x2="240" y2="185" stroke="#3b82f6" stroke-width="1.5" marker-end="url(#arrow)"/>
  <text x="160" y="180" text-anchor="middle" fill="#6b7280" font-size="10" font-family="-apple-system, 'Helvetica Neue', Arial, sans-serif">checkoutProjects()</text>
  <path d="M 240 215 Q 310 215 310 231 Q 310 245 240 245" stroke="#3b82f6" stroke-width="1.5" fill="none" marker-end="url(#arrow)"/>
  <text x="305" y="223" text-anchor="middle" fill="#6b7280" font-size="10" font-family="-apple-system, 'Helvetica Neue', Arial, sans-serif">gitCheckoutUpstream() / pull</text>
  <path d="M 240 245 Q 310 245 310 261 Q 310 275 240 275" stroke="#3b82f6" stroke-width="1.5" fill="none" marker-end="url(#arrow)"/>
  <text x="305" y="253" text-anchor="middle" fill="#6b7280" font-size="10" font-family="-apple-system, 'Helvetica Neue', Arial, sans-serif">gitSwitchToBranch(version)</text>
  <line x1="80" y1="285" x2="400" y2="285" stroke="#3b82f6" stroke-width="1.5" marker-end="url(#arrow)"/>
  <text x="240" y="280" text-anchor="middle" fill="#6b7280" font-size="10" font-family="-apple-system, 'Helvetica Neue', Arial, sans-serif">parseMetrics()</text>
  <path d="M 400 315 Q 470 315 470 331 Q 470 345 400 345" stroke="#3b82f6" stroke-width="1.5" fill="none" marker-end="url(#arrow)"/>
  <text x="465" y="323" text-anchor="middle" fill="#6b7280" font-size="10" font-family="-apple-system, 'Helvetica Neue', Arial, sans-serif">readLines(metricsDocPath)</text>
  <path d="M 400 345 Q 470 345 470 361 Q 470 375 400 375" stroke="#3b82f6" stroke-width="1.5" fill="none" marker-end="url(#arrow)"/>
  <text x="465" y="353" text-anchor="middle" fill="#6b7280" font-size="10" font-family="-apple-system, 'Helvetica Neue', Arial, sans-serif">parseMetricsDoc(content)</text>
  <path d="M 80 385 Q 150 385 150 401 Q 150 415 80 415" stroke="#3b82f6" stroke-width="1.5" fill="none" marker-end="url(#arrow)"/>
  <text x="145" y="393" text-anchor="middle" fill="#6b7280" font-size="10" font-family="-apple-system, 'Helvetica Neue', Arial, sans-serif">writeMetrics() / sortMetrics()</text>
  <line x1="80" y1="415" x2="760" y2="415" stroke="#3b82f6" stroke-width="1.5" marker-end="url(#arrow)"/>
  <text x="420" y="410" text-anchor="middle" fill="#6b7280" font-size="10" font-family="-apple-system, 'Helvetica Neue', Arial, sans-serif">GET release info → 建立連結</text>
  <line x1="80" y1="445" x2="580" y2="445" stroke="#3b82f6" stroke-width="1.5" marker-end="url(#arrow)"/>
  <text x="330" y="440" text-anchor="middle" fill="#6b7280" font-size="10" font-family="-apple-system, 'Helvetica Neue', Arial, sans-serif">Execute(templateData)</text>
  <line x1="580" y1="470" x2="80" y2="470" stroke="#3b82f6" stroke-width="1.5" stroke-dasharray="5,3" marker-end="url(#arrow)"/>
  <text x="330" y="465" text-anchor="middle" fill="#6b7280" font-size="10" font-family="-apple-system, 'Helvetica Neue', Arial, sans-serif">寫入 docs/metrics.md</text>
  <text x="460" y="508" text-anchor="middle" fill="#6b7280" font-size="10" font-weight="normal" font-family="-apple-system, 'Helvetica Neue', Arial, sans-serif">metricsdocs 自動彙整 9 個子專案的指標文件</text>
</svg>