<svg xmlns="http://www.w3.org/2000/svg" width="860" height="520" viewBox="0 0 860 520">
  <defs>
    <marker id="arrow" markerWidth="10" markerHeight="7" refX="9" refY="3.5" orient="auto">
      <polygon points="0 0.5, 8.5 3.5, 0 6.5" fill="#3b82f6"/>
    </marker>
    <marker id="arrow-gray" markerWidth="10" markerHeight="7" refX="9" refY="3.5" orient="auto">
      <polygon points="0 0.5, 8.5 3.5, 0 6.5" fill="#6b7280"/>
    </marker>
    <marker id="arrow-dash" markerWidth="10" markerHeight="7" refX="9" refY="3.5" orient="auto">
      <polygon points="0 0.5, 8.5 3.5, 0 6.5" fill="#3b82f6"/>
    </marker>
  </defs>
  <rect width="860" height="520" fill="#ffffff"/>
  <text x="430" y="26" text-anchor="middle" fill="#111827" font-size="15" font-weight="600" font-family="-apple-system, 'Helvetica Neue', Arial, sans-serif">Runbook 下游同步流程 — Sequence Diagram</text>
  <rect x="10" y="73" width="140" height="44" rx="6" fill="#f0f4ff" stroke="#c7d2fe" stroke-width="1.5"/>
  <text x="80" y="90.75" text-anchor="middle" fill="#111827" font-size="12" font-weight="normal" font-family="-apple-system, 'Helvetica Neue', Arial, sans-serif">GitHub Actions</text>
  <text x="80" y="107.75" text-anchor="middle" fill="#111827" font-size="12" font-weight="normal" font-family="-apple-system, 'Helvetica Neue', Arial, sans-serif">(每日 04:30 UTC)</text>
  <line x1="80" y1="117" x2="80" y2="470" stroke="#e5e7eb" stroke-width="1" stroke-dasharray="5,3"/>
  <rect x="160" y="73" width="140" height="44" rx="6" fill="#f0f4ff" stroke="#c7d2fe" stroke-width="1.5"/>
  <text x="230" y="99.25" text-anchor="middle" fill="#111827" font-size="12" font-weight="normal" font-family="-apple-system, 'Helvetica Neue', Arial, sans-serif">runbook-sync-downstream</text>
  <line x1="230" y1="117" x2="230" y2="470" stroke="#e5e7eb" stroke-width="1" stroke-dasharray="5,3"/>
  <rect x="330" y="73" width="140" height="44" rx="6" fill="#f0f4ff" stroke="#c7d2fe" stroke-width="1.5"/>
  <text x="400" y="90.75" text-anchor="middle" fill="#111827" font-size="12" font-weight="normal" font-family="-apple-system, 'Helvetica Neue', Arial, sans-serif">kubevirt/monitoring</text>
  <text x="400" y="107.75" text-anchor="middle" fill="#111827" font-size="12" font-weight="normal" font-family="-apple-system, 'Helvetica Neue', Arial, sans-serif">(upstream)</text>
  <line x1="400" y1="117" x2="400" y2="470" stroke="#e5e7eb" stroke-width="1" stroke-dasharray="5,3"/>
  <rect x="510" y="73" width="140" height="44" rx="6" fill="#f0f4ff" stroke="#c7d2fe" stroke-width="1.5"/>
  <text x="580" y="90.75" text-anchor="middle" fill="#111827" font-size="12" font-weight="normal" font-family="-apple-system, 'Helvetica Neue', Arial, sans-serif">openshift/runbooks</text>
  <text x="580" y="107.75" text-anchor="middle" fill="#111827" font-size="12" font-weight="normal" font-family="-apple-system, 'Helvetica Neue', Arial, sans-serif">(downstream)</text>
  <line x1="580" y1="117" x2="580" y2="470" stroke="#e5e7eb" stroke-width="1" stroke-dasharray="5,3"/>
  <rect x="680" y="73" width="140" height="44" rx="6" fill="#f0f4ff" stroke="#c7d2fe" stroke-width="1.5"/>
  <text x="750" y="99.25" text-anchor="middle" fill="#111827" font-size="12" font-weight="normal" font-family="-apple-system, 'Helvetica Neue', Arial, sans-serif">hco-bot Fork</text>
  <line x1="750" y1="117" x2="750" y2="470" stroke="#e5e7eb" stroke-width="1" stroke-dasharray="5,3"/>
  <line x1="80" y1="160" x2="230" y2="160" stroke="#3b82f6" stroke-width="1.5" marker-end="url(#arrow)"/>
  <text x="155" y="155" text-anchor="middle" fill="#6b7280" font-size="10" font-family="-apple-system, 'Helvetica Neue', Arial, sans-serif">觸發同步</text>
  <line x1="230" y1="200" x2="400" y2="200" stroke="#3b82f6" stroke-width="1.5" marker-end="url(#arrow)"/>
  <text x="315" y="195" text-anchor="middle" fill="#6b7280" font-size="10" font-family="-apple-system, 'Helvetica Neue', Arial, sans-serif">git clone 上游</text>
  <line x1="230" y1="240" x2="580" y2="240" stroke="#3b82f6" stroke-width="1.5" marker-end="url(#arrow)"/>
  <text x="405" y="235" text-anchor="middle" fill="#6b7280" font-size="10" font-family="-apple-system, 'Helvetica Neue', Arial, sans-serif">git clone 下游</text>
  <path d="M 230 280 Q 300 280 300 300 Q 300 320 230 320" stroke="#3b82f6" stroke-width="1.5" fill="none" marker-end="url(#arrow)"/>
  <text x="290" y="295" text-anchor="middle" fill="#6b7280" font-size="10" font-family="-apple-system, 'Helvetica Neue', Arial, sans-serif">比對 Runbook 差異</text>
  <path d="M 230 310 Q 300 310 300 330 Q 300 350 230 350" stroke="#3b82f6" stroke-width="1.5" fill="none" marker-end="url(#arrow)"/>
  <text x="290" y="325" text-anchor="middle" fill="#6b7280" font-size="10" font-family="-apple-system, 'Helvetica Neue', Arial, sans-serif">套用轉換規則</text>
  <line x1="230" y1="360" x2="750" y2="360" stroke="#3b82f6" stroke-width="1.5" marker-end="url(#arrow)"/>
  <text x="490" y="355" text-anchor="middle" fill="#6b7280" font-size="10" font-family="-apple-system, 'Helvetica Neue', Arial, sans-serif">推送新分支</text>
  <line x1="750" y1="400" x2="580" y2="400" stroke="#3b82f6" stroke-width="1.5" marker-end="url(#arrow)"/>
  <text x="665" y="395" text-anchor="middle" fill="#6b7280" font-size="10" font-family="-apple-system, 'Helvetica Neue', Arial, sans-serif">建立 Pull Request</text>
  <line x1="230" y1="440" x2="580" y2="440" stroke="#3b82f6" stroke-width="1.5" marker-end="url(#arrow)"/>
  <text x="405" y="435" text-anchor="middle" fill="#6b7280" font-size="10" font-family="-apple-system, 'Helvetica Neue', Arial, sans-serif">關閉舊的重複 PR</text>
  <text x="430" y="508" text-anchor="middle" fill="#6b7280" font-size="10" font-weight="normal" font-family="-apple-system, 'Helvetica Neue', Arial, sans-serif">每日自動同步上游 Runbook 至 OpenShift 下游儲存庫</text>
</svg>