<svg xmlns="http://www.w3.org/2000/svg" width="740" height="660" viewBox="0 0 740 660">
  <defs>
    <marker id="arrow" markerWidth="10" markerHeight="7" refX="9" refY="3.5" orient="auto">
      <polygon points="0 0.5, 8.5 3.5, 0 6.5" fill="#3b82f6"/>
    </marker>
    <marker id="arrow-gray" markerWidth="10" markerHeight="7" refX="9" refY="3.5" orient="auto">
      <polygon points="0 0.5, 8.5 3.5, 0 6.5" fill="#6b7280"/>
    </marker>
    <marker id="arrow-dash" markerWidth="10" markerHeight="7" refX="9" refY="3.5" orient="auto">
      <polygon points="0 0.5, 8.5 3.5, 0 6.5" fill="#3b82f6"/>
    </marker>
  </defs>
  <rect width="740" height="660" fill="#ffffff"/>
  <text x="370" y="26" text-anchor="middle" fill="#111827" font-size="15" font-weight="600" font-family="-apple-system, 'Helvetica Neue', Arial, sans-serif">monitoringlinter 分析流程 — Flowchart</text>
  <rect x="250" y="47" width="240" height="36" rx="6" fill="#f9fafb" stroke="#e5e7eb" stroke-width="1.5"/>
  <text x="370" y="69.25" text-anchor="middle" fill="#111827" font-size="12" font-weight="normal" font-family="-apple-system, 'Helvetica Neue', Arial, sans-serif">遍歷每個 Go 檔案</text>
  <polygon points="370,122 500,145 370,168 240,145" fill="#f9fafb" stroke="#e5e7eb" stroke-width="1.5"/>
  <text x="370" y="149.25" text-anchor="middle" fill="#111827" font-size="12" font-weight="normal" font-family="-apple-system, 'Helvetica Neue', Arial, sans-serif">檔案是否 import 監控相關套件?</text>
  <rect x="120" y="183" width="140" height="34" rx="6" fill="#f9fafb" stroke="#e5e7eb" stroke-width="1.5"/>
  <text x="190" y="204.25" text-anchor="middle" fill="#111827" font-size="12" font-weight="normal" font-family="-apple-system, 'Helvetica Neue', Arial, sans-serif">跳過此檔案</text>
  <rect x="260" y="198" width="220" height="34" rx="6" fill="#f9fafb" stroke="#e5e7eb" stroke-width="1.5"/>
  <text x="370" y="219.25" text-anchor="middle" fill="#111827" font-size="12" font-weight="normal" font-family="-apple-system, 'Helvetica Neue', Arial, sans-serif">AST Inspect 所有節點</text>
  <polygon points="370,273 450,295 370,317 290,295" fill="#f9fafb" stroke="#e5e7eb" stroke-width="1.5"/>
  <text x="370" y="299.25" text-anchor="middle" fill="#111827" font-size="12" font-weight="normal" font-family="-apple-system, 'Helvetica Neue', Arial, sans-serif">節點是 CallExpr?</text>
  <rect x="120" y="333" width="140" height="34" rx="6" fill="#f9fafb" stroke="#e5e7eb" stroke-width="1.5"/>
  <text x="190" y="354.25" text-anchor="middle" fill="#111827" font-size="12" font-weight="normal" font-family="-apple-system, 'Helvetica Neue', Arial, sans-serif">繼續遍歷</text>
  <polygon points="370,343 470,365 370,387 270,365" fill="#f9fafb" stroke="#e5e7eb" stroke-width="1.5"/>
  <text x="370" y="369.25" text-anchor="middle" fill="#111827" font-size="12" font-weight="normal" font-family="-apple-system, 'Helvetica Neue', Arial, sans-serif">是 SelectorExpr 方法呼叫?</text>
  <polygon points="370,418 480,440 370,462 260,440" fill="#f9fafb" stroke="#e5e7eb" stroke-width="1.5"/>
  <text x="370" y="444.25" text-anchor="middle" fill="#111827" font-size="12" font-weight="normal" font-family="-apple-system, 'Helvetica Neue', Arial, sans-serif">使用 prometheus 套件?</text>
  <rect x="430" y="475" width="200" height="40" rx="6" fill="#f9fafb" stroke="#e5e7eb" stroke-width="1.5"/>
  <text x="530" y="499.25" text-anchor="middle" fill="#111827" font-size="12" font-weight="normal" font-family="-apple-system, 'Helvetica Neue', Arial, sans-serif">checkPrometheusMethodCall</text>
  <polygon points="370,473 470,495 370,517 270,495" fill="#f9fafb" stroke="#e5e7eb" stroke-width="1.5"/>
  <text x="370" y="499.25" text-anchor="middle" fill="#111827" font-size="12" font-weight="normal" font-family="-apple-system, 'Helvetica Neue', Arial, sans-serif">檔案在 pkg/monitoring 內?</text>
  <rect x="430" y="545" width="200" height="40" rx="6" fill="#f9fafb" stroke="#e5e7eb" stroke-width="1.5"/>
  <text x="530" y="560.75" text-anchor="middle" fill="#111827" font-size="12" font-weight="normal" font-family="-apple-system, 'Helvetica Neue', Arial, sans-serif">checkOperatorMetrics</text>
  <text x="530" y="577.75" text-anchor="middle" fill="#111827" font-size="12" font-weight="normal" font-family="-apple-system, 'Helvetica Neue', Arial, sans-serif">MethodCall</text>
  <polygon points="370,543 470,565 370,587 270,565" fill="#f9fafb" stroke="#e5e7eb" stroke-width="1.5"/>
  <text x="370" y="569.25" text-anchor="middle" fill="#111827" font-size="12" font-weight="normal" font-family="-apple-system, 'Helvetica Neue', Arial, sans-serif">使用 operatorrules?</text>
  <rect x="260" y="592" width="220" height="36" rx="6" fill="#f9fafb" stroke="#e5e7eb" stroke-width="1.5"/>
  <text x="370" y="614.25" text-anchor="middle" fill="#111827" font-size="12" font-weight="normal" font-family="-apple-system, 'Helvetica Neue', Arial, sans-serif">checkOperatorRulesMethodCall</text>
  <line x1="370" y1="83" x2="370" y2="122" stroke="#3b82f6" stroke-width="1.5" marker-end="url(#arrow)"/>
  <line x1="240" y1="145" x2="260" y2="183" stroke="#3b82f6" stroke-width="1.5" marker-end="url(#arrow)"/>
  <text x="240" y="140" text-anchor="middle" fill="#6b7280" font-size="10" font-family="-apple-system, 'Helvetica Neue', Arial, sans-serif">否</text>
  <line x1="370" y1="168" x2="370" y2="198" stroke="#3b82f6" stroke-width="1.5" marker-end="url(#arrow)"/>
  <text x="388" y="155" text-anchor="middle" fill="#6b7280" font-size="10" font-family="-apple-system, 'Helvetica Neue', Arial, sans-serif">是</text>
  <line x1="370" y1="232" x2="370" y2="273" stroke="#3b82f6" stroke-width="1.5" marker-end="url(#arrow)"/>
  <line x1="290" y1="295" x2="260" y2="333" stroke="#3b82f6" stroke-width="1.5" marker-end="url(#arrow)"/>
  <text x="240" y="290" text-anchor="middle" fill="#6b7280" font-size="10" font-family="-apple-system, 'Helvetica Neue', Arial, sans-serif">否</text>
  <line x1="370" y1="317" x2="370" y2="343" stroke="#3b82f6" stroke-width="1.5" marker-end="url(#arrow)"/>
  <text x="388" y="305" text-anchor="middle" fill="#6b7280" font-size="10" font-family="-apple-system, 'Helvetica Neue', Arial, sans-serif">是</text>
  <line x1="270" y1="365" x2="260" y2="360" stroke="#3b82f6" stroke-width="1.5" marker-end="url(#arrow)"/>
  <text x="240" y="360" text-anchor="middle" fill="#6b7280" font-size="10" font-family="-apple-system, 'Helvetica Neue', Arial, sans-serif">否</text>
  <line x1="370" y1="387" x2="370" y2="418" stroke="#3b82f6" stroke-width="1.5" marker-end="url(#arrow)"/>
  <text x="388" y="375" text-anchor="middle" fill="#6b7280" font-size="10" font-family="-apple-system, 'Helvetica Neue', Arial, sans-serif">是</text>
  <line x1="480" y1="440" x2="430" y2="495" stroke="#3b82f6" stroke-width="1.5" marker-end="url(#arrow)"/>
  <text x="467" y="435" text-anchor="middle" fill="#6b7280" font-size="10" font-family="-apple-system, 'Helvetica Neue', Arial, sans-serif">是</text>
  <line x1="370" y1="462" x2="370" y2="473" stroke="#3b82f6" stroke-width="1.5" marker-end="url(#arrow)"/>
  <text x="388" y="450" text-anchor="middle" fill="#6b7280" font-size="10" font-family="-apple-system, 'Helvetica Neue', Arial, sans-serif">否</text>
  <line x1="388" y1="500" x2="470" y2="515" stroke="#3b82f6" stroke-width="1.5" marker-end="url(#arrow)"/>
  <text x="430" y="500" text-anchor="middle" fill="#6b7280" font-size="10" font-family="-apple-system, 'Helvetica Neue', Arial, sans-serif">是→跳過</text>
  <line x1="370" y1="517" x2="370" y2="543" stroke="#3b82f6" stroke-width="1.5" marker-end="url(#arrow)"/>
  <text x="388" y="505" text-anchor="middle" fill="#6b7280" font-size="10" font-family="-apple-system, 'Helvetica Neue', Arial, sans-serif">否</text>
  <line x1="270" y1="503" x2="430" y2="565" stroke="#3b82f6" stroke-width="1.5" marker-end="url(#arrow)"/>
  <text x="240" y="510" text-anchor="middle" fill="#6b7280" font-size="10" font-family="-apple-system, 'Helvetica Neue', Arial, sans-serif">使用operatormetrics?</text>
  <line x1="370" y1="587" x2="370" y2="592" stroke="#3b82f6" stroke-width="1.5" marker-end="url(#arrow)"/>
  <text x="388" y="575" text-anchor="middle" fill="#6b7280" font-size="10" font-family="-apple-system, 'Helvetica Neue', Arial, sans-serif">是</text>
  <text x="370" y="648" text-anchor="middle" fill="#6b7280" font-size="10" font-weight="normal" font-family="-apple-system, 'Helvetica Neue', Arial, sans-serif">基於 go/analysis 框架的 AST 靜態分析流程</text>
</svg>