<svg xmlns="http://www.w3.org/2000/svg" width="780" height="640" viewBox="0 0 780 640">
  <defs>
    <marker id="arrow" markerWidth="10" markerHeight="7" refX="9" refY="3.5" orient="auto">
      <polygon points="0 0.5, 8.5 3.5, 0 6.5" fill="#3b82f6"/>
    </marker>
    <marker id="arrow-gray" markerWidth="10" markerHeight="7" refX="9" refY="3.5" orient="auto">
      <polygon points="0 0.5, 8.5 3.5, 0 6.5" fill="#6b7280"/>
    </marker>
    <marker id="arrow-dash" markerWidth="10" markerHeight="7" refX="9" refY="3.5" orient="auto">
      <polygon points="0 0.5, 8.5 3.5, 0 6.5" fill="#3b82f6"/>
    </marker>
  </defs>
  <rect width="780" height="640" fill="#ffffff"/>
  <text x="390" y="26" text-anchor="middle" fill="#111827" font-size="15" font-weight="600" font-family="-apple-system, 'Helvetica Neue', Arial, sans-serif">monitoringlinter — 靜態分析規則檢查流程</text>
  <rect x="30" y="44" width="200" height="110" rx="8" fill="#f0f4ff" stroke="#c7d2fe" stroke-width="1.5" stroke-dasharray="6,3"/>
  <text x="130" y="62" text-anchor="middle" fill="#6b7280" font-size="11" font-weight="600" font-family="-apple-system, 'Helvetica Neue', Arial, sans-serif">Operator 專案</text>
  <rect x="48" y="73" width="165" height="34" rx="6" fill="#f9fafb" stroke="#e5e7eb" stroke-width="1.5"/>
  <text x="130" y="94.25" text-anchor="middle" fill="#111827" font-size="12" font-weight="normal" font-family="-apple-system, 'Helvetica Neue', Arial, sans-serif">任意 .go 檔案</text>
  <rect x="48" y="115" width="165" height="34" rx="6" fill="#f9fafb" stroke="#e5e7eb" stroke-width="1.5"/>
  <text x="130" y="136.25" text-anchor="middle" fill="#111827" font-size="12" font-weight="normal" font-family="-apple-system, 'Helvetica Neue', Arial, sans-serif">pkg/monitoring/*.go</text>
  <rect x="250" y="44" width="500" height="500" rx="8" fill="#f0f4ff" stroke="#c7d2fe" stroke-width="1.5" stroke-dasharray="6,3"/>
  <text x="500" y="62" text-anchor="middle" fill="#6b7280" font-size="11" font-weight="600" font-family="-apple-system, 'Helvetica Neue', Arial, sans-serif">monitoringlinter 檢查規則</text>
  <polygon points="500,93 610,115 500,137 390,115" fill="#f9fafb" stroke="#e5e7eb" stroke-width="1.5"/>
  <text x="500" y="119.25" text-anchor="middle" fill="#111827" font-size="12" font-weight="normal" font-family="-apple-system, 'Helvetica Neue', Arial, sans-serif">import prometheus?</text>
  <polygon points="500,173 630,195 500,217 370,195" fill="#f9fafb" stroke="#e5e7eb" stroke-width="1.5"/>
  <text x="500" y="199.25" text-anchor="middle" fill="#111827" font-size="12" font-weight="normal" font-family="-apple-system, 'Helvetica Neue', Arial, sans-serif">呼叫 Register/MustRegister?</text>
  <polygon points="500,263 620,285 500,307 380,285" fill="#f9fafb" stroke="#e5e7eb" stroke-width="1.5"/>
  <text x="500" y="289.25" text-anchor="middle" fill="#111827" font-size="12" font-weight="normal" font-family="-apple-system, 'Helvetica Neue', Arial, sans-serif">在 pkg/monitoring 目錄內？</text>
  <polygon points="500,343 600,365 500,387 400,365" fill="#f9fafb" stroke="#e5e7eb" stroke-width="1.5"/>
  <text x="500" y="369.25" text-anchor="middle" fill="#111827" font-size="12" font-weight="normal" font-family="-apple-system, 'Helvetica Neue', Arial, sans-serif">呼叫 RegisterMetrics?</text>
  <polygon points="500,423 630,445 500,467 370,445" fill="#f9fafb" stroke="#e5e7eb" stroke-width="1.5"/>
  <text x="500" y="440.75" text-anchor="middle" fill="#111827" font-size="12" font-weight="normal" font-family="-apple-system, 'Helvetica Neue', Arial, sans-serif">呼叫 RegisterAlerts</text>
  <text x="500" y="457.75" text-anchor="middle" fill="#111827" font-size="12" font-weight="normal" font-family="-apple-system, 'Helvetica Neue', Arial, sans-serif">或 RegisterRecordingRules?</text>
  <rect x="590" y="177" width="180" height="36" rx="6" fill="#fee2e2" stroke="#fca5a5" stroke-width="1.5"/>
  <text x="680" y="199.25" text-anchor="middle" fill="#111827" font-size="12" font-weight="normal" font-family="-apple-system, 'Helvetica Neue', Arial, sans-serif">❌ 必須使用 operator-observability</text>
  <rect x="590" y="347" width="180" height="36" rx="6" fill="#fee2e2" stroke="#fca5a5" stroke-width="1.5"/>
  <text x="680" y="369.25" text-anchor="middle" fill="#111827" font-size="12" font-weight="normal" font-family="-apple-system, 'Helvetica Neue', Arial, sans-serif">❌ 必須在 pkg/monitoring 內</text>
  <rect x="590" y="427" width="180" height="36" rx="6" fill="#fee2e2" stroke="#fca5a5" stroke-width="1.5"/>
  <text x="680" y="449.25" text-anchor="middle" fill="#111827" font-size="12" font-weight="normal" font-family="-apple-system, 'Helvetica Neue', Arial, sans-serif">❌ 必須在 pkg/monitoring 內</text>
  <rect x="255" y="348" width="130" height="34" rx="6" fill="#dcfce7" stroke="#86efac" stroke-width="1.5"/>
  <text x="320" y="360.75" text-anchor="middle" fill="#111827" font-size="12" font-weight="normal" font-family="-apple-system, 'Helvetica Neue', Arial, sans-serif">✅ 允許呼叫</text>
  <text x="320" y="377.75" text-anchor="middle" fill="#111827" font-size="12" font-weight="normal" font-family="-apple-system, 'Helvetica Neue', Arial, sans-serif">RegisterMetrics</text>
  <rect x="255" y="428" width="130" height="34" rx="6" fill="#dcfce7" stroke="#86efac" stroke-width="1.5"/>
  <text x="320" y="440.75" text-anchor="middle" fill="#111827" font-size="12" font-weight="normal" font-family="-apple-system, 'Helvetica Neue', Arial, sans-serif">✅ 允許呼叫</text>
  <text x="320" y="457.75" text-anchor="middle" fill="#111827" font-size="12" font-weight="normal" font-family="-apple-system, 'Helvetica Neue', Arial, sans-serif">RegisterAlerts</text>
  <line x1="130" y1="90" x2="390" y2="115" stroke="#3b82f6" stroke-width="1.5" marker-end="url(#arrow)"/>
  <line x1="500" y1="137" x2="500" y2="173" stroke="#3b82f6" stroke-width="1.5" marker-end="url(#arrow)"/>
  <text x="518" y="127" text-anchor="middle" fill="#6b7280" font-size="10" font-family="-apple-system, 'Helvetica Neue', Arial, sans-serif">是</text>
  <line x1="500" y1="217" x2="590" y2="195" stroke="#3b82f6" stroke-width="1.5" marker-end="url(#arrow)"/>
  <text x="520" y="205" text-anchor="middle" fill="#6b7280" font-size="10" font-family="-apple-system, 'Helvetica Neue', Arial, sans-serif">是</text>
  <line x1="390" y1="115" x2="380" y2="285" stroke="#3b82f6" stroke-width="1.5" marker-end="url(#arrow)"/>
  <text x="380" y="125" text-anchor="middle" fill="#6b7280" font-size="10" font-family="-apple-system, 'Helvetica Neue', Arial, sans-serif">否</text>
  <line x1="380" y1="285" x2="400" y2="365" stroke="#3b82f6" stroke-width="1.5" marker-end="url(#arrow)"/>
  <line x1="380" y1="285" x2="370" y2="445" stroke="#3b82f6" stroke-width="1.5" marker-end="url(#arrow)"/>
  <line x1="500" y1="387" x2="590" y2="365" stroke="#3b82f6" stroke-width="1.5" marker-end="url(#arrow)"/>
  <text x="518" y="375" text-anchor="middle" fill="#6b7280" font-size="10" font-family="-apple-system, 'Helvetica Neue', Arial, sans-serif">是</text>
  <line x1="500" y1="467" x2="590" y2="445" stroke="#3b82f6" stroke-width="1.5" marker-end="url(#arrow)"/>
  <text x="518" y="455" text-anchor="middle" fill="#6b7280" font-size="10" font-family="-apple-system, 'Helvetica Neue', Arial, sans-serif">是</text>
  <line x1="130" y1="132" x2="255" y2="365" stroke="#3b82f6" stroke-width="1.5" marker-end="url(#arrow)"/>
  <line x1="130" y1="132" x2="255" y2="445" stroke="#3b82f6" stroke-width="1.5" marker-end="url(#arrow)"/>
  <text x="390" y="628" text-anchor="middle" fill="#6b7280" font-size="10" font-weight="normal" font-family="-apple-system, 'Helvetica Neue', Arial, sans-serif">強制 Operator 專案使用 operator-observability 套件集中管理監控元件</text>
</svg>