<?xml version="1.0" encoding="UTF-8"?>
<svg xmlns="http://www.w3.org/2000/svg" xmlns:xlink="http://www.w3.org/1999/xlink"
     width="1400" height="900" viewBox="0 0 1400 900">
<defs>
<marker markerWidth="9.5" markerHeight="7.5" viewBox="-0.5 -0.5 9.5 7.5" orient="auto" id="d0">
<path d="M0,0.5 L8.5,3.5 L0,6.5 Z" fill="#3b82f6" />
</marker>
<marker markerWidth="9.5" markerHeight="7.5" viewBox="-0.5 -0.5 9.5 7.5" orient="auto" id="d1">
<path d="M8.5,0.5 L0,3.5 L8.5,6.5 Z" fill="#3b82f6" />
</marker>
</defs>
<rect x="0" y="0" width="1400" height="900" fill="#ffffff" />
<use xlink:href="#d0" />
<use xlink:href="#d1" />
<text x="700.0" y="40" font-size="18" text-anchor="middle" font-family="-apple-system, 'Helvetica Neue', Arial, sans-serif" fill="#111827" font-weight="600">CDI Upload 認證流程</text>
<rect x="80" y="80" width="140" height="50" fill="#f9fafb" stroke="#e5e7eb" stroke-width="2" rx="8" />
<text x="150" y="105" font-size="13" text-anchor="middle" dominant-baseline="middle" font-family="-apple-system, 'Helvetica Neue', Arial, sans-serif" fill="#111827" font-weight="500">使用者/virtctl</text>
<path d="M150,130 L150,850" stroke="#e5e7eb" stroke-width="2" stroke-dasharray="8,4" />
<rect x="330" y="80" width="140" height="50" fill="#f9fafb" stroke="#e5e7eb" stroke-width="2" rx="8" />
<text x="400" y="105" font-size="13" text-anchor="middle" dominant-baseline="middle" font-family="-apple-system, 'Helvetica Neue', Arial, sans-serif" fill="#111827" font-weight="500">API Server</text>
<path d="M400,130 L400,850" stroke="#e5e7eb" stroke-width="2" stroke-dasharray="8,4" />
<rect x="630" y="80" width="140" height="50" fill="#f9fafb" stroke="#e5e7eb" stroke-width="2" rx="8" />
<text x="700" y="105" font-size="13" text-anchor="middle" dominant-baseline="middle" font-family="-apple-system, 'Helvetica Neue', Arial, sans-serif" fill="#111827" font-weight="500">Upload Proxy</text>
<path d="M700,130 L700,850" stroke="#e5e7eb" stroke-width="2" stroke-dasharray="8,4" />
<rect x="930" y="80" width="140" height="50" fill="#f9fafb" stroke="#e5e7eb" stroke-width="2" rx="8" />
<text x="1000" y="105" font-size="13" text-anchor="middle" dominant-baseline="middle" font-family="-apple-system, 'Helvetica Neue', Arial, sans-serif" fill="#111827" font-weight="500">Upload Server</text>
<path d="M1000,130 L1000,850" stroke="#e5e7eb" stroke-width="2" stroke-dasharray="8,4" />
<rect x="1180" y="80" width="140" height="50" fill="#f9fafb" stroke="#e5e7eb" stroke-width="2" rx="8" />
<text x="1250" y="105" font-size="13" text-anchor="middle" dominant-baseline="middle" font-family="-apple-system, 'Helvetica Neue', Arial, sans-serif" fill="#111827" font-weight="500">PVC</text>
<path d="M1250,130 L1250,850" stroke="#e5e7eb" stroke-width="2" stroke-dasharray="8,4" />
<path d="M150,180 L400,180" stroke="#3b82f6" stroke-width="2" marker-end="url(#d0)" />
<rect x="165.0" y="160" width="220" height="18" fill="#ffffff" stroke="none" />
<text x="275.0" y="170" font-size="11" text-anchor="middle" font-family="-apple-system, 'Helvetica Neue', Arial, sans-serif" fill="#6b7280" font-weight="400">建立 Upload Token 請求</text>
<rect x="392" y="240" width="16" height="40" fill="#ffffff" stroke="#3b82f6" stroke-width="1.5" />
<text x="490" y="255" font-size="12" font-family="-apple-system, 'Helvetica Neue', Arial, sans-serif" fill="#6b7280" font-weight="400">PS256 簽發 JWT</text>
<path d="M400,320 L150,320" stroke="#3b82f6" stroke-width="2" stroke-dasharray="6,3" marker-start="url(#d1)" />
<rect x="165.0" y="300" width="220" height="18" fill="#ffffff" stroke="none" />
<text x="275.0" y="310" font-size="11" text-anchor="middle" font-family="-apple-system, 'Helvetica Neue', Arial, sans-serif" fill="#6b7280" font-weight="400">回傳 Token</text>
<path d="M150,400 L700,400" stroke="#3b82f6" stroke-width="2" marker-end="url(#d0)" />
<rect x="315.0" y="380" width="220" height="18" fill="#ffffff" stroke="none" />
<text x="425.0" y="390" font-size="11" text-anchor="middle" font-family="-apple-system, 'Helvetica Neue', Arial, sans-serif" fill="#6b7280" font-weight="400">POST /upload (Bearer Token + 資料)</text>
<rect x="692" y="460" width="16" height="40" fill="#ffffff" stroke="#3b82f6" stroke-width="1.5" />
<text x="820" y="465" font-size="11" font-family="-apple-system, 'Helvetica Neue', Arial, sans-serif" fill="#6b7280" font-weight="400">驗證 JWT 簽名與有效期</text>
<rect x="692" y="530" width="16" height="40" fill="#ffffff" stroke="#3b82f6" stroke-width="1.5" />
<text x="820" y="545" font-size="11" font-family="-apple-system, 'Helvetica Neue', Arial, sans-serif" fill="#6b7280" font-weight="400">驗證操作類型 = Upload</text>
<path d="M700,610 L1000,610" stroke="#3b82f6" stroke-width="2" marker-end="url(#d0)" />
<rect x="740.0" y="590" width="220" height="18" fill="#ffffff" stroke="none" />
<text x="850.0" y="600" font-size="11" text-anchor="middle" font-family="-apple-system, 'Helvetica Neue', Arial, sans-serif" fill="#6b7280" font-weight="400">mTLS 反向代理</text>
<rect x="992" y="670" width="16" height="40" fill="#ffffff" stroke="#3b82f6" stroke-width="1.5" />
<text x="1100" y="685" font-size="11" font-family="-apple-system, 'Helvetica Neue', Arial, sans-serif" fill="#6b7280" font-weight="400">格式偵測 &amp; 處理</text>
<path d="M1000,750 L1250,750" stroke="#3b82f6" stroke-width="2" marker-end="url(#d0)" />
<rect x="1015.0" y="730" width="220" height="18" fill="#ffffff" stroke="none" />
<text x="1125.0" y="740" font-size="11" text-anchor="middle" font-family="-apple-system, 'Helvetica Neue', Arial, sans-serif" fill="#6b7280" font-weight="400">寫入資料</text>
<path d="M1000,820 L700,820" stroke="#3b82f6" stroke-width="2" stroke-dasharray="6,3" marker-start="url(#d1)" />
<rect x="740.0" y="800" width="220" height="18" fill="#ffffff" stroke="none" />
<text x="850.0" y="810" font-size="11" text-anchor="middle" font-family="-apple-system, 'Helvetica Neue', Arial, sans-serif" fill="#6b7280" font-weight="400">200 OK</text>
<path d="M700,890 L150,890" stroke="#3b82f6" stroke-width="2" stroke-dasharray="6,3" marker-start="url(#d1)" />
<rect x="315.0" y="870" width="220" height="18" fill="#ffffff" stroke="none" />
<text x="425.0" y="880" font-size="11" text-anchor="middle" font-family="-apple-system, 'Helvetica Neue', Arial, sans-serif" fill="#6b7280" font-weight="400">200 OK</text>
</svg>