<?xml version="1.0" encoding="UTF-8"?>
<svg xmlns="http://www.w3.org/2000/svg" xmlns:xlink="http://www.w3.org/1999/xlink"
     width="1400" height="700" viewBox="0 0 1400 700">
<defs>
<marker markerWidth="9.5" markerHeight="7.5" viewBox="-0.5 -0.5 9.5 7.5" orient="auto" id="d0">
<path d="M0,0.5 L8.5,3.5 L0,6.5 Z" fill="#3b82f6" />
</marker>
<marker markerWidth="9.5" markerHeight="7.5" viewBox="-0.5 -0.5 9.5 7.5" orient="auto" id="d1">
<path d="M8.5,0.5 L0,3.5 L8.5,6.5 Z" fill="#3b82f6" />
</marker>
</defs>
<rect x="0" y="0" width="1400" height="700" fill="#ffffff" />
<use xlink:href="#d0" />
<use xlink:href="#d1" />
<text x="700.0" y="40" font-size="18" text-anchor="middle" font-family="-apple-system, 'Helvetica Neue', Arial, sans-serif" fill="#111827" font-weight="600">CDI Upload Token 產生流程</text>
<rect x="110" y="100" width="180" height="50" fill="#f9fafb" stroke="#e5e7eb" stroke-width="2" rx="8" />
<text x="200" y="125.0" font-size="13" text-anchor="middle" dominant-baseline="middle" font-family="-apple-system, 'Helvetica Neue', Arial, sans-serif" fill="#111827" font-weight="500">kubectl/virtctl</text>
<path d="M200,150 L200,650" stroke="#e5e7eb" stroke-width="2" stroke-dasharray="8,4" />
<rect x="410" y="100" width="180" height="50" fill="#f9fafb" stroke="#e5e7eb" stroke-width="2" rx="8" />
<text x="500" y="125.0" font-size="13" text-anchor="middle" dominant-baseline="middle" font-family="-apple-system, 'Helvetica Neue', Arial, sans-serif" fill="#111827" font-weight="500">CDI API Server</text>
<path d="M500,150 L500,650" stroke="#e5e7eb" stroke-width="2" stroke-dasharray="8,4" />
<rect x="760" y="100" width="180" height="50" fill="#f9fafb" stroke="#e5e7eb" stroke-width="2" rx="8" />
<text x="850" y="125.0" font-size="13" text-anchor="middle" dominant-baseline="middle" font-family="-apple-system, 'Helvetica Neue', Arial, sans-serif" fill="#111827" font-weight="500">CdiAPIAuthorizer</text>
<path d="M850,150 L850,650" stroke="#e5e7eb" stroke-width="2" stroke-dasharray="8,4" />
<rect x="1110" y="100" width="180" height="50" fill="#f9fafb" stroke="#e5e7eb" stroke-width="2" rx="8" />
<text x="1200" y="125.0" font-size="13" text-anchor="middle" dominant-baseline="middle" font-family="-apple-system, 'Helvetica Neue', Arial, sans-serif" fill="#111827" font-weight="500">TokenGenerator</text>
<path d="M1200,150 L1200,650" stroke="#e5e7eb" stroke-width="2" stroke-dasharray="8,4" />
<path d="M200,230 L500,230" stroke="#3b82f6" stroke-width="2" marker-end="url(#d0)" />
<rect x="222.0" y="210" width="256" height="18" fill="#ffffff" stroke="none" />
<text x="350.0" y="220" font-size="10" text-anchor="middle" font-family="-apple-system, 'Helvetica Neue', Arial, sans-serif" fill="#6b7280" font-weight="400">POST /namespaces/{ns}/uploadtokenrequests</text>
<path d="M500,310 L850,310" stroke="#3b82f6" stroke-width="2" marker-end="url(#d0)" />
<rect x="550.0" y="290" width="250" height="18" fill="#ffffff" stroke="none" />
<text x="675.0" y="300" font-size="10" text-anchor="middle" font-family="-apple-system, 'Helvetica Neue', Arial, sans-serif" fill="#6b7280" font-weight="400">Authorize(request) - SubjectAccessReview</text>
<path d="M850,390 L500,390" stroke="#3b82f6" stroke-width="2" stroke-dasharray="6,3" marker-start="url(#d1)" />
<rect x="615.0" y="370" width="120" height="18" fill="#ffffff" stroke="none" />
<text x="675.0" y="380" font-size="10" text-anchor="middle" font-family="-apple-system, 'Helvetica Neue', Arial, sans-serif" fill="#6b7280" font-weight="400">allowed=true</text>
<path d="M500,480 L1200,480" stroke="#3b82f6" stroke-width="2" marker-end="url(#d0)" />
<rect x="692.0" y="460" width="316" height="18" fill="#ffffff" stroke="none" />
<text x="850.0" y="470" font-size="10" text-anchor="middle" font-family="-apple-system, 'Helvetica Neue', Arial, sans-serif" fill="#6b7280" font-weight="400">Generate(Payload{Operation: Upload, Resource: PVC})</text>
<path d="M1200,560 L500,560" stroke="#3b82f6" stroke-width="2" stroke-dasharray="6,3" marker-start="url(#d1)" />
<rect x="790.0" y="540" width="120" height="18" fill="#ffffff" stroke="none" />
<text x="850.0" y="550" font-size="10" text-anchor="middle" font-family="-apple-system, 'Helvetica Neue', Arial, sans-serif" fill="#6b7280" font-weight="400">JWT Token (5 分鐘有效)</text>
<path d="M500,650 L200,650" stroke="#3b82f6" stroke-width="2" stroke-dasharray="6,3" marker-start="url(#d1)" />
<rect x="246.0" y="630" width="208" height="18" fill="#ffffff" stroke="none" />
<text x="350.0" y="640" font-size="10" text-anchor="middle" font-family="-apple-system, 'Helvetica Neue', Arial, sans-serif" fill="#6b7280" font-weight="400">UploadTokenRequest{Status: Token}</text>
</svg>