<?xml version="1.0" encoding="UTF-8"?>
<svg xmlns="http://www.w3.org/2000/svg" xmlns:xlink="http://www.w3.org/1999/xlink"
     width="1300" height="950" viewBox="0 0 1300 950">
<defs>
<marker markerWidth="9.5" markerHeight="7.5" viewBox="-0.5 -0.5 9.5 7.5" orient="auto" id="d0">
<path d="M0,0.5 L8.5,3.5 L0,6.5 Z" fill="#3b82f6" />
</marker>
<marker markerWidth="9.5" markerHeight="7.5" viewBox="-0.5 -0.5 9.5 7.5" orient="auto" id="d1">
<path d="M8.5,0.5 L0,3.5 L8.5,6.5 Z" fill="#3b82f6" />
</marker>
</defs>
<rect x="0" y="0" width="1300" height="950" fill="#ffffff" />
<use xlink:href="#d0" />
<use xlink:href="#d1" />
<text x="650.0" y="40" font-size="18" text-anchor="middle" font-family="-apple-system, 'Helvetica Neue', Arial, sans-serif" fill="#111827" font-weight="600">CDI Host-Assisted 克隆流程</text>
<rect x="120" y="80" width="160" height="68" fill="#f9fafb" stroke="#e5e7eb" stroke-width="2" rx="8" />
<text x="200" y="105.5" font-size="12" text-anchor="middle" dominant-baseline="middle" font-family="-apple-system, 'Helvetica Neue', Arial, sans-serif" fill="#111827" font-weight="500">來源 Pod</text>
<text x="200" y="122.5" font-size="12" text-anchor="middle" dominant-baseline="middle" font-family="-apple-system, 'Helvetica Neue', Arial, sans-serif" fill="#111827" font-weight="500">(cdi-cloner)</text>
<path d="M200,148 L200,900" stroke="#e5e7eb" stroke-width="2" stroke-dasharray="8,4" />
<rect x="570" y="80" width="160" height="50" fill="#f9fafb" stroke="#e5e7eb" stroke-width="2" rx="8" />
<text x="650" y="105.0" font-size="12" text-anchor="middle" dominant-baseline="middle" font-family="-apple-system, 'Helvetica Neue', Arial, sans-serif" fill="#111827" font-weight="500">Upload Server</text>
<path d="M650,130 L650,900" stroke="#e5e7eb" stroke-width="2" stroke-dasharray="8,4" />
<rect x="1020" y="80" width="160" height="50" fill="#f9fafb" stroke="#e5e7eb" stroke-width="2" rx="8" />
<text x="1100" y="105.0" font-size="12" text-anchor="middle" dominant-baseline="middle" font-family="-apple-system, 'Helvetica Neue', Arial, sans-serif" fill="#111827" font-weight="500">目標 PVC</text>
<path d="M1100,130 L1100,900" stroke="#e5e7eb" stroke-width="2" stroke-dasharray="8,4" />
<rect x="192" y="198" width="16" height="40" fill="#ffffff" stroke="#3b82f6" stroke-width="1.5" />
<text x="300" y="213" font-size="11" font-family="-apple-system, 'Helvetica Neue', Arial, sans-serif" fill="#6b7280" font-weight="400">讀取來源 PVC</text>
<rect x="120" y="268" width="450" height="180" fill="none" stroke="#c7d2fe" stroke-width="1.5" rx="6" />
<text x="150" y="288" font-size="12" font-family="-apple-system, 'Helvetica Neue', Arial, sans-serif" fill="#6b7280" font-weight="500">[檔案系統模式]</text>
<rect x="192" y="278" width="16" height="40" fill="#ffffff" stroke="#3b82f6" stroke-width="1.5" />
<text x="300" y="293" font-size="11" font-family="-apple-system, 'Helvetica Neue', Arial, sans-serif" fill="#6b7280" font-weight="400">tar cv -S（稀疏感知）</text>
<path d="M120,358 L570,358" stroke="#c7d2fe" stroke-width="1.5" stroke-dasharray="6,3" />
<text x="150" y="373" font-size="12" font-family="-apple-system, 'Helvetica Neue', Arial, sans-serif" fill="#6b7280" font-weight="500">[區塊裝置模式]</text>
<rect x="192" y="393" width="16" height="40" fill="#ffffff" stroke="#3b82f6" stroke-width="1.5" />
<text x="300" y="408" font-size="11" font-family="-apple-system, 'Helvetica Neue', Arial, sans-serif" fill="#6b7280" font-weight="400">直接讀取 block device</text>
<rect x="192" y="473" width="16" height="40" fill="#ffffff" stroke="#3b82f6" stroke-width="1.5" />
<text x="300" y="488" font-size="11" font-family="-apple-system, 'Helvetica Neue', Arial, sans-serif" fill="#6b7280" font-weight="400">Snappy 壓縮</text>
<path d="M200,553 L650,553" stroke="#3b82f6" stroke-width="2" marker-end="url(#d0)" />
<rect x="295.5" y="533" width="259" height="18" fill="#ffffff" stroke="none" />
<text x="425.0" y="543" font-size="11" text-anchor="middle" font-family="-apple-system, 'Helvetica Neue', Arial, sans-serif" fill="#6b7280" font-weight="400">mTLS POST (x-cdi-content-type header)</text>
<rect x="642" y="613" width="16" height="40" fill="#ffffff" stroke="#3b82f6" stroke-width="1.5" />
<text x="750" y="628" font-size="11" font-family="-apple-system, 'Helvetica Neue', Arial, sans-serif" fill="#6b7280" font-weight="400">Snappy 解壓</text>
<rect x="642" y="683" width="16" height="40" fill="#ffffff" stroke="#3b82f6" stroke-width="1.5" />
<text x="750" y="698" font-size="11" font-family="-apple-system, 'Helvetica Neue', Arial, sans-serif" fill="#6b7280" font-weight="400">TAR 解包（如適用）</text>
<path d="M650,763 L1100,763" stroke="#3b82f6" stroke-width="2" marker-end="url(#d0)" />
<rect x="825.0" y="743" width="100" height="18" fill="#ffffff" stroke="none" />
<text x="875.0" y="753" font-size="11" text-anchor="middle" font-family="-apple-system, 'Helvetica Neue', Arial, sans-serif" fill="#6b7280" font-weight="400">串流寫入</text>
<path d="M650,833 L200,833" stroke="#3b82f6" stroke-width="2" stroke-dasharray="6,3" marker-start="url(#d1)" />
<rect x="375.0" y="813" width="100" height="18" fill="#ffffff" stroke="none" />
<text x="425.0" y="823" font-size="11" text-anchor="middle" font-family="-apple-system, 'Helvetica Neue', Arial, sans-serif" fill="#6b7280" font-weight="400">200 OK</text>
</svg>