<?xml version="1.0" encoding="UTF-8"?>
<svg xmlns="http://www.w3.org/2000/svg" xmlns:xlink="http://www.w3.org/1999/xlink"
     width="1200" height="700" viewBox="0 0 1200 700">
<defs>
<marker markerWidth="9.5" markerHeight="7.5" viewBox="-0.5 -0.5 9.5 7.5" orient="auto" id="d0">
<path d="M0,0.5 L8.5,3.5 L0,6.5 Z" fill="#3b82f6" />
</marker>
</defs>
<rect x="0" y="0" width="1200" height="700" fill="#ffffff" />
<use xlink:href="#d0" />
<text x="600.0" y="40" font-size="18" text-anchor="middle" font-family="-apple-system, 'Helvetica Neue', Arial, sans-serif" fill="#111827" font-weight="600">CDI 資料匯入狀態機</text>
<rect x="100" y="120" width="100" height="60" fill="#eff6ff" stroke="#bfdbfe" stroke-width="2" rx="8" />
<text x="150.0" y="150.0" font-size="14" text-anchor="middle" dominant-baseline="middle" font-family="-apple-system, 'Helvetica Neue', Arial, sans-serif" fill="#111827" font-weight="500">Info</text>
<path d="M400,110.0 L470.0,150 L400,190.0 L330.0,150 Z" fill="#eff6ff" stroke="#bfdbfe" stroke-width="2" />
<text x="400" y="150.0" font-size="13" text-anchor="middle" dominant-baseline="middle" font-family="-apple-system, 'Helvetica Neue', Arial, sans-serif" fill="#111827" font-weight="500">來源類型</text>
<rect x="200" y="280" width="160" height="60" fill="#f9fafb" stroke="#e5e7eb" stroke-width="2" rx="8" />
<text x="280.0" y="310.0" font-size="14" text-anchor="middle" dominant-baseline="middle" font-family="-apple-system, 'Helvetica Neue', Arial, sans-serif" fill="#111827" font-weight="500">ValidatePreScratch</text>
<rect x="400" y="280" width="160" height="60" fill="#f9fafb" stroke="#e5e7eb" stroke-width="2" rx="8" />
<text x="480.0" y="310.0" font-size="14" text-anchor="middle" dominant-baseline="middle" font-family="-apple-system, 'Helvetica Neue', Arial, sans-serif" fill="#111827" font-weight="500">TransferDataDir</text>
<rect x="600" y="280" width="160" height="60" fill="#f9fafb" stroke="#e5e7eb" stroke-width="2" rx="8" />
<text x="680.0" y="310.0" font-size="14" text-anchor="middle" dominant-baseline="middle" font-family="-apple-system, 'Helvetica Neue', Arial, sans-serif" fill="#111827" font-weight="500">TransferDataFile</text>
<rect x="800" y="280" width="100" height="60" fill="#f9fafb" stroke="#e5e7eb" stroke-width="2" rx="8" />
<text x="850.0" y="310.0" font-size="14" text-anchor="middle" dominant-baseline="middle" font-family="-apple-system, 'Helvetica Neue', Arial, sans-serif" fill="#111827" font-weight="500">Convert</text>
<rect x="200" y="400" width="160" height="60" fill="#f9fafb" stroke="#e5e7eb" stroke-width="2" rx="8" />
<text x="280.0" y="430.0" font-size="14" text-anchor="middle" dominant-baseline="middle" font-family="-apple-system, 'Helvetica Neue', Arial, sans-serif" fill="#111827" font-weight="500">TransferScratch</text>
<rect x="700" y="520" width="100" height="60" fill="#f9fafb" stroke="#e5e7eb" stroke-width="2" rx="8" />
<text x="750.0" y="550.0" font-size="14" text-anchor="middle" dominant-baseline="middle" font-family="-apple-system, 'Helvetica Neue', Arial, sans-serif" fill="#111827" font-weight="500">Resize</text>
<rect x="500" y="610" width="100" height="60" fill="#f0f4ff" stroke="#c7d2fe" stroke-width="2" rx="8" />
<text x="550.0" y="640.0" font-size="14" text-anchor="middle" dominant-baseline="middle" font-family="-apple-system, 'Helvetica Neue', Arial, sans-serif" fill="#111827" font-weight="500">Complete</text>
<path d="M200,150.0 L330,150" stroke="#3b82f6" stroke-width="2" marker-end="url(#d0)" />
<path d="M360,190 L280.0,280" stroke="#3b82f6" stroke-width="2" marker-end="url(#d0)" />
<rect x="255.0" y="223.0" width="130" height="24" fill="#ffffff" stroke="none" />
<text x="320.0" y="235.0" font-size="12" text-anchor="middle" dominant-baseline="middle" font-family="-apple-system, 'Helvetica Neue', Arial, sans-serif" fill="#6b7280" font-weight="400">需要暫存空間</text>
<path d="M400,190 L480.0,280" stroke="#3b82f6" stroke-width="2" marker-end="url(#d0)" />
<rect x="375.0" y="223.0" width="130" height="24" fill="#ffffff" stroke="none" />
<text x="440.0" y="235.0" font-size="12" text-anchor="middle" dominant-baseline="middle" font-family="-apple-system, 'Helvetica Neue', Arial, sans-serif" fill="#6b7280" font-weight="400">直接寫入目錄</text>
<path d="M440,190 L680.0,280" stroke="#3b82f6" stroke-width="2" marker-end="url(#d0)" />
<rect x="495.0" y="223.0" width="130" height="24" fill="#ffffff" stroke="none" />
<text x="560.0" y="235.0" font-size="12" text-anchor="middle" dominant-baseline="middle" font-family="-apple-system, 'Helvetica Neue', Arial, sans-serif" fill="#6b7280" font-weight="400">直接寫入檔案</text>
<path d="M470,150 L800,310.0" stroke="#3b82f6" stroke-width="2" marker-end="url(#d0)" />
<rect x="570.0" y="218.0" width="130" height="24" fill="#ffffff" stroke="none" />
<text x="635.0" y="230.0" font-size="12" text-anchor="middle" dominant-baseline="middle" font-family="-apple-system, 'Helvetica Neue', Arial, sans-serif" fill="#6b7280" font-weight="400">使用 nbdkit</text>
<path d="M280.0,340 L280.0,400" stroke="#3b82f6" stroke-width="2" marker-end="url(#d0)" />
<path d="M280.0,460 L850.0,340" stroke="#3b82f6" stroke-width="2" marker-end="url(#d0)" />
<path d="M480.0,340 L550.0,610" stroke="#3b82f6" stroke-width="2" marker-end="url(#d0)" />
<path d="M680.0,340 L700,550.0" stroke="#3b82f6" stroke-width="2" marker-end="url(#d0)" />
<path d="M850.0,340 L750.0,520" stroke="#3b82f6" stroke-width="2" marker-end="url(#d0)" />
<path d="M750.0,580 L550.0,610" stroke="#3b82f6" stroke-width="2" marker-end="url(#d0)" />
</svg>