<svg xmlns="http://www.w3.org/2000/svg" width="680" height="360">
<defs><marker id="arr_3b82f6" viewBox="0 0 10 10" refX="9" refY="5" markerWidth="6" markerHeight="6" orient="auto-start-reverse"><path d="M 0 0 L 10 5 L 0 10 z" fill="#3b82f6"/></marker>
<marker id="arr_6b7280" viewBox="0 0 10 10" refX="9" refY="5" markerWidth="6" markerHeight="6" orient="auto-start-reverse"><path d="M 0 0 L 10 5 L 0 10 z" fill="#6b7280"/></marker>
</defs>
<rect width="680" height="360" fill="#ffffff"/>
<circle cx="80" cy="180" r="16" fill="#374151" stroke="#374151" stroke-width="2"/>
<text x="80" y="180" text-anchor="middle" dominant-baseline="middle" font-size="14" fill="white">●</text>
<rect x="150" y="75" width="140" height="50" rx="8" fill="#f9fafb" stroke="#e5e7eb" stroke-width="1.5"/>
<text x="220.0" y="100.0" text-anchor="middle" font-family="-apple-system, 'Helvetica Neue', Arial, sans-serif" font-size="13" dominant-baseline="middle"><tspan x="220.0" dy="0" fill="#111827">Running</tspan></text>
<rect x="370" y="75" width="140" height="50" rx="8" fill="#dcfce7" stroke="#86efac" stroke-width="1.5"/>
<text x="440.0" y="100.0" text-anchor="middle" font-family="-apple-system, 'Helvetica Neue', Arial, sans-serif" font-size="13" dominant-baseline="middle"><tspan x="440.0" dy="0" fill="#111827">Succeeded</tspan></text>
<rect x="370" y="235" width="140" height="50" rx="8" fill="#fee2e2" stroke="#fca5a5" stroke-width="1.5"/>
<text x="440.0" y="260.0" text-anchor="middle" font-family="-apple-system, 'Helvetica Neue', Arial, sans-serif" font-size="13" dominant-baseline="middle"><tspan x="440.0" dy="0" fill="#111827">Failed</tspan></text>
<circle cx="600" cy="180" r="16" fill="#374151" stroke="#374151" stroke-width="2"/>
<text x="600" y="180" text-anchor="middle" dominant-baseline="middle" font-size="14" fill="white">◉</text>
<line x1="150" y1="155" x2="150" y2="125" stroke="#3b82f6" stroke-width="1.5" marker-end="url(#arr_3b82f6)"/>
<text x="164.0" y="140.0" text-anchor="middle" font-family="-apple-system, 'Helvetica Neue', Arial, sans-serif" font-size="10" fill="#6b7280">CR 建立，新增 finalizer</text>
<path d="M 290,90 C 330,40 330,120 290,110" fill="none" stroke="#3b82f6" stroke-width="1.5" marker-end="url(#arr_3b82f6)"/>
<text x="340" y="80" font-family="-apple-system, 'Helvetica Neue', Arial, sans-serif" font-size="10" fill="#6b7280">drain 進行中，error 時 requeue 5s</text>
<line x1="290" y1="100" x2="370" y2="100" stroke="#3b82f6" stroke-width="1.5" marker-end="url(#arr_3b82f6)"/>
<text x="330.0" y="114.0" text-anchor="middle" font-family="-apple-system, 'Helvetica Neue', Arial, sans-serif" font-size="10" fill="#6b7280">所有 Pod 驅逐完成</text>
<line x1="290" y1="125" x2="370" y2="235" stroke="#3b82f6" stroke-width="1.5" marker-end="url(#arr_3b82f6)"/>
<text x="318.7" y="188.2" text-anchor="middle" font-family="-apple-system, 'Helvetica Neue', Arial, sans-serif" font-size="10" fill="#6b7280">Node 不存在 OR
ErrorOnLeaseCount &gt; 3</text>
<line x1="510" y1="125" x2="530" y2="155" stroke="#3b82f6" stroke-width="1.5" marker-end="url(#arr_3b82f6)"/>
<text x="508.4" y="147.8" text-anchor="middle" font-family="-apple-system, 'Helvetica Neue', Arial, sans-serif" font-size="10" fill="#6b7280">CR 刪除，節點 uncordon</text>
<line x1="510" y1="235" x2="530" y2="205" stroke="#3b82f6" stroke-width="1.5" marker-end="url(#arr_3b82f6)"/>
<text x="531.6" y="227.8" text-anchor="middle" font-family="-apple-system, 'Helvetica Neue', Arial, sans-serif" font-size="10" fill="#6b7280">CR 刪除，嘗試 uncordon</text>
</svg>
