<svg xmlns="http://www.w3.org/2000/svg" width="640" height="580">
<defs><marker id="arr_3b82f6" viewBox="0 0 10 10" refX="9" refY="5" markerWidth="6" markerHeight="6" orient="auto-start-reverse"><path d="M 0 0 L 10 5 L 0 10 z" fill="#3b82f6"/></marker>
<marker id="arr_6b7280" viewBox="0 0 10 10" refX="9" refY="5" markerWidth="6" markerHeight="6" orient="auto-start-reverse"><path d="M 0 0 L 10 5 L 0 10 z" fill="#6b7280"/></marker>
</defs>
<rect width="640" height="580" fill="#ffffff"/>
<rect x="320" y="30" width="180" height="36" rx="18.0" fill="#dbeafe" stroke="#93c5fd" stroke-width="1.5"/>
<text x="410.0" y="48.0" text-anchor="middle" font-family="-apple-system, 'Helvetica Neue', Arial, sans-serif" font-size="11" dominant-baseline="middle"><tspan x="410.0" dy="0" fill="#111827">開始 RequestLease</tspan></text>
<polygon points="320,76 440,110 320,144 200,110" fill="#fef3c7" stroke="#fbbf24" stroke-width="1.5"/>
<text x="320" y="103.5" text-anchor="middle" font-family="-apple-system, 'Helvetica Neue', Arial, sans-serif" font-size="10" dominant-baseline="middle"><tspan x="320" dy="0" fill="#111827">GET Lease</tspan><tspan x="320" dy="13" fill="#111827">node-&lt;nodename&gt;</tspan></text>
<rect x="100" y="200" width="210" height="44" rx="8" fill="#f0f4ff" stroke="#c7d2fe" stroke-width="1.5"/>
<text x="205.0" y="208.0" text-anchor="middle" font-family="-apple-system, 'Helvetica Neue', Arial, sans-serif" font-size="10" dominant-baseline="middle"><tspan x="205.0" dy="0" fill="#111827">CREATE 新 Lease</tspan><tspan x="205.0" dy="14" fill="#111827">HolderIdentity=node-</tspan><tspan x="205.0" dy="14" fill="#111827">maintenance duration=3600s</tspan></text>
<rect x="100" y="270" width="120" height="34" rx="17.0" fill="#dcfce7" stroke="#86efac" stroke-width="1.5"/>
<text x="160.0" y="287.0" text-anchor="middle" font-family="-apple-system, 'Helvetica Neue', Arial, sans-serif" font-size="11" dominant-baseline="middle"><tspan x="160.0" dy="0" fill="#111827">成功</tspan></text>
<polygon points="430,166 550,200 430,234 310,200" fill="#fef3c7" stroke="#fbbf24" stroke-width="1.5"/>
<text x="430" y="193.5" text-anchor="middle" font-family="-apple-system, 'Helvetica Neue', Arial, sans-serif" font-size="10" dominant-baseline="middle"><tspan x="430" dy="0" fill="#111827">HolderIdentity ==</tspan><tspan x="430" dy="13" fill="#111827">node-maintenance?</tspan></text>
<rect x="560" y="280" width="180" height="44" rx="8" fill="#f9fafb" stroke="#e5e7eb" stroke-width="1.5"/>
<text x="650.0" y="295.0" text-anchor="middle" font-family="-apple-system, 'Helvetica Neue', Arial, sans-serif" font-size="10" dominant-baseline="middle"><tspan x="650.0" dy="0" fill="#111827">UPDATE Lease 更新</tspan><tspan x="650.0" dy="14" fill="#111827">RenewTime</tspan></text>
<rect x="580" y="350" width="120" height="34" rx="17.0" fill="#dcfce7" stroke="#86efac" stroke-width="1.5"/>
<text x="640.0" y="367.0" text-anchor="middle" font-family="-apple-system, 'Helvetica Neue', Arial, sans-serif" font-size="11" dominant-baseline="middle"><tspan x="640.0" dy="0" fill="#111827">成功</tspan></text>
<polygon points="430,296 550,330 430,364 310,330" fill="#fef3c7" stroke="#fbbf24" stroke-width="1.5"/>
<text x="430" y="330.0" text-anchor="middle" font-family="-apple-system, 'Helvetica Neue', Arial, sans-serif" font-size="10" dominant-baseline="middle"><tspan x="430" dy="0" fill="#111827">Lease 是否已過期?</tspan></text>
<rect x="290" y="420" width="220" height="44" rx="8" fill="#fee2e2" stroke="#fca5a5" stroke-width="1.5"/>
<text x="400.0" y="428.0" text-anchor="middle" font-family="-apple-system, 'Helvetica Neue', Arial, sans-serif" font-size="10" dominant-baseline="middle"><tspan x="400.0" dy="0" fill="#111827">return AlreadyHeldError</tspan><tspan x="400.0" dy="14" fill="#111827">holderIdentity=&lt;current</tspan><tspan x="400.0" dy="14" fill="#111827">holder&gt;</tspan></text>
<rect x="430" y="420" width="200" height="44" rx="8" fill="#f9fafb" stroke="#e5e7eb" stroke-width="1.5"/>
<text x="530.0" y="428.0" text-anchor="middle" font-family="-apple-system, 'Helvetica Neue', Arial, sans-serif" font-size="10" dominant-baseline="middle"><tspan x="530.0" dy="0" fill="#111827">TAKEOVER 更新</tspan><tspan x="530.0" dy="14" fill="#111827">HolderIdentity</tspan><tspan x="530.0" dy="14" fill="#111827">LeaseTransitions++</tspan></text>
<rect x="290" y="490" width="120" height="34" rx="17.0" fill="#fee2e2" stroke="#fca5a5" stroke-width="1.5"/>
<text x="350.0" y="507.0" text-anchor="middle" font-family="-apple-system, 'Helvetica Neue', Arial, sans-serif" font-size="11" dominant-baseline="middle"><tspan x="350.0" dy="0" fill="#111827">失敗</tspan></text>
<rect x="490" y="490" width="120" height="34" rx="17.0" fill="#dcfce7" stroke="#86efac" stroke-width="1.5"/>
<text x="550.0" y="507.0" text-anchor="middle" font-family="-apple-system, 'Helvetica Neue', Arial, sans-serif" font-size="11" dominant-baseline="middle"><tspan x="550.0" dy="0" fill="#111827">成功</tspan></text>
<line x1="410.0" y1="66" x2="320" y2="76" stroke="#3b82f6" stroke-width="1.5" marker-end="url(#arr_3b82f6)"/>
<line x1="200" y1="110" x2="205.0" y2="200" stroke="#3b82f6" stroke-width="1.5" marker-end="url(#arr_3b82f6)"/>
<text x="188.5" y="155.8" text-anchor="middle" font-family="-apple-system, 'Helvetica Neue', Arial, sans-serif" font-size="9" fill="#6b7280">不存在</text>
<line x1="205.0" y1="244" x2="160.0" y2="270" stroke="#3b82f6" stroke-width="1.5" marker-end="url(#arr_3b82f6)"/>
<line x1="440" y1="110" x2="430" y2="166" stroke="#3b82f6" stroke-width="1.5" marker-end="url(#arr_3b82f6)"/>
<text x="421.2" y="135.5" text-anchor="middle" font-family="-apple-system, 'Helvetica Neue', Arial, sans-serif" font-size="9" fill="#6b7280">存在</text>
<line x1="550" y1="200" x2="650.0" y2="280" stroke="#3b82f6" stroke-width="1.5" marker-end="url(#arr_3b82f6)"/>
<text x="591.3" y="250.9" text-anchor="middle" font-family="-apple-system, 'Helvetica Neue', Arial, sans-serif" font-size="9" fill="#6b7280">是</text>
<line x1="650.0" y1="324" x2="640.0" y2="350" stroke="#3b82f6" stroke-width="1.5" marker-end="url(#arr_3b82f6)"/>
<line x1="430" y1="234" x2="430" y2="296" stroke="#3b82f6" stroke-width="1.5" marker-end="url(#arr_3b82f6)"/>
<text x="416.0" y="265.0" text-anchor="middle" font-family="-apple-system, 'Helvetica Neue', Arial, sans-serif" font-size="9" fill="#6b7280">否</text>
<line x1="310" y1="330" x2="400.0" y2="420" stroke="#3b82f6" stroke-width="1.5" marker-end="url(#arr_3b82f6)"/>
<text x="345.1" y="384.9" text-anchor="middle" font-family="-apple-system, 'Helvetica Neue', Arial, sans-serif" font-size="9" fill="#6b7280">未過期</text>
<line x1="550" y1="330" x2="530.0" y2="420" stroke="#3b82f6" stroke-width="1.5" marker-end="url(#arr_3b82f6)"/>
<text x="526.3" y="372.0" text-anchor="middle" font-family="-apple-system, 'Helvetica Neue', Arial, sans-serif" font-size="9" fill="#6b7280">已過期</text>
<line x1="400.0" y1="464" x2="350.0" y2="490" stroke="#3b82f6" stroke-width="1.5" marker-end="url(#arr_3b82f6)"/>
<line x1="530.0" y1="464" x2="550.0" y2="490" stroke="#3b82f6" stroke-width="1.5" marker-end="url(#arr_3b82f6)"/>
</svg>
