<svg xmlns="http://www.w3.org/2000/svg" width="900" height="466">
<defs><marker id="arr_3b82f6" viewBox="0 0 10 10" refX="9" refY="5" markerWidth="6" markerHeight="6" orient="auto-start-reverse"><path d="M 0 0 L 10 5 L 0 10 z" fill="#3b82f6"/></marker>
<marker id="arr_6b7280" viewBox="0 0 10 10" refX="9" refY="5" markerWidth="6" markerHeight="6" orient="auto-start-reverse"><path d="M 0 0 L 10 5 L 0 10 z" fill="#6b7280"/></marker>
</defs>
<rect width="900" height="466" fill="#ffffff"/>
<rect x="62.5" y="30" width="160" height="34" rx="8" fill="#f0f4ff" stroke="#c7d2fe" stroke-width="1.5"/>
<text x="142.5" y="47.0" text-anchor="middle" font-family="-apple-system, 'Helvetica Neue', Arial, sans-serif" font-size="11" dominant-baseline="middle"><tspan x="142.5" dy="0" fill="#111827">Controller</tspan></text>
<rect x="267.5" y="30" width="160" height="34" rx="8" fill="#f0f4ff" stroke="#c7d2fe" stroke-width="1.5"/>
<text x="347.5" y="47.0" text-anchor="middle" font-family="-apple-system, 'Helvetica Neue', Arial, sans-serif" font-size="11" dominant-baseline="middle"><tspan x="347.5" dy="0" fill="#111827">Node</tspan></text>
<rect x="472.5" y="30" width="160" height="34" rx="8" fill="#f0f4ff" stroke="#c7d2fe" stroke-width="1.5"/>
<text x="552.5" y="47.0" text-anchor="middle" font-family="-apple-system, 'Helvetica Neue', Arial, sans-serif" font-size="11" dominant-baseline="middle"><tspan x="552.5" dy="0" fill="#111827">drain.RunNodeDrain</tspan></text>
<rect x="677.5" y="30" width="160" height="34" rx="8" fill="#f0f4ff" stroke="#c7d2fe" stroke-width="1.5"/>
<text x="757.5" y="47.0" text-anchor="middle" font-family="-apple-system, 'Helvetica Neue', Arial, sans-serif" font-size="11" dominant-baseline="middle"><tspan x="757.5" dy="0" fill="#111827">Pod (Eviction API)</tspan></text>
<line x1="142.5" y1="104" x2="142.5" y2="426" stroke="#e5e7eb" stroke-width="1" stroke-dasharray="4,3"/>
<line x1="347.5" y1="104" x2="347.5" y2="426" stroke="#e5e7eb" stroke-width="1" stroke-dasharray="4,3"/>
<line x1="552.5" y1="104" x2="552.5" y2="426" stroke="#e5e7eb" stroke-width="1" stroke-dasharray="4,3"/>
<line x1="757.5" y1="104" x2="757.5" y2="426" stroke="#e5e7eb" stroke-width="1" stroke-dasharray="4,3"/>
<line x1="142.5" y1="124" x2="347.5" y2="124" stroke="#3b82f6" stroke-width="1.5" stroke-dasharray="none" marker-end="url(#arr_3b82f6)"/>
<text x="245.0" y="119" text-anchor="middle" font-family="-apple-system, 'Helvetica Neue', Arial, sans-serif" font-size="10" fill="#6b7280">加入 Taint（NoSchedule/NoExecute）</text>
<rect x="343.5" y="124" width="8" height="12" fill="#dbeafe" stroke="#93c5fd" stroke-width="1"/>
<line x1="142.5" y1="166" x2="347.5" y2="166" stroke="#3b82f6" stroke-width="1.5" stroke-dasharray="none" marker-end="url(#arr_3b82f6)"/>
<text x="245.0" y="161" text-anchor="middle" font-family="-apple-system, 'Helvetica Neue', Arial, sans-serif" font-size="10" fill="#6b7280">Cordon（spec.unschedulable=true）</text>
<rect x="343.5" y="166" width="8" height="12" fill="#dbeafe" stroke="#93c5fd" stroke-width="1"/>
<line x1="142.5" y1="208" x2="552.5" y2="208" stroke="#3b82f6" stroke-width="1.5" stroke-dasharray="none" marker-end="url(#arr_3b82f6)"/>
<text x="347.5" y="203" text-anchor="middle" font-family="-apple-system, 'Helvetica Neue', Arial, sans-serif" font-size="10" fill="#6b7280">呼叫 drain.RunNodeDrain(drainer, nodeName)</text>
<rect x="548.5" y="208" width="8" height="12" fill="#dbeafe" stroke="#93c5fd" stroke-width="1"/>
<line x1="552.5" y1="250" x2="757.5" y2="250" stroke="#3b82f6" stroke-width="1.5" stroke-dasharray="none" marker-end="url(#arr_3b82f6)"/>
<text x="655.0" y="245" text-anchor="middle" font-family="-apple-system, 'Helvetica Neue', Arial, sans-serif" font-size="10" fill="#6b7280">POST /pods/{name}/eviction</text>
<rect x="753.5" y="250" width="8" height="12" fill="#dbeafe" stroke="#93c5fd" stroke-width="1"/>
<line x1="757.5" y1="292" x2="552.5" y2="292" stroke="#3b82f6" stroke-width="1.5" stroke-dasharray="5,3" marker-end="url(#arr_3b82f6)"/>
<text x="655.0" y="287" text-anchor="middle" font-family="-apple-system, 'Helvetica Neue', Arial, sans-serif" font-size="10" fill="#6b7280">202 Accepted 或 429（PDB 阻擋）</text>
<text x="450" y="334" text-anchor="middle" font-family="-apple-system, 'Helvetica Neue', Arial, sans-serif" font-size="10" fill="#6b7280" font-style="italic">── 對每個需驅逐的 Pod 重複上兩步 ──</text>
<line x1="552.5" y1="363.4" x2="142.5" y2="363.4" stroke="#3b82f6" stroke-width="1.5" stroke-dasharray="5,3" marker-end="url(#arr_3b82f6)"/>
<text x="347.5" y="358.4" text-anchor="middle" font-family="-apple-system, 'Helvetica Neue', Arial, sans-serif" font-size="10" fill="#6b7280">回傳錯誤（若超時或部分失敗）</text>
<line x1="142.5" y1="405.4" x2="142.5" y2="405.4" stroke="#3b82f6" stroke-width="1.5" stroke-dasharray="none" marker-end="url(#arr_3b82f6)"/>
<text x="142.5" y="400.4" text-anchor="middle" font-family="-apple-system, 'Helvetica Neue', Arial, sans-serif" font-size="10" fill="#6b7280">更新 NodeMaintenance status</text>
<rect x="138.5" y="405.4" width="8" height="12" fill="#dbeafe" stroke="#93c5fd" stroke-width="1"/>
</svg>
