<svg xmlns="http://www.w3.org/2000/svg" viewBox="0 0 900 680" width="900" height="680">
  <defs>
    <marker id="arrow" markerWidth="9" markerHeight="7" refX="8" refY="3.5" orient="auto">
      <polygon points="0 0.5, 8.5 3.5, 0 6.5" fill="#3b82f6"/>
    </marker>
    <marker id="arrowbranch" markerWidth="9" markerHeight="7" refX="8" refY="3.5" orient="auto">
      <polygon points="0 0.5, 8.5 3.5, 0 6.5" fill="#3b82f6"/>
    </marker>
  </defs>
  <rect width="900" height="680" fill="#ffffff"/>
  <text x="450" y="36" text-anchor="middle" font-family="-apple-system, 'Helvetica Neue', Arial, sans-serif" font-size="18" font-weight="700" fill="#111827">NMO — 維護工作流程對應權限</text>
  <text x="450" y="58" text-anchor="middle" font-family="-apple-system, 'Helvetica Neue', Arial, sans-serif" font-size="12" font-weight="normal" fill="#6b7280">ClusterRole: manager-role 各步驟使用的 RBAC 權限</text>
  <rect x="30" y="76" width="370" height="28" rx="4" fill="#1e40af" stroke="none"/>
  <text x="215" y="95" text-anchor="middle" font-family="-apple-system, 'Helvetica Neue', Arial, sans-serif" font-size="12" font-weight="700" fill="white">維護步驟</text>
  <rect x="430" y="76" width="370" height="28" rx="4" fill="#065f46" stroke="none"/>
  <text x="615" y="95" text-anchor="middle" font-family="-apple-system, 'Helvetica Neue', Arial, sans-serif" font-size="12" font-weight="700" fill="white">使用 RBAC 權限</text>
  <rect x="30" y="110" width="370" height="52" rx="5" fill="#eff6ff" stroke="#e5e7eb" stroke-width="1.5"/>
  <text x="44" y="132" font-family="-apple-system, 'Helvetica Neue', Arial, sans-serif" font-size="13" font-weight="600" fill="#111827">1. 讀取 NodeMaintenance CR</text>
  <line x1="400" y1="136" x2="430" y2="136" stroke="#3b82f6" stroke-width="1.5" marker-end="url(#arrow)"/>
  <rect x="430" y="110" width="370" height="52" rx="5" fill="#d1fae5" stroke="#e5e7eb" stroke-width="1"/>
  <text x="444" y="129" font-family="-apple-system, 'Helvetica Neue', Arial, sans-serif" font-size="11.5" fill="#065f46" font-weight="500">nodemaintenances: get/watch</text>
  <line x1="215" y1="162" x2="215" y2="168" stroke="#3b82f6" stroke-width="1.5" marker-end="url(#arrow)"/>
  <rect x="30" y="166" width="370" height="52" rx="5" fill="#f0f9ff" stroke="#e5e7eb" stroke-width="1.5"/>
  <text x="44" y="188" font-family="-apple-system, 'Helvetica Neue', Arial, sans-serif" font-size="13" font-weight="600" fill="#111827">2. 新增 finalizer</text>
  <line x1="400" y1="192" x2="430" y2="192" stroke="#3b82f6" stroke-width="1.5" marker-end="url(#arrow)"/>
  <rect x="430" y="166" width="370" height="52" rx="5" fill="#ecfdf5" stroke="#e5e7eb" stroke-width="1"/>
  <text x="444" y="185" font-family="-apple-system, 'Helvetica Neue', Arial, sans-serif" font-size="11.5" fill="#065f46" font-weight="500">nodemaintenances: update</text>
  <line x1="215" y1="218" x2="215" y2="224" stroke="#3b82f6" stroke-width="1.5" marker-end="url(#arrow)"/>
  <rect x="30" y="222" width="370" height="52" rx="5" fill="#eff6ff" stroke="#e5e7eb" stroke-width="1.5"/>
  <text x="44" y="244" font-family="-apple-system, 'Helvetica Neue', Arial, sans-serif" font-size="13" font-weight="600" fill="#111827">3. 取得節點資訊</text>
  <line x1="400" y1="248" x2="430" y2="248" stroke="#3b82f6" stroke-width="1.5" marker-end="url(#arrow)"/>
  <rect x="430" y="222" width="370" height="52" rx="5" fill="#d1fae5" stroke="#e5e7eb" stroke-width="1"/>
  <text x="444" y="241" font-family="-apple-system, 'Helvetica Neue', Arial, sans-serif" font-size="11.5" fill="#065f46" font-weight="500">nodes: get</text>
  <line x1="215" y1="274" x2="215" y2="280" stroke="#3b82f6" stroke-width="1.5" marker-end="url(#arrow)"/>
  <rect x="30" y="278" width="370" height="52" rx="5" fill="#f0f9ff" stroke="#e5e7eb" stroke-width="1.5"/>
  <text x="44" y="300" font-family="-apple-system, 'Helvetica Neue', Arial, sans-serif" font-size="13" font-weight="600" fill="#111827">4. RequestLease</text>
  <line x1="400" y1="304" x2="430" y2="304" stroke="#3b82f6" stroke-width="1.5" marker-end="url(#arrow)"/>
  <rect x="430" y="278" width="370" height="52" rx="5" fill="#ecfdf5" stroke="#e5e7eb" stroke-width="1"/>
  <text x="444" y="297" font-family="-apple-system, 'Helvetica Neue', Arial, sans-serif" font-size="11.5" fill="#065f46" font-weight="500">leases: create/update</text>
  <line x1="215" y1="330" x2="215" y2="336" stroke="#3b82f6" stroke-width="1.5" marker-end="url(#arrow)"/>
  <rect x="30" y="334" width="370" height="52" rx="5" fill="#eff6ff" stroke="#e5e7eb" stroke-width="1.5"/>
  <text x="44" y="356" font-family="-apple-system, 'Helvetica Neue', Arial, sans-serif" font-size="13" font-weight="600" fill="#111827">5. 套用 taint</text>
  <line x1="400" y1="360" x2="430" y2="360" stroke="#3b82f6" stroke-width="1.5" marker-end="url(#arrow)"/>
  <rect x="430" y="334" width="370" height="52" rx="5" fill="#d1fae5" stroke="#e5e7eb" stroke-width="1"/>
  <text x="444" y="353" font-family="-apple-system, 'Helvetica Neue', Arial, sans-serif" font-size="11.5" fill="#065f46" font-weight="500">nodes: patch</text>
  <line x1="215" y1="386" x2="215" y2="392" stroke="#3b82f6" stroke-width="1.5" marker-end="url(#arrow)"/>
  <rect x="30" y="390" width="370" height="52" rx="5" fill="#f0f9ff" stroke="#e5e7eb" stroke-width="1.5"/>
  <text x="44" y="412" font-family="-apple-system, 'Helvetica Neue', Arial, sans-serif" font-size="13" font-weight="600" fill="#111827">6. Cordon</text>
  <line x1="400" y1="416" x2="430" y2="416" stroke="#3b82f6" stroke-width="1.5" marker-end="url(#arrow)"/>
  <rect x="430" y="390" width="370" height="52" rx="5" fill="#ecfdf5" stroke="#e5e7eb" stroke-width="1"/>
  <text x="444" y="409" font-family="-apple-system, 'Helvetica Neue', Arial, sans-serif" font-size="11.5" fill="#065f46" font-weight="500">nodes: update</text>
  <line x1="215" y1="442" x2="215" y2="448" stroke="#3b82f6" stroke-width="1.5" marker-end="url(#arrow)"/>
  <rect x="30" y="446" width="370" height="52" rx="5" fill="#eff6ff" stroke="#f59e0b" stroke-width="1.5"/>
  <text x="44" y="468" font-family="-apple-system, 'Helvetica Neue', Arial, sans-serif" font-size="13" font-weight="600" fill="#111827">7. 列出 Pod</text>
  <line x1="400" y1="472" x2="430" y2="472" stroke="#3b82f6" stroke-width="1.5" marker-end="url(#arrow)"/>
  <rect x="430" y="446" width="370" height="52" rx="5" fill="#d1fae5" stroke="#e5e7eb" stroke-width="1"/>
  <text x="444" y="465" font-family="-apple-system, 'Helvetica Neue', Arial, sans-serif" font-size="11.5" fill="#065f46" font-weight="500">pods: list</text>
  <line x1="215" y1="498" x2="215" y2="504" stroke="#3b82f6" stroke-width="1.5" marker-end="url(#arrow)"/>
  <rect x="30" y="502" width="370" height="52" rx="5" fill="#f0f9ff" stroke="#f59e0b" stroke-width="1.5"/>
  <text x="44" y="524" font-family="-apple-system, 'Helvetica Neue', Arial, sans-serif" font-size="13" font-weight="600" fill="#111827">8. 驅逐 Pod</text>
  <line x1="400" y1="528" x2="430" y2="528" stroke="#3b82f6" stroke-width="1.5" marker-end="url(#arrow)"/>
  <rect x="430" y="502" width="370" height="52" rx="5" fill="#ecfdf5" stroke="#e5e7eb" stroke-width="1"/>
  <text x="444" y="521" font-family="-apple-system, 'Helvetica Neue', Arial, sans-serif" font-size="11.5" fill="#065f46" font-weight="500">pods/eviction: create</text>
  <text x="444" y="538" font-family="-apple-system, 'Helvetica Neue', Arial, sans-serif" font-size="11.5" fill="#065f46" font-weight="500">poddisruptionbudgets: get</text>
  <line x1="215" y1="554" x2="215" y2="560" stroke="#3b82f6" stroke-width="1.5" marker-end="url(#arrow)"/>
  <rect x="30" y="558" width="370" height="52" rx="5" fill="#eff6ff" stroke="#e5e7eb" stroke-width="1.5"/>
  <text x="44" y="580" font-family="-apple-system, 'Helvetica Neue', Arial, sans-serif" font-size="13" font-weight="600" fill="#111827">9. 更新進度</text>
  <line x1="400" y1="584" x2="430" y2="584" stroke="#3b82f6" stroke-width="1.5" marker-end="url(#arrow)"/>
  <rect x="430" y="558" width="370" height="52" rx="5" fill="#d1fae5" stroke="#e5e7eb" stroke-width="1"/>
  <text x="444" y="577" font-family="-apple-system, 'Helvetica Neue', Arial, sans-serif" font-size="11.5" fill="#065f46" font-weight="500">nodemaintenances/status: patch</text>
  <line x1="215" y1="610" x2="215" y2="616" stroke="#3b82f6" stroke-width="1.5" marker-end="url(#arrow)"/>
  <rect x="30" y="614" width="370" height="52" rx="5" fill="#f0f9ff" stroke="#e5e7eb" stroke-width="1.5"/>
  <text x="44" y="636" font-family="-apple-system, 'Helvetica Neue', Arial, sans-serif" font-size="13" font-weight="600" fill="#111827">10. 移除 finalizer</text>
  <line x1="400" y1="640" x2="430" y2="640" stroke="#3b82f6" stroke-width="1.5" marker-end="url(#arrow)"/>
  <rect x="430" y="614" width="370" height="52" rx="5" fill="#ecfdf5" stroke="#e5e7eb" stroke-width="1"/>
  <text x="444" y="633" font-family="-apple-system, 'Helvetica Neue', Arial, sans-serif" font-size="11.5" fill="#065f46" font-weight="500">nodemaintenances/finalizers: update</text>
  <rect x="845" y="446" width="22" height="108" rx="4" fill="#fef3c7" stroke="#f59e0b" stroke-width="1.5"/>
  <text x="856" y="504" text-anchor="middle" font-family="-apple-system, 'Helvetica Neue', Arial, sans-serif" font-size="10" font-weight="700" fill="#b45309" writing-mode="tb">LOOP</text>
</svg>
