<svg xmlns="http://www.w3.org/2000/svg" width="820" height="140">
<defs><marker id="arr_3b82f6" viewBox="0 0 10 10" refX="9" refY="5" markerWidth="6" markerHeight="6" orient="auto-start-reverse"><path d="M 0 0 L 10 5 L 0 10 z" fill="#3b82f6"/></marker>
<marker id="arr_6b7280" viewBox="0 0 10 10" refX="9" refY="5" markerWidth="6" markerHeight="6" orient="auto-start-reverse"><path d="M 0 0 L 10 5 L 0 10 z" fill="#6b7280"/></marker>
</defs>
<rect width="820" height="140" fill="#ffffff"/>
<rect x="50" y="45" width="170" height="50" rx="8" fill="#f9fafb" stroke="#e5e7eb" stroke-width="1.5"/>
<text x="135.0" y="70.0" text-anchor="middle" font-family="-apple-system, 'Helvetica Neue', Arial, sans-serif" font-size="11" dominant-baseline="middle"><tspan x="135.0" dy="0" fill="#111827">👤 使用者</tspan></text>
<rect x="270" y="45" width="170" height="50" rx="8" fill="#f0f4ff" stroke="#c7d2fe" stroke-width="1.5"/>
<text x="355.0" y="70.0" text-anchor="middle" font-family="-apple-system, 'Helvetica Neue', Arial, sans-serif" font-size="11" dominant-baseline="middle"><tspan x="355.0" dy="0" fill="#111827">NodeMaintenance CR</tspan></text>
<rect x="490" y="45" width="170" height="50" rx="8" fill="#f9fafb" stroke="#e5e7eb" stroke-width="1.5"/>
<text x="575.0" y="62.5" text-anchor="middle" font-family="-apple-system, 'Helvetica Neue', Arial, sans-serif" font-size="11" dominant-baseline="middle"><tspan x="575.0" dy="0" fill="#111827">NodeMaintenanceReconc</tspan><tspan x="575.0" dy="15" fill="#111827">iler</tspan></text>
<rect x="710" y="45" width="170" height="50" rx="8" fill="#dcfce7" stroke="#86efac" stroke-width="1.5"/>
<text x="795.0" y="70.0" text-anchor="middle" font-family="-apple-system, 'Helvetica Neue', Arial, sans-serif" font-size="11" dominant-baseline="middle"><tspan x="795.0" dy="0" fill="#111827">☸ Node</tspan></text>
<line x1="220" y1="70" x2="270" y2="70" stroke="#3b82f6" stroke-width="1.5" marker-end="url(#arr_3b82f6)"/>
<text x="245.0" y="84.0" text-anchor="middle" font-family="-apple-system, 'Helvetica Neue', Arial, sans-serif" font-size="10" fill="#6b7280">kubectl apply</text>
<line x1="440" y1="70" x2="490" y2="70" stroke="#3b82f6" stroke-width="1.5" marker-end="url(#arr_3b82f6)"/>
<text x="465.0" y="84.0" text-anchor="middle" font-family="-apple-system, 'Helvetica Neue', Arial, sans-serif" font-size="10" fill="#6b7280">watch</text>
<line x1="660" y1="70" x2="710" y2="70" stroke="#3b82f6" stroke-width="1.5" marker-end="url(#arr_3b82f6)"/>
<text x="685.0" y="84.0" text-anchor="middle" font-family="-apple-system, 'Helvetica Neue', Arial, sans-serif" font-size="10" fill="#6b7280">taint / cordon / drain</text>
</svg>
