<svg xmlns="http://www.w3.org/2000/svg" width="700" height="1200">
<defs><marker id="arr_3b82f6" viewBox="0 0 10 10" refX="9" refY="5" markerWidth="6" markerHeight="6" orient="auto-start-reverse"><path d="M 0 0 L 10 5 L 0 10 z" fill="#3b82f6"/></marker>
<marker id="arr_6b7280" viewBox="0 0 10 10" refX="9" refY="5" markerWidth="6" markerHeight="6" orient="auto-start-reverse"><path d="M 0 0 L 10 5 L 0 10 z" fill="#6b7280"/></marker>
</defs>
<rect width="700" height="1200" fill="#ffffff"/>
<rect x="250" y="30" width="270" height="36" rx="18.0" fill="#dbeafe" stroke="#93c5fd" stroke-width="1.5"/>
<text x="385.0" y="48.0" text-anchor="middle" font-family="-apple-system, 'Helvetica Neue', Arial, sans-serif" font-size="11" dominant-baseline="middle"><tspan x="385.0" dy="0" fill="#111827">開始 Reconcile</tspan></text>
<polygon points="250,68 360,100 250,132 140,100" fill="#fef3c7" stroke="#fbbf24" stroke-width="1.5"/>
<text x="250" y="100.0" text-anchor="middle" font-family="-apple-system, 'Helvetica Neue', Arial, sans-serif" font-size="10" dominant-baseline="middle"><tspan x="250" dy="0" fill="#111827">Fetch NM CR</tspan></text>
<rect x="490" y="100" width="140" height="36" rx="18.0" fill="#dcfce7" stroke="#86efac" stroke-width="1.5"/>
<text x="560.0" y="118.0" text-anchor="middle" font-family="-apple-system, 'Helvetica Neue', Arial, sans-serif" font-size="11" dominant-baseline="middle"><tspan x="560.0" dy="0" fill="#111827">結束</tspan></text>
<rect x="150" y="170" width="220" height="46" rx="8" fill="#f9fafb" stroke="#e5e7eb" stroke-width="1.5"/>
<text x="260.0" y="193.0" text-anchor="middle" font-family="-apple-system, 'Helvetica Neue', Arial, sans-serif" font-size="11" dominant-baseline="middle"><tspan x="260.0" dy="0" fill="#111827">建立 drain.Helper</tspan></text>
<polygon points="150,218 280,250 150,282 20,250" fill="#fef3c7" stroke="#fbbf24" stroke-width="1.5"/>
<text x="150" y="250.0" text-anchor="middle" font-family="-apple-system, 'Helvetica Neue', Arial, sans-serif" font-size="10" dominant-baseline="middle"><tspan x="150" dy="0" fill="#111827">Finalizer 檢查</tspan></text>
<rect x="-10" y="330" width="200" height="54" rx="8" fill="#f9fafb" stroke="#e5e7eb" stroke-width="1.5"/>
<text x="90.0" y="349.5" text-anchor="middle" font-family="-apple-system, 'Helvetica Neue', Arial, sans-serif" font-size="11" dominant-baseline="middle"><tspan x="90.0" dy="0" fill="#111827">新增 finalizer 觸發</tspan><tspan x="90.0" dy="15" fill="#111827">BeginMaintenance</tspan></text>
<rect x="300" y="330" width="200" height="54" rx="8" fill="#f9fafb" stroke="#e5e7eb" stroke-width="1.5"/>
<text x="400.0" y="342.0" text-anchor="middle" font-family="-apple-system, 'Helvetica Neue', Arial, sans-serif" font-size="11" dominant-baseline="middle"><tspan x="400.0" dy="0" fill="#111827">stopMaintenance 移除</tspan><tspan x="400.0" dy="15" fill="#111827">finalizer 觸發</tspan><tspan x="400.0" dy="15" fill="#111827">RemovedMaintenance</tspan></text>
<rect x="340" y="420" width="120" height="36" rx="18.0" fill="#dcfce7" stroke="#86efac" stroke-width="1.5"/>
<text x="400.0" y="438.0" text-anchor="middle" font-family="-apple-system, 'Helvetica Neue', Arial, sans-serif" font-size="11" dominant-baseline="middle"><tspan x="400.0" dy="0" fill="#111827">結束</tspan></text>
<polygon points="150,400 240,430 150,460 60,430" fill="#fef3c7" stroke="#fbbf24" stroke-width="1.5"/>
<text x="150" y="430.0" text-anchor="middle" font-family="-apple-system, 'Helvetica Neue', Arial, sans-serif" font-size="10" dominant-baseline="middle"><tspan x="150" dy="0" fill="#111827">phase == ''</tspan></text>
<rect x="-20" y="500" width="210" height="46" rx="8" fill="#f9fafb" stroke="#e5e7eb" stroke-width="1.5"/>
<text x="85.0" y="523.0" text-anchor="middle" font-family="-apple-system, 'Helvetica Neue', Arial, sans-serif" font-size="11" dominant-baseline="middle"><tspan x="85.0" dy="0" fill="#111827">設 Running 統計 TotalPods</tspan></text>
<rect x="150" y="560" width="200" height="46" rx="8" fill="#f9fafb" stroke="#e5e7eb" stroke-width="1.5"/>
<text x="250.0" y="583.0" text-anchor="middle" font-family="-apple-system, 'Helvetica Neue', Arial, sans-serif" font-size="11" dominant-baseline="middle"><tspan x="250.0" dy="0" fill="#111827">取得 Node</tspan></text>
<rect x="410" y="560" width="200" height="54" rx="8" fill="#fee2e2" stroke="#fca5a5" stroke-width="1.5"/>
<text x="510.0" y="579.5" text-anchor="middle" font-family="-apple-system, 'Helvetica Neue', Arial, sans-serif" font-size="11" dominant-baseline="middle"><tspan x="510.0" dy="0" fill="#111827">觸發 FailedMaintenance 設</tspan><tspan x="510.0" dy="15" fill="#111827">Failed</tspan></text>
<rect x="450" y="640" width="120" height="36" rx="18.0" fill="#dcfce7" stroke="#86efac" stroke-width="1.5"/>
<text x="510.0" y="658.0" text-anchor="middle" font-family="-apple-system, 'Helvetica Neue', Arial, sans-serif" font-size="11" dominant-baseline="middle"><tspan x="510.0" dy="0" fill="#111827">結束</tspan></text>
<polygon points="150,608 280,640 150,672 20,640" fill="#fef3c7" stroke="#fbbf24" stroke-width="1.5"/>
<text x="150" y="633.5" text-anchor="middle" font-family="-apple-system, 'Helvetica Neue', Arial, sans-serif" font-size="10" dominant-baseline="middle"><tspan x="150" dy="0" fill="#111827">ErrorOnLeaseCount &gt;</tspan><tspan x="150" dy="13" fill="#111827">3?</tspan></text>
<rect x="-20" y="710" width="190" height="46" rx="8" fill="#fee2e2" stroke="#fca5a5" stroke-width="1.5"/>
<text x="75.0" y="733.0" text-anchor="middle" font-family="-apple-system, 'Helvetica Neue', Arial, sans-serif" font-size="11" dominant-baseline="middle"><tspan x="75.0" dy="0" fill="#111827">Uncordon 設 Failed</tspan></text>
<rect x="-10" y="790" width="120" height="36" rx="18.0" fill="#dcfce7" stroke="#86efac" stroke-width="1.5"/>
<text x="50.0" y="808.0" text-anchor="middle" font-family="-apple-system, 'Helvetica Neue', Arial, sans-serif" font-size="11" dominant-baseline="middle"><tspan x="50.0" dy="0" fill="#111827">結束</tspan></text>
<rect x="150" y="720" width="200" height="36" rx="8" fill="#f0f4ff" stroke="#c7d2fe" stroke-width="1.5"/>
<text x="250.0" y="738.0" text-anchor="middle" font-family="-apple-system, 'Helvetica Neue', Arial, sans-serif" font-size="11" dominant-baseline="middle"><tspan x="250.0" dy="0" fill="#111827">RequestLease 3600s</tspan></text>
<rect x="150" y="780" width="220" height="46" rx="8" fill="#f9fafb" stroke="#e5e7eb" stroke-width="1.5"/>
<text x="260.0" y="795.5" text-anchor="middle" font-family="-apple-system, 'Helvetica Neue', Arial, sans-serif" font-size="11" dominant-baseline="middle"><tspan x="260.0" dy="0" fill="#111827">Patch 標籤 exclude-from-</tspan><tspan x="260.0" dy="15" fill="#111827">remediation=true</tspan></text>
<rect x="150" y="850" width="220" height="54" rx="8" fill="#f9fafb" stroke="#e5e7eb" stroke-width="1.5"/>
<text x="260.0" y="862.0" text-anchor="middle" font-family="-apple-system, 'Helvetica Neue', Arial, sans-serif" font-size="11" dominant-baseline="middle"><tspan x="260.0" dy="0" fill="#111827">新增 Taint medik8s.io/drain n</tspan><tspan x="260.0" dy="15" fill="#111827">ode.kubernetes.io/unschedul</tspan><tspan x="260.0" dy="15" fill="#111827">able</tspan></text>
<rect x="150" y="930" width="220" height="46" rx="8" fill="#f9fafb" stroke="#e5e7eb" stroke-width="1.5"/>
<text x="260.0" y="945.5" text-anchor="middle" font-family="-apple-system, 'Helvetica Neue', Arial, sans-serif" font-size="11" dominant-baseline="middle"><tspan x="260.0" dy="0" fill="#111827">Cordon 節點</tspan><tspan x="260.0" dy="15" fill="#111827">Unschedulable=true</tspan></text>
<rect x="150" y="1000" width="220" height="36" rx="8" fill="#f9fafb" stroke="#e5e7eb" stroke-width="1.5"/>
<text x="260.0" y="1018.0" text-anchor="middle" font-family="-apple-system, 'Helvetica Neue', Arial, sans-serif" font-size="11" dominant-baseline="middle"><tspan x="260.0" dy="0" fill="#111827">drain.RunNodeDrain</tspan></text>
<rect x="-20" y="1060" width="160" height="36" rx="8" fill="#fee2e2" stroke="#fca5a5" stroke-width="1.5"/>
<text x="60.0" y="1078.0" text-anchor="middle" font-family="-apple-system, 'Helvetica Neue', Arial, sans-serif" font-size="11" dominant-baseline="middle"><tspan x="60.0" dy="0" fill="#111827">Requeue 5s</tspan></text>
<rect x="330" y="1060" width="210" height="46" rx="8" fill="#dcfce7" stroke="#86efac" stroke-width="1.5"/>
<text x="435.0" y="1075.5" text-anchor="middle" font-family="-apple-system, 'Helvetica Neue', Arial, sans-serif" font-size="11" dominant-baseline="middle"><tspan x="435.0" dy="0" fill="#111827">設 Succeeded</tspan><tspan x="435.0" dy="15" fill="#111827">DrainProgress=100</tspan></text>
<rect x="150" y="1130" width="130" height="36" rx="18.0" fill="#dcfce7" stroke="#86efac" stroke-width="1.5"/>
<text x="215.0" y="1148.0" text-anchor="middle" font-family="-apple-system, 'Helvetica Neue', Arial, sans-serif" font-size="11" dominant-baseline="middle"><tspan x="215.0" dy="0" fill="#111827">結束</tspan></text>
<line x1="385.0" y1="66" x2="250" y2="68" stroke="#3b82f6" stroke-width="1.5" marker-end="url(#arr_3b82f6)"/>
<line x1="360" y1="100" x2="560.0" y2="100" stroke="#3b82f6" stroke-width="1.5" marker-end="url(#arr_3b82f6)"/>
<text x="460.0" y="114.0" text-anchor="middle" font-family="-apple-system, 'Helvetica Neue', Arial, sans-serif" font-size="9" fill="#6b7280">不存在</text>
<line x1="250" y1="132" x2="260.0" y2="170" stroke="#3b82f6" stroke-width="1.5" marker-end="url(#arr_3b82f6)"/>
<text x="241.5" y="154.6" text-anchor="middle" font-family="-apple-system, 'Helvetica Neue', Arial, sans-serif" font-size="9" fill="#6b7280">存在</text>
<line x1="260.0" y1="216" x2="150" y2="218" stroke="#3b82f6" stroke-width="1.5" marker-end="url(#arr_3b82f6)"/>
<line x1="20" y1="250" x2="90.0" y2="330" stroke="#3b82f6" stroke-width="1.5" marker-end="url(#arr_3b82f6)"/>
<text x="44.5" y="299.2" text-anchor="middle" font-family="-apple-system, 'Helvetica Neue', Arial, sans-serif" font-size="9" fill="#6b7280">無 finalizer</text>
<line x1="280" y1="250" x2="400.0" y2="330" stroke="#3b82f6" stroke-width="1.5" marker-end="url(#arr_3b82f6)"/>
<text x="332.2" y="301.6" text-anchor="middle" font-family="-apple-system, 'Helvetica Neue', Arial, sans-serif" font-size="9" fill="#6b7280">DeletionTimestamp 已設</text>
<line x1="400.0" y1="384" x2="400.0" y2="420" stroke="#3b82f6" stroke-width="1.5" marker-end="url(#arr_3b82f6)"/>
<line x1="90.0" y1="384" x2="150" y2="400" stroke="#3b82f6" stroke-width="1.5" marker-end="url(#arr_3b82f6)"/>
<line x1="60" y1="430" x2="85.0" y2="500" stroke="#3b82f6" stroke-width="1.5" marker-end="url(#arr_3b82f6)"/>
<text x="59.3" y="469.7" text-anchor="middle" font-family="-apple-system, 'Helvetica Neue', Arial, sans-serif" font-size="9" fill="#6b7280">是</text>
<line x1="150" y1="460" x2="250.0" y2="560" stroke="#3b82f6" stroke-width="1.5" marker-end="url(#arr_3b82f6)"/>
<text x="190.1" y="519.9" text-anchor="middle" font-family="-apple-system, 'Helvetica Neue', Arial, sans-serif" font-size="9" fill="#6b7280">否</text>
<line x1="85.0" y1="546" x2="250.0" y2="560" stroke="#3b82f6" stroke-width="1.5" marker-end="url(#arr_3b82f6)"/>
<line x1="350" y1="583.0" x2="510.0" y2="560" stroke="#3b82f6" stroke-width="1.5" marker-end="url(#arr_3b82f6)"/>
<text x="432.0" y="585.4" text-anchor="middle" font-family="-apple-system, 'Helvetica Neue', Arial, sans-serif" font-size="9" fill="#6b7280">Node 不存在</text>
<line x1="510.0" y1="614" x2="510.0" y2="640" stroke="#3b82f6" stroke-width="1.5" marker-end="url(#arr_3b82f6)"/>
<line x1="250.0" y1="606" x2="150" y2="608" stroke="#3b82f6" stroke-width="1.5" marker-end="url(#arr_3b82f6)"/>
<text x="199.7" y="593.0" text-anchor="middle" font-family="-apple-system, 'Helvetica Neue', Arial, sans-serif" font-size="9" fill="#6b7280">Node 存在</text>
<line x1="20" y1="640" x2="75.0" y2="710" stroke="#3b82f6" stroke-width="1.5" marker-end="url(#arr_3b82f6)"/>
<text x="36.5" y="683.6" text-anchor="middle" font-family="-apple-system, 'Helvetica Neue', Arial, sans-serif" font-size="9" fill="#6b7280">是</text>
<line x1="75.0" y1="756" x2="50.0" y2="790" stroke="#3b82f6" stroke-width="1.5" marker-end="url(#arr_3b82f6)"/>
<line x1="150" y1="672" x2="250.0" y2="720" stroke="#3b82f6" stroke-width="1.5" marker-end="url(#arr_3b82f6)"/>
<text x="193.9" y="708.6" text-anchor="middle" font-family="-apple-system, 'Helvetica Neue', Arial, sans-serif" font-size="9" fill="#6b7280">否</text>
<line x1="250.0" y1="756" x2="260.0" y2="780" stroke="#3b82f6" stroke-width="1.5" marker-end="url(#arr_3b82f6)"/>
<line x1="260.0" y1="826" x2="260.0" y2="850" stroke="#3b82f6" stroke-width="1.5" marker-end="url(#arr_3b82f6)"/>
<line x1="260.0" y1="904" x2="260.0" y2="930" stroke="#3b82f6" stroke-width="1.5" marker-end="url(#arr_3b82f6)"/>
<line x1="260.0" y1="976" x2="260.0" y2="1000" stroke="#3b82f6" stroke-width="1.5" marker-end="url(#arr_3b82f6)"/>
<line x1="150" y1="1018.0" x2="60.0" y2="1060" stroke="#3b82f6" stroke-width="1.5" marker-end="url(#arr_3b82f6)"/>
<text x="99.1" y="1026.3" text-anchor="middle" font-family="-apple-system, 'Helvetica Neue', Arial, sans-serif" font-size="9" fill="#6b7280">error</text>
<line x1="370" y1="1018.0" x2="435.0" y2="1060" stroke="#3b82f6" stroke-width="1.5" marker-end="url(#arr_3b82f6)"/>
<text x="394.9" y="1050.8" text-anchor="middle" font-family="-apple-system, 'Helvetica Neue', Arial, sans-serif" font-size="9" fill="#6b7280">success</text>
<line x1="60.0" y1="1096" x2="215.0" y2="1130" stroke="#3b82f6" stroke-width="1.5" marker-end="url(#arr_3b82f6)"/>
<line x1="435.0" y1="1106" x2="280" y2="1148.0" stroke="#3b82f6" stroke-width="1.5" marker-end="url(#arr_3b82f6)"/>
</svg>
