<svg xmlns="http://www.w3.org/2000/svg" width="780" height="160">
<defs><marker id="arr_3b82f6" viewBox="0 0 10 10" refX="9" refY="5" markerWidth="6" markerHeight="6" orient="auto-start-reverse"><path d="M 0 0 L 10 5 L 0 10 z" fill="#3b82f6"/></marker>
<marker id="arr_6b7280" viewBox="0 0 10 10" refX="9" refY="5" markerWidth="6" markerHeight="6" orient="auto-start-reverse"><path d="M 0 0 L 10 5 L 0 10 z" fill="#6b7280"/></marker>
</defs>
<rect width="780" height="160" fill="#ffffff"/>
<rect x="30" y="55" width="180" height="50" rx="8" fill="#f9fafb" stroke="#e5e7eb" stroke-width="1.5"/>
<text x="120.0" y="80.0" text-anchor="middle" font-family="-apple-system, 'Helvetica Neue', Arial, sans-serif" font-size="10" dominant-baseline="middle"><tspan x="120.0" dy="0" fill="#111827">/etc/cni/net.d/ 掃描設定檔</tspan></text>
<polygon points="260,50 360,80 260,110 160,80" fill="#fef3c7" stroke="#fbbf24" stroke-width="1.5"/>
<text x="260" y="73.5" text-anchor="middle" font-family="-apple-system, 'Helvetica Neue', Arial, sans-serif" font-size="10" dominant-baseline="middle"><tspan x="260" dy="0" fill="#111827">找到 .conf 或</tspan><tspan x="260" dy="13" fill="#111827">.conflist?</tspan></text>
<rect x="400" y="55" width="190" height="50" rx="8" fill="#f9fafb" stroke="#e5e7eb" stroke-width="1.5"/>
<text x="495.0" y="80.0" text-anchor="middle" font-family="-apple-system, 'Helvetica Neue', Arial, sans-serif" font-size="10" dominant-baseline="middle"><tspan x="495.0" dy="0" fill="#111827">選取字母排序最前 的設定作為預設網路</tspan></text>
<rect x="610" y="55" width="160" height="50" rx="8" fill="#f0f4ff" stroke="#c7d2fe" stroke-width="1.5"/>
<text x="690.0" y="73.0" text-anchor="middle" font-family="-apple-system, 'Helvetica Neue', Arial, sans-serif" font-size="10" dominant-baseline="middle"><tspan x="690.0" dy="0" fill="#111827">產生 00-multus.conf</tspan><tspan x="690.0" dy="14" fill="#111827">（含預設網路設定）</tspan></text>
<rect x="560" y="125" width="210" height="30" rx="8" fill="#f9fafb" stroke="#e5e7eb" stroke-width="1.5"/>
<text x="665.0" y="140.0" text-anchor="middle" font-family="-apple-system, 'Helvetica Neue', Arial, sans-serif" font-size="10" dominant-baseline="middle"><tspan x="665.0" dy="0" fill="#111827">fsnotify 監控目錄 設定變更時重新產生</tspan></text>
<rect x="400" y="125" width="130" height="30" rx="8" fill="#f9fafb" stroke="#e5e7eb" stroke-width="1.5"/>
<text x="465.0" y="140.0" text-anchor="middle" font-family="-apple-system, 'Helvetica Neue', Arial, sans-serif" font-size="10" dominant-baseline="middle"><tspan x="465.0" dy="0" fill="#111827">等待設定檔出現</tspan></text>
<line x1="210" y1="80.0" x2="160" y2="80" stroke="#3b82f6" stroke-width="1.5" marker-end="url(#arr_3b82f6)"/>
<line x1="360" y1="80" x2="400" y2="80.0" stroke="#3b82f6" stroke-width="1.5" marker-end="url(#arr_3b82f6)"/>
<text x="380.0" y="94.0" text-anchor="middle" font-family="-apple-system, 'Helvetica Neue', Arial, sans-serif" font-size="9" fill="#6b7280">是</text>
<line x1="590" y1="80.0" x2="610" y2="80.0" stroke="#3b82f6" stroke-width="1.5" marker-end="url(#arr_3b82f6)"/>
<line x1="690.0" y1="105" x2="770" y2="140.0" stroke="#3b82f6" stroke-width="1.5" marker-end="url(#arr_3b82f6)"/>
<line x1="260" y1="110" x2="400" y2="140.0" stroke="#3b82f6" stroke-width="1.5" marker-end="url(#arr_3b82f6)"/>
<text x="327.1" y="138.7" text-anchor="middle" font-family="-apple-system, 'Helvetica Neue', Arial, sans-serif" font-size="9" fill="#6b7280">否</text>
</svg>
