<svg xmlns="http://www.w3.org/2000/svg" viewBox="0 0 860 520" width="860" height="520">
  <defs>
    <marker id="arrow" markerWidth="9" markerHeight="7" refX="8" refY="3.5" orient="auto">
      <polygon points="0 0.5, 8.5 3.5, 0 6.5" fill="#3b82f6"/>
    </marker>
    <marker id="arrowbranch" markerWidth="9" markerHeight="7" refX="8" refY="3.5" orient="auto">
      <polygon points="0 0.5, 8.5 3.5, 0 6.5" fill="#3b82f6"/>
    </marker>
  </defs>
  <rect width="860" height="520" fill="#ffffff"/>
  <text x="430" y="36" text-anchor="middle" font-family="-apple-system, 'Helvetica Neue', Arial, sans-serif" font-size="18" font-weight="700" fill="#111827">Multus CNI — 核心套件結構 (pkg/)</text>
  <text x="430" y="58" text-anchor="middle" font-family="-apple-system, 'Helvetica Neue', Arial, sans-serif" font-size="12" font-weight="normal" fill="#6b7280">原始碼路徑：multus-cni/pkg/</text>
  <rect x="30" y="78" width="120" height="38" rx="5" fill="#dbeafe" stroke="#93c5fd" stroke-width="1.5"/>
  <text x="90" y="105" text-anchor="middle" font-family="-apple-system, 'Helvetica Neue', Arial, sans-serif" font-size="14" font-weight="600" fill="#111827">pkg/</text>
  <rect x="200" y="90" width="300" height="46" rx="5" fill="#f9fafb" stroke="#e5e7eb" stroke-width="1.5"/>
  <text x="212" y="109" font-family="-apple-system, 'Helvetica Neue', Arial, sans-serif" font-size="13" font-weight="600" fill="#1d4ed8">multus/</text>
  <text x="212" y="126" font-family="-apple-system, 'Helvetica Neue', Arial, sans-serif" font-size="11" fill="#6b7280">核心 CNI 邏輯</text>
  <line x1="150" y1="97" x2="200" y2="113" stroke="#e5e7eb" stroke-width="1" marker-end="url(#arrow)"/>
  <rect x="200" y="148" width="300" height="46" rx="5" fill="#f9fafb" stroke="#e5e7eb" stroke-width="1.5"/>
  <text x="212" y="167" font-family="-apple-system, 'Helvetica Neue', Arial, sans-serif" font-size="13" font-weight="600" fill="#1d4ed8">server/</text>
  <text x="212" y="184" font-family="-apple-system, 'Helvetica Neue', Arial, sans-serif" font-size="11" fill="#6b7280">Thick Plugin 伺服器</text>
  <line x1="150" y1="97" x2="200" y2="171" stroke="#e5e7eb" stroke-width="1" marker-end="url(#arrow)"/>
  <rect x="200" y="206" width="300" height="46" rx="5" fill="#f9fafb" stroke="#e5e7eb" stroke-width="1.5"/>
  <text x="212" y="225" font-family="-apple-system, 'Helvetica Neue', Arial, sans-serif" font-size="13" font-weight="600" fill="#1d4ed8">types/</text>
  <text x="212" y="242" font-family="-apple-system, 'Helvetica Neue', Arial, sans-serif" font-size="11" fill="#6b7280">型別定義</text>
  <line x1="150" y1="97" x2="200" y2="229" stroke="#e5e7eb" stroke-width="1" marker-end="url(#arrow)"/>
  <rect x="200" y="264" width="300" height="46" rx="5" fill="#f9fafb" stroke="#e5e7eb" stroke-width="1.5"/>
  <text x="212" y="283" font-family="-apple-system, 'Helvetica Neue', Arial, sans-serif" font-size="13" font-weight="600" fill="#1d4ed8">k8sclient/</text>
  <text x="212" y="300" font-family="-apple-system, 'Helvetica Neue', Arial, sans-serif" font-size="11" fill="#6b7280">Kubernetes 客戶端</text>
  <line x1="150" y1="97" x2="200" y2="287" stroke="#e5e7eb" stroke-width="1" marker-end="url(#arrow)"/>
  <rect x="200" y="322" width="300" height="46" rx="5" fill="#f9fafb" stroke="#e5e7eb" stroke-width="1.5"/>
  <text x="212" y="341" font-family="-apple-system, 'Helvetica Neue', Arial, sans-serif" font-size="13" font-weight="600" fill="#1d4ed8">checkpoint/</text>
  <text x="212" y="358" font-family="-apple-system, 'Helvetica Neue', Arial, sans-serif" font-size="11" fill="#6b7280">SR-IOV 裝置 checkpoint</text>
  <line x1="150" y1="97" x2="200" y2="345" stroke="#e5e7eb" stroke-width="1" marker-end="url(#arrow)"/>
  <rect x="200" y="380" width="300" height="46" rx="5" fill="#f9fafb" stroke="#e5e7eb" stroke-width="1.5"/>
  <text x="212" y="399" font-family="-apple-system, 'Helvetica Neue', Arial, sans-serif" font-size="13" font-weight="600" fill="#1d4ed8">cmdutils/</text>
  <text x="212" y="416" font-family="-apple-system, 'Helvetica Neue', Arial, sans-serif" font-size="11" fill="#6b7280">命令列工具函式</text>
  <line x1="150" y1="97" x2="200" y2="403" stroke="#e5e7eb" stroke-width="1" marker-end="url(#arrow)"/>
  <rect x="530" y="90" width="300" height="46" rx="5" fill="#f9fafb" stroke="#e5e7eb" stroke-width="1.5"/>
  <text x="542" y="109" font-family="-apple-system, 'Helvetica Neue', Arial, sans-serif" font-size="13" font-weight="600" fill="#1d4ed8">kubeletclient/</text>
  <text x="542" y="126" font-family="-apple-system, 'Helvetica Neue', Arial, sans-serif" font-size="11" fill="#6b7280">Pod Resource API</text>
  <line x1="150" y1="97" x2="530" y2="113" stroke="#e5e7eb" stroke-width="1" marker-end="url(#arrow)"/>
  <rect x="530" y="148" width="300" height="46" rx="5" fill="#f9fafb" stroke="#e5e7eb" stroke-width="1.5"/>
  <text x="542" y="167" font-family="-apple-system, 'Helvetica Neue', Arial, sans-serif" font-size="13" font-weight="600" fill="#1d4ed8">logging/</text>
  <text x="542" y="184" font-family="-apple-system, 'Helvetica Neue', Arial, sans-serif" font-size="11" fill="#6b7280">結構化日誌</text>
  <line x1="150" y1="97" x2="530" y2="171" stroke="#e5e7eb" stroke-width="1" marker-end="url(#arrow)"/>
  <rect x="530" y="206" width="300" height="46" rx="5" fill="#f9fafb" stroke="#e5e7eb" stroke-width="1.5"/>
  <text x="542" y="225" font-family="-apple-system, 'Helvetica Neue', Arial, sans-serif" font-size="13" font-weight="600" fill="#1d4ed8">netutils/</text>
  <text x="542" y="242" font-family="-apple-system, 'Helvetica Neue', Arial, sans-serif" font-size="11" fill="#6b7280">網路工具函式</text>
  <line x1="150" y1="97" x2="530" y2="229" stroke="#e5e7eb" stroke-width="1" marker-end="url(#arrow)"/>
  <rect x="530" y="264" width="300" height="46" rx="5" fill="#f9fafb" stroke="#e5e7eb" stroke-width="1.5"/>
  <text x="542" y="283" font-family="-apple-system, 'Helvetica Neue', Arial, sans-serif" font-size="13" font-weight="600" fill="#1d4ed8">signals/</text>
  <text x="542" y="300" font-family="-apple-system, 'Helvetica Neue', Arial, sans-serif" font-size="11" fill="#6b7280">OS 訊號處理</text>
  <line x1="150" y1="97" x2="530" y2="287" stroke="#e5e7eb" stroke-width="1" marker-end="url(#arrow)"/>
  <rect x="530" y="322" width="300" height="46" rx="5" fill="#f9fafb" stroke="#e5e7eb" stroke-width="1.5"/>
  <text x="542" y="341" font-family="-apple-system, 'Helvetica Neue', Arial, sans-serif" font-size="13" font-weight="600" fill="#1d4ed8">testing/</text>
  <text x="542" y="358" font-family="-apple-system, 'Helvetica Neue', Arial, sans-serif" font-size="11" fill="#6b7280">測試工具</text>
  <line x1="150" y1="97" x2="530" y2="345" stroke="#e5e7eb" stroke-width="1" marker-end="url(#arrow)"/>
  <rect x="220" y="198" width="125" height="32" rx="4" fill="#eff6ff" stroke="#bfdbfe" stroke-width="1"/>
  <text x="232" y="212" font-family="-apple-system, 'Helvetica Neue', Arial, sans-serif" font-size="11" font-weight="600" fill="#1e40af">api/</text>
  <text x="232" y="224" font-family="-apple-system, 'Helvetica Neue', Arial, sans-serif" font-size="10" fill="#6b7280">Shim 通訊協定</text>
  <rect x="355" y="198" width="130" height="32" rx="4" fill="#eff6ff" stroke="#bfdbfe" stroke-width="1"/>
  <text x="367" y="212" font-family="-apple-system, 'Helvetica Neue', Arial, sans-serif" font-size="11" font-weight="600" fill="#1e40af">config/</text>
  <text x="367" y="224" font-family="-apple-system, 'Helvetica Neue', Arial, sans-serif" font-size="10" fill="#6b7280">設定管理器</text>
</svg>
