<svg xmlns="http://www.w3.org/2000/svg" width="800" height="466">
<defs><marker id="arr_3b82f6" viewBox="0 0 10 10" refX="9" refY="5" markerWidth="6" markerHeight="6" orient="auto-start-reverse"><path d="M 0 0 L 10 5 L 0 10 z" fill="#3b82f6"/></marker>
<marker id="arr_6b7280" viewBox="0 0 10 10" refX="9" refY="5" markerWidth="6" markerHeight="6" orient="auto-start-reverse"><path d="M 0 0 L 10 5 L 0 10 z" fill="#6b7280"/></marker>
</defs>
<rect width="800" height="466" fill="#ffffff"/>
<rect x="80.0" y="30" width="160" height="34" rx="8" fill="#f0f4ff" stroke="#c7d2fe" stroke-width="1.5"/>
<text x="160.0" y="47.0" text-anchor="middle" font-family="-apple-system, 'Helvetica Neue', Arial, sans-serif" font-size="11" dominant-baseline="middle"><tspan x="160.0" dy="0" fill="#111827">kubelet</tspan></text>
<rect x="320.0" y="30" width="160" height="34" rx="8" fill="#f0f4ff" stroke="#c7d2fe" stroke-width="1.5"/>
<text x="400.0" y="39.5" text-anchor="middle" font-family="-apple-system, 'Helvetica Neue', Arial, sans-serif" font-size="11" dominant-baseline="middle"><tspan x="400.0" dy="0" fill="#111827">multus-shim (CNI</tspan><tspan x="400.0" dy="15" fill="#111827">Binary)</tspan></text>
<rect x="560.0" y="30" width="160" height="34" rx="8" fill="#f0f4ff" stroke="#c7d2fe" stroke-width="1.5"/>
<text x="640.0" y="39.5" text-anchor="middle" font-family="-apple-system, 'Helvetica Neue', Arial, sans-serif" font-size="11" dominant-baseline="middle"><tspan x="640.0" dy="0" fill="#111827">multus-daemon (HTTP</tspan><tspan x="640.0" dy="15" fill="#111827">Server)</tspan></text>
<line x1="160.0" y1="104" x2="160.0" y2="426" stroke="#e5e7eb" stroke-width="1" stroke-dasharray="4,3"/>
<line x1="400.0" y1="104" x2="400.0" y2="426" stroke="#e5e7eb" stroke-width="1" stroke-dasharray="4,3"/>
<line x1="640.0" y1="104" x2="640.0" y2="426" stroke="#e5e7eb" stroke-width="1" stroke-dasharray="4,3"/>
<line x1="160.0" y1="124" x2="400.0" y2="124" stroke="#3b82f6" stroke-width="1.5" stroke-dasharray="none" marker-end="url(#arr_3b82f6)"/>
<text x="280.0" y="119" text-anchor="middle" font-family="-apple-system, 'Helvetica Neue', Arial, sans-serif" font-size="10" fill="#6b7280">呼叫 CNI ADD（環境變數 + stdin）</text>
<rect x="396.0" y="124" width="8" height="12" fill="#dbeafe" stroke="#93c5fd" stroke-width="1"/>
<line x1="400.0" y1="166" x2="400.0" y2="166" stroke="#3b82f6" stroke-width="1.5" stroke-dasharray="none" marker-end="url(#arr_3b82f6)"/>
<text x="400.0" y="161" text-anchor="middle" font-family="-apple-system, 'Helvetica Neue', Arial, sans-serif" font-size="10" fill="#6b7280">封裝 CNI 請求為 HTTP JSON</text>
<rect x="396.0" y="166" width="8" height="12" fill="#dbeafe" stroke="#93c5fd" stroke-width="1"/>
<line x1="400.0" y1="208" x2="640.0" y2="208" stroke="#3b82f6" stroke-width="1.5" stroke-dasharray="none" marker-end="url(#arr_3b82f6)"/>
<text x="520.0" y="203" text-anchor="middle" font-family="-apple-system, 'Helvetica Neue', Arial, sans-serif" font-size="10" fill="#6b7280">POST /cni  {Env: {...}, Config: {...}} （Unix Socket）</text>
<rect x="636.0" y="208" width="8" height="12" fill="#dbeafe" stroke="#93c5fd" stroke-width="1"/>
<line x1="640.0" y1="250" x2="640.0" y2="250" stroke="#3b82f6" stroke-width="1.5" stroke-dasharray="none" marker-end="url(#arr_3b82f6)"/>
<text x="640.0" y="245" text-anchor="middle" font-family="-apple-system, 'Helvetica Neue', Arial, sans-serif" font-size="10" fill="#6b7280">解析請求，取得 K8sArgs</text>
<rect x="636.0" y="250" width="8" height="12" fill="#dbeafe" stroke="#93c5fd" stroke-width="1"/>
<line x1="640.0" y1="292" x2="640.0" y2="292" stroke="#3b82f6" stroke-width="1.5" stroke-dasharray="none" marker-end="url(#arr_3b82f6)"/>
<text x="640.0" y="287" text-anchor="middle" font-family="-apple-system, 'Helvetica Neue', Arial, sans-serif" font-size="10" fill="#6b7280">從 Informer 快取查詢 Pod/NAD</text>
<rect x="636.0" y="292" width="8" height="12" fill="#dbeafe" stroke="#93c5fd" stroke-width="1"/>
<line x1="640.0" y1="334" x2="640.0" y2="334" stroke="#3b82f6" stroke-width="1.5" stroke-dasharray="none" marker-end="url(#arr_3b82f6)"/>
<text x="640.0" y="329" text-anchor="middle" font-family="-apple-system, 'Helvetica Neue', Arial, sans-serif" font-size="10" fill="#6b7280">執行 CNI 委派（呼叫各個 CNI Binary）</text>
<rect x="636.0" y="334" width="8" height="12" fill="#dbeafe" stroke="#93c5fd" stroke-width="1"/>
<line x1="640.0" y1="376" x2="400.0" y2="376" stroke="#3b82f6" stroke-width="1.5" stroke-dasharray="5,3" marker-end="url(#arr_3b82f6)"/>
<text x="520.0" y="371" text-anchor="middle" font-family="-apple-system, 'Helvetica Neue', Arial, sans-serif" font-size="10" fill="#6b7280">HTTP 200 + CNI 結果 JSON</text>
<line x1="400.0" y1="418" x2="160.0" y2="418" stroke="#3b82f6" stroke-width="1.5" stroke-dasharray="5,3" marker-end="url(#arr_3b82f6)"/>
<text x="280.0" y="413" text-anchor="middle" font-family="-apple-system, 'Helvetica Neue', Arial, sans-serif" font-size="10" fill="#6b7280">輸出 CNI 結果（stdout）</text>
</svg>
